<svg xmlns="http://www.w3.org/2000/svg" viewBox="0 0 72.29 70.96"><defs><style>.cls-1{fill:#fff;}.cls-2{fill:#7aa42d;}.cls-3{fill:#8dc21f;}</style></defs><title>answer_ri</title><g id="圖層_2" data-name="圖層 2"><g id="圖層_1-2" data-name="圖層 1"><path class="cls-1" d="M36.81,70A34.55,34.55,0,0,1,11.51,58.9H2a1,1,0,0,1-.87-1.5l4.34-7.52a34.17,34.17,0,0,1-3.14-14.4A34.48,34.48,0,1,1,36.81,70Z"/><path class="cls-2" d="M36.81,2A33.48,33.48,0,1,1,12,57.9H2l4.6-8A33.49,33.49,0,0,1,36.81,2m0-2A35.52,35.52,0,0,0,1.33,35.48a35.15,35.15,0,0,0,3,14.34L.27,56.9A2,2,0,0,0,2,59.9h9.08A35.48,35.48,0,1,0,36.81,0Z"/><path class="cls-3" d="M49.65,48.8Q44.47,53.43,36,53.43T22.44,48.8q-5.18-4.63-5.18-12.5t5.16-12.37q5.15-4.5,13.64-4.5t13.64,4.5q5.15,4.5,5.16,12.37T49.65,48.8Zm-21-4.15a9.48,9.48,0,0,0,7.46,3.11,9.48,9.48,0,0,0,7.46-3.11A12.09,12.09,0,0,0,46.3,36.3q0-5.23-2.77-8.24a9.68,9.68,0,0,0-7.48-3,9.59,9.59,0,0,0-7.46,3q-2.74,3-2.74,8.24A12.09,12.09,0,0,0,28.62,44.65Z"/></g></g></svg>