<svg xmlns="http://www.w3.org/2000/svg" viewBox="0 0 72.29 70.96"><defs><style>.cls-1{fill:#fff;}.cls-2{fill:#7aa42d;}.cls-3{fill:#231815;}</style></defs><title>answer_df</title><g id="圖層_2" data-name="圖層 2"><g id="圖層_1-2" data-name="圖層 1"><path class="cls-1" d="M36.81,70A34.54,34.54,0,0,1,11.51,58.9H2a1,1,0,0,1-.87-1.5l4.34-7.52a34.17,34.17,0,0,1-3.14-14.4A34.48,34.48,0,1,1,36.81,70Z"/><path class="cls-2" d="M36.81,2A33.48,33.48,0,1,1,12,57.9H2l4.6-8A33.49,33.49,0,0,1,36.81,2m0-2A35.52,35.52,0,0,0,1.33,35.48a35.15,35.15,0,0,0,3,14.34L.27,56.9A2,2,0,0,0,2,59.9h9.08A35.48,35.48,0,1,0,36.81,0Z"/><path class="cls-3" d="M39.78,52.21a5.79,5.79,0,0,1-3.71,1.21,5.67,5.67,0,0,1-3.69-1.21,3.81,3.81,0,0,1,0-6.05,6.21,6.21,0,0,1,7.4,0,3.76,3.76,0,0,1,1.52,3A3.7,3.7,0,0,1,39.78,52.21ZM38,41.05a3.5,3.5,0,0,1-3.94,0,2.16,2.16,0,0,1-.94-1.51l-1-14.23L32,22.41a2.69,2.69,0,0,1,1.14-2.29,5,5,0,0,1,5.88,0,2.56,2.56,0,0,1,1.08,2.29L40,25.31,38.93,39.54A2,2,0,0,1,38,41.05Z"/></g></g></svg>