<svg xmlns="http://www.w3.org/2000/svg" viewBox="0 0 72.29 70.96"><defs><style>.cls-1{fill:#fff;}.cls-2{fill:#7aa42d;}.cls-3{fill:#c30d23;}</style></defs><title>answer_wr</title><g id="圖層_2" data-name="圖層 2"><g id="圖層_1-2" data-name="圖層 1"><path class="cls-1" d="M36.81,70A34.55,34.55,0,0,1,11.51,58.9H2a1,1,0,0,1-.87-1.5l4.34-7.52a34.17,34.17,0,0,1-3.14-14.4A34.48,34.48,0,1,1,36.81,70Z"/><path class="cls-2" d="M36.81,2A33.48,33.48,0,1,1,12,57.9H2l4.6-8A33.49,33.49,0,0,1,36.81,2m0-2A35.52,35.52,0,0,0,1.33,35.48a35.15,35.15,0,0,0,3,14.34L.27,56.9A2,2,0,0,0,2,59.9h9.08A35.48,35.48,0,1,0,36.81,0Z"/><path class="cls-3" d="M23.52,52.82a2.71,2.71,0,0,1-2.27-1,1.65,1.65,0,0,1-.44-1.08,1.68,1.68,0,0,1,.39-1L30.61,36.3a.74.74,0,0,0,0-.78L22,23.24a1.73,1.73,0,0,1-.39-1,1.65,1.65,0,0,1,.44-1.08A2.74,2.74,0,0,1,24.46,20a8.91,8.91,0,0,1,3.94.89,6.14,6.14,0,0,1,2.72,2.4l2.16,3.46q.5.78,1.5,2.47t1.61,2.59a.2.2,0,0,0,.19.13.2.2,0,0,0,.19-.13q1.44-2.94,2.72-5.06l2.11-3.59a5.93,5.93,0,0,1,2.55-2.29A8.25,8.25,0,0,1,47.91,20a2.71,2.71,0,0,1,2.27,1,1.92,1.92,0,0,1,.39,1.08,1.85,1.85,0,0,1-.33,1L41.48,35.82a.67.67,0,0,0,.06.78l9.26,13.06a1.73,1.73,0,0,1,.39,1,1.77,1.77,0,0,1-.44,1.08,2.72,2.72,0,0,1-2.33,1,9,9,0,0,1-4-.89,6.6,6.6,0,0,1-2.77-2.36l-2.61-4q-.56-.86-1.64-2.64l-1.63-2.68a.2.2,0,0,0-.33,0q-1.72,3.2-3,5.32l-2.55,4.15A6.13,6.13,0,0,1,27.26,52,8.49,8.49,0,0,1,23.52,52.82Z"/></g></g></svg>