<svg xmlns="http://www.w3.org/2000/svg" viewBox="0 0 96.97 199.61"><defs><style>.cls-1{fill:#fdebd1;}.cls-1,.cls-2,.cls-3,.cls-4,.cls-5,.cls-6,.cls-7,.cls-9{fill-rule:evenodd;}.cls-2{fill:#fff;}.cls-3{fill:#ee835c;}.cls-4{fill:#bd8a55;}.cls-5{fill:#888;}.cls-6{fill:#fff23f;}.cls-7{fill:#f19a86;}.cls-8{fill:#f7c6bd;}.cls-9{fill:#76491b;}</style></defs><title>boy</title><g id="圖層_2" data-name="圖層 2"><g id="圖層_1-2" data-name="圖層 1"><path class="cls-1" d="M59.94,15.72c1.14.9,2.35,1.72,3.41,2.71,2.05,1.93,4,4,6,5.94.42.42.84.84,1.29,1.22s1.43,0,1.42-.53c0-1.17-.09-2.34-.23-3.5s-.75-2.26,0-3.38c.31,0,.69-.06.87.09,3.55,2.91,7.1,5.82,10.58,8.82a8.51,8.51,0,0,1,1.85,2.49,4.44,4.44,0,0,1,.64,2.47c-.58,3.81-.88,7.74-2.09,11.35a72.16,72.16,0,0,1-13,23.66A13.74,13.74,0,0,1,64,71.75c-2.73.8-5.42,1.48-8.3.89a26.23,26.23,0,0,0-3.11-.13c-7.37-.61-14.31-2.43-20.38-6.92a9.27,9.27,0,0,1-3.67-4.88c-.7-2.42-1.36-4.86-1.84-7.32a26.78,26.78,0,0,1,1-14.47c1.21-3.34,2-6.83,3.08-10.21.82-2.53,1.84-5,2.82-7.49a3.77,3.77,0,0,1,1-1.46c2.15-1.82,4.32-3.61,6.55-5.33a2.39,2.39,0,0,1,2.51-.37,26.61,26.61,0,0,1,5.61,2.63c2.89,2.07,5.91,4,8.9,5.91.33.21,1,.35,1.21.17A2,2,0,0,0,60,21.35c-.21-1.74-.59-3.45-.9-5.18ZM50.08,64.61c2.81,1,5.21.29,7.44-2.39.95-1.14,1.81-2.35,2.66-3.56a.87.87,0,0,0-.48-1.41c-1.69-.56-3.41-1-5.13-1.47-2.59-.65-5.19-1.22-7.79-1.83-1.09-.25-1.64.1-1.87,1.25-.15.73-.24,1.46-.35,2.08C44.5,60.65,46.53,63.3,50.08,64.61Zm-6.45-32.4c-2.78,0-4.51,1.66-4.43,4.32.07,2.41,2,4.52,4,4.46,2.6-.09,4.39-1.71,4.36-4C47.53,34,46.11,32.23,43.63,32.21Zm24.6,7.2a3.44,3.44,0,0,0-2,3.62A3.77,3.77,0,0,0,69,46.59c1.68.53,3.28.57,4.43-.84,1.34-1.65,2-3.59,1.08-5.71-.66-1.46-2.05-1.46-3.9-1.46A13.08,13.08,0,0,0,68.24,39.41ZM62.1,51a1.57,1.57,0,0,0,.16-1.5c-1.19-1.29-2.51-2.45-3.82-3.62-.12-.1-.59,0-.73.16a.87.87,0,0,0-.15.78,12.06,12.06,0,0,0,1,1.4c.66.86.66,1.55-.42,2.09a2.42,2.42,0,0,0-.87.93,1,1,0,0,0,0,.82c.12.21.46.29,1,.6A40.11,40.11,0,0,0,62.1,51ZM44.37,23.59c-.11.32.12,1.1.24,1.11,2.86.23,4.84,1.91,6.66,3.9.12.13.58.08.77,0a.87.87,0,0,0,.36-.7,4.49,4.49,0,0,0-.67-1.6,9,9,0,0,0-6.55-3.44C44.94,23,44.48,23.25,44.37,23.59Zm27.8,8c-.23,0-.5.69-.47,1s.56.72.78.68a15,15,0,0,1,6.92,0c.25.07.63-.36,1-.55a4.71,4.71,0,0,0-.85-1.27,2.38,2.38,0,0,0-1.26-.22c-.73,0-1.46,0-2.19,0,0,0,0-.09,0-.13C74.75,31.25,73.45,31.35,72.17,31.6Z"/><path class="cls-2" d="M36.5,121.33c2.52,0,5,.08,7.56,0,1.47-.07,2.11-.81,2.23-2.25s.11-3,.19-4.44c.39-7.4.66-14.81,1.26-22.2.18-2.29,1.23-4.53,2-6.77a1.27,1.27,0,0,1,1.05-.54c.76.07.86.71.67,1.32a28.37,28.37,0,0,0-1,2.93,3.46,3.46,0,0,0,.29,2c.09.18,1.12.13,1.59-.1,7.54-3.6,6.56-1.93,4.68-9.61a11.6,11.6,0,0,0-3.16-5.75,6.21,6.21,0,0,0-5.28-1.69,3.23,3.23,0,0,0-1.81,1.09A6.71,6.71,0,0,1,42,77.63a5.23,5.23,0,0,1-5.58-3.51A9.29,9.29,0,0,1,36,72.41c-.22-1.18-.37-2.4-1.53-3.07-1.64-.95-3.07-2.45-5.17-2.32a58.92,58.92,0,0,0-14.36,2.72c-2,.64-2.14,1.19-1.57,3.36.64,2.44,1.27,4.87,2,7.28s2,2.86,4,2a22.81,22.81,0,0,1,3.39-1.06c1-.25,2,.62,1.58,1.48C22,87.76,21.65,93.16,20.88,98.38,20,104.19,18.36,110,19.29,116c.4,2.59.85,3.64,3.08,4.13a58.5,58.5,0,0,0,7.46,1.16C32,121.48,34.28,121.33,36.5,121.33Z"/><path class="cls-3" d="M27.94,159c0-5.38,0-11.9,0-18.43a19.46,19.46,0,0,1,.49-4c.37-1.72.94-2.08,2.8-2.12,1.16,0,1.72.36,1.84,1.42.23,2.06.36,4.14.61,6.2,1.06,9,2.14,18,4.6,26.7,1.12,4,1.84,8.07,2.85,12.08.54,2.17.78,2.26,3,2.42.59,0,1.18.1,1.78.09,3.15-.06,3.46-.35,3.5-3.66A208.15,208.15,0,0,0,48.13,158c-.56-6.05-.85-12.13-1.54-18.16-.56-4.85-1.52-9.66-2.3-14.49a1.72,1.72,0,0,0-1.79-1.6l-2.67-.13c-5.77-.35-11.54-.67-17.3-1.06-2-.13-2.69.15-3.19,2.13a83.88,83.88,0,0,0-2.13,10,81.12,81.12,0,0,0-.6,15.09,46,46,0,0,1-.08,5.33,89.36,89.36,0,0,0,1,19.52c.32,1.89.32,3.84.54,5.75a14.39,14.39,0,0,0,.65,3.47,2.2,2.2,0,0,0,1.62,1.22c6.77-.19,7,.66,7.11-6.23C27.54,172.62,27.74,166.4,27.94,159Z"/><path class="cls-4" d="M39.73,11.72c1.62-.35,2.83-.81,4.32,0a57.66,57.66,0,0,1,6.49,3.81c2.13,1.48,4.15,3.23,6.85,4.11.58-2.32-.58-4.07-.71-5.94,0-.41.08-1.12.29-1.2a1.94,1.94,0,0,1,1.55.08c2.24,1.69,4.41,3.47,6.58,5.25,1.35,1.11,2.44,2.59,4.59,3.11-.2-1.5-.44-2.77-.53-4.06-.06-.81-.51-2,.57-2.28.65-.15,1.59.48,2.28,1,1.1.75,2.09,1.65,3.11,2.51,3.63,3,7.25,6.1,10.9,9.12.4.33,1.28.83,1.39,0,.27-2,1.71-2.19,3.18-2.44a11.36,11.36,0,0,0,1.75-.11,1.18,1.18,0,0,0,.46-1.06c-.65-1.16-1.5-2.21-2.15-3.36-.91-1.61-.62-2.26,1.29-3.34a3.42,3.42,0,0,0,1.1-.73c.19-.26.29-.91.12-1.08a10.22,10.22,0,0,0-2.07-1.64c-4.74-2.75-9.35-5.69-14.4-7.91A38.45,38.45,0,0,0,61.22,2c-3.71,0-7.41-.14-11.11-.2-.44,0-.89,0-1.33,0-4.41,0-8.63,2.57-8.88,8C39.87,10.34,39.8,10.91,39.73,11.72Z"/><path class="cls-1" d="M13.66,111.2c1.85,0,2.9-.66,3.4-2.38a26.3,26.3,0,0,0,.81-4.35,2.54,2.54,0,0,0-2.5-3c-.57-.07-1.2.2-1.75.09a2.16,2.16,0,0,1-1.39-.81,49.65,49.65,0,0,1-3-6.4,25,25,0,0,1-1.09-5.6,5.45,5.45,0,0,1,2.25-5c.23-.18.45-.38.67-.58.85-.78,2.39-1.24,2.23-2.55A16.93,16.93,0,0,0,11.71,76a1.62,1.62,0,0,0-1.49-.51c-3,1.1-5.59,2.87-6.44,6.16-.74,2.85-1.21,5.78-1.68,8.7-.37,2.31.67,4.39,1.64,6.33a33.58,33.58,0,0,0,3.52,5.07,2.6,2.6,0,0,1,.57,2.87,4.28,4.28,0,0,0,.29,4.61c1,1.58,2.72,1.61,4.32,1.84C12.88,111.14,13.32,111.16,13.66,111.2Z"/><path class="cls-1" d="M61.45,104.14c3.75-.55,6.93-1.58,8.86-4.83.56-.93.38-1.63-.7-2.05-1.32-.52-2.49-1.3-4.17-.57-3.57,1.55-5.75.66-8.3-2.79-.41-.55-1.12-1.45-1.48-1.36a15.07,15.07,0,0,0-3.55,1.61c-.25.14-.37.87-.24,1.22,1.43,4.07,3.77,7.31,8.12,8.65a3.82,3.82,0,0,0,.86.17A2.74,2.74,0,0,0,61.45,104.14Z"/><path class="cls-5" d="M30.77,197.38c.23,0,.66-.09,1.09-.18a1.87,1.87,0,0,0,1.46-1.92c-.21-2.93-3.65-7-6.46-7.64-.43-.1-.87-.09-1.31-.16-1.3-.23-2.94-.76-3.74.33-1,1.38-.29,3.07.5,4.54A9.94,9.94,0,0,0,30.77,197.38Z"/><path class="cls-1" d="M66.77,90.81c.19,2.5,3.43,5,6,4.51a7.12,7.12,0,0,0,4.75-3c1.1-1.61,1.41-3.22.23-4.92-.34-.48-.64-1-1-1.48-1.92-2.7-2.54-2.71-3.89.24A4.72,4.72,0,0,1,68.32,89C67.23,89.09,66.74,89.68,66.77,90.81Z"/><path class="cls-4" d="M27.7,20.71c.48,1.43-.82,3.65,1,5.29,1.72-1.18,1.74-3.28,2.65-4.91A8,8,0,0,0,32,19.44c.56-1.91,1.19-3.53,3.72-3.67a2.36,2.36,0,0,0,2.2-2.38c0-1-1.11-1.85-2.62-2-5.76-.56-8.16,0-7.72,6.64C27.63,18.78,27.64,19.52,27.7,20.71Z"/><path class="cls-5" d="M53.2,195.65c2,.05,3-1.2,2.45-3.11a6.23,6.23,0,0,0-.71-1.61,12.44,12.44,0,0,0-8.31-5.37c-2.43-.5-3.38.65-2.7,3A10.68,10.68,0,0,0,53.2,195.65Z"/><path class="cls-6" d="M68.09,86.65a3,3,0,0,0,2.7-4.39,27,27,0,0,0-4-5.72c-.57-.66-1.85-.77-2.84-1-.28-.06-.82.39-1,.73a1.58,1.58,0,0,0,0,1.21,3.4,3.4,0,0,0,.88,1,1.77,1.77,0,0,1,.51,2.36,3,3,0,0,0-.18.4C62.79,85.18,63.84,86.65,68.09,86.65Z"/><path class="cls-1" d="M24.85,40.43c.94-2.59,1.86-5,2.69-7.52a1.3,1.3,0,0,0-.42-1.11,1.88,1.88,0,0,0-2,.08,4.13,4.13,0,0,0-2.33,3.95C22.85,37.43,22.63,39.41,24.85,40.43Z"/><path class="cls-2" d="M42.19,75.66A6.69,6.69,0,0,0,43.54,75a1.9,1.9,0,0,0,.59-1c0-.16-.28-.53-.51-.61-1.53-.55-3.07-1.06-4.63-1.53a.88.88,0,0,0-.71.37,1,1,0,0,0-.1.83A4.08,4.08,0,0,0,42.19,75.66Z"/><path class="cls-7" d="M48.16,56.47a1.63,1.63,0,0,0-1.63,2.07c.66,2.62,4.47,5.06,6.9,4.13,1.13-.44,2-1.61,2.92-2.53a1.11,1.11,0,0,0-.5-1.78c-1.39-.46-2.81-.88-4.23-1.23C50.49,56.84,49.32,56.68,48.16,56.47Z"/><path class="cls-8" d="M31.39,43.36A3.73,3.73,0,0,1,36.47,42l.81.53a3.64,3.64,0,0,1,4.24,1.63c.95,1.62.51,4.24-1.33,5.08a7.09,7.09,0,0,1-4.6.66,8,8,0,0,1-2.86-1.49A3.77,3.77,0,0,1,31.39,43.36Z"/><path class="cls-8" d="M66.23,52.1a3.73,3.73,0,0,1,4.91-.27h.2a3.71,3.71,0,0,1,0,7.43,7.07,7.07,0,0,1-5.1-1.91A3.74,3.74,0,0,1,66.23,52.1Z"/><path class="cls-9" d="M29.75,142.82q-.29,20.71-.56,41.41a3.08,3.08,0,0,0,1.41,3,9.77,9.77,0,0,1,3.54,4.48c1,2,2,4.13.49,6.3-1.16,1.7-4.07,2-7,.87-4.1-1.59-7.1-4.22-8.25-8.66a5.05,5.05,0,0,0-1.27-2.7,4.33,4.33,0,0,1-1.57-3.5c-.81-8.86-2.3-17.67-1.83-26.63a53.69,53.69,0,0,0,.13-5.79,96.23,96.23,0,0,1,2.89-28.25,5.52,5.52,0,0,0,.2-3,15.86,15.86,0,0,1-1-5.65c0-1.11-.78-1.42-1.82-1.4-1.63,0-3.26,0-4.89-.1A3.78,3.78,0,0,1,7,111.15c-.83-1.72-2-3.6-1.88-5.35A7.1,7.1,0,0,0,3.47,101C.74,97.06-.63,92.76.28,88,.75,85.49,1.4,83,1.94,80.59a6.5,6.5,0,0,1,2.68-4c1.57-1.12,3.23-2.12,4.74-3.3a3.53,3.53,0,0,0,1-1.8c.21-.8-.12-1.91.32-2.44a4.84,4.84,0,0,1,2.43-1c1.58-.41,3.18-.73,4.77-1.09,2.89-.66,5.79-1.3,8.67-2,1.12-.27,1.36-.89.94-2-.62-1.66-1.31-3.3-1.83-5a37.74,37.74,0,0,1-1.42-11.89,4.87,4.87,0,0,0-1.19-3.68,10.07,10.07,0,0,1-2.25-6.16c-.23-2.39.45-4.7,2.61-5.75,2.71-1.32,3.07-3.18,2.63-5.78A39.4,39.4,0,0,1,25.64,19a25.41,25.41,0,0,1,.23-4.87A5.66,5.66,0,0,1,31.76,9.2a32.76,32.76,0,0,1,3.54.32c2,.18,2.12.23,2.72-1.94C39.47,2.32,43.19.29,48.27,0c.59,0,1.19,0,1.78,0C54.36,0,58.67.12,63,.09A26.76,26.76,0,0,1,75.06,2.68q7,3.42,13.83,7.15c2.47,1.34,4.85,2.89,7.18,4.46,1.3.87,1.15,2-.24,2.76-.64.36-1.37.56-2,.88-1.33.64-1.45,1.17-.63,2.4,1,1.48,2,2.94,2.9,4.47.52.89-.05,1.77-1.12,1.87s-2.08.08-3.11.17a1.6,1.6,0,0,0-1.64,1.71c0,1,.08,2.14-.86,2.88-1.43,1.12-1.65,2.72-1.94,4.34-.47,2.62-.9,5.27-1.58,7.84C83.93,50.72,80.27,57,76.49,63.23a70.68,70.68,0,0,1-5.34,7.12A12.81,12.81,0,0,1,69.1,72c-.63.51-1.25,1.05-1.76,1.49,1.36,1.76,2.49,3.3,3.7,4.78a7.84,7.84,0,0,0,3.38,2.81c2.43.85,3.71,2.88,4.86,5,2.21,4,1.68,7.05-2.19,9.6a21.61,21.61,0,0,0-5.56,5.59,12.23,12.23,0,0,1-15.18,3.4A11,11,0,0,1,51,98.93c-.25-.66-.53-1.42-1.68-1.19-.09,2.93-.14,5.88-.28,8.83-.2,4.3-.49,8.59-.68,12.88-.08,1.73.57,3.63-1.6,4.66-.25.12-.34.8-.31,1.21.12,1.33.33,2.65.5,4,.45,3.38,1,6.76,1.32,10.15.45,4.87.57,9.77,1.1,14.63,1,9.45,1.86,18.91,2.17,28.41a4.41,4.41,0,0,0,2.08,4.09,9.36,9.36,0,0,1,4.24,6.54,3.9,3.9,0,0,1-3.68,4.56c-4.4,0-10.31-3.57-11.81-7.59-1.8-4.81-3.85-9.55-4.61-14.71-.39-2.63-1.16-5.21-1.75-7.81s-1.25-4.9-1.63-7.39c-1-6.6-1.85-13.23-2.78-19.84-.1-.68-.29-1.35-.52-2.41C29.57,139.58,29.77,141.24,29.75,142.82ZM60,21.35a2,2,0,0,1-.73,1.42c-.2.18-.88,0-1.21-.17-3-1.93-6-3.83-8.9-5.91a26.61,26.61,0,0,0-5.61-2.63,2.39,2.39,0,0,0-2.51.37c-2.23,1.72-4.4,3.51-6.55,5.33a3.77,3.77,0,0,0-1,1.46c-1,2.48-2,5-2.82,7.49-1.1,3.38-1.87,6.87-3.08,10.21a26.78,26.78,0,0,0-1,14.47c.48,2.47,1.14,4.91,1.84,7.32a9.27,9.27,0,0,0,3.67,4.88c6.07,4.49,13,6.32,20.38,6.92a26.23,26.23,0,0,1,3.11.13c2.88.59,5.57-.09,8.3-.89a13.74,13.74,0,0,0,6.83-4.68,72.16,72.16,0,0,0,13-23.66c1.22-3.61,1.52-7.54,2.09-11.35a4.44,4.44,0,0,0-.64-2.47,8.51,8.51,0,0,0-1.85-2.49c-3.48-3-7-5.9-10.58-8.82-.18-.15-.56-.07-.87-.09-.79,1.12-.17,2.24,0,3.38s.2,2.33.23,3.5c0,.49-1,.86-1.42.53s-.87-.8-1.29-1.22c-2-2-4-4-6-5.94-1.06-1-2.27-1.81-3.41-2.71l-.82.46C59.44,17.9,59.82,19.62,60,21.35Zm-16,99.95c1.47-.07,2.11-.81,2.23-2.25s.11-3,.19-4.44c.39-7.4.66-14.81,1.26-22.2.18-2.29,1.23-4.53,2-6.77a1.27,1.27,0,0,1,1.05-.54c.76.07.86.71.67,1.32a28.37,28.37,0,0,0-1,2.93,3.46,3.46,0,0,0,.29,2c.09.18,1.12.13,1.59-.1,7.54-3.6,6.56-1.93,4.68-9.61a11.6,11.6,0,0,0-3.16-5.75,6.21,6.21,0,0,0-5.28-1.69,3.23,3.23,0,0,0-1.81,1.09A6.71,6.71,0,0,1,42,77.63a5.23,5.23,0,0,1-5.58-3.51A9.29,9.29,0,0,1,36,72.41c-.22-1.18-.37-2.4-1.53-3.07-1.64-.95-3.07-2.45-5.17-2.32a58.92,58.92,0,0,0-14.36,2.72c-2,.64-2.14,1.19-1.57,3.36.64,2.44,1.27,4.87,2,7.28s2,2.86,4,2a22.81,22.81,0,0,1,3.39-1.06c1-.25,2,.62,1.58,1.48C22,87.76,21.65,93.16,20.88,98.38,20,104.19,18.36,110,19.29,116c.4,2.59.85,3.64,3.08,4.13a58.5,58.5,0,0,0,7.46,1.16c2.21.19,4.44,0,6.67,0C39,121.33,41.55,121.41,44.06,121.3ZM28,140.6a19.46,19.46,0,0,1,.49-4c.37-1.72.94-2.08,2.8-2.12,1.16,0,1.72.36,1.84,1.42.23,2.06.36,4.14.61,6.2,1.06,9,2.14,18,4.6,26.7,1.12,4,1.84,8.07,2.85,12.08.54,2.17.78,2.26,3,2.42.59,0,1.18.1,1.78.09,3.15-.06,3.46-.35,3.5-3.66A208.15,208.15,0,0,0,48.13,158c-.56-6.05-.85-12.13-1.54-18.16-.56-4.85-1.52-9.66-2.3-14.49a1.72,1.72,0,0,0-1.79-1.6l-2.67-.13c-5.77-.35-11.54-.67-17.3-1.06-2-.13-2.69.15-3.19,2.13a83.88,83.88,0,0,0-2.13,10,81.12,81.12,0,0,0-.6,15.09,46,46,0,0,1-.08,5.33,89.36,89.36,0,0,0,1,19.52c.32,1.89.32,3.84.54,5.75a14.39,14.39,0,0,0,.65,3.47,2.2,2.2,0,0,0,1.62,1.22c6.77-.19,7,.66,7.11-6.23.14-6.22.33-12.45.54-19.82C27.94,153.65,27.91,147.12,28,140.6ZM44.05,11.68a57.66,57.66,0,0,1,6.49,3.81c2.13,1.48,4.15,3.23,6.85,4.11.58-2.32-.58-4.07-.71-5.94,0-.41.08-1.12.29-1.2a1.94,1.94,0,0,1,1.55.08c2.24,1.69,4.41,3.47,6.58,5.25,1.35,1.11,2.44,2.59,4.59,3.11-.2-1.5-.44-2.77-.53-4.06-.06-.81-.51-2,.57-2.28.65-.15,1.59.48,2.28,1,1.1.75,2.09,1.65,3.11,2.51,3.63,3,7.25,6.1,10.9,9.12.4.33,1.28.83,1.39,0,.27-2,1.71-2.19,3.18-2.44a11.36,11.36,0,0,0,1.75-.11,1.18,1.18,0,0,0,.46-1.06c-.65-1.16-1.5-2.21-2.15-3.36-.91-1.61-.62-2.26,1.29-3.34a3.42,3.42,0,0,0,1.1-.73c.19-.26.29-.91.12-1.08a10.22,10.22,0,0,0-2.07-1.64c-4.74-2.75-9.35-5.69-14.4-7.91A38.45,38.45,0,0,0,61.22,2c-3.71,0-7.41-.14-11.11-.2-.44,0-.89,0-1.33,0-4.41,0-8.63,2.57-8.88,8,0,.56-.09,1.13-.16,1.93C41.35,11.37,42.56,10.9,44.05,11.68Zm-27,97.14a26.3,26.3,0,0,0,.81-4.35,2.54,2.54,0,0,0-2.5-3c-.57-.07-1.2.2-1.75.09a2.16,2.16,0,0,1-1.39-.81,49.65,49.65,0,0,1-3-6.4,25,25,0,0,1-1.09-5.6,5.45,5.45,0,0,1,2.25-5c.23-.18.45-.38.67-.58.85-.78,2.39-1.24,2.23-2.55A16.93,16.93,0,0,0,11.71,76a1.62,1.62,0,0,0-1.49-.51c-3,1.1-5.59,2.87-6.44,6.16-.74,2.85-1.21,5.78-1.68,8.7-.37,2.31.67,4.39,1.64,6.33a33.58,33.58,0,0,0,3.52,5.07,2.6,2.6,0,0,1,.57,2.87,4.28,4.28,0,0,0,.29,4.61c1,1.58,2.72,1.61,4.32,1.84.44.06.88.09,1.23.12C15.51,111.2,16.57,110.54,17.06,108.82Zm3.68-23.76c-.15-.32-.68-.72-1-.67-1,.2-2,.7-3,.84a2.49,2.49,0,0,1-2-.43c-.94-1.19-1.75-.74-2.65-.12a4.93,4.93,0,0,0-2.31,5,14.58,14.58,0,0,0,3.6,8,3.83,3.83,0,0,0,1.37,1.11c2.6,1,3.7.89,4.2-1.86.64-3.49,1.3-7,2-10.46l-.22,0A3.39,3.39,0,0,0,20.74,85.06ZM70.32,99.3c.56-.93.38-1.63-.7-2.05-1.32-.52-2.49-1.3-4.17-.57-3.57,1.55-5.75.66-8.3-2.79-.41-.55-1.12-1.45-1.48-1.36a15.07,15.07,0,0,0-3.55,1.61c-.25.14-.37.87-.24,1.22,1.43,4.07,3.77,7.31,8.12,8.65a3.82,3.82,0,0,0,.86.17,2.74,2.74,0,0,0,.58,0C65.21,103.58,68.38,102.55,70.32,99.3ZM31.87,197.2a1.87,1.87,0,0,0,1.46-1.92c-.21-2.93-3.65-7-6.46-7.64-.43-.1-.87-.09-1.31-.16-1.3-.23-2.94-.76-3.74.33-1,1.38-.29,3.07.5,4.54a9.94,9.94,0,0,0,8.45,5C31,197.35,31.44,197.29,31.87,197.2ZM72.79,95.32a7.12,7.12,0,0,0,4.75-3c1.1-1.61,1.41-3.22.23-4.92-.34-.48-.64-1-1-1.48-1.92-2.7-2.54-2.71-3.89.24A4.72,4.72,0,0,1,68.32,89c-1.09.05-1.58.64-1.56,1.77C67,93.31,70.2,95.82,72.79,95.32ZM28.72,26c1.72-1.18,1.74-3.28,2.65-4.91A8,8,0,0,0,32,19.44c.56-1.91,1.19-3.53,3.72-3.67a2.36,2.36,0,0,0,2.2-2.38c0-1-1.11-1.85-2.62-2-5.76-.56-8.16,0-7.72,6.64,0,.74.07,1.47.12,2.66C28.17,22.14,26.88,24.35,28.72,26ZM55.65,192.53a6.23,6.23,0,0,0-.71-1.61,12.44,12.44,0,0,0-8.31-5.37c-2.43-.5-3.38.65-2.7,3a10.68,10.68,0,0,0,9.26,7.13C55.22,195.7,56.23,194.44,55.65,192.53ZM70.8,82.26a27,27,0,0,0-4-5.72c-.57-.66-1.85-.77-2.84-1-.28-.06-.82.39-1,.73a1.58,1.58,0,0,0,0,1.21,3.4,3.4,0,0,0,.88,1,1.77,1.77,0,0,1,.51,2.36,3,3,0,0,0-.18.4c-1.47,3.93-.42,5.4,3.84,5.4A3,3,0,0,0,70.8,82.26Zm-9.36-.18a3.15,3.15,0,0,0-.65-3.66,6.08,6.08,0,0,1-.7-2.06,2.49,2.49,0,0,0-3.52-1.18,1.17,1.17,0,0,0,0,1.13c2.62,3.43,3,7.66,4.21,11.6.39,1.34.31,2.65-1.36,3.29-.22.09-.35,1.12-.14,1.51a4,4,0,0,0,4.44,2.19A1.43,1.43,0,0,0,65,93.08a17.36,17.36,0,0,1-.38-2.18,3.34,3.34,0,0,0-1.78-3.29c-1.46-.79-1.83-2.24-1.84-4A8.21,8.21,0,0,1,61.43,82.08ZM27.55,32.91a1.3,1.3,0,0,0-.42-1.11,1.88,1.88,0,0,0-2,.08,4.13,4.13,0,0,0-2.33,3.95c.07,1.61-.14,3.58,2.08,4.6C25.8,37.84,26.71,35.39,27.55,32.91ZM43.54,75a1.9,1.9,0,0,0,.59-1c0-.16-.28-.53-.51-.61-1.53-.55-3.07-1.06-4.63-1.53a.88.88,0,0,0-.71.37,1,1,0,0,0-.1.83,4.08,4.08,0,0,0,4,2.63A6.69,6.69,0,0,0,43.54,75Z"/><path class="cls-9" d="M44.92,55.2c.23-1.16.78-1.51,1.87-1.25,2.6.61,5.2,1.18,7.79,1.83,1.73.43,3.44.91,5.13,1.47a.87.87,0,0,1,.48,1.41c-.85,1.21-1.71,2.43-2.66,3.56-2.24,2.68-4.64,3.42-7.44,2.39-3.55-1.31-5.58-4-5.51-7.33C44.67,56.66,44.77,55.93,44.92,55.2Zm1.62,3.34c.66,2.62,4.47,5.06,6.9,4.13,1.13-.44,2-1.61,2.92-2.53a1.11,1.11,0,0,0-.5-1.78c-1.39-.46-2.81-.88-4.23-1.23-1.14-.28-2.31-.44-3.47-.66A1.63,1.63,0,0,0,46.54,58.54Z"/><path class="cls-9" d="M47.56,37c0-3.05-1.45-4.8-3.93-4.82-2.78,0-4.51,1.66-4.43,4.32.07,2.41,2,4.52,4,4.46C45.8,40.9,47.59,39.28,47.56,37Z"/><path class="cls-9" d="M70.64,38.57a13.08,13.08,0,0,0-2.41.84,3.44,3.44,0,0,0-2,3.62A3.77,3.77,0,0,0,69,46.59c1.68.53,3.28.57,4.43-.84,1.34-1.65,2-3.59,1.08-5.71C73.88,38.58,72.49,38.57,70.64,38.57Z"/><path class="cls-9" d="M58.33,52.71A40.11,40.11,0,0,0,62.1,51a1.57,1.57,0,0,0,.16-1.5c-1.19-1.29-2.51-2.45-3.82-3.62-.12-.1-.59,0-.73.16a.87.87,0,0,0-.15.78,12.06,12.06,0,0,0,1,1.4c.66.86.66,1.55-.42,2.09a2.42,2.42,0,0,0-.87.93,1,1,0,0,0,0,.82C57.43,52.32,57.78,52.4,58.33,52.71Z"/><path class="cls-9" d="M45.18,22.82c-.24.21-.7.43-.81.77s.12,1.1.24,1.11c2.86.23,4.84,1.91,6.66,3.9.12.13.58.08.77,0a.87.87,0,0,0,.36-.7,4.49,4.49,0,0,0-.67-1.6A9,9,0,0,0,45.18,22.82Z"/><path class="cls-9" d="M76,31.09c-1.3.15-2.6.26-3.88.5-.23,0-.5.69-.47,1s.56.72.78.68a15,15,0,0,1,6.92,0c.25.07.63-.36,1-.55a4.71,4.71,0,0,0-.85-1.27,2.38,2.38,0,0,0-1.26-.22c-.73,0-1.46,0-2.19,0C76.06,31.18,76.05,31.14,76,31.09Z"/></g></g></svg>