<svg xmlns="http://www.w3.org/2000/svg" viewBox="0 0 45 45"><defs><style>.cls-1{fill:#023f63;}.cls-2{fill:#fff;}</style></defs><title>download</title><g id="圖層_2" data-name="圖層 2"><g id="圖層_1-2" data-name="圖層 1"><path class="cls-1" d="M3.12,0H41.88A3.13,3.13,0,0,1,45,3.13V41.88A3.12,3.12,0,0,1,41.88,45H3.12A3.12,3.12,0,0,1,0,41.88V3.12A3.12,3.12,0,0,1,3.12,0Z"/><g id="NmBYPi"><path class="cls-2" d="M22.5,35.62H11c-1.25,0-1.65-.4-1.65-1.64,0-1.7,0-3.39,0-5.09,0-1,.46-1.46,1.48-1.46,2.24,0,4.49,0,6.73,0a1.53,1.53,0,0,1,.91.39c.69.63,1.33,1.32,2,2a2.65,2.65,0,0,0,4,0c.67-.65,1.3-1.35,2-2a1.62,1.62,0,0,1,1-.4c2.22,0,4.45,0,6.67,0,1,0,1.48.46,1.48,1.46,0,1.76,0,3.51,0,5.27a1.28,1.28,0,0,1-1.47,1.47Zm6.75-2.44a1,1,0,0,0-2,0,1,1,0,0,0,1,1A1,1,0,0,0,29.25,33.18Zm3.28,0a1,1,0,1,0-1,1A1,1,0,0,0,32.53,33.18Z"/><path class="cls-2" d="M19.22,14.62c0-1.27,0-2.54,0-3.81a1.27,1.27,0,0,1,1.45-1.44h3.63c1,0,1.48.46,1.48,1.47,0,2.54,0,5.07,0,7.61,0,.58.16.79.76.77,1.17,0,2.34,0,3.51,0a1.09,1.09,0,0,1,1.15.63,1.08,1.08,0,0,1-.33,1.27q-3.77,3.77-7.54,7.53a1,1,0,0,1-1.63,0q-3.8-3.78-7.58-7.57a1,1,0,0,1,.77-1.86c1.23,0,2.46,0,3.69,0,.52,0,.68-.18.67-.68C19.2,17.24,19.22,15.93,19.22,14.62Z"/></g></g></g></svg>