<svg xmlns="http://www.w3.org/2000/svg" xmlns:xlink="http://www.w3.org/1999/xlink" viewBox="0 0 300.75 300.75"><defs><style>.cls-1,.cls-16,.cls-3{fill:#fff;}.cls-1,.cls-10,.cls-2,.cls-22,.cls-6,.cls-7,.cls-8{stroke:#00913a;}.cls-1,.cls-10,.cls-11,.cls-2,.cls-22,.cls-6,.cls-7,.cls-8,.cls-9{stroke-linecap:round;stroke-miterlimit:10;}.cls-1,.cls-2,.cls-22{stroke-width:0.75px;stroke-dasharray:6.73 5.23;}.cls-2{fill:#f29600;}.cls-4{clip-path:url(#clip-path);}.cls-5,.cls-7{fill:#8dc21f;}.cls-22,.cls-6,.cls-9{fill:none;}.cls-10,.cls-11,.cls-6,.cls-7,.cls-8,.cls-9{stroke-width:0.9px;}.cls-6,.cls-7{stroke-dasharray:1.81 1.81;}.cls-8{fill:#dadf00;}.cls-10,.cls-8{stroke-dasharray:0.58 1.16;}.cls-11,.cls-9{stroke:#006934;}.cls-10{fill:#1eaa39;}.cls-11{fill:#f7f7f7;}.cls-12{fill:#fdebd1;}.cls-12,.cls-13,.cls-14,.cls-15,.cls-16,.cls-17,.cls-19,.cls-20,.cls-21{fill-rule:evenodd;}.cls-13{fill:#f8c170;}.cls-14{fill:#bd8a55;}.cls-15{fill:#f09ba5;}.cls-17{fill:#dbdcdc;}.cls-18{fill:#f7c6bd;}.cls-19{fill:#76491b;}.cls-20{fill:#ffe792;}.cls-21{fill:#81c0e9;}</style><clipPath id="clip-path"><rect class="cls-1" x="12.61" y="12.61" width="275.54" height="275.54" rx="137.77" ry="137.77"/></clipPath></defs><title>event_02</title><g id="圖層_2" data-name="圖層 2"><g id="圖層_1-2" data-name="圖層 1"><rect class="cls-2" x="0.37" y="0.37" width="300" height="300" rx="150" ry="150"/><rect class="cls-3" x="12.61" y="12.61" width="275.54" height="275.54" rx="137.77" ry="137.77"/><g class="cls-4"><path class="cls-5" d="M37.07,147.35c-5.14,0-7.19,29.1,1.05,48.15C49.71,222.28,69.6,245.9,90.34,248c66.36,6.77,43.64-21.52,94.8-18.51s68.47-3.91,79.3-43S256,147.35,237.8,147.35Z"/><line class="cls-6" x1="26.68" y1="147.35" x2="275.27" y2="147.35"/><path class="cls-7" d="M131.47,131.8a11.61,11.61,0,0,0-7,2.31,14.46,14.46,0,0,0-16.75-9.8,14.4,14.4,0,0,0-16.71-5.83,14.43,14.43,0,0,0-23.87,4.47,14.32,14.32,0,0,0-15.73,8.84,12.23,12.23,0,1,0-4.54,23.58c4.41,0,80-.21,84.55-.21a11.68,11.68,0,0,0,0-23.36Z"/><path class="cls-6" d="M150.22,64.34c0-.17,0-.33,0-.5a8.56,8.56,0,0,0-11.71-8,12.26,12.26,0,0,0-19.14-3.34,12.28,12.28,0,0,0-18,10.86c0,.06,0,.12,0,.19a8.57,8.57,0,0,0,6,16.05,12.27,12.27,0,0,0,17,5.9A8.56,8.56,0,0,0,138,84a12.24,12.24,0,0,0,7.16-3.68,8.58,8.58,0,1,0,5.09-16Z"/><circle class="cls-8" cx="157.15" cy="134.25" r="9.14"/><line class="cls-9" x1="157.38" y1="138.49" x2="157.38" y2="151.07"/><line class="cls-9" x1="157.38" y1="140.86" x2="160.31" y2="138.68"/><line class="cls-9" x1="157.38" y1="142.54" x2="154.21" y2="139.37"/><circle class="cls-10" cx="253.42" cy="129.13" r="12.72"/><line class="cls-11" x1="253.75" y1="135.03" x2="253.75" y2="152.53"/><line class="cls-11" x1="253.75" y1="138.32" x2="257.82" y2="135.29"/><line class="cls-11" x1="253.75" y1="140.65" x2="249.34" y2="136.24"/><path class="cls-12" d="M89.94,104.76c-.64,1.34-1.19,2.46-1.71,3.61a4.21,4.21,0,0,0-.4,1.29c-.09.91.42,1.21,1.25.84q3.23-1.43,6.48-2.81a14.47,14.47,0,0,1,1.73-.46c-.48,1.15-.86,2-1.19,2.84a3.79,3.79,0,0,0-.33,1.27c0,1.26.6,1.73,1.82,1.37,1.63-.48,3.23-1,4.85-1.55.53-.17,1.06-.3,1.82-.52-.16,1-.32,1.77-.44,2.59a4.63,4.63,0,0,0,0,2.66c.46,1.07.89,1.37,1.94.95s1.9-.92,2.85-1.38c.5-.24,1-.45,1.5-.71s.83-.11,1,.51a19.79,19.79,0,0,0,4.62,7.33,7.41,7.41,0,0,0,2.41,1.9c.52.21.6.59.62,1.08a23.53,23.53,0,0,1-1.12,7.26c-.26,1-.69,1.88-1,2.84-.48,1.63-1.85,2.62-2.88,3.8-2.15,2.46-4.41,4.8-7.79,5.72a17.85,17.85,0,0,0-4.28,2.21,6.36,6.36,0,0,1-3,.76c-1.46.09-2.91.22-4.37.25a18.52,18.52,0,0,1-3-.15,25.17,25.17,0,0,1-4.42-.85,34.24,34.24,0,0,1-5.24-2.26,20.5,20.5,0,0,1-6.6-5.87,15.42,15.42,0,0,1-2.88-5.93c-.22-1-.55-1.93-.78-2.9-.56-2.32,0-4.6.4-6.86.39-2,.89-4,1.34-6,.61-2.72,2-5.13,3.12-7.65a1.59,1.59,0,0,1,.7-.76c3.94-1.75,7.84-3.62,12.14-4.4A5.24,5.24,0,0,1,89.94,104.76Zm10.32,23.7c0,1.69,1.11,3.5,2.16,3.67a3.32,3.32,0,0,0,3.34-2.47,4,4,0,0,0-.21-1.87c-.38-1.27-2-2.64-3-2.48-1.33.21-1.72,1.4-2.15,2.47A2.1,2.1,0,0,0,100.26,128.46Zm-19.74-7.83a4.45,4.45,0,0,0-1.16.7c-2,2-.78,4.34,1.25,5.41,1.28.67,1.57.47,2.6-.52a2.84,2.84,0,0,0,.55-3.46A3.72,3.72,0,0,0,80.52,120.63Zm10.13,22a7.66,7.66,0,0,0,4.61-1.29,3.61,3.61,0,0,0,1.65-2.22,3,3,0,0,0-.16-.94,5.2,5.2,0,0,0-1.12.25.9.9,0,0,0-.38.62c-.14.89-.84,1.19-1.51,1.53a6.94,6.94,0,0,1-5,.21,3.53,3.53,0,0,1-3-3.11c0-.25-.26-.47-.39-.7-.25.15-.63.25-.71.47a2.4,2.4,0,0,0-.22,1.39,4.42,4.42,0,0,0,.89,1.54C86.71,142.09,88.84,142.23,90.65,142.58Zm19.88-18.51a9.35,9.35,0,0,0-2.86-3.74,10.59,10.59,0,0,0-2.12-1.08,4.14,4.14,0,0,0-5.49,1.92c-.22.48-.44,1,.1,1.35s.78-.18,1.05-.51.29-.41.47-.59a3.13,3.13,0,0,1,3.59-.69c1.44.57,2,2.17,3.29,2.84.12.06.12.36.19.55a4.58,4.58,0,0,0,.29.69c.4.69.78.68,1.19,0C110.35,124.54,110.43,124.3,110.53,124.07ZM80.37,113.29a4.38,4.38,0,0,0-3.68,2.87,1,1,0,0,0,0,.45c.06.23.13.53.3.62s.45-.08.61-.22c.34-.29.62-.65.94-1,1.77-1.77,4-1.34,5.11,1a4.72,4.72,0,0,0,.5.91.62.62,0,0,0,.53.14c.34-.09.7-1,.56-1.39A6.35,6.35,0,0,0,80.37,113.29Zm9.5,17.1c-.11-.15-.21-.37-.28-.36-.37,0-.9,0-1.07.25a3.19,3.19,0,0,1-1.34,1.09c-1.12.49-1.1,1.23-.13,2.05.41.35.75.79,1.14,1.16s.64.54,1,.81a7.89,7.89,0,0,0,.83-1.14c.29-.58-.28-.83-.62-1-.79-.45-.77-.89-.23-1.54A7.45,7.45,0,0,0,89.87,130.38Z"/><path class="cls-13" d="M99.83,176.12c1.55-.07,3.1-.14,4.65-.22,2.53-.14,4.73-1.34,7-2.33,1.5-.66,3.14-1.11,4.34-2.36.33-.35.77-.24,1.22.08,1.32.92,2.73,1.7,4,2.64,2.08,1.51,4.09,3.11,6.15,4.65,1.15.86,1.18,1.11.39,2.33-1.13,1.72-2.18,3.49-3.31,5.21-.68,1-1.42,2.06-2.18,3.06a.79.79,0,0,1-.73.13,43.7,43.7,0,0,1-9.3-5.56c-1-.81-2-1.72-2.92-2.61-.74-.69-1-.72-1.71.07a5.17,5.17,0,0,0-.78,1.11,56.65,56.65,0,0,1-4.1,6.83c-.85,1.24-1.58,2.57-2.42,3.81s-1.15,1.35-2.46.65c-2.7-1.45-5.36-3-8-4.51-1.13-.66-1.08-.74-.42-1.84a36.19,36.19,0,0,1,7.43-9,13.91,13.91,0,0,0,1.67-1.73A1.13,1.13,0,0,1,99.83,176.12Z"/><path class="cls-14" d="M105.39,115.49a11.08,11.08,0,0,1,.53-5.38,5,5,0,0,0,.2-.93,3.25,3.25,0,0,0-1,0c-1.69.46-3.37,1-5.05,1.47a5.18,5.18,0,0,1-.87.26c-.52.06-1,0-1.56.06a9.26,9.26,0,0,1,.33-1.59c.4-1,.91-2,1.34-3,.29-.7,0-1.16-.73-.93-2.47.82-4.91,1.71-7.36,2.59-.44.16-.86.37-1.49.64.76-1.73,1.43-3.17,2-4.64.29-.71,0-1.09-.71-1a43.09,43.09,0,0,0-5,1.1c-2.53.8-5,1.78-7.49,2.68l-1,.37a3.58,3.58,0,0,1,1.28-2.44c3.28-3.26,7.45-4.81,11.8-6A17.58,17.58,0,0,1,97,97.81a33.46,33.46,0,0,1,6,.83c3.87,1.14,7.52,2.81,10.28,5.92a10,10,0,0,1,1.3,1.84,73.53,73.53,0,0,1,3.61,6.94c.95,2.29,2.09,4.61,1.83,7.24a3.39,3.39,0,0,1-.08.9c-.16.4-.49,1.08-.64,1.06a2.14,2.14,0,0,1-1.34-.73c-.29-.44-.35-.85-1.06-.76-.29,0-.72-.33-.94-.63-1.37-1.8-2.82-3.56-3.08-5.94a6.06,6.06,0,0,0-.2-.88c-.25-1-.59-1.16-1.52-.76-1.43.63-2.82,1.33-4.23,2C106.47,115,106.06,115.2,105.39,115.49Z"/><path class="cls-15" d="M101.08,152.2c.17,2,.32,3.85.49,5.68.16,1.65.34,3.29.56,4.93a2,2,0,0,0,1.62,1.78,12.14,12.14,0,0,0,6.26.21c1.47-.36,1.82-.73,1.74-2.21-.13-2.4-.36-4.81-.69-7.2-.4-2.88-1.34-5.69-1.1-8.65a2.23,2.23,0,0,0,0-.45c-.15-1.33-.06-1.44,1.19-1.54,1.64-.13,3.29-.22,4.92-.42a.91.91,0,0,1,1.17.82c.31,1.31.6,2.63,1,3.92a7.84,7.84,0,0,0,.63,1.31c.45.91.17,1.42-.83,1.5s-2.2.12-3.29.23c-1.59.17-1.89.57-1.64,2.15a26.58,26.58,0,0,0,1.51,5.65c.73,1.81,1.3,3.69,2,5.53.13.38.45.71.5,1.09a1.77,1.77,0,0,1-.25,1.2,16.41,16.41,0,0,1-1.78,1.81,7.94,7.94,0,0,1-1.52,1.23,27.93,27.93,0,0,1-7.59,3.26,13.31,13.31,0,0,1-6.27.21c-.69-.19-1.07-.32-1.2-1.2a39.73,39.73,0,0,0-3.34-11.84,10,10,0,0,0-1-1.86c-1.47-1.84-.69-4-.92-6,0-.42.31-.58.75-.44.82.26,1.65.46,2.46.74A3.09,3.09,0,0,0,100,153,6.54,6.54,0,0,1,101.08,152.2Z"/><path class="cls-14" d="M137.11,130.06a15,15,0,0,1-1.89.21,33.8,33.8,0,0,1-9.9-1.59,10.52,10.52,0,0,1-3.05-1.88,3.28,3.28,0,0,1-1-3.82,10.73,10.73,0,0,0-.2-6.6c-.54-1.61-1.26-3.16-1.9-4.73-.25-.61-.1-1,.58-1.07a7.15,7.15,0,0,1,2.69.1A9.21,9.21,0,0,1,127,113.4c.91,1.12,2.07,2,3,3.13a14.49,14.49,0,0,1,3,6.79,8.3,8.3,0,0,0,2.91,5.11c.45.37.88.78,1.31,1.17Z"/><path class="cls-12" d="M65.2,140c1.27.18,2.38.23,3.34,1.11a2.78,2.78,0,0,1-.51,4.56l-.67.34a.86.86,0,0,0-.42,1.36,4,4,0,0,0,.77,1.1,18.27,18.27,0,0,0,6.49,3.71,17.58,17.58,0,0,0,5.44,1.06c.56,0,.86.14.78.9-.2,2-.12,2-2,2.57a6.44,6.44,0,0,1-2.2.18,18.14,18.14,0,0,1-3.11-.54c-3.11-.82-6.09-2-8-4.71A17.24,17.24,0,0,1,63.45,148a4.13,4.13,0,0,0-.9-1.67,7.73,7.73,0,0,1-1.36-2.16,2.72,2.72,0,0,1,1.9-3.74C63.84,140.31,64.57,140.14,65.2,140Z"/><path class="cls-16" d="M102.89,153.36c0-1.28,0-2.57,0-3.85a1.45,1.45,0,0,1,.9-1.44c1.17-.58,2.34-1.16,3.54-1.69.68-.3,1,0,1.12.71.63,3.91,1.31,7.81,1.84,11.74.16,1.21.6,2.45,0,3.72-.18.4-.27.7-.74.8a8.15,8.15,0,0,1-4.16,0,2.35,2.35,0,0,1-1.85-2.12c-.31-2.63-.53-5.27-.79-7.9Z"/><path class="cls-12" d="M119,145.2a3.31,3.31,0,0,0,1,.2,14.51,14.51,0,0,1,7.56.76c2.28.77,5.18,3.61,4.86,6.28,0,.37,0,.66-.42,1a.82.82,0,0,0,.39,1.55c1.4.21,1.87,1.26,2.41,2.26a2.91,2.91,0,0,1-1.07,3.55,4.75,4.75,0,0,1-5.88-1.61,1.71,1.71,0,0,1,1.06-2.72,1.44,1.44,0,0,0,1-1.88c-1.33-3.36-4.11-6.26-8.17-6.34-2,0-2-.07-2.63-2A7.26,7.26,0,0,1,119,145.2Z"/><path class="cls-12" d="M95.32,194.2c-2.18,3.65-4.24,7.11-6.3,10.57-.74,1.25-1.46,2.52-2.18,3.78-.26.46-.64.4-.81,0-.52-1.08-1.63-1.43-2.48-2.08-.45-.35-.74-.63-.53-1.22a13.83,13.83,0,0,1,.68-2c1.56-2.81,3.17-5.6,4.79-8.38.53-.91,1.17-1.76,1.7-2.68.29-.49.57-.65,1.08-.35C92.62,192.68,94,193.44,95.32,194.2Z"/><path class="cls-16" d="M88.28,149.47c.91.12,1.79.22,2.68.35a1,1,0,0,1,.9,1.15c-.05,2.41,0,4.82-.11,7.23a20,20,0,0,1-.37,3.13,2.2,2.2,0,0,1-2.83,1.38,1.22,1.22,0,0,1-.58-.62,6.18,6.18,0,0,1-.53-2c0-2.7-.26-5.41.41-8.08C88.06,151.17,88.14,150.32,88.28,149.47Z"/><path class="cls-12" d="M131.44,189.91c-1.81-.39-3.94-.52-5.76-1.71-.87-.57-.85-.62-.25-1.51s1.13-1.63,1.72-2.43c.3-.4.67-.6,1.16-.24,2.23,1.64,4.83,1.77,7.45,1.77.68,0,1.2-.14,1.55.73a1.36,1.36,0,0,1-.5,1.82C135.29,189.53,133.52,189.77,131.44,189.91Z"/><path class="cls-17" d="M83.17,211.51A13.45,13.45,0,0,1,77.88,210c-.86-.42-1.72-.82-2.57-1.25A3.47,3.47,0,0,1,73.57,207c-.18-.44-.12-.79.36-1a7,7,0,0,1,2.75-.65c3.34.07,5.7,2,8,4.07a1.78,1.78,0,0,1,.37,1.5c-.07.28-.8.42-1.25.57A1.91,1.91,0,0,1,83.17,211.51Z"/><path class="cls-17" d="M144.19,188.25a5.74,5.74,0,0,1-.66,3.5c-.71,1.4-1.93,1.48-2.81.21a9.65,9.65,0,0,1-1.65-5.56,4.92,4.92,0,0,1,2.26-2.81c.8-.19,2.35,1,2.55,2,.12.59.23,1.19.3,1.78A6.48,6.48,0,0,1,144.19,188.25Z"/><path class="cls-15" d="M84.82,150.36c1.72-.28,1.74-.28,1.58,1.48-.12,1.35-.28,2.69-.46,4-.16,1.15-.45,1.35-1.6,1.25-2.12-.19-2.67-.77-2.52-2.93a18.73,18.73,0,0,1,.62-3.23,1,1,0,0,1,.73-.56A10.23,10.23,0,0,1,84.82,150.36Z"/><path class="cls-12" d="M120.11,129.49c.46.22.87.37,1.25.59,1.5.89,1.8,2.11.79,3.52a10.56,10.56,0,0,1-1.73,1.84,2,2,0,0,1-1.22.41c-.53,0-1-.28-.72-1s.38-1.14.56-1.71C119.39,132,119.73,130.79,120.11,129.49Z"/><path class="cls-12" d="M100.54,149.55l-.3.62c-1.56,3.27-4.53,2.09-6.47.11C96,149.6,98.24,150.08,100.54,149.55Z"/><path class="cls-18" d="M105.5,135a2.13,2.13,0,0,0-2.59,1.47,2.08,2.08,0,0,0,0,1.2,2.09,2.09,0,0,0,2.55,2.66c1.38-.28,3-1,3-2.64S106.88,135.39,105.5,135Zm-.44,4.26h0C105.18,139.37,105.23,139.43,105.07,139.29Z"/><path class="cls-18" d="M79.95,132.43A3.69,3.69,0,0,0,77.3,130a2.11,2.11,0,0,0-2.59,1.47,2,2,0,0,0,.5,2,2,2,0,0,0,.14,1.77,2.11,2.11,0,0,0,2.88.75A3.36,3.36,0,0,0,79.95,132.43Zm-3.85-.13h0Zm-.12.08Z"/><path class="cls-19" d="M123.92,129.91a3,3,0,0,0,.13.61c.68,1.28.21,2.43-.43,3.53a7.21,7.21,0,0,1-3.33,3.17,6.48,6.48,0,0,1-2,.13c-.27,0-.64,0-.78.15-1.37,1.54-2.7,3.11-4,4.68a6.73,6.73,0,0,0-.39.59,8.81,8.81,0,0,0,3.8-.18c1.35-.29,1.37-.28,1.74,1.09.08.29.14.58.25,1.05,1.1-1.74,2.73-1.14,4.13-1.05a16.64,16.64,0,0,1,4.83.95c3.37,1.29,5.77,3.58,6.42,7.32a7.91,7.91,0,0,0,1.21,2.9,12.3,12.3,0,0,1,1.16,2.11,3.26,3.26,0,0,1-.11,2.78c-1.11,2.33-2.34,3.08-5,3-2.36-.05-4.19-.91-5.19-3.16a3.1,3.1,0,0,1,1-4.22c.88-.69,1-.82.3-1.71a22.7,22.7,0,0,0-2.91-3.2c-1.06-.94-2.47-.71-3.77-.62-.13,0-.29.41-.32.64s.17.36.23.55c.38,1.21,0,2-1.27,2.14s-2.6.31-3.9.52c-1,.17-1.05.23-.77,1.27.77,2.81,1.5,5.63,2.36,8.41a15.85,15.85,0,0,0,1.4,2.83,2.15,2.15,0,0,1-.38,2.73c-.65.73-.63.79.17,1.35,2,1.41,4.06,2.8,6.07,4.22a19.62,19.62,0,0,1,1.64,1.32,7.27,7.27,0,0,0,3.63,2.06c.46.07.71.32.47.86-.43,1-.73,2-1.24,2.87-.32.56-.2.86.24,1.1a8,8,0,0,0,2.27,1.1c2,.37,4,.72,6.12,0a4.4,4.4,0,0,0,2.23-1.27,1.74,1.74,0,0,1,2.15-.49c2.32.83,3.36,1.85,3.59,4.79a14.46,14.46,0,0,1-.61,4.91,4.29,4.29,0,0,1-2.4,2.75,1.52,1.52,0,0,1-1.69-.15,8.14,8.14,0,0,1-2.84-3.43c-.49-1.1-.47-1-1.65-.54a10.14,10.14,0,0,1-7.2.7c-1.49-.47-3-.94-4.43-1.5-.62-.24-1-.28-1.36.36s-.5,1.37-1.37,1.48a3.38,3.38,0,0,1-2.43-1,35.66,35.66,0,0,0-4.2-2.64,38.29,38.29,0,0,1-6-4.12c-.16-.13-.31-.26-.47-.38-.48-.34-.89-.38-1.25.2-.75,1.19-1.56,2.35-2.31,3.54-1.3,2.08-2.58,4.18-3.86,6.28-.52.85-1,1.73-1.52,2.59-.26.44-.54.68-1.09.32s-1.18-.57-1.72-.93-.77-.11-1,.26c-2.38,4.14-5.41,7.89-7.33,12.31a10.06,10.06,0,0,1-1.23,2c-.28.37-1.29,1.43-1.42,1.73a2.79,2.79,0,0,1-3,1.55,19.15,19.15,0,0,1-8-2.65,7.71,7.71,0,0,1-3.11-2.27c-1.08-1.62-.65-2.91,1.12-3.7,2.09-.94,4.12-.59,6.19-.1,1.28.3,1.53.22,2.2-.93q3.29-5.66,6.58-11.32c.25-.43.54-.84.91-1.41-.6-.4-1.22-.8-1.82-1.22-1-.72-1.06-1.12-.39-2.09,1.11-1.61,2.1-3.32,3.31-4.85a29.68,29.68,0,0,1,5.27-5.54,2.32,2.32,0,0,0,1.06-2,30.52,30.52,0,0,0-2.22-10.66l-1.23-3.33-.32,0c-.17.61-.32,1.23-.51,1.83-.37,1.18-.62,1.35-1.8,1.37-.9,0-1.81.09-2.71.09s-1.28-.23-1.46-1.16-.35-2.09-.46-3.13c-.14-1.29-.12-1.3-1.38-1.46a35.72,35.72,0,0,0-4-.48c-1.14,0-2.28.34-3.43.42a6.77,6.77,0,0,1-2.21-.16c-2.08-.56-4.16-1.15-6.2-1.86a7.51,7.51,0,0,1-2.46-1.43,11,11,0,0,1-3.31-4,27.67,27.67,0,0,0-2.56-5.27,4.4,4.4,0,0,1,.13-5.59,3.45,3.45,0,0,1,2.52-1.46,17.8,17.8,0,0,1,3.91.11c3.6.58,5,3.92,3.08,7-.32.5-1,1.1-.86,1.47.16.54.82,1,1.37,1.33,1.31.8,2.49,1.83,4.14,2,.78.06,1.53.49,2.32.61a24.68,24.68,0,0,0,2.84.15c.49,0,.7-.29.77-.75s.18-.78.28-1.17c.23-.92.58-1.14,1.49-1s1.77.25,2.65.37l.1-.31-1.41-.66-4.61-2.27a1.75,1.75,0,0,1-.38-.25c-3.38-3-6.64-6.16-8-10.7a30,30,0,0,1-1.36-5.8,13,13,0,0,1,.24-2.84c.14-1,.33-2.08.54-3.12.32-1.62.7-3.24,1-4.86a16,16,0,0,1,1.68-4.64c.5-.92.7-2,1.17-2.94.61-1.21,1.13-2.44,1.63-3.7a12.15,12.15,0,0,1,4.87-5.62A34.15,34.15,0,0,1,93.7,96.48c2.05-.36,4.12-.69,6.24.11,1.42.53,3.07.46,4.51,1a27.22,27.22,0,0,1,5.74,2.61A15.3,15.3,0,0,1,116,106c.45.9,1,1.75,1.52,2.61a1.09,1.09,0,0,0,1.46.58,8.22,8.22,0,0,1,6.5,1.19,19.58,19.58,0,0,1,5.29,4.41,15.51,15.51,0,0,1,3.58,7.38c.47,3.17,2.35,5.22,4.78,7,.87.62.92,1.13-.05,1.65-1.59.85-3.23,1.55-5.15,1a17.5,17.5,0,0,0-3.8-.59,20.47,20.47,0,0,1-5.43-1.16A4.82,4.82,0,0,0,123.92,129.91Zm-34-25.15a5.24,5.24,0,0,0-.76,0c-4.3.77-8.2,2.65-12.14,4.4a1.59,1.59,0,0,0-.7.76c-1.13,2.51-2.51,4.92-3.12,7.65-.45,2-.95,4-1.34,6-.44,2.26-1,4.54-.4,6.86.24,1,.56,1.93.78,2.9a15.42,15.42,0,0,0,2.88,5.93,20.5,20.5,0,0,0,6.6,5.87A34.24,34.24,0,0,0,87,147.41a25.17,25.17,0,0,0,4.42.85,18.52,18.52,0,0,0,3,.15c1.46,0,2.91-.16,4.37-.25a6.36,6.36,0,0,0,3-.76,17.85,17.85,0,0,1,4.28-2.21c3.38-.92,5.65-3.26,7.79-5.72,1-1.18,2.4-2.17,2.88-3.8.29-1,.73-1.87,1-2.84a23.53,23.53,0,0,0,1.12-7.26c0-.49-.1-.86-.62-1.08a7.41,7.41,0,0,1-2.41-1.9,19.79,19.79,0,0,1-4.62-7.33c-.22-.63-.42-.86-1-.51s-1,.47-1.5.71c-1,.46-1.87,1-2.85,1.38s-1.48.12-1.94-.95a4.63,4.63,0,0,1,0-2.66c.12-.81.28-1.63.44-2.59-.76.22-1.29.35-1.82.52-1.62.51-3.22,1.08-4.85,1.55-1.22.36-1.83-.12-1.82-1.37a3.79,3.79,0,0,1,.33-1.27c.33-.86.71-1.7,1.19-2.84a14.47,14.47,0,0,0-1.73.46q-3.25,1.38-6.48,2.81c-.83.37-1.34.07-1.25-.84a4.21,4.21,0,0,1,.4-1.29C88.75,107.22,89.3,106.1,89.94,104.76Zm9.89,71.36a1.13,1.13,0,0,0-1.48.35,13.91,13.91,0,0,1-1.67,1.73,36.19,36.19,0,0,0-7.43,9c-.66,1.1-.71,1.18.42,1.84,2.64,1.55,5.3,3.06,8,4.51,1.32.7,1.64.58,2.46-.65s1.57-2.57,2.42-3.81a56.65,56.65,0,0,0,4.1-6.83,5.17,5.17,0,0,1,.78-1.11c.69-.78,1-.76,1.71-.07,1,.89,1.9,1.79,2.92,2.61a43.7,43.7,0,0,0,9.3,5.56.79.79,0,0,0,.73-.13c.76-1,1.49-2,2.18-3.06,1.12-1.72,2.18-3.49,3.31-5.21.8-1.22.76-1.47-.39-2.33-2.06-1.54-4.07-3.14-6.15-4.65-1.3-.94-2.71-1.72-4-2.64-.45-.31-.89-.42-1.22-.08-1.2,1.26-2.84,1.7-4.34,2.36-2.25,1-4.44,2.19-7,2.33C102.93,176,101.38,176,99.83,176.12Zm5.56-60.62c.67-.29,1.08-.46,1.48-.65,1.41-.67,2.8-1.37,4.23-2,.93-.41,1.27-.2,1.52.76a6.06,6.06,0,0,1,.2.88c.26,2.38,1.72,4.14,3.08,5.94.22.29.65.66.94.63.7-.09.77.32,1.06.76a2.14,2.14,0,0,0,1.34.73c.15,0,.48-.66.64-1.06a3.39,3.39,0,0,0,.08-.9c.25-2.63-.89-4.94-1.83-7.24a73.53,73.53,0,0,0-3.61-6.94,10,10,0,0,0-1.3-1.84c-2.76-3.11-6.41-4.78-10.28-5.92a33.46,33.46,0,0,0-6-.83,17.58,17.58,0,0,0-6.37.93c-4.35,1.17-8.52,2.71-11.8,6a3.58,3.58,0,0,0-1.28,2.44l1-.37c2.49-.9,5-1.88,7.49-2.68a43.09,43.09,0,0,1,5-1.1c.73-.14,1,.25.71,1-.61,1.47-1.28,2.91-2,4.64.63-.27,1.05-.48,1.49-.64,2.45-.88,4.89-1.77,7.36-2.59.69-.23,1,.24.73.93-.43,1-.94,2-1.34,3a9.26,9.26,0,0,0-.33,1.59c.52,0,1,0,1.56-.06a5.18,5.18,0,0,0,.87-.26c1.68-.5,3.36-1,5.05-1.47a3.25,3.25,0,0,1,1,0,5,5,0,0,1-.2.93A11.08,11.08,0,0,0,105.39,115.49Zm-4.31,36.71A6.54,6.54,0,0,0,100,153a3.09,3.09,0,0,1-3.59.69c-.81-.27-1.64-.48-2.46-.74-.44-.14-.79,0-.75.44.23,2-.55,4.16.92,6a10,10,0,0,1,1,1.86,39.73,39.73,0,0,1,3.34,11.84c.13.88.51,1,1.2,1.2a13.31,13.31,0,0,0,6.27-.21,27.93,27.93,0,0,0,7.59-3.26,7.94,7.94,0,0,0,1.52-1.23,16.41,16.41,0,0,0,1.78-1.81,1.77,1.77,0,0,0,.25-1.2c0-.38-.37-.71-.5-1.09-.66-1.84-1.23-3.72-2-5.53a26.58,26.58,0,0,1-1.51-5.65c-.26-1.58,0-2,1.64-2.15,1.09-.12,2.2-.15,3.29-.23s1.28-.59.83-1.5a7.84,7.84,0,0,1-.63-1.31c-.35-1.3-.64-2.61-1-3.92a.91.91,0,0,0-1.17-.82c-1.63.2-3.28.3-4.92.42-1.25.1-1.35.21-1.19,1.54a2.23,2.23,0,0,1,0,.45c-.24,3,.7,5.77,1.1,8.65.33,2.39.56,4.79.69,7.2.08,1.48-.27,1.84-1.74,2.21a12.14,12.14,0,0,1-6.26-.21,2,2,0,0,1-1.62-1.78c-.22-1.64-.4-3.29-.56-4.93C101.39,156.06,101.25,154.22,101.08,152.2Zm36-22.14.1-.46c-.44-.39-.86-.8-1.31-1.17a8.3,8.3,0,0,1-2.91-5.11,14.49,14.49,0,0,0-3-6.79c-.93-1.1-2.08-2-3-3.13a9.21,9.21,0,0,0-4.58-2.73,7.15,7.15,0,0,0-2.69-.1c-.67.05-.82.45-.58,1.07.64,1.57,1.36,3.12,1.9,4.73a10.73,10.73,0,0,1,.2,6.6,3.28,3.28,0,0,0,1,3.82,10.52,10.52,0,0,0,3.05,1.88,33.8,33.8,0,0,0,9.9,1.59A15,15,0,0,0,137.11,130.06ZM65.2,140c-.62.11-1.36.28-2.1.37a2.72,2.72,0,0,0-1.9,3.74,7.73,7.73,0,0,0,1.36,2.16,4.13,4.13,0,0,1,.9,1.67A17.24,17.24,0,0,0,65,151.69c1.92,2.75,4.91,3.89,8,4.71a18.14,18.14,0,0,0,3.11.54,6.44,6.44,0,0,0,2.2-.18c1.92-.53,1.85-.57,2-2.57.08-.76-.22-.92-.78-.9a17.58,17.58,0,0,1-5.44-1.06,18.27,18.27,0,0,1-6.49-3.71,4,4,0,0,1-.77-1.1.86.86,0,0,1,.42-1.36l.67-.34a2.78,2.78,0,0,0,.51-4.56C67.58,140.26,66.47,140.21,65.2,140Zm37.69,13.33h-.11c.26,2.63.48,5.27.79,7.9a2.35,2.35,0,0,0,1.85,2.12,8.15,8.15,0,0,0,4.16,0c.47-.1.56-.4.74-.8.56-1.27.12-2.51,0-3.72-.53-3.92-1.22-7.83-1.84-11.74-.12-.76-.45-1-1.12-.71-1.2.52-2.37,1.11-3.54,1.69a1.45,1.45,0,0,0-.9,1.44C102.91,150.79,102.89,152.08,102.89,153.36ZM119,145.2a7.26,7.26,0,0,0,.15,1c.6,2,.61,2,2.63,2,4.05.08,6.84,3,8.17,6.34a1.44,1.44,0,0,1-1,1.88,1.71,1.71,0,0,0-1.06,2.72,4.75,4.75,0,0,0,5.88,1.61,2.91,2.91,0,0,0,1.07-3.55c-.54-1-1-2-2.41-2.26a.82.82,0,0,1-.39-1.55c.43-.33.38-.61.42-1,.32-2.67-2.58-5.51-4.86-6.28a14.51,14.51,0,0,0-7.56-.76A3.31,3.31,0,0,1,119,145.2Zm-23.72,49c-1.34-.76-2.7-1.52-4-2.3-.52-.3-.8-.14-1.08.35-.53.91-1.17,1.76-1.7,2.68-1.62,2.78-3.23,5.57-4.79,8.38a13.83,13.83,0,0,0-.68,2c-.22.59.07.87.53,1.22.85.66,2,1,2.48,2.08.17.36.55.42.81,0,.72-1.26,1.44-2.53,2.18-3.78C91.08,201.31,93.14,197.85,95.32,194.2Zm-7-44.73c-.14.85-.22,1.7-.42,2.52-.67,2.67-.37,5.38-.41,8.08a6.18,6.18,0,0,0,.53,2,1.22,1.22,0,0,0,.58.62,2.2,2.2,0,0,0,2.83-1.38,20,20,0,0,0,.37-3.13c.08-2.41.06-4.82.11-7.23a1,1,0,0,0-.9-1.15C90.08,149.69,89.19,149.59,88.28,149.47Zm43.16,40.44c2.07-.14,3.85-.38,5.35-1.57a1.36,1.36,0,0,0,.5-1.82c-.34-.87-.87-.73-1.55-.73-2.62,0-5.22-.13-7.45-1.77-.49-.36-.86-.16-1.16.24-.59.8-1.16,1.6-1.72,2.43s-.61.94.25,1.51C127.5,189.39,129.63,189.52,131.44,189.91Zm-48.27,21.6a1.91,1.91,0,0,0,.6,0c.45-.16,1.17-.29,1.25-.57a1.78,1.78,0,0,0-.37-1.5c-2.28-2.07-4.64-4-8-4.07a7,7,0,0,0-2.75.65c-.48.18-.54.54-.36,1a3.47,3.47,0,0,0,1.74,1.79c.85.43,1.72.83,2.57,1.25A13.45,13.45,0,0,0,83.17,211.51Zm61-23.26a6.48,6.48,0,0,0,0-.9c-.07-.6-.18-1.19-.3-1.78-.21-1-1.75-2.16-2.55-2a4.92,4.92,0,0,0-2.26,2.81,9.65,9.65,0,0,0,1.65,5.56c.87,1.27,2.1,1.19,2.81-.21A5.74,5.74,0,0,0,144.19,188.25ZM84.82,150.36a10.23,10.23,0,0,0-1.65,0,1,1,0,0,0-.73.56,18.73,18.73,0,0,0-.62,3.23c-.16,2.16.4,2.74,2.52,2.93,1.15.1,1.44-.1,1.6-1.25.18-1.34.34-2.68.46-4C86.56,150.08,86.54,150.08,84.82,150.36Zm35.29-20.87c-.38,1.29-.72,2.48-1.08,3.66-.17.57-.35,1.14-.56,1.71s.18,1,.72,1a2,2,0,0,0,1.22-.41,10.56,10.56,0,0,0,1.73-1.84c1-1.41.71-2.63-.79-3.52C121,129.86,120.57,129.71,120.11,129.49Zm-19.58,20.06c-2.3.52-4.52,0-6.77.74,1.94,2,4.91,3.16,6.47-.11Z"/><path class="cls-19" d="M100.26,128.46a2.1,2.1,0,0,1,.1-.68c.43-1.07.83-2.26,2.15-2.47,1-.17,2.66,1.21,3,2.48a4,4,0,0,1,.21,1.87,3.32,3.32,0,0,1-3.34,2.47C101.37,132,100.24,130.15,100.26,128.46Z"/><path class="cls-19" d="M80.52,120.63a3.72,3.72,0,0,1,3.24,2.12,2.84,2.84,0,0,1-.55,3.46c-1,1-1.32,1.2-2.6.52-2-1.07-3.22-3.37-1.25-5.41A4.45,4.45,0,0,1,80.52,120.63Z"/><path class="cls-19" d="M90.65,142.58c-1.81-.35-3.94-.49-5.38-2.25a4.42,4.42,0,0,1-.89-1.54,2.4,2.4,0,0,1,.22-1.39c.09-.22.47-.32.71-.47.14.23.36.45.39.7a3.53,3.53,0,0,0,3,3.11,6.94,6.94,0,0,0,5-.21c.68-.34,1.38-.64,1.51-1.53a.9.9,0,0,1,.38-.62,5.2,5.2,0,0,1,1.12-.25,3,3,0,0,1,.16.94,3.61,3.61,0,0,1-1.65,2.22A7.66,7.66,0,0,1,90.65,142.58Z"/><path class="cls-19" d="M110.53,124.07c-.1.23-.19.47-.31.69-.41.71-.78.71-1.19,0a4.58,4.58,0,0,1-.29-.69c-.07-.18-.07-.48-.19-.55-1.34-.67-1.86-2.27-3.29-2.84a3.13,3.13,0,0,0-3.59.69c-.17.18-.31.4-.47.59s-.5.89-1.05.51-.32-.86-.1-1.35a4.14,4.14,0,0,1,5.49-1.92,10.59,10.59,0,0,1,2.12,1.08A9.35,9.35,0,0,1,110.53,124.07Z"/><path class="cls-19" d="M80.37,113.29a6.35,6.35,0,0,1,4.84,3.36c.13.36-.22,1.31-.56,1.39a.62.62,0,0,1-.53-.14,4.72,4.72,0,0,1-.5-.91c-1.08-2.3-3.33-2.72-5.11-1-.32.32-.6.68-.94,1-.16.14-.49.29-.61.22s-.24-.4-.3-.62a1,1,0,0,1,0-.45A4.38,4.38,0,0,1,80.37,113.29Z"/><path class="cls-19" d="M89.87,130.38a7.45,7.45,0,0,1-.73,1.31c-.55.64-.56,1.08.23,1.54.34.19.91.44.62,1a7.89,7.89,0,0,1-.83,1.14c-.32-.27-.66-.52-1-.81s-.73-.82-1.14-1.16c-1-.82-1-1.56.13-2.05a3.19,3.19,0,0,0,1.34-1.09c.17-.23.7-.21,1.07-.25C89.66,130,89.76,130.23,89.87,130.38Z"/><path class="cls-12" d="M210,112.79c-1.16.3-2.28.52-3.35.9a2.4,2.4,0,0,0-1.67,2.13,1,1,0,0,0,.35.74c.12.09.49,0,.67-.16.53-.38,1-.87,1.54-1.2a4.11,4.11,0,0,1,1.55-.52,1.46,1.46,0,0,1,1.57,1.24c.18,1,.58,1.21,1.68,1a1,1,0,0,1,.76.24c1.19,1.23,2.35,2.5,3.51,3.76s2,2.33,3.15,3.42a1.34,1.34,0,0,1,.39,1.56,6.15,6.15,0,0,0-.37,3.37,3.94,3.94,0,0,1-.7,2.4,24.89,24.89,0,0,1-1.85,2.69c-.73,1-1.49,2-2.23,3A15.81,15.81,0,0,1,205.6,144a48.86,48.86,0,0,1-7.76.93,13.78,13.78,0,0,1-3.86-.53,50.74,50.74,0,0,1-5.21-1.48,14.47,14.47,0,0,1-5.91-4c-.34-.37-.7-.71-1-1.08a22.49,22.49,0,0,1-4.19-7.44,20.09,20.09,0,0,1-1.22-6.64,32.11,32.11,0,0,1,.5-7.67c.43-2,.61-4.07.87-6.11.09-.69.36-.93,1.09-.85,1.94.23,3.89.36,5.83.57a24.85,24.85,0,0,0,6.89-.63c2.23-.38,4.49-.59,6.72-.95a25.35,25.35,0,0,0,3.21-.8c1.53-.46,3.06-1,4.57-1.48a.74.74,0,0,1,1,.34,9.31,9.31,0,0,1,.58,1.06C208.49,109.11,209.25,111,210,112.79Zm.92,10.34a3.76,3.76,0,0,0-3.52-3.46c-1.45,0-2.75,1.73-2.75,3.72a3.11,3.11,0,0,0,3.17,2.9A3.54,3.54,0,0,0,210.88,123.13Zm-21.24-2.44c.17-1.42-1.84-3.74-3.23-3.63a2,2,0,0,0-1.28.64c-1.52,2-1,4.11.83,5.71a.87.87,0,0,0,.56.16A4,4,0,0,0,189.64,120.69Zm7.39,17.5c.81-.11,1.41-.14,2-.27a5,5,0,0,0,3.08-3.4,2.59,2.59,0,0,0-.19-.81,2.47,2.47,0,0,0-.92.31c-.28.26-.37.72-.64,1a4.43,4.43,0,0,1-1.43,1.24,5.28,5.28,0,0,1-6.33-2.37c-.13-.22-.44-.52-.62-.49a1,1,0,0,0-.61.57,1.42,1.42,0,0,0,.34,1.53A8.51,8.51,0,0,0,197,138.19Zm-7.27-23.91a1.45,1.45,0,0,0-.12-.41,13.6,13.6,0,0,0-1.35-2,2.18,2.18,0,0,0-2.68-.69,8.05,8.05,0,0,0-3.43,3c-.14.2.11.69.19,1a2.68,2.68,0,0,0,.87-.29c.73-.6,1.38-1.3,2.13-1.87.94-.72,1.38-.67,2.14.27.37.45.55,1,.88,1.53a1.14,1.14,0,0,0,.69.44c.12,0,.33-.3.45-.5A3,3,0,0,0,189.76,114.28Zm5.88,12.15c-.16-.62-.43-.68-.82-.45-.72.43-1.48.82-2.17,1.31a1,1,0,0,0-.29.85,4.62,4.62,0,0,0,.81,1.22c.53.65,1.09,1.28,1.65,1.92.17.19.39.5.55.48a1,1,0,0,0,.65-.49c.24-.6.44-1.25-.36-1.68A2.58,2.58,0,0,1,195,129c-.35-.39-.59-.75-.07-1.27A4.82,4.82,0,0,0,195.64,126.43Z"/><path class="cls-14" d="M227.45,125.51c-2.22.08-4.14-.09-5.74-1.39a54.17,54.17,0,0,1-7.77-8.56c-.65-.82-1.27-1.67-1.87-2.53-1.89-2.71-2.82-5.84-3.75-9-.33-1.1-.66-1.23-1.61-.56a6.68,6.68,0,0,1-1.57.86,61.63,61.63,0,0,1-6,2,54.15,54.15,0,0,1-5.95.92c-2.19.28-4.38.59-6.57.73a22,22,0,0,1-3.91-.24c-1.94-.22-3.86-.52-5.79-.81a2.79,2.79,0,0,1-1-.36c-1.5-.9-3-1.75-4.45-2.77a14.57,14.57,0,0,1-2-2.15l.17-.35c.72.06,1.44.11,2.16.19a7.41,7.41,0,0,0,4-.56c1.6-.72,3.31-1.19,4.92-1.89a25.46,25.46,0,0,0,5.87-3.36,13.55,13.55,0,0,1,7.71-3,27.83,27.83,0,0,1,7.95.54,3.8,3.8,0,0,1,1.82,1c.77.72,1.67,1.3,2.42,2a11.26,11.26,0,0,1,1.41,1.88c.52.79,1,1.63,1.5,2.42a.75.75,0,0,0,.64.17,2.58,2.58,0,0,0,1-.38c2.3-1.6,4.42-.8,6.16.44a9.35,9.35,0,0,1,4,5.83,4.81,4.81,0,0,0,.35.84,18.77,18.77,0,0,1,1.18,4c.4,2.32,1.12,4.59,1.54,6.91A15.42,15.42,0,0,0,227.45,125.51Z"/><path class="cls-20" d="M204.75,148.15c.3,3.43.57,6.81.92,10.19.14,1.37.61,1.86,2,2a27.4,27.4,0,0,0,4.21.1c.34,0,.75-.44,1-.79a5.25,5.25,0,0,0,.4-3.39c-.18-2.46-.36-4.92-.59-7.37-.14-1.55-.33-3.1-.58-4.64,0-.3-.45-.55-.69-.82-.24.34-.67.67-.69,1a13.09,13.09,0,0,0,.31,1.78q.51,5.33,1,10.66a6,6,0,0,1-.08,1.2.87.87,0,0,1-.9.85,17.12,17.12,0,0,1-2.41,0,1.48,1.48,0,0,1-1.4-1.36c-.2-1.59-.47-3.18-.57-4.78-.14-2.1-.15-4.2-.22-6.31,0-.65.08-.94.89-1.2a12.05,12.05,0,0,0,3.22-1.91,6.91,6.91,0,0,1,4.1-1.25,32.27,32.27,0,0,0,4.2-.43c.66-.1,1.11-.07,1.2.69.22,1.89.41,3.79.64,5.68.09.75-.25,1-.93,1-1.25,0-2.5,0-3.75,0-.68,0-1.08.25-1.1.94,0,1.1,0,2.21,0,3.32a1.07,1.07,0,0,0,.16.58c1,1.31.72,2.88,1,4.34.42,2.22.95,4.42,1.43,6.63.12.54.3,1.07.38,1.61a2.34,2.34,0,0,1-.7,2c-1.26,1.59-2.91,2-4.69,2.36-2.41.48-4.8,1.14-7.23,1.45a19.38,19.38,0,0,1-6.76-.12,1.75,1.75,0,0,1-1.51-1.61c-.42-2.58-.93-5.14-1.41-7.7a1.72,1.72,0,0,1,.47-1.84,4.49,4.49,0,0,0,.76-2.64c.22-2.8.31-5.62.46-8.43a4.07,4.07,0,0,1,.12-.64c1.34.21,2.66.72,3.87.53S203.61,148.74,204.75,148.15Z"/><path class="cls-16" d="M210.74,144.48a13.09,13.09,0,0,0,.31,1.78q.51,5.33,1,10.66a6,6,0,0,1-.08,1.2.87.87,0,0,1-.9.85,17.12,17.12,0,0,1-2.41,0,1.48,1.48,0,0,1-1.4-1.36c-.2-1.59-.47-3.18-.57-4.78-.14-2.1-.15-4.2-.22-6.31,0-.65.08-.94.89-1.2a12.05,12.05,0,0,0,3.22-1.91Z"/><path class="cls-21" d="M229.2,174.36c-.25.73-.44,1.35-.68,2-1.2,2.93-2.38,5.86-3.64,8.76a20.24,20.24,0,0,1-1.48,2.44.93.93,0,0,1-1.42.34c-3.17-2-6.91-3-9.93-5.35a20.45,20.45,0,0,1-2.08-1.92c-.73-.73-1.22-.67-1.61.31-.24.61-.43,1.23-.65,1.85-1,3-2.06,6-3.12,9-.37,1-.4,1-1.38.64-1.94-.67-3.94-1.19-5.82-2-2.26-.95-4.46-2.07-6.64-3.19-.79-.41-.8-.72-.28-1.57,1.37-2.22,2.76-4.42,4.15-6.63.8-1.27,1.61-2.54,2.4-3.82a2.44,2.44,0,0,1,2.38-1.22,47.1,47.1,0,0,0,13.41-1.63,23.42,23.42,0,0,0,5.34-1.9,1.37,1.37,0,0,1,1,.08c.75.29,1.45.71,2.21,1,1.56.55,3.15,1,4.72,1.54.9.3,1.8.63,2.69,1A1.86,1.86,0,0,1,229.2,174.36Z"/><path class="cls-12" d="M224.78,142.79c2.17.12,4,.72,5.16,2.54.8,1.25,2,2.28,2.34,3.79.28,1.11.7,2.15.16,3.36-.43.94-.1,1.38.9,1.79a2.62,2.62,0,0,1,1.59,2.81,2.82,2.82,0,0,1-1.8,2.85,5.86,5.86,0,0,1-3.84.06,3,3,0,0,1-1.72-4.79,2.26,2.26,0,0,1,1.26-.63c.64-.15,1.46-.85,1.33-1.43-.51-2.28-1.13-4.58-3.43-5.75a14.85,14.85,0,0,0-4-1.41c-1-.19-.88-.78-1-1.39s-.05-1.35.83-1.5S224.14,142.87,224.78,142.79Z"/><path class="cls-12" d="M180.43,158.54a16.63,16.63,0,0,1-5.78-1.46,5.47,5.47,0,0,1-2.46-2.56,8.79,8.79,0,0,0-.7-1.14c-.4-.57-.86-.8-1.53-.32-.82.6-1.66.19-2.45-.11a1,1,0,0,1-.56-1.28,12.71,12.71,0,0,1,1.81-4.92,1.27,1.27,0,0,1,.55-.46,5,5,0,0,1,3.72,1.28c.36.61.7,1.28.22,2a1.54,1.54,0,0,0,.37,2.27c2.58,2.12,5.28,3.91,8.91,2.82,1.07-.32,1.09-.24,1.59.79.07.14.14.27.2.41.8,1.74.82,1.41-.9,2.22a6.53,6.53,0,0,1-1.59.42A11.73,11.73,0,0,1,180.43,158.54Z"/><path class="cls-12" d="M190.11,205.54l-1.19.13c-.72.07-1.06-.28-1-1s.26-1.68.46-2.51a39.6,39.6,0,0,1,1.1-4.39c.85-2.41,1.87-4.77,2.81-7.15.22-.56.56-.62,1.08-.4,1.06.45,2.15.84,3.19,1.32a.77.77,0,0,1,.24.69,9.1,9.1,0,0,1-.63,1.53,45.41,45.41,0,0,0-3.3,8.09c-.19.68-.3,1.38-.43,2.07C192.2,205.5,192,205.63,190.11,205.54Z"/><path class="cls-16" d="M195.93,151.28c-.14,2.45-.29,4.9-.4,7.35,0,.6-.14.92-.87.84s-1.5.1-2.23,0c-1-.08-1.15-.38-1.23-1.37a36,36,0,0,1,.47-8.19c.18-1.18.4-2.35.52-3.53.06-.61.32-.81.87-.69a14.37,14.37,0,0,1,2.31.65,1.27,1.27,0,0,1,.49,1c.06,1.3,0,2.61,0,3.92Z"/><path class="cls-12" d="M231.67,185.64a28,28,0,0,1-3.15-.8,1.73,1.73,0,0,1-1-2.63c.06-.14.12-.28.2-.41.31-.57.5-1.35,1-1.63s1.05.37,1.62.47a9.73,9.73,0,0,0,5.76-.22c1-.42,1.07-.38,1.38.62a11.29,11.29,0,0,1,.34,1.92.63.63,0,0,1-.19.5,7.55,7.55,0,0,1-1.89,1.2C234.38,185.1,233,185.33,231.67,185.64Z"/><path class="cls-20" d="M190.63,147c-.35,2.51-.67,4.72-1,6.93a12.82,12.82,0,0,0-.09,1.35,2.24,2.24,0,0,1-2.17,2.13,1.56,1.56,0,0,1-1-.78c-.48-.88-.85-1.82-1.24-2.75s-.64-1.57-1-2.36c-.38-1-.3-1.44.57-1.87C186.62,148.81,188.5,148,190.63,147Z"/><path class="cls-17" d="M187.46,211c-1.55-.13-2.61-.16-3.65-.33a1.4,1.4,0,0,1-1-.73,1.26,1.26,0,0,1,.6-1,21.3,21.3,0,0,1,2.78-1c.27-.09.65.06.88-.08,1.77-1.06,3.6-.56,5.41-.25,1.09.19,1.36,1.1.55,1.85a4.74,4.74,0,0,1-2,1.18A28.69,28.69,0,0,1,187.46,211Z"/><path class="cls-17" d="M239.18,181.22c0-.2,0-.4,0-.6a2,2,0,0,1,2.86-1.9,2.44,2.44,0,0,1,1.71,1.93,7.8,7.8,0,0,1-.41,3.85,1.83,1.83,0,0,1-1.65,1.33,1.76,1.76,0,0,1-1.87-1.24c-.35-1.08-.53-2.21-.79-3.32Z"/><path class="cls-12" d="M224,129.82A3.53,3.53,0,0,1,221.5,133c-1,.17-1.35-.2-1-1.14a13.33,13.33,0,0,0,1.08-5.1.93.93,0,0,1,.33-.57c.5.16,1.27.26,1.42.62A18,18,0,0,1,224,129.82Z"/><path class="cls-12" d="M203.72,146c-1.3,2.65-4.25,2.88-6.16.54,1.1,0,2.06,0,3-.08S202.55,146.22,203.72,146Z"/><path class="cls-18" d="M185.35,128.11a4.61,4.61,0,0,0-1.53-1.51,2.1,2.1,0,0,0-2.88.75,2.08,2.08,0,0,0-.23.61,2.1,2.1,0,0,0,1.2,3.82A4.27,4.27,0,0,0,185,131a2.32,2.32,0,0,0,.67-1.59A2.56,2.56,0,0,0,185.35,128.11Zm-3.52,2.28c.09.11.14.2,0,0Z"/><path class="cls-18" d="M212.15,130.38a2.12,2.12,0,0,0-2.59-1.47,2,2,0,0,0-1.11.78,2.07,2.07,0,0,0-1.5.6,2.12,2.12,0,0,0,0,3,5.19,5.19,0,0,0,1.82,1.2,2.85,2.85,0,0,0,2.2-.18,2.57,2.57,0,0,0,1.26-1.72A4.81,4.81,0,0,0,212.15,130.38Z"/><path class="cls-19" d="M182.78,152.61l-.9-1.73c-.42-.8-.36-1.14.45-1.54,1.26-.63,2.55-1.17,3.82-1.78,1.44-.69,2.86-1.42,4.54-2.26-.56-.23-.89-.39-1.24-.5a18.41,18.41,0,0,1-9.09-6.16,24.92,24.92,0,0,1-2.87-4.17,25.63,25.63,0,0,1-2.62-8.59,26.45,26.45,0,0,1,0-6.44c.19-1.7.25-3.42.46-5.11.19-1.49.48-3,.77-4.45.26-1.28.24-1.23-.94-2A45.23,45.23,0,0,1,170,104.5a21.9,21.9,0,0,1-2.94-3.41,10.25,10.25,0,0,1-1-1.63,1.43,1.43,0,0,1-.11-.78c.43-.15.74-.74,1.34-.37s1,.47,1.48.75a7.28,7.28,0,0,0,6,.37,40.86,40.86,0,0,0,8.74-3.6c.52-.3,1-.67,1.5-1,1.56-1,3.05-2.14,4.69-3a12.26,12.26,0,0,1,6.68-1.41,32,32,0,0,1,4.31.4c3.49.72,6,2.9,8.29,5.45a2.48,2.48,0,0,1,.27.36,2.93,2.93,0,0,0,3.64,1.56c2.71-.63,4.86.88,6.68,2.73a15.84,15.84,0,0,1,3.83,7.39c.41,1.6.74,3.22,1.12,4.83.51,2.15,1,4.31,1.57,6.43a8.12,8.12,0,0,0,2.48,4.25,9.68,9.68,0,0,0,1.64,1c.84.44,1,1,.23,1.56a5,5,0,0,1-2,.81,23.79,23.79,0,0,1-3.13,0,3,3,0,0,0,0,.86,5.71,5.71,0,0,1-.37,3.83,5.37,5.37,0,0,1-4.28,2.82,1.92,1.92,0,0,1-.42-.15c-1.2-.42-1.21-.42-1.84.46s-1.22,1.7-1.81,2.58-1.15,1.76-1.85,2.84a15.47,15.47,0,0,0,2.3,0,29,29,0,0,0,3.07-.73c.88-.24,1.07-.15,1.22.72.21,1.24.2,1.18,1.39,1,2.85-.5,5.61-.25,7.69,2a14.15,14.15,0,0,1,3.83,7.38c.1.57.05,1.17.18,1.74a1.52,1.52,0,0,0,.56.79,3.88,3.88,0,0,1,1.48,3.78c-.09.44-.18.88-.28,1.33a4,4,0,0,1-3.77,3.43,7.19,7.19,0,0,1-5.16-1.06,4.08,4.08,0,0,1-1.77-5c.41-1.12.76-2.31,2.1-2.78.59-.21.71-.68.52-1.35a5.59,5.59,0,0,0-4.84-3.92,1.4,1.4,0,0,0-.94.59,3.56,3.56,0,0,0-.46,1.27c-.28,1.24-.26,1.22-1.54,1.27-1,0-1.9.14-2.85.23-.63.06-.85.45-.72,1s.25,1,.33,1.47c.5,3,.95,5.95,1.48,8.91.18,1,.61,1.92.83,2.89s.39,2.25.61,3.37c0,.21.14.5.3.58a23.65,23.65,0,0,0,3.27,1.47,53.59,53.59,0,0,0,5.84,1.5c1.7.32,1.47.71,1.21,2.06a13,13,0,0,1-.88,2.4c-.47,1.15-.27,1.68.81,2.14a6.27,6.27,0,0,0,5.55-.19,24.8,24.8,0,0,1,4.43-1.62,3.88,3.88,0,0,1,4.59,2.76,9.35,9.35,0,0,1-1,6.31c-1,1.85-4.23,1.81-5.41-.06-.47-.75-.86-.69-1.45-.4a11.24,11.24,0,0,1-10.7-.09s-.1,0-.26,0c-.74,1.23-1.52,2.51-2.29,3.81-.38.64-.65.87-1.51.39-3.68-2.05-7.46-3.94-11.18-5.91a20.9,20.9,0,0,1-2-1.37,42.12,42.12,0,0,0-2,5.12c-.72,2-1.4,4.09-2.16,6.11-.38,1-.61,1-1.59.5-1.36-.66-2.76-1.23-4.12-1.87-.52-.24-.87-.18-1.11.34-1.19,2.5-2.48,4.95-3.51,7.51a24,24,0,0,0-1.08,4.7,1.65,1.65,0,0,0,.41,1.18,3.51,3.51,0,0,1-.7,5,7.14,7.14,0,0,1-3.82,1.26c-1.86,0-3.73,0-5.59,0a4.6,4.6,0,0,1-1.32-.28c-2.17-.71-2.08-2.38-.84-3.91a4.36,4.36,0,0,1,2.68-1.58,2.21,2.21,0,0,0,2-2.23c.16-1.34.63-2.63.92-4a72.6,72.6,0,0,1,3.18-9.73c.53-1.42.53-1.43-.78-2.23-.34-.21-.7-.39-1-.59-.87-.48-1-.74-.47-1.52,2.38-3.9,4.77-7.8,7.12-11.72a2.41,2.41,0,0,0,.33-1.39c-.17-1.6-.38-3.2-.67-4.78-.4-2.16-.92-4.3-1.32-6.46-.11-.6-.27-.94-.94-.86a6,6,0,0,1-.9,0c-1.62-.06-1.81-.22-2.22-1.82-.24-.93-.32-.91-1.23-.57a15.49,15.49,0,0,1-2.87.81c-1.13.19-2.31.12-3.44.32-2.48.46-4.83-.23-7.15-.82a5.69,5.69,0,0,1-3.92-3.29,1.52,1.52,0,0,0-1.9-1,6.12,6.12,0,0,1-2.23-.23c-1.69-.42-1.64-.7-1.52-2.11a14.36,14.36,0,0,1,2.17-6.82c.24-.37.84-.82,1.18-.76,1.41.28,2.92.1,4.25.87a3.08,3.08,0,0,1,1.84,3.16,1.93,1.93,0,0,1,0,.3c-.41,1.43.44,2.14,1.53,2.73s2.13,1.52,3.57,1.47A5,5,0,0,0,182.78,152.61ZM210,112.79c-.72-1.78-1.48-3.68-2.26-5.57a9.31,9.31,0,0,0-.58-1.06.74.74,0,0,0-1-.34c-1.51.52-3,1-4.57,1.48a25.35,25.35,0,0,1-3.21.8c-2.23.36-4.49.57-6.72.95a24.85,24.85,0,0,1-6.89.63c-1.94-.21-3.89-.34-5.83-.57-.73-.09-1,.16-1.09.85-.26,2-.44,4.1-.87,6.11a32.11,32.11,0,0,0-.5,7.67,20.09,20.09,0,0,0,1.22,6.64,22.49,22.49,0,0,0,4.19,7.44c.34.37.7.71,1,1.08a14.47,14.47,0,0,0,5.91,4,50.74,50.74,0,0,0,5.21,1.48,13.78,13.78,0,0,0,3.86.53,48.86,48.86,0,0,0,7.76-.93,15.81,15.81,0,0,0,9.37-6.62c.74-1,1.49-2,2.23-3a24.89,24.89,0,0,0,1.85-2.69,3.94,3.94,0,0,0,.7-2.4,6.15,6.15,0,0,1,.37-3.37,1.34,1.34,0,0,0-.39-1.56c-1.1-1.09-2.1-2.28-3.15-3.42s-2.32-2.53-3.51-3.76a1,1,0,0,0-.76-.24c-1.1.23-1.5,0-1.68-1a1.46,1.46,0,0,0-1.57-1.24,4.11,4.11,0,0,0-1.55.52c-.56.33-1,.82-1.54,1.2-.18.13-.56.25-.67.16a1,1,0,0,1-.35-.74,2.4,2.4,0,0,1,1.67-2.13C207.68,113.32,208.81,113.1,210,112.79Zm17.48,12.72a15.42,15.42,0,0,1-3.23-7.1c-.41-2.32-1.13-4.59-1.54-6.91a18.77,18.77,0,0,0-1.18-4,4.81,4.81,0,0,1-.35-.84,9.35,9.35,0,0,0-4-5.83c-1.74-1.25-3.86-2-6.16-.44a2.58,2.58,0,0,1-1,.38.75.75,0,0,1-.64-.17c-.53-.79-1-1.63-1.5-2.42a11.26,11.26,0,0,0-1.41-1.88c-.75-.74-1.65-1.32-2.42-2a3.8,3.8,0,0,0-1.82-1,27.83,27.83,0,0,0-7.95-.54,13.55,13.55,0,0,0-7.71,3,25.46,25.46,0,0,1-5.87,3.36c-1.61.7-3.32,1.17-4.92,1.89a7.41,7.41,0,0,1-4,.56c-.72-.08-1.44-.12-2.16-.19l-.17.35a14.57,14.57,0,0,0,2,2.15c1.41,1,2.95,1.87,4.45,2.77a2.79,2.79,0,0,0,1,.36c1.93.29,3.86.59,5.79.81a22,22,0,0,0,3.91.24c2.2-.14,4.39-.45,6.57-.73a54.15,54.15,0,0,0,5.95-.92,61.63,61.63,0,0,0,6-2,6.68,6.68,0,0,0,1.57-.86c.95-.67,1.28-.53,1.61.56.93,3.12,1.85,6.24,3.75,9,.6.86,1.22,1.71,1.87,2.53a54.17,54.17,0,0,0,7.77,8.56C223.31,125.42,225.22,125.59,227.45,125.51Zm-22.69,22.64c-1.15.59-2.25,1.48-3.46,1.68s-2.53-.31-3.87-.53a4.07,4.07,0,0,0-.12.64c-.15,2.81-.24,5.62-.46,8.43a4.49,4.49,0,0,1-.76,2.64,1.72,1.72,0,0,0-.47,1.84c.48,2.57,1,5.13,1.41,7.7a1.75,1.75,0,0,0,1.51,1.61,19.38,19.38,0,0,0,6.76.12c2.43-.32,4.82-1,7.23-1.45,1.78-.36,3.44-.77,4.69-2.36a2.34,2.34,0,0,0,.7-2c-.08-.54-.26-1.07-.38-1.61-.49-2.21-1-4.41-1.43-6.63-.28-1.46,0-3-1-4.34a1.07,1.07,0,0,1-.16-.58c0-1.1,0-2.21,0-3.32,0-.69.42-.95,1.1-.94,1.25,0,2.5,0,3.75,0,.69,0,1-.27.93-1-.23-1.89-.43-3.79-.64-5.68-.09-.76-.54-.79-1.2-.69a32.27,32.27,0,0,1-4.2.43,6.91,6.91,0,0,0-4.1,1.25,12.05,12.05,0,0,1-3.22,1.91c-.81.25-.91.54-.89,1.2.07,2.1.08,4.21.22,6.31.11,1.6.37,3.19.57,4.78a1.48,1.48,0,0,0,1.4,1.36,17.12,17.12,0,0,0,2.41,0,.87.87,0,0,0,.9-.85,6,6,0,0,0,.08-1.2q-.46-5.33-1-10.66a13.09,13.09,0,0,1-.31-1.78c0-.35.44-.68.69-1,.24.27.64.52.69.82.25,1.54.43,3.09.58,4.64.23,2.46.41,4.91.59,7.37a5.25,5.25,0,0,1-.4,3.39c-.22.34-.63.77-1,.79a27.4,27.4,0,0,1-4.21-.1c-1.42-.17-1.89-.66-2-2C205.33,155,205.06,151.58,204.75,148.15Zm24.45,26.2a1.86,1.86,0,0,0-.47-.39c-.89-.35-1.78-.67-2.69-1-1.57-.52-3.16-1-4.72-1.54-.76-.27-1.46-.68-2.21-1a1.37,1.37,0,0,0-1-.08,23.42,23.42,0,0,1-5.34,1.9,47.1,47.1,0,0,1-13.41,1.63,2.44,2.44,0,0,0-2.38,1.22c-.78,1.28-1.6,2.55-2.4,3.82-1.38,2.21-2.78,4.41-4.15,6.63-.52.85-.51,1.16.28,1.57,2.18,1.12,4.38,2.24,6.64,3.19,1.89.79,3.89,1.31,5.82,2,1,.34,1,.39,1.38-.64,1.06-3,2.08-6,3.12-9,.21-.62.4-1.24.65-1.85.39-1,.89-1,1.61-.31A20.45,20.45,0,0,0,212,182.5c3,2.3,6.76,3.31,9.93,5.35a.93.93,0,0,0,1.42-.34,20.24,20.24,0,0,0,1.48-2.44c1.26-2.9,2.44-5.83,3.64-8.76C228.77,175.71,229,175.08,229.2,174.36Zm-4.43-31.57c-.64.09-1.39.17-2.13.29s-.92.81-.83,1.5,0,1.2,1,1.39a14.85,14.85,0,0,1,4,1.41c2.3,1.17,2.92,3.47,3.43,5.75.13.58-.7,1.28-1.33,1.43a2.26,2.26,0,0,0-1.26.63,3,3,0,0,0,1.72,4.79,5.86,5.86,0,0,0,3.84-.06,2.82,2.82,0,0,0,1.8-2.85,2.62,2.62,0,0,0-1.59-2.81c-1-.4-1.32-.84-.9-1.79.54-1.2.12-2.25-.16-3.36-.38-1.51-1.54-2.54-2.34-3.79C228.77,143.51,226.94,142.9,224.78,142.79Zm-44.35,15.75a11.73,11.73,0,0,0,1.41-.08,6.53,6.53,0,0,0,1.59-.42c1.72-.81,1.7-.48.9-2.22-.06-.14-.14-.27-.2-.41-.49-1-.52-1.11-1.59-.79-3.63,1.09-6.33-.7-8.91-2.82a1.54,1.54,0,0,1-.37-2.27c.48-.69.15-1.37-.22-2a5,5,0,0,0-3.72-1.28,1.27,1.27,0,0,0-.55.46,12.71,12.71,0,0,0-1.81,4.92,1,1,0,0,0,.56,1.28c.79.29,1.63.71,2.45.11.66-.48,1.13-.25,1.53.32a8.79,8.79,0,0,1,.7,1.14,5.47,5.47,0,0,0,2.46,2.56A16.63,16.63,0,0,0,180.43,158.54Zm9.68,47c1.93.09,2.1,0,2.38-1.61.13-.69.24-1.39.43-2.07a45.41,45.41,0,0,1,3.3-8.09,9.1,9.1,0,0,0,.63-1.53.77.77,0,0,0-.24-.69c-1-.48-2.13-.87-3.19-1.32-.51-.22-.86-.15-1.08.4-.94,2.38-2,4.74-2.81,7.15a39.6,39.6,0,0,0-1.1,4.39c-.19.83-.33,1.67-.46,2.51s.23,1,1,1Zm5.82-54.26h-.07c0-1.31,0-2.61,0-3.92a1.27,1.27,0,0,0-.49-1,14.37,14.37,0,0,0-2.31-.65c-.54-.13-.81.08-.87.69-.12,1.18-.34,2.36-.52,3.53a36,36,0,0,0-.47,8.19c.08,1,.26,1.29,1.23,1.37.74.06,1.5-.13,2.23,0s.84-.23.87-.84C195.64,156.18,195.79,153.73,195.93,151.28Zm35.74,34.36c1.33-.3,2.71-.53,4-1a7.55,7.55,0,0,0,1.89-1.2.63.63,0,0,0,.19-.5,11.29,11.29,0,0,0-.34-1.92c-.31-1-.41-1-1.38-.62a9.73,9.73,0,0,1-5.76.22c-.57-.1-1.29-.67-1.62-.47s-.67,1.06-1,1.63c-.07.13-.14.27-.2.41a1.73,1.73,0,0,0,1,2.63A28,28,0,0,0,231.67,185.64Zm-41-38.59c-2.13,1-4,1.77-5.85,2.66-.87.43-1,.91-.57,1.87.31.79.62,1.58,1,2.36s.76,1.87,1.24,2.75a1.56,1.56,0,0,0,1,.78,2.24,2.24,0,0,0,2.17-2.13,12.82,12.82,0,0,1,.09-1.35C190,151.77,190.28,149.56,190.63,147Zm-3.17,64a28.69,28.69,0,0,0,3.55-.43,4.74,4.74,0,0,0,2-1.18c.81-.75.53-1.66-.55-1.85-1.8-.31-3.64-.82-5.41.25-.23.14-.61,0-.88.08a21.3,21.3,0,0,0-2.78,1,1.26,1.26,0,0,0-.6,1,1.4,1.4,0,0,0,1,.73C184.85,210.87,185.91,210.89,187.46,211Zm51.72-29.81-.2,0c.26,1.11.44,2.25.79,3.32a1.76,1.76,0,0,0,1.87,1.24,1.83,1.83,0,0,0,1.65-1.33,7.8,7.8,0,0,0,.41-3.85,2.44,2.44,0,0,0-1.71-1.93,2,2,0,0,0-2.86,1.9C239.14,180.82,239.16,181,239.18,181.22ZM224,129.82a18,18,0,0,0-.75-3c-.15-.35-.92-.46-1.42-.62a.93.93,0,0,0-.33.57,13.33,13.33,0,0,1-1.08,5.1c-.31.94,0,1.3,1,1.14A3.53,3.53,0,0,0,224,129.82ZM203.72,146c-1.17.18-2.15.37-3.14.46s-1.91.05-3,.08C199.47,148.92,202.42,148.69,203.72,146Z"/><path class="cls-19" d="M210.88,123.13a3.54,3.54,0,0,1-3.1,3.17,3.11,3.11,0,0,1-3.17-2.9c0-2,1.31-3.75,2.75-3.72A3.76,3.76,0,0,1,210.88,123.13Z"/><path class="cls-19" d="M189.64,120.69a4,4,0,0,1-3.13,2.88.87.87,0,0,1-.56-.16c-1.82-1.61-2.35-3.75-.83-5.71a2,2,0,0,1,1.28-.64C187.8,116.95,189.81,119.27,189.64,120.69Z"/><path class="cls-19" d="M197,138.19a8.51,8.51,0,0,1-5.31-2.7,1.42,1.42,0,0,1-.34-1.53,1,1,0,0,1,.61-.57c.18,0,.48.27.62.49a5.28,5.28,0,0,0,6.33,2.37,4.43,4.43,0,0,0,1.43-1.24c.27-.28.36-.74.64-1a2.47,2.47,0,0,1,.92-.31,2.59,2.59,0,0,1,.19.81,5,5,0,0,1-3.08,3.4C198.44,138.05,197.84,138.09,197,138.19Z"/><path class="cls-19" d="M189.76,114.28a3,3,0,0,1-.22.58c-.12.2-.33.52-.45.5a1.14,1.14,0,0,1-.69-.44c-.33-.48-.52-1.08-.88-1.53-.76-.94-1.2-1-2.14-.27-.75.57-1.4,1.27-2.13,1.87a2.68,2.68,0,0,1-.87.29c-.07-.36-.33-.85-.19-1a8.05,8.05,0,0,1,3.43-3,2.18,2.18,0,0,1,2.68.69,13.6,13.6,0,0,1,1.35,2A1.45,1.45,0,0,1,189.76,114.28Z"/><path class="cls-19" d="M195.64,126.43a4.82,4.82,0,0,1-.71,1.31c-.52.52-.28.88.07,1.27a2.58,2.58,0,0,0,.68.58c.8.43.6,1.07.36,1.68a1,1,0,0,1-.65.49c-.16,0-.38-.29-.55-.48-.56-.63-1.12-1.26-1.65-1.92a4.62,4.62,0,0,1-.81-1.22,1,1,0,0,1,.29-.85c.68-.49,1.44-.87,2.17-1.31C195.22,125.74,195.48,125.8,195.64,126.43Z"/></g><rect class="cls-22" x="12.61" y="12.61" width="275.54" height="275.54" rx="137.77" ry="137.77"/></g></g></svg>