<svg xmlns="http://www.w3.org/2000/svg" xmlns:xlink="http://www.w3.org/1999/xlink" viewBox="0 0 300.75 300.75"><defs><style>.cls-1,.cls-3{fill:#fff;}.cls-1,.cls-18,.cls-2,.cls-20,.cls-22,.cls-6,.cls-7,.cls-8{stroke:#00913a;}.cls-1,.cls-18,.cls-19,.cls-2,.cls-20,.cls-21,.cls-22,.cls-6,.cls-7,.cls-8{stroke-linecap:round;stroke-miterlimit:10;}.cls-1,.cls-2,.cls-22{stroke-width:0.75px;stroke-dasharray:6.73 5.23;}.cls-2{fill:#f29600;}.cls-4{clip-path:url(#clip-path);}.cls-5,.cls-7,.cls-8{fill:#8dc21f;}.cls-19,.cls-22,.cls-6{fill:none;}.cls-18,.cls-19,.cls-20,.cls-21,.cls-6,.cls-7,.cls-8{stroke-width:0.9px;}.cls-6,.cls-8{stroke-dasharray:1.81 1.81;}.cls-7{stroke-dasharray:5.23 4.07;}.cls-9{fill:#fdebd1;}.cls-10,.cls-11,.cls-12,.cls-13,.cls-14,.cls-15,.cls-17,.cls-9{fill-rule:evenodd;}.cls-10{fill:#bd8a55;}.cls-11{fill:#f09ba5;}.cls-12{fill:#f8c170;}.cls-13{fill:#87c796;}.cls-14{fill:#81c0e9;}.cls-15{fill:#ffe57a;}.cls-16{fill:#f7c6bd;}.cls-17{fill:#76491b;}.cls-18{fill:#dadf00;}.cls-18,.cls-20{stroke-dasharray:0.58 1.16;}.cls-19,.cls-21{stroke:#006934;}.cls-20{fill:#1eaa39;}.cls-21{fill:#f7f7f7;}</style><clipPath id="clip-path"><rect class="cls-1" x="12.61" y="12.61" width="275.54" height="275.54" rx="137.77" ry="137.77"/></clipPath></defs><title>event_01</title><g id="圖層_2" data-name="圖層 2"><g id="圖層_1-2" data-name="圖層 1"><rect class="cls-2" x="0.37" y="0.37" width="300" height="300" rx="150" ry="150"/><rect class="cls-3" x="12.61" y="12.61" width="275.54" height="275.54" rx="137.77" ry="137.77"/><g class="cls-4"><path class="cls-5" d="M55.92,148.7c-5.42.45-30.72,3.86-28.89,17.15,7.22,52.36,54.58,14.86,58.23,59.14,3.61,43.79,75.36,46.46,141.44,2.11,22.42-15,56.88-77.95,19.41-78.4s-71.21-.14-88.18-1.29S55.92,148.7,55.92,148.7Z"/><line class="cls-6" x1="21.16" y1="148.7" x2="276.66" y2="148.7"/><path class="cls-7" d="M165,140.77a8.34,8.34,0,0,0-5,1.66,10.39,10.39,0,0,0-12-7,10.35,10.35,0,0,0-12-4.19,10.37,10.37,0,0,0-17.15,3.21,10.29,10.29,0,0,0-11.3,6.35,8.78,8.78,0,1,0-3.26,16.94l60.73-.15a8.39,8.39,0,0,0,0-16.78Z"/><path class="cls-8" d="M110.41,145.29a8.34,8.34,0,0,0-5,1.66,10.39,10.39,0,0,0-12-7,10.35,10.35,0,0,0-12-4.19,10.37,10.37,0,0,0-17.15,3.21,10.29,10.29,0,0,0-11.3,6.35,8.78,8.78,0,1,0-3.26,16.94l60.73-.15a8.39,8.39,0,0,0,0-16.78Z"/><path class="cls-6" d="M230.92,70.66c0-.17,0-.33,0-.5a8.56,8.56,0,0,0-11.71-8,12.26,12.26,0,0,0-19.14-3.34,12.28,12.28,0,0,0-18,10.86c0,.06,0,.12,0,.19a8.57,8.57,0,0,0,6,16.05,12.27,12.27,0,0,0,17,5.9,8.56,8.56,0,0,0,13.59-1.51,12.24,12.24,0,0,0,7.16-3.68,8.58,8.58,0,1,0,5.09-16Z"/><path class="cls-6" d="M95.73,92.57c0-.11,0-.22,0-.33a5.77,5.77,0,0,0-7.88-5.37A8.25,8.25,0,0,0,75,84.62a8.26,8.26,0,0,0-12.12,7.31s0,.08,0,.13a5.77,5.77,0,0,0,4,10.81,8.26,8.26,0,0,0,11.43,4,5.76,5.76,0,0,0,9.15-1,8.24,8.24,0,0,0,4.82-2.48,5.77,5.77,0,1,0,3.42-10.77Z"/><path class="cls-9" d="M177.78,80.63c1.75,1.37,3.23,2.57,4.76,3.69a5.69,5.69,0,0,1,1.74,2A44.42,44.42,0,0,1,187.2,94c.9,2.86.61,5.79.43,8.72-.28,4.29-2.15,7.94-4.61,11.32a8.73,8.73,0,0,1-2.63,2.46c-3.85,2.18-7.7,4.42-12,5.73a7.18,7.18,0,0,1-1.76.39,38.43,38.43,0,0,1-14-1.81,13.94,13.94,0,0,1-9-9.22c-1.59-4.77-2.68-9.71-4-14.58-.18-.68-.26-1.39-.39-2.08a1.22,1.22,0,0,1,.8-1.45,69.14,69.14,0,0,0,12.56-7.81,5.6,5.6,0,0,1,1-.44c.13.76.18,1.44.36,2.08a1.25,1.25,0,0,0,1.91.78,9.16,9.16,0,0,0,1.69-1.24c1.55-1.44,3.06-2.93,4.6-4.39.42-.4.89-.76,1.46-1.24.64.79.52,1.63.76,2.34.37,1.08,1,1.34,2.12,1a4.11,4.11,0,0,0,2.54-2.43c.45-.9.77-1.86,1.18-2.78a.76.76,0,0,1,1.25-.28c1.11.87,2.17,1.81,3.29,2.67s1.39.77,2.4-.46C177.39,81,177.6,80.83,177.78,80.63Zm-5.85,14.82a7.85,7.85,0,0,0,.15,1.19,3.18,3.18,0,0,0,2.41,2.44A2.7,2.7,0,0,0,177.15,98a3.54,3.54,0,0,0-.44-5.32,2.72,2.72,0,0,0-4.62,1.57C172,94.62,172,95,171.93,95.45ZM150,97.78a3,3,0,0,0-3.34,3.07,3.23,3.23,0,0,0,2.93,3.25,3.18,3.18,0,1,0,.41-6.32ZM165.24,116c3.43-.38,5.19-1.32,6.12-3.82a2.82,2.82,0,0,0,.07-1.16.57.57,0,0,0-.37-.39.68.68,0,0,0-.54.16,1.92,1.92,0,0,0-.5.72,4.2,4.2,0,0,1-3.22,2.85,5.55,5.55,0,0,1-4.34-.68,8,8,0,0,1-1-.73c-.44-.36-1-.53-1.27,0a1.47,1.47,0,0,0,.43,1.28C162,115.46,163.73,115.7,165.24,116Zm7.58-30.53c-1,.45-2.23.93-3.37,1.52a1.67,1.67,0,0,0-.58,1,.93.93,0,0,0,.2.8.8.8,0,0,0,.78,0,5.19,5.19,0,0,1,6.09-1.15.8.8,0,0,0,.58.07,2.23,2.23,0,0,0,.8-.71c.06-.11-.23-.61-.43-.66C175.63,86.08,174.35,85.84,172.82,85.51Zm-22.39,6.94c-.26-.21-.52-.59-.85-.67a5.3,5.3,0,0,0-5.7,2.38,1.17,1.17,0,0,0-.19.56c0,.18.05.47.18.53s.64.21.73.1a5.17,5.17,0,0,1,5.05-2,.72.72,0,0,0,.51-.27A2.4,2.4,0,0,0,150.43,92.45Zm11.93,13.32c.13-.32.28-.67.41-1,.21-.62,1-1.41.29-1.86-.86-.55-1,.6-1.36,1.09-.19.23-.37.47-.54.71-1.33,1.81-1.32,1.8.58,2.85.61.34,1.16.78,1.77,1.1.21.11.73.09.78,0,.15-.31.29-.87.13-1A23.41,23.41,0,0,0,162.36,105.77Z"/><path class="cls-10" d="M176,80.48a10.21,10.21,0,0,1-1.86-1.12c-.94-.91-1.77-1.93-2.65-2.9s-1.45-.75-1.78.25c-.41,1.25-.77,2.51-1.16,3.76a4.23,4.23,0,0,1-1.79,2.35c-.33.21-.93,0-.95-.38,0-.9,0-1.8,0-2.7,0-.5-.06-1-.11-1.51,0-.35-.67-.62-.92-.39s-.71.71-1.06,1.06c-2.29,2.27-4.57,4.55-6.89,6.8a1.63,1.63,0,0,1-1.08.27c-.11,0-.26-.5-.28-.77-.06-.8,0-1.61-.1-2.41a.71.71,0,0,0-1.27-.43,27.3,27.3,0,0,1-6.31,5.15c-2.2,1.42-4.49,2.72-6.79,4a11.84,11.84,0,0,1-2.58.81,1.27,1.27,0,0,0-1,1.33,3.4,3.4,0,0,0,0,.9c.75,3.13,1.48,6.27,2.28,9.39.45,1.76,1.13,3.46,1.5,5.24a20.59,20.59,0,0,0,3.89,8.11c.89,1.18.81,1.51-.28,2.53a13.34,13.34,0,0,1-5.89,3c-.87.23-1.76.43-2.65.6a.73.73,0,0,1-1-.81c0-.4.13-.79.2-1.19a27.77,27.77,0,0,0,.23-8.43c-.23-1.68,0-3.42-.08-5.13-.17-4.13-.51-8.25-.57-12.38a44.72,44.72,0,0,1,1.51-14.07c.8-2.58,1.84-4.85,4.19-6.42,1.16-.77,2.07-1.92,3.16-2.81a34.6,34.6,0,0,1,4.36-3.25,13.63,13.63,0,0,1,4.2-1.57c3.36-.65,6.77-1,10.15-1.61a11.5,11.5,0,0,1,5.67.31,21.46,21.46,0,0,1,7.49,3.81,1.2,1.2,0,0,0,1.36.36c1.68-.79,3.12.21,4.65.58A5.77,5.77,0,0,1,185,73a24.33,24.33,0,0,1,4.58,9.78c.67,2.85,1.26,5.72,1.79,8.59a50.07,50.07,0,0,0,2.85,9.55c1,2.43,1.8,4.92,2.63,7.4.36,1.06,0,1.6-1.06,1.64-2.42.08-4.84.13-7.25.1-1,0-1.24-.48-.87-1.41,1.2-3.06,1.37-6.29,1.58-9.51a15.72,15.72,0,0,0-.93-6.25c-1-2.85-2.05-5.69-3.17-8.49a2.7,2.7,0,0,0-1.36-1.52c-2.54-.76-4-2.63-5.24-4.74-.1-.17-.24-.43-.37-.44-.35,0-.94-.06-1,.12A26.86,26.86,0,0,0,176,80.48Z"/><path class="cls-9" d="M97.12,156.32c.26-1.89.5-3.79.78-5.68a1.4,1.4,0,0,1,1.1-1.3c2.34-.37,3.57-2.12,4.85-3.82,1-1.3,1-1.3,2.49-.68.37.15.72.37,1.09.52a4,4,0,0,0,4.91-1.18,4.68,4.68,0,0,0,.8-.9c.7-1.48,1.69-1.81,3.37-1.64a8.17,8.17,0,0,0,5.32-1.86,3.35,3.35,0,0,1,3.11-.46,13.22,13.22,0,0,1,5.85,3.62,15.62,15.62,0,0,1,5,11A25.4,25.4,0,0,1,133.17,165a8.77,8.77,0,0,1-3.37,3.81c-5,3.09-10.41,4.91-16.36,4.51a38.33,38.33,0,0,1-6.55-1.08c-3-.74-5.06-2.86-6.71-5.34A17.75,17.75,0,0,1,97.12,156.32Zm10.27-2.16c-.75,0-1.36.68-1.67,1.58a3.53,3.53,0,0,0,.84,3.35,2,2,0,0,0,2.19.69,3.5,3.5,0,0,0,2-3.68C110.56,155,109.12,154.07,107.39,154.16Zm18.82-5.9a3.16,3.16,0,0,0-2.61,2.89,2.67,2.67,0,0,0,5.34.23C129,149.94,127.48,148.23,126.21,148.26Zm-8,19.13a9.91,9.91,0,0,0,5.46-2.53,3.55,3.55,0,0,0,1.09-2.42,3.25,3.25,0,0,0-.34-1c-.3.19-.76.33-.87.6a4.81,4.81,0,0,1-1.14,2.05,5.83,5.83,0,0,1-6.88.9c-.18-.09-.34-.27-.52-.3s-.73,0-.76.07c-.09.34-.2.89,0,1.05A6.15,6.15,0,0,0,118.17,167.39Zm6.74-24.26c-2-.06-3.39.23-4.28,1.68a1,1,0,0,0,0,.82.72.72,0,0,0,.7.11c1.23-.93,2.47-1.65,4.11-1.11.2.07.69-.33.82-.61s-.13-.73-.57-.81A5.86,5.86,0,0,0,124.91,143.14Zm-18.31,6.08c-.43-.13-.82-.4-1.09-.31a5.11,5.11,0,0,0-2.8,2.13,3.07,3.07,0,0,0-.34,1.12c0,.17.07.5.17.53s.65.08.75-.06a8.16,8.16,0,0,1,2.93-2.48C106.4,150,106.43,149.65,106.6,149.21Zm11,8a2.48,2.48,0,0,0-.46.12c-.67.38-1.15,2.43-.68,3a.57.57,0,0,0,.52,0,2.35,2.35,0,0,1,2.32-1.3c.05,0,.23-.63.16-.68C118.8,157.84,118.12,157.48,117.58,157.16Z"/><path class="cls-11" d="M165.31,148.39c0-2.22,0-4.44,0-6.66a2.91,2.91,0,0,0-1-2.44c-2.4-2-2.76-4.54-2.11-7.39a26.34,26.34,0,0,0,.42-2.68c0-.15-.2-.45-.3-.45a1.2,1.2,0,0,0-.76.26,1.54,1.54,0,0,0-.35.81c-.22,1.4-.43,2.79-.6,4.2a5.86,5.86,0,0,0,.53,3.83,2,2,0,0,1-.12,2.24c-1.84,3.12-3.61,6.29-5.42,9.43-.75,1.31-1.49,2.64-2.33,3.89-1.07,1.6-2.28,1.74-3.79.56a1.24,1.24,0,0,1-.43-1.61A17.93,17.93,0,0,1,150.4,150a47.2,47.2,0,0,0,4-8.11c1.42-3.33,3.05-6.58,4.55-9.89,1-2.11,1.81-4.27,2.72-6.4.19-.44.36-1.2.64-1.25a9.88,9.88,0,0,1,2.65,0c.18,0,.4.43.47.7a56,56,0,0,0,4.76,11.42c.59,1.16,1,2.43,1.49,3.62.15.33.49.76.79.8.66.09.73-.58.84-1a10.4,10.4,0,0,0,.19-1.79c.22-4,.44-8.05.62-12.08,0-.79-.17-1.59-.17-2.39a3,3,0,0,1,2.15-3.23c1.4-.47,1.75-.48,2.46.75.35.61.61,1.27.92,1.91,1,2,1.89,4,2.9,6,2.93,5.76,5.16,11.82,7.7,17.74.8,1.85,1.64,3.68,2.46,5.52.29.65.6,1.28.85,1.94.45,1.19.37,1.37-.67,2.33a.67.67,0,0,1-1,0,2.12,2.12,0,0,1-.39-.45c-2.36-4-4.74-8-7-12a7.54,7.54,0,0,1-.82-2.57,49.36,49.36,0,0,1-.55-5.11,25.78,25.78,0,0,0-1.95-7.28c-.07-.2-.44-.29-.67-.42-.13.24-.4.5-.37.72a12.34,12.34,0,0,0,.58,2.63,26.48,26.48,0,0,1,1.3,6.5,64.12,64.12,0,0,0,1.6,10.13,23.31,23.31,0,0,1,.56,3.58,1.42,1.42,0,0,1-.83,1.48,6.67,6.67,0,0,1-1.39.59,46,46,0,0,1-11.62,1.86c-1.21,0-2.41.17-3.62.23a1.15,1.15,0,0,1-1.37-1.22c0-.6.07-1.21.07-1.81,0-1.71,0-3.43,0-5.14Z"/><path class="cls-12" d="M178.88,183.45c-2.68.09-5.69.25-8.7.27-2.61,0-5.24.21-7.81-.5-1.49-.41-1.7-.6-1.42-2,.72-3.76,1.49-7.51,2.22-11.27.59-3.06,1.16-6.14,1.74-9.2.07-.39.23-.78.3-1.17a1.74,1.74,0,0,1,1.64-1.51,26.07,26.07,0,0,1,3.28-.43,27.43,27.43,0,0,0,8.36-1.09,16.27,16.27,0,0,1,3.56-.62c1.42-.13,1.78.14,2.24,1.46a12.65,12.65,0,0,1,.47,1.74,114.23,114.23,0,0,0,3.76,13.69c.83,2.48,1.36,5.05,2,7.59a1.07,1.07,0,0,1-.67,1.46C186.4,182.93,183,184.16,178.88,183.45Z"/><path class="cls-13" d="M119.85,190.28l-.83-.06c-3.91-.21-4.34.07-3.65-4a21.9,21.9,0,0,0,0-4.52.89.89,0,0,0-1.55-.59,12.71,12.71,0,0,0-1.6,1.76c-1.27,1.59-1.75,1.65-3.11.33-1.84-1.78-1.81-2,.15-3.67,1.37-1.19,2.68-2.44,4-3.67a3.13,3.13,0,0,1,4.34-.49c.26.15.49.36.75.51,1.86,1,3.67.73,4.71-1.08a5,5,0,0,1,2.93-2.37c1.89-.68,3.71-1.55,5.57-2.29a7.12,7.12,0,0,1,1.47-.33,1.05,1.05,0,0,1,1.21.68c1.48,3.31,1,4.16-2.57,4.75a5.29,5.29,0,0,1-.6.07c-3.3.17-2.66.93-2.55,3.12.15,2.91.27,5.83.41,8.74a1.48,1.48,0,0,1-1.06,1.6A24.92,24.92,0,0,1,119.85,190.28Z"/><path class="cls-10" d="M109.53,136.57c.67-.93,1.1-1.62,1.62-2.23,1.58-1.87,3.25-2,5.18-.34l.71.6c.37-.23.69-.45,1-.65a2.61,2.61,0,0,1,3.69.6,1.64,1.64,0,0,1,.17.25c.47.85-.31,3.56-1.24,4a25.2,25.2,0,0,1-2.77,1.19,3.28,3.28,0,0,1-3.39-.58c-.67-.53-1.22-.34-1.28.44a5.45,5.45,0,0,1-1.87,3.34,3,3,0,0,1-4.07.67c-.72-.36-1.38-.83-2.09-1.21s-1.27-.22-1.75.54c-.59.93-1.16,1.88-1.77,2.79a3.16,3.16,0,0,1-4,1.31c-.84-.27-1.18-.7-1-1.52a5.62,5.62,0,0,1,2.47-3.65,8.43,8.43,0,0,1,1.59-.86,1.92,1.92,0,0,0,1.31-2.12,4.78,4.78,0,0,1,1-3.39,2.39,2.39,0,0,1,3.13-1.05,9.16,9.16,0,0,1,1.68.66A16.84,16.84,0,0,1,109.53,136.57Z"/><path class="cls-14" d="M112.9,199.64c.52-1.62,1.09-3.23,1.54-4.87.84-3,.43-3.27,4.34-3.22a41.92,41.92,0,0,0,7.52-.64c1.11-.19,1.44.07,1.8,1.11q1.06,3.15,2.07,6.31c.35,1.08.13,1.5-.91,1.8s-2.32.67-3.49,1-1.53.09-2-.86c-.53-1.19-1-2.43-1.47-3.63a.59.59,0,0,0-.46-.27c-.18,0-.46.12-.51.26-.47,1.42-.93,2.85-1.35,4.3-.33,1.11-.61,1.41-1.65,1.29a39.22,39.22,0,0,1-3.88-.6C113.19,201.28,113,200.94,112.9,199.64Z"/><path class="cls-9" d="M173.09,189.45c-.08,1.72-.19,4-.31,6.35-.22,4.23-.47,8.45-.65,12.69a4.15,4.15,0,0,1-1.12,2.73,1.88,1.88,0,0,1-1.33.47c-.26,0-.66-.49-.73-.81a17.3,17.3,0,0,1-.48-3.28c-.09-4.54-.1-9.08-.14-13.62,0-2.32-.08-4.64-.09-7,0-1.69.14-1.8,1.91-2,.3,0,.6-.06.91-.07,1.42,0,1.69.23,1.83,1.76C173,187.44,173,188.15,173.09,189.45Z"/><path class="cls-9" d="M183.16,197.33c0,2.52,0,5,0,7.55,0,1.71-.1,3.42-.25,5.12a2.17,2.17,0,0,1-2.23,2,1.17,1.17,0,0,1-.88-.64,12.3,12.3,0,0,1-.53-2.65,14.4,14.4,0,0,1,0-3c.41-3.23-.11-6.43-.15-9.64s0-6.24.08-9.36c0-1.4.47-1.73,1.88-1.78a10,10,0,0,1,1.21,0,1,1,0,0,1,1,1,4.7,4.7,0,0,1,.07.9c-.1,3.52-.22,7-.33,10.56Z"/><path class="cls-9" d="M99,194.36a3.48,3.48,0,0,1-3.15-1.94,2.53,2.53,0,0,1,.48-2.81,2.38,2.38,0,0,1,2.65-1,7,7,0,0,1,1.11.45,1.65,1.65,0,0,0,1.94-.33c1.21-1,2.41-2.11,3.62-3.16a17.3,17.3,0,0,1,1.6-1.34.87.87,0,0,1,.79.13c.18.16.35.6.25.76a15.29,15.29,0,0,1-1.84,2.69,27.53,27.53,0,0,1-3.39,3,4.41,4.41,0,0,0-1.87,2.23C100.87,194.12,99.92,194.23,99,194.36Z"/><path class="cls-9" d="M125.89,204.66c0-.2,0-.4,0-.6,0-1.31.54-2,2-2.1.31,0,.89.26.95.49.66,2.84,1.26,5.68,1.85,8.54a1.08,1.08,0,0,1-.83,1.37c-1,.3-1.78.18-2.19-.42a2.5,2.5,0,0,1-.39-.8c-.51-2.14-1-4.29-1.49-6.44Z"/><path class="cls-9" d="M136.76,171.16c-.3-.31-.66-.54-.78-.86a1.64,1.64,0,0,1,0-1.13,2.66,2.66,0,0,1,.83-.85,29.38,29.38,0,0,0,5.52-5.1,2.65,2.65,0,0,1,.41-.43,2.29,2.29,0,0,1,3.74.74,1.43,1.43,0,0,1-.35,1.3,2.37,2.37,0,0,1-2.25.56c-.86-.24-1.31.14-1.63.89a8.31,8.31,0,0,1-4,4.34C137.81,170.81,137.34,170.94,136.76,171.16Z"/><path class="cls-9" d="M151,158.62c0,.26,0,.56-.09.86-.25,1.63-1,2.38-2.52,2.41-1.74,0-2.81-.64-3.07-2.2a5.91,5.91,0,0,1,.16-2.63,2.47,2.47,0,0,1,3.36-1.52C150.7,156.16,150.89,156.22,151,158.62Z"/><path class="cls-9" d="M114.13,213.46c-1.39,0-2.48-1-2.26-2.11a39,39,0,0,1,1.33-4.62,24.16,24.16,0,0,1,1.22-2.75,1.48,1.48,0,0,1,1.81-.71.81.81,0,0,1,.77,1.05c-.17.78-.37,1.57-.57,2.34-.5,1.94-1,3.9-1.55,5.82C114.76,212.9,114.32,213.22,114.13,213.46Z"/><path class="cls-11" d="M171.17,214a9.49,9.49,0,0,1-5.88,6.58.94.94,0,0,1-1.32-1.06,8.37,8.37,0,0,1,3.76-5.61c.75-.49,1.94-.34,2.93-.4C170.82,213.45,171,213.8,171.17,214Z"/><path class="cls-12" d="M171.89,135.43a14.76,14.76,0,0,1-3.49-5.89c-.14-.66,0-1.23.67-1.46,3.23-1.13,3.84-1.72,3.61,2.35A30.53,30.53,0,0,1,171.89,135.43Z"/><path class="cls-11" d="M182.58,214a5.62,5.62,0,0,1-.13,1,11.1,11.1,0,0,1-3.38,4.93,2.86,2.86,0,0,1-.8.4,1,1,0,0,1-1.4-1.07,8.81,8.81,0,0,1,2.6-5c.56-.54,1.66-.55,2.53-.72C182.15,213.45,182.4,213.8,182.58,214Z"/><path class="cls-9" d="M172.72,124a1.41,1.41,0,0,1-1,1.63c-1,.33-2.06.77-3.13,1a1.12,1.12,0,0,1-1.38-.87c-.26-.8-.06-1.54.59-1.79,1.12-.44,2.26-.82,3.41-1.18C172.21,122.5,172.71,122.91,172.72,124Z"/><path class="cls-9" d="M198.13,158.9c0,1.3-.54,2.23-1.36,2.35a2.45,2.45,0,0,1-2.34-1.49,5.5,5.5,0,0,1-.45-1.4,1.69,1.69,0,0,1,1.31-1.73A2.48,2.48,0,0,1,198.13,158.9Z"/><path class="cls-15" d="M130.34,216.41a9.15,9.15,0,0,1-1.35-1.14.83.83,0,0,1,.4-1.24c.88-.18,1.77-.27,2.65-.45.72-.15,1.72-.79,2,.12s-.86,1.21-1.51,1.62A21.16,21.16,0,0,1,130.34,216.41Z"/><path class="cls-15" d="M114.48,217.18a3.75,3.75,0,0,1-3.64-2.18.65.65,0,0,1,.08-.55.51.51,0,0,1,.46-.16c1.1.49,2.2,1,3.25,1.56.28.16.4.62.59.94Z"/><path class="cls-9" d="M138.21,147.8c-.3.63-.47,1.09-.72,1.51a.56.56,0,0,1-1-.08,7.1,7.1,0,0,1-.43-1.11c-.2-.7.05-1.22.54-1.09A9,9,0,0,1,138.21,147.8Z"/><path class="cls-9" d="M98.11,166.62c-.11.24-.13.38-.19.4s-.43.13-.48.06a11.77,11.77,0,0,1-1-1.41c0-.08.13-.38.27-.47s.45-.08.51,0C97.58,165.69,97.87,166.2,98.11,166.62Z"/><path class="cls-16" d="M181.86,102.6a3.1,3.1,0,0,0-2.23-.87,6.79,6.79,0,0,0-2.27.6,2.57,2.57,0,0,0-1.76,3.11l0,.06a2.42,2.42,0,0,0,.63,2.46,3.56,3.56,0,0,0,4.44.43,4.3,4.3,0,0,0,2.1-3.57A3.5,3.5,0,0,0,181.86,102.6Z"/><path class="cls-16" d="M153.56,109.61a3.43,3.43,0,0,0-.9-1.56,5.27,5.27,0,0,0-2.3-1.23,2.54,2.54,0,0,0-3.11,1.76,2.41,2.41,0,0,0,0,1.32,2.07,2.07,0,0,0,0,1.42,3.67,3.67,0,0,0,2.54,2.55,3.1,3.1,0,0,0,2.31-.35,3.62,3.62,0,0,0,1.42-1.92A3.87,3.87,0,0,0,153.56,109.61Z"/><path class="cls-16" d="M133.17,157.31l-.28-.66,0-.06-.09-.11a3.26,3.26,0,0,0-3.67-1.25c-.47.09-.9.33-1.36.42l.57-.08a2.56,2.56,0,0,0-2.46,2.51,2.61,2.61,0,0,0,2.06,2.5,2.34,2.34,0,0,0,1.59.58,5.18,5.18,0,0,0,2.29-.62,3,3,0,0,0,1.4-1.78A2.88,2.88,0,0,0,133.17,157.31Z"/><path class="cls-16" d="M109.52,162.52a3.75,3.75,0,0,0-2.76-1.08,2.51,2.51,0,0,0-2.35,1.64,2.4,2.4,0,0,0-.28.23,2.53,2.53,0,0,0,0,3.57,3.84,3.84,0,0,0,5.21-.21l.39-.51q-.61.79.12-.15a2.44,2.44,0,0,0,.36-.84A2.92,2.92,0,0,0,109.52,162.52Z"/><path class="cls-17" d="M163.46,141a2.8,2.8,0,0,0-2.23,1.58c-.91,1.33-1.76,2.71-2.58,4.1-1.78,3-3.5,6.14-5.32,9.16a4.48,4.48,0,0,0-.82,2.52,7.53,7.53,0,0,1-.3,2.09,3.13,3.13,0,0,1-2.55,2.67c-.83.14-1.59.5-1.73,1.45a2.73,2.73,0,0,1-2.46,2.33,5.23,5.23,0,0,0-3.11,2.1,11.94,11.94,0,0,1-3.45,2.89c-1.29.67-2.45,1.13-2.44,2.87,0,.31-.62.8-1,.92-1.16.32-2.37.48-3.56.71-1.68.33-1.9.53-1.88,2.15,0,2.72.1,5.45.26,8.16a3.84,3.84,0,0,1-.49,2.88,2.29,2.29,0,0,0-.2,2.3c.52,1.74,1.12,3.45,1.69,5.17.19.57.42,1.14.61,1.71.25.73.22,1.48-.52,1.86-1.28.65-1.27,1.73-1,2.84.49,2.37,1.06,4.72,1.58,7.09a1.14,1.14,0,0,0,1.24,1,8.91,8.91,0,0,1,1.8.11,1.63,1.63,0,0,1,1.09,2.37,2.33,2.33,0,0,1-.68,1,25.06,25.06,0,0,1-4.2,2.34c-1.82.67-3.09-.07-3.77-2a46.32,46.32,0,0,1-2.75-9.89,4,4,0,0,0-1.18-2.68,9.4,9.4,0,0,1-1.43-2.54c-1,.48-.78,1.43-1.08,2.14-.23.56-.44,1.19-1.18,1.19s-1.23.6-1.51,1.26a26.29,26.29,0,0,0-2.15,8.16,8.07,8.07,0,0,0,.32,2.05,11.13,11.13,0,0,1,.37,2,1.56,1.56,0,0,1-1.79,1.59c-2.51,0-4.53-.94-5.64-3.33a2.4,2.4,0,0,1,.19-2.84c1.09-1.07,1.34-2.46,1.79-3.78s.78-2.72,1.19-4.07c.26-.84.31-1.55-.61-2.06-.63-.35-.59-1-.47-1.62.23-1.09.46-2.17.74-3.24.67-2.51,1.69-4.91,1.37-7.64A19.7,19.7,0,0,1,114,186a7.19,7.19,0,0,0,0-1.51.62.62,0,0,0-.33-.43.6.6,0,0,0-.53.07c-.37.34-.68.74-1,1.09s-.61.78-.89.76c-1.78-.14-2.27,1.41-3.25,2.33-1.17,1.11-2.42,2.14-3.58,3.27a13.4,13.4,0,0,0-1.72,2.07,4.79,4.79,0,0,1-5.53,1.82,7.07,7.07,0,0,1-1.56-.91,3,3,0,0,1-1.09-3.75,12.15,12.15,0,0,1,2.32-3.1,2.43,2.43,0,0,1,2.85-.28,2.12,2.12,0,0,0,2.71-.5c1.07-1.07,2.18-2.09,3.26-3.16a1.25,1.25,0,0,0,.14-1.62c-.55-1.16-.51-1.27.56-1.92a26.66,26.66,0,0,0,5-4.35c.55-.56.38-1.12-.35-1.31a11.52,11.52,0,0,0-2.06-.48,12.78,12.78,0,0,1-7.61-3.37,3.52,3.52,0,0,0-2.44-1c-1.89,0-2.83-1.41-3.71-2.73a2.28,2.28,0,0,1,.34-2.83,3.41,3.41,0,0,0,.61-3.4,20.4,20.4,0,0,1,.42-10.47,1.67,1.67,0,0,0-.56-2.1c-1.18-.91-1-2.13-.58-3.3a7.65,7.65,0,0,1,3.68-4.26,2.55,2.55,0,0,0,1.53-2.35,6.26,6.26,0,0,1,2.53-4.33,2.76,2.76,0,0,1,2.83-.56,3.24,3.24,0,0,1,.57.21c1.63.93,2.89.7,4.19-.79s3.39-1.61,5.3-.81a2.13,2.13,0,0,0,2,.18c1.37-.79,2.47-.24,3.65.49s2.2,1.43,1.84,3.07c-.21,1,.41,1.51,1.16,1.91s1.45.72,2.19,1a15.46,15.46,0,0,1,6.6,5.15,3.1,3.1,0,0,0,2.71,1.61,3.2,3.2,0,0,1,.6.06c2.7.43,3.21,1.42,2.32,3.93-.41,1.17-1.72,1.75-1.8,3.05a30.33,30.33,0,0,1-.14,3.31c-.73,4.07-1.42,8.16-3.76,11.66.6.6,1.05.2,1.48,0a15.13,15.13,0,0,0,5.83-4.7c.75-.9,1.28-2.05,2.63-2.36.28-.06.61-.82.57-1.23a5.2,5.2,0,0,1,2.33-5.22,4.9,4.9,0,0,0,1.27-1.67A99.94,99.94,0,0,0,153.43,141c2.07-4.93,4.27-9.8,6.41-14.7.16-.37.32-.75.45-1.13.24-.73,0-1.2-.71-1.37l-5-1.13a17.54,17.54,0,0,1-5.88-2.32,1.8,1.8,0,0,0-2.44.16c-2.88,2.42-6.43,3.27-9.94,4.2a9.7,9.7,0,0,1-1.8.23.86.86,0,0,1-.91-.95,5,5,0,0,1,.19-.89,24.38,24.38,0,0,0,.8-8.69c-.33-6.65-.66-13.3-.85-20a61,61,0,0,1,.33-8.46A23.59,23.59,0,0,1,137,77.2a8.73,8.73,0,0,1,1.87-2.36c2.37-2,4.82-4,7.27-5.94.63-.5,1.36-.87,2-1.32a9.72,9.72,0,0,1,5.08-1.76A44.14,44.14,0,0,0,161,64.6a14.52,14.52,0,0,1,9.76.84c1,.48,2,.86,3,1.37a15.84,15.84,0,0,0,5.41,1.78,11.47,11.47,0,0,1,9.31,6.84,34.21,34.21,0,0,1,3,8.86A87.26,87.26,0,0,0,194.9,98.4q1.8,5,3.62,9.95c.14.38.3.75.42,1.14.39,1.2-.1,1.9-1.42,2-.6,0-1.21,0-1.82,0-1.62,0-3.23,0-4.85,0s-3,.13-4.51.2c-.8,1.16-1.56,2.35-2.43,3.46a10.48,10.48,0,0,1-1.72,1.68c-.86.69-1.78,1.31-2.83,2.07.46,1,.92,2,1.35,3a32,32,0,0,0,1.34,3c3.07,5.36,5.1,11.18,7.49,16.84,1.22,2.88,2.43,5.76,3.71,8.61.45,1,1.11,1.92,1.63,2.9a4,4,0,0,0,2.39,2.15,2.77,2.77,0,0,1,2.08,3.24c-.07.6,0,1.22-.11,1.81a2.71,2.71,0,0,1-3.88,2.1,7.15,7.15,0,0,1-3.1-2.33c-1-1.52-2-3-2.86-4.62-1.15-2-2.22-4.07-3.33-6.1a1.31,1.31,0,0,0-.37-.47c-.15-.11-.47-.22-.53-.16a1.08,1.08,0,0,0-.33.69c.31,2.6.62,5.21,1,7.8a57.18,57.18,0,0,0,1.19,5.9c.76,2.82,1.68,5.6,2.54,8.4s1.81,5.77,2.67,8.67c.54,1.82,0,2.32-1.46,2.61-1.67.35-3.29,1-4.94,1.42a1.73,1.73,0,0,0-1.33,1.79c-.06,1.41-.07,2.83-.1,4.24,0,2.32-.23,4.65-.09,7,.29,4.64-.24,9.27-.21,13.89a12.37,12.37,0,0,1-4.48,9.79,3,3,0,0,1-2.8.71,2,2,0,0,1-1.55-2.27,11.12,11.12,0,0,1,1.89-4.74,5.34,5.34,0,0,0,1-3.4c-.1-4-.13-8.07-.24-12.11q-.17-6.35-.43-12.7c-.06-1.47-.72-2-2.14-1.74a1.06,1.06,0,0,0-1,1c-.05.4-.07.8-.08,1.2-.13,3.73-.26,7.46-.37,11.19,0,1.71-.1,3.43-.07,5.14a45.63,45.63,0,0,1-1.34,10.47,11.4,11.4,0,0,1-5.94,7.66,7,7,0,0,1-2.91.55,1.3,1.3,0,0,1-1.27-1.68c.81-2.48,1.42-5.11,3.49-6.93a4.06,4.06,0,0,0,1.44-3.73A91.14,91.14,0,0,1,167,200c.14-4.25-.13-8.48-.35-12.71-.11-2-.22-2.14-2.31-2.42-1.4-.19-2.81-.3-4.22-.47a1,1,0,0,1-.89-1,6,6,0,0,1,.09-1.2c1.1-5.64,2.24-11.28,3.31-16.92a87.18,87.18,0,0,0,1.42-16.56c0-2-.1-4-.21-6A8.67,8.67,0,0,0,163.46,141Zm14.33-60.39c-.19.21-.39.41-.58.64-1,1.24-1.27,1.32-2.4.46s-2.18-1.8-3.29-2.67a.76.76,0,0,0-1.25.28c-.41.92-.73,1.88-1.18,2.78a4.11,4.11,0,0,1-2.54,2.43c-1.14.32-1.75.05-2.12-1-.24-.71-.12-1.56-.76-2.34-.57.48-1,.84-1.46,1.24-1.54,1.46-3,2.95-4.6,4.39a9.16,9.16,0,0,1-1.69,1.24,1.25,1.25,0,0,1-1.91-.78c-.18-.64-.23-1.32-.36-2.08a5.6,5.6,0,0,0-1,.44,69.14,69.14,0,0,1-12.56,7.81,1.22,1.22,0,0,0-.8,1.45c.13.69.21,1.4.39,2.08,1.29,4.87,2.38,9.81,4,14.58a13.94,13.94,0,0,0,9,9.22,38.43,38.43,0,0,0,14,1.81,7.18,7.18,0,0,0,1.76-.39c4.28-1.31,8.12-3.55,12-5.73A8.73,8.73,0,0,0,183,114c2.46-3.38,4.34-7,4.61-11.32.19-2.93.47-5.86-.43-8.72a44.42,44.42,0,0,0-2.92-7.62,5.69,5.69,0,0,0-1.74-2C181,83.19,179.54,82,177.78,80.63ZM176,80.48a26.86,26.86,0,0,1,1.15-2.65c.1-.18.68-.15,1-.12.14,0,.27.27.37.44,1.27,2.11,2.71,4,5.24,4.74a2.7,2.7,0,0,1,1.36,1.52c1.12,2.81,2.17,5.64,3.17,8.49a15.72,15.72,0,0,1,.93,6.25c-.21,3.22-.38,6.45-1.58,9.51-.37.93-.09,1.4.87,1.41,2.42,0,4.84,0,7.25-.1,1.06,0,1.42-.57,1.06-1.64-.83-2.48-1.66-5-2.63-7.4a50.07,50.07,0,0,1-2.85-9.55c-.53-2.88-1.12-5.74-1.79-8.59A24.33,24.33,0,0,0,185,73a5.77,5.77,0,0,0-3.13-2.26c-1.53-.37-3-1.37-4.65-.58a1.2,1.2,0,0,1-1.36-.36A21.46,21.46,0,0,0,168.41,66a11.5,11.5,0,0,0-5.67-.31c-3.38.58-6.79,1-10.15,1.61a13.63,13.63,0,0,0-4.2,1.57A34.6,34.6,0,0,0,144,72.12c-1.09.89-2,2-3.16,2.81-2.35,1.56-3.4,3.84-4.19,6.42a44.72,44.72,0,0,0-1.51,14.07c.06,4.13.4,8.25.57,12.38.07,1.71-.15,3.45.08,5.13a27.77,27.77,0,0,1-.23,8.43c-.07.4-.16.79-.2,1.19a.73.73,0,0,0,1,.81c.89-.18,1.78-.37,2.65-.6a13.34,13.34,0,0,0,5.89-3c1.09-1,1.17-1.35.28-2.53a20.59,20.59,0,0,1-3.89-8.11c-.38-1.77-1.05-3.48-1.5-5.24-.8-3.12-1.53-6.26-2.28-9.39a3.4,3.4,0,0,1,0-.9,1.27,1.27,0,0,1,1-1.33,11.84,11.84,0,0,0,2.58-.81c2.3-1.26,4.59-2.55,6.79-4a27.3,27.3,0,0,0,6.31-5.15.71.71,0,0,1,1.27.43c.08.8,0,1.61.1,2.41,0,.28.18.77.28.77a1.63,1.63,0,0,0,1.08-.27c2.32-2.24,4.6-4.53,6.89-6.8.36-.35.69-.73,1.06-1.06s.88,0,.92.39c.05.5.11,1,.11,1.51,0,.9,0,1.8,0,2.7,0,.39.61.59.95.38a4.23,4.23,0,0,0,1.79-2.35c.39-1.25.75-2.51,1.16-3.76.33-1,1-1.09,1.78-.25s1.71,2,2.65,2.9A10.21,10.21,0,0,0,176,80.48ZM97.12,156.32a17.75,17.75,0,0,0,3.07,10.63c1.65,2.49,3.7,4.6,6.71,5.34a38.33,38.33,0,0,0,6.55,1.08c5.95.4,11.35-1.41,16.36-4.51a8.77,8.77,0,0,0,3.37-3.81A25.4,25.4,0,0,0,135.79,154a15.62,15.62,0,0,0-5-11,13.22,13.22,0,0,0-5.85-3.62,3.35,3.35,0,0,0-3.11.46,8.17,8.17,0,0,1-5.32,1.86c-1.68-.18-2.67.16-3.37,1.64a4.68,4.68,0,0,1-.8.9,4,4,0,0,1-4.91,1.18c-.37-.15-.72-.36-1.09-.52-1.47-.62-1.5-.62-2.49.68-1.28,1.7-2.5,3.44-4.85,3.82a1.4,1.4,0,0,0-1.1,1.3C97.62,152.53,97.38,154.42,97.12,156.32Zm68.19-7.93h-.08c0,1.72,0,3.43,0,5.14,0,.6-.1,1.21-.07,1.81a1.15,1.15,0,0,0,1.37,1.22c1.21-.06,2.41-.23,3.62-.23a46,46,0,0,0,11.62-1.86,6.67,6.67,0,0,0,1.39-.59,1.42,1.42,0,0,0,.83-1.48,23.31,23.31,0,0,0-.56-3.58,64.12,64.12,0,0,1-1.6-10.13,26.48,26.48,0,0,0-1.3-6.5,12.34,12.34,0,0,1-.58-2.63c0-.22.23-.48.37-.72.23.14.61.23.67.42a25.78,25.78,0,0,1,1.95,7.28,49.36,49.36,0,0,0,.55,5.11,7.54,7.54,0,0,0,.82,2.57c2.3,4,4.68,8,7,12a2.12,2.12,0,0,0,.39.45.67.67,0,0,0,1,0c1-1,1.12-1.14.67-2.33-.25-.66-.56-1.29-.85-1.94-.82-1.84-1.66-3.67-2.46-5.52-2.54-5.93-4.77-12-7.7-17.74-1-2-1.93-4-2.9-6-.31-.64-.57-1.3-.92-1.91-.71-1.23-1.07-1.22-2.46-.75a3,3,0,0,0-2.15,3.23c0,.8.21,1.6.17,2.39-.18,4-.4,8.05-.62,12.08a10.4,10.4,0,0,1-.19,1.79c-.11.45-.18,1.12-.84,1-.3,0-.64-.47-.79-.8-.53-1.19-.89-2.46-1.49-3.62a56,56,0,0,1-4.76-11.42c-.07-.26-.29-.68-.47-.7a9.88,9.88,0,0,0-2.65,0c-.28,0-.45.8-.64,1.25-.91,2.13-1.77,4.29-2.72,6.4-1.49,3.31-3.12,6.55-4.55,9.89a47.2,47.2,0,0,1-4,8.11,17.93,17.93,0,0,0-1.32,2.37,1.24,1.24,0,0,0,.43,1.61c1.52,1.18,2.72,1,3.79-.56.84-1.25,1.58-2.58,2.33-3.89,1.81-3.14,3.58-6.3,5.42-9.43a2,2,0,0,0,.12-2.24,5.86,5.86,0,0,1-.53-3.83c.17-1.4.38-2.8.6-4.2a1.54,1.54,0,0,1,.35-.81,1.2,1.2,0,0,1,.76-.26c.1,0,.31.3.3.45a26.34,26.34,0,0,1-.42,2.68c-.65,2.86-.29,5.42,2.11,7.39a2.91,2.91,0,0,1,1,2.44C165.32,144,165.31,146.17,165.31,148.39Zm13.57,35.06c4.08.71,7.52-.52,11-1.65a1.07,1.07,0,0,0,.67-1.46c-.66-2.53-1.18-5.11-2-7.59a114.23,114.23,0,0,1-3.76-13.69,12.65,12.65,0,0,0-.47-1.74c-.46-1.31-.82-1.59-2.24-1.46a16.27,16.27,0,0,0-3.56.62,27.43,27.43,0,0,1-8.36,1.09,26.07,26.07,0,0,0-3.28.43,1.74,1.74,0,0,0-1.64,1.51c-.07.4-.23.78-.3,1.17-.58,3.07-1.15,6.14-1.74,9.2-.73,3.76-1.5,7.51-2.22,11.27-.28,1.45-.07,1.63,1.42,2,2.57.71,5.2.52,7.81.5C173.19,183.7,176.2,183.54,178.88,183.45Zm-59,6.83a24.92,24.92,0,0,0,8-1.54,1.48,1.48,0,0,0,1.06-1.6c-.14-2.91-.25-5.83-.41-8.74-.11-2.19-.75-3,2.55-3.12a5.29,5.29,0,0,0,.6-.07c3.58-.59,4-1.44,2.57-4.75a1.05,1.05,0,0,0-1.21-.68,7.12,7.12,0,0,0-1.47.33c-1.86.75-3.68,1.61-5.57,2.29a5,5,0,0,0-2.93,2.37c-1,1.81-2.85,2.09-4.71,1.08-.26-.14-.49-.36-.75-.51a3.13,3.13,0,0,0-4.34.49c-1.33,1.23-2.64,2.49-4,3.67-2,1.71-2,1.89-.15,3.67,1.36,1.32,1.84,1.26,3.11-.33a12.71,12.71,0,0,1,1.6-1.76.89.89,0,0,1,1.55.59,21.9,21.9,0,0,1,0,4.52c-.68,4.1-.26,3.82,3.65,4Zm-10.32-53.7a16.84,16.84,0,0,0-1.63-1.16,9.16,9.16,0,0,0-1.68-.66,2.39,2.39,0,0,0-3.13,1.05,4.78,4.78,0,0,0-1,3.39,1.92,1.92,0,0,1-1.31,2.12,8.43,8.43,0,0,0-1.59.86,5.62,5.62,0,0,0-2.47,3.65c-.14.82.19,1.25,1,1.52a3.16,3.16,0,0,0,4-1.31c.62-.91,1.18-1.86,1.77-2.79.48-.76,1-.94,1.75-.54s1.37.85,2.09,1.21a3,3,0,0,0,4.07-.67,5.45,5.45,0,0,0,1.87-3.34c.06-.78.61-1,1.28-.44a3.28,3.28,0,0,0,3.39.58,25.2,25.2,0,0,0,2.77-1.19c.92-.48,1.7-3.18,1.24-4a1.64,1.64,0,0,0-.17-.25,2.61,2.61,0,0,0-3.69-.6c-.34.19-.66.41-1,.65l-.71-.6c-1.93-1.63-3.6-1.53-5.18.34C110.63,135,110.2,135.64,109.53,136.57Zm3.37,63.06c.09,1.3.29,1.65,1.59,1.93a39.22,39.22,0,0,0,3.88.6c1,.12,1.32-.17,1.65-1.29.42-1.44.88-2.87,1.35-4.3,0-.14.33-.26.51-.26a.59.59,0,0,1,.46.27c.5,1.21.93,2.44,1.47,3.63.42,1,.88,1.13,2,.86s2.33-.62,3.49-1,1.26-.72.91-1.8q-1-3.16-2.07-6.31c-.35-1-.68-1.3-1.8-1.11a41.92,41.92,0,0,1-7.52.64c-3.91-.06-3.49.18-4.34,3.22C114,196.41,113.42,198,112.9,199.64Zm60.19-10.19c-.09-1.3-.12-2-.19-2.71-.14-1.53-.41-1.78-1.83-1.76-.3,0-.6,0-.91.07-1.78.15-1.91.26-1.91,2,0,2.32.06,4.64.09,7,0,4.54.05,9.08.14,13.62a17.3,17.3,0,0,0,.48,3.28c.07.32.47.8.73.81a1.88,1.88,0,0,0,1.33-.47,4.15,4.15,0,0,0,1.12-2.73c.18-4.23.43-8.46.65-12.69C172.9,193.48,173,191.17,173.09,189.45Zm10.07,7.89H183c.11-3.52.23-7,.33-10.56a4.7,4.7,0,0,0-.07-.9,1,1,0,0,0-1-1,10,10,0,0,0-1.21,0c-1.41.05-1.84.38-1.88,1.78-.08,3.12-.11,6.24-.08,9.36s.56,6.41.15,9.64a14.4,14.4,0,0,0,0,3,12.3,12.3,0,0,0,.53,2.65,1.17,1.17,0,0,0,.88.64,2.17,2.17,0,0,0,2.23-2c.15-1.7.22-3.41.25-5.12C183.19,202.37,183.16,199.85,183.16,197.33Zm-84.17-3c.93-.13,1.89-.24,2.2-1.29a4.41,4.41,0,0,1,1.87-2.23,27.53,27.53,0,0,0,3.39-3,15.29,15.29,0,0,0,1.84-2.69c.1-.16-.07-.6-.25-.76a.87.87,0,0,0-.79-.13,17.3,17.3,0,0,0-1.6,1.34c-1.21,1.05-2.41,2.11-3.62,3.16a1.65,1.65,0,0,1-1.94.33,7,7,0,0,0-1.11-.45,2.38,2.38,0,0,0-2.65,1,2.53,2.53,0,0,0-.48,2.81A3.48,3.48,0,0,0,99,194.36Zm26.91,10.3-.18,0c.49,2.15,1,4.3,1.49,6.44a2.5,2.5,0,0,0,.39.8c.41.6,1.18.72,2.19.42a1.08,1.08,0,0,0,.83-1.37c-.58-2.85-1.18-5.7-1.85-8.54-.05-.24-.64-.52-.95-.49-1.44.15-2,.8-2,2.1C125.85,204.26,125.87,204.46,125.89,204.66Zm10.87-33.5c.57-.21,1-.34,1.49-.56a8.31,8.31,0,0,0,4-4.34c.32-.75.76-1.13,1.63-.89a2.37,2.37,0,0,0,2.25-.56,1.43,1.43,0,0,0,.35-1.3,2.29,2.29,0,0,0-3.74-.74,2.65,2.65,0,0,0-.41.43,29.38,29.38,0,0,1-5.52,5.1,2.66,2.66,0,0,0-.83.85,1.64,1.64,0,0,0,0,1.13C136.1,170.61,136.47,170.84,136.76,171.16ZM151,158.62c-.13-2.4-.33-2.46-2.16-3.07a2.47,2.47,0,0,0-3.36,1.52,5.91,5.91,0,0,0-.16,2.63c.25,1.56,1.33,2.24,3.07,2.2,1.49,0,2.27-.78,2.52-2.41C151,159.18,151,158.88,151,158.62Zm-36.89,54.84c.19-.25.63-.56.75-1,.56-1.93,1-3.88,1.55-5.82.2-.78.4-1.56.57-2.34a.81.81,0,0,0-.77-1.05,1.48,1.48,0,0,0-1.81.71,24.16,24.16,0,0,0-1.22,2.75,39,39,0,0,0-1.33,4.62C111.65,212.44,112.74,213.46,114.13,213.46Zm57,.49c-.16-.16-.35-.5-.52-.49-1,.07-2.17-.08-2.93.4a8.37,8.37,0,0,0-3.76,5.61.94.94,0,0,0,1.32,1.06A9.49,9.49,0,0,0,171.17,214Zm.72-78.52a30.53,30.53,0,0,0,.78-5c.23-4.07-.38-3.48-3.61-2.35-.66.23-.81.8-.67,1.46A14.76,14.76,0,0,0,171.89,135.43ZM182.58,214c-.18-.15-.42-.5-.59-.47-.87.17-2,.18-2.53.72a8.81,8.81,0,0,0-2.6,5,1,1,0,0,0,1.4,1.07,2.86,2.86,0,0,0,.8-.4,11.1,11.1,0,0,0,3.38-4.93A5.62,5.62,0,0,0,182.58,214Zm-9.86-90c0-1.08-.51-1.49-1.5-1.18-1.15.36-2.29.74-3.41,1.18-.65.26-.85,1-.59,1.79a1.12,1.12,0,0,0,1.38.87c1.06-.26,2.08-.71,3.13-1A1.41,1.41,0,0,0,172.72,124Zm25.41,34.91a2.48,2.48,0,0,0-2.84-2.28,1.69,1.69,0,0,0-1.31,1.73,5.5,5.5,0,0,0,.45,1.4,2.45,2.45,0,0,0,2.34,1.49C197.58,161.13,198.12,160.2,198.13,158.9Zm-67.79,57.51a21.16,21.16,0,0,0,2.23-1.09c.65-.41,1.8-.78,1.51-1.62s-1.32-.27-2-.12c-.88.18-1.77.27-2.65.45a.83.83,0,0,0-.4,1.24A9.15,9.15,0,0,0,130.34,216.41Zm-15.85.77.75-.4c-.19-.32-.31-.78-.59-.94-1.05-.58-2.15-1.07-3.25-1.56a.51.51,0,0,0-.46.16.65.65,0,0,0-.08.55A3.75,3.75,0,0,0,114.48,217.18Zm23.72-69.39a9,9,0,0,0-1.57-.78c-.49-.13-.74.39-.54,1.09a7.1,7.1,0,0,0,.43,1.11.56.56,0,0,0,1,.08C137.73,148.89,137.91,148.43,138.21,147.8Zm-40.1,18.82c-.24-.41-.53-.93-.86-1.41-.06-.09-.39-.09-.51,0s-.32.38-.27.47a11.77,11.77,0,0,0,1,1.41c.05.07.33,0,.48-.06S98,166.86,98.11,166.62Z"/><path class="cls-17" d="M171.93,95.45c.05-.41.07-.82.16-1.21a2.72,2.72,0,0,1,4.62-1.57,3.54,3.54,0,0,1,.44,5.32,2.7,2.7,0,0,1-2.66,1.09,3.18,3.18,0,0,1-2.41-2.44A7.85,7.85,0,0,1,171.93,95.45Z"/><path class="cls-17" d="M150,97.78a3.18,3.18,0,1,1-.41,6.32,3.23,3.23,0,0,1-2.93-3.25A3,3,0,0,1,150,97.78Z"/><path class="cls-17" d="M165.24,116c-1.51-.35-3.24-.58-4.57-1.77a1.47,1.47,0,0,1-.43-1.28c.26-.52.83-.36,1.27,0a8,8,0,0,0,1,.73,5.55,5.55,0,0,0,4.34.68,4.2,4.2,0,0,0,3.22-2.85,1.92,1.92,0,0,1,.5-.72.68.68,0,0,1,.54-.16.57.57,0,0,1,.37.39,2.82,2.82,0,0,1-.07,1.16C170.43,114.72,168.67,115.66,165.24,116Z"/><path class="cls-17" d="M172.82,85.51c1.53.32,2.81.57,4.06.89.2.05.49.55.43.66a2.23,2.23,0,0,1-.8.71.8.8,0,0,1-.58-.07,5.19,5.19,0,0,0-6.09,1.15.8.8,0,0,1-.78,0,.93.93,0,0,1-.2-.8,1.67,1.67,0,0,1,.58-1C170.59,86.44,171.79,86,172.82,85.51Z"/><path class="cls-17" d="M150.43,92.45a2.4,2.4,0,0,1-.27.65.72.72,0,0,1-.51.27,5.17,5.17,0,0,0-5.05,2c-.09.11-.52,0-.73-.1s-.18-.35-.18-.53a1.17,1.17,0,0,1,.19-.56,5.3,5.3,0,0,1,5.7-2.38C149.92,91.86,150.17,92.24,150.43,92.45Z"/><path class="cls-17" d="M162.36,105.77a23.41,23.41,0,0,1,2.06,1.8c.16.17,0,.72-.13,1-.05.11-.57.13-.78,0-.61-.32-1.16-.77-1.77-1.1-1.9-1-1.91-1-.58-2.85.17-.24.35-.48.54-.71.38-.48.5-1.63,1.36-1.09.7.45-.07,1.24-.29,1.86C162.65,105.1,162.49,105.45,162.36,105.77Z"/><path class="cls-17" d="M107.39,154.16c1.73-.09,3.17.83,3.39,1.94a3.5,3.5,0,0,1-2,3.68,2,2,0,0,1-2.19-.69,3.53,3.53,0,0,1-.84-3.35C106,154.84,106.64,154.17,107.39,154.16Z"/><path class="cls-17" d="M126.21,148.26c1.26,0,2.75,1.68,2.73,3.12a2.67,2.67,0,0,1-5.34-.23A3.16,3.16,0,0,1,126.21,148.26Z"/><path class="cls-17" d="M118.17,167.39a6.15,6.15,0,0,1-4-1.62c-.18-.16-.08-.71,0-1.05,0-.09.5-.11.76-.07s.34.2.52.3a5.83,5.83,0,0,0,6.88-.9A4.81,4.81,0,0,0,123.5,162c.11-.27.57-.41.87-.6a3.25,3.25,0,0,1,.34,1,3.55,3.55,0,0,1-1.09,2.42A9.91,9.91,0,0,1,118.17,167.39Z"/><path class="cls-17" d="M124.91,143.14a5.86,5.86,0,0,1,.77.08c.44.08.77.38.57.81s-.62.68-.82.61c-1.64-.54-2.89.18-4.11,1.11a.72.72,0,0,1-.7-.11,1,1,0,0,1,0-.82C121.52,143.37,122.94,143.07,124.91,143.14Z"/><path class="cls-17" d="M106.6,149.21c-.17.44-.21.83-.39.93a8.16,8.16,0,0,0-2.93,2.48c-.1.14-.51.12-.75.06s-.2-.36-.17-.53a3.07,3.07,0,0,1,.34-1.12,5.11,5.11,0,0,1,2.8-2.13C105.78,148.81,106.17,149.08,106.6,149.21Z"/><path class="cls-17" d="M117.58,157.16c.55.32,1.23.68,1.86,1.12.07,0-.11.68-.16.68a2.35,2.35,0,0,0-2.32,1.3.57.57,0,0,1-.52,0c-.47-.54,0-2.59.68-3A2.48,2.48,0,0,1,117.58,157.16Z"/><circle class="cls-18" cx="235.02" cy="185.6" r="9.14"/><line class="cls-19" x1="235.26" y1="189.84" x2="235.26" y2="202.42"/><line class="cls-19" x1="235.26" y1="192.21" x2="238.18" y2="190.03"/><line class="cls-19" x1="235.26" y1="193.89" x2="232.08" y2="190.71"/><circle class="cls-18" cx="217.68" cy="137.72" r="9.14"/><line class="cls-19" x1="217.91" y1="141.96" x2="217.91" y2="154.53"/><line class="cls-19" x1="217.91" y1="144.32" x2="220.84" y2="142.14"/><line class="cls-19" x1="217.91" y1="146" x2="214.74" y2="142.83"/><circle class="cls-18" cx="62.69" cy="189.18" r="9.14"/><line class="cls-19" x1="62.93" y1="193.42" x2="62.93" y2="205.99"/><line class="cls-19" x1="62.93" y1="195.78" x2="65.85" y2="193.6"/><line class="cls-19" x1="62.93" y1="197.46" x2="59.75" y2="194.29"/><circle class="cls-20" cx="218.28" cy="195.2" r="12.72"/><line class="cls-21" x1="218.61" y1="201.1" x2="218.61" y2="218.59"/><line class="cls-21" x1="218.61" y1="204.38" x2="222.67" y2="201.36"/><line class="cls-21" x1="218.61" y1="206.72" x2="214.2" y2="202.31"/></g><rect class="cls-22" x="12.61" y="12.61" width="275.54" height="275.54" rx="137.77" ry="137.77"/></g></g></svg>