<svg xmlns="http://www.w3.org/2000/svg" xmlns:xlink="http://www.w3.org/1999/xlink" viewBox="0 0 300.75 300.75"><defs><style>.cls-1,.cls-12,.cls-3{fill:#fff;}.cls-1,.cls-10,.cls-2,.cls-20,.cls-6,.cls-7,.cls-9{stroke:#00913a;}.cls-1,.cls-10,.cls-11,.cls-2,.cls-20,.cls-6,.cls-7,.cls-8,.cls-9{stroke-linecap:round;stroke-miterlimit:10;}.cls-1,.cls-2,.cls-20{stroke-width:0.75px;stroke-dasharray:6.73 5.23;}.cls-2{fill:#f29600;}.cls-4{clip-path:url(#clip-path);}.cls-5{fill:#8dc21f;}.cls-20,.cls-6,.cls-8{fill:none;}.cls-10,.cls-11,.cls-6,.cls-7,.cls-8,.cls-9{stroke-width:0.9px;}.cls-6{stroke-dasharray:1.81 1.81;}.cls-7{fill:#dadf00;}.cls-10,.cls-7,.cls-9{stroke-dasharray:0.58 1.16;}.cls-11,.cls-8{stroke:#006934;}.cls-9{fill:#5fd393;}.cls-10{fill:#1eaa39;}.cls-11{fill:#f7f7f7;}.cls-12,.cls-13,.cls-14,.cls-15,.cls-16,.cls-17,.cls-18{fill-rule:evenodd;}.cls-13{fill:#888;}.cls-14{fill:#76491b;}.cls-15{fill:#fdebd1;}.cls-16{fill:#ee835c;}.cls-17{fill:#bd8a55;}.cls-18{fill:#f19a86;}.cls-19{fill:#f7c6bd;}</style><clipPath id="clip-path"><rect class="cls-1" x="12.61" y="12.61" width="275.54" height="275.54" rx="137.77" ry="137.77"/></clipPath></defs><title>event_03</title><g id="圖層_2" data-name="圖層 2"><g id="圖層_1-2" data-name="圖層 1"><rect class="cls-2" x="0.37" y="0.37" width="300" height="300" rx="150" ry="150"/><rect class="cls-3" x="12.61" y="12.61" width="275.54" height="275.54" rx="137.77" ry="137.77"/><g class="cls-4"><path class="cls-5" d="M36.27,147.35c-5.14,0-7.19,29.1,1.05,48.15,11.59,26.78,37.15,44.2,56.08,52.93,36.31,16.74,44.43,19.9,95.9,8.62,50.06-11,63.5-31.45,74.33-70.57s-8.43-39.12-26.63-39.12Z"/><line class="cls-6" x1="25.89" y1="147.35" x2="274.47" y2="147.35"/><path class="cls-6" d="M135.41,60.45c0-.12,0-.24,0-.37a6.35,6.35,0,0,0-8.68-5.91,9.08,9.08,0,0,0-14.18-2.47,9.1,9.1,0,0,0-13.34,8.05s0,.09,0,.14a6.35,6.35,0,0,0,4.45,11.9,9.09,9.09,0,0,0,12.58,4.37A6.34,6.34,0,0,0,126.33,75a9.07,9.07,0,0,0,5.31-2.73,6.36,6.36,0,1,0,3.77-11.86Z"/><path class="cls-6" d="M284.4,81.06c0-.17,0-.34,0-.51a8.83,8.83,0,0,0-12.07-8.23,12.64,12.64,0,0,0-19.73-3.44,12.66,12.66,0,0,0-18.56,11.2c0,.07,0,.13,0,.19a8.84,8.84,0,0,0,6.19,16.55,12.65,12.65,0,0,0,17.5,6.08,8.82,8.82,0,0,0,14-1.56,12.61,12.61,0,0,0,7.38-3.8,8.84,8.84,0,1,0,5.24-16.5Z"/><circle class="cls-7" cx="70.58" cy="134.25" r="9.14"/><line class="cls-8" x1="70.82" y1="138.49" x2="70.82" y2="151.07"/><line class="cls-8" x1="70.82" y1="140.86" x2="73.74" y2="138.68"/><line class="cls-8" x1="70.82" y1="142.54" x2="67.65" y2="139.37"/><circle class="cls-7" cx="247.99" cy="179.48" r="9.14"/><line class="cls-8" x1="248.23" y1="183.72" x2="248.23" y2="196.3"/><line class="cls-8" x1="248.23" y1="186.09" x2="251.15" y2="183.91"/><line class="cls-8" x1="248.23" y1="187.77" x2="245.06" y2="184.59"/><circle class="cls-9" cx="231.82" cy="187.73" r="14.16"/><line class="cls-8" x1="232.19" y1="194.29" x2="232.19" y2="213.77"/><line class="cls-8" x1="232.19" y1="197.95" x2="236.72" y2="194.58"/><line class="cls-8" x1="232.19" y1="200.55" x2="227.28" y2="195.64"/><circle class="cls-10" cx="56.59" cy="129.13" r="12.72"/><line class="cls-11" x1="56.92" y1="135.03" x2="56.92" y2="152.53"/><line class="cls-11" x1="56.92" y1="138.32" x2="60.98" y2="135.29"/><line class="cls-11" x1="56.92" y1="140.65" x2="52.51" y2="136.24"/><path class="cls-12" d="M174.3,189.57a9.41,9.41,0,0,1,2.27,3.33,16.16,16.16,0,0,1,.64,11.52,1,1,0,0,1-.6.59c-.22,0-.54-.24-.71-.46-.72-1-1.2-2.35-2.15-2.82s-2.34,0-3.53,0c-1.4.09-2.79.23-4.19.35-.86,1.28-.31,2.75-.54,4.12a11.32,11.32,0,0,0-.09,1.21c-.13,2.18-.13,2.18,2.06,2.86,1.16.36,2.32.7,3.47,1.08.23.08.57.34.56.5a1.08,1.08,0,0,1-.45.72,14.17,14.17,0,0,1-7,2.51c-1.21.09-2.43,0-3.63.11-3.39.43-6-1.26-8.64-3a2.08,2.08,0,0,1-.8-.88,1.15,1.15,0,0,1,.14-1,5.23,5.23,0,0,1,1.6-.79c1.24-.41,2.5-.78,3.77-1.13a3.35,3.35,0,0,0,2.11-1.61,1.81,1.81,0,0,0,.23-1.37c-.83-1.81-.7-3.75-1-5.64-.23-1.54-.37-1.65-1.89-1.75-1.71-.12-3.41-.28-5.12-.44-1.29-.12-1.53,0-2.11,1.19s-1,2.22-1.46,3.32a3.14,3.14,0,0,1-.66,1,.74.74,0,0,1-.69-.1,9.44,9.44,0,0,1-1-5.88c1-4.71,3.08-8.77,7.5-11.18a12.88,12.88,0,0,1,3.94-1.44c2.18-.36,4.41-.41,6.62-.56a2.14,2.14,0,0,1,.88.18.67.67,0,0,1,.38.38.55.55,0,0,1-.18.49c-1.06.58-2.14,1.12-3.22,1.67-.48.24-.87.59-.76,1.17.38,2,.79,3.94,1.23,5.9a1.73,1.73,0,0,0,1.64,1.48,43.24,43.24,0,0,1,4.71,1,2.26,2.26,0,0,0,2.81-1.13c.82-1.39,1.7-2.74,2.6-4.08A14.74,14.74,0,0,1,174.3,189.57Z"/><path class="cls-13" d="M173.16,188.08c-1.13,1.82-2.27,3.57-3.34,5.37a2.15,2.15,0,0,1-2.53,1.11,21,21,0,0,1-2.07-.36c-1.73-.53-3.07-1.46-3.27-3.47-.07-.7-.28-1.38-.35-2.07a1.33,1.33,0,0,1,.8-1.48c1.67-.66,3.36-1.31,5.07-1.85a2.56,2.56,0,0,1,1.46.26A12.9,12.9,0,0,1,173.16,188.08Z"/><path class="cls-13" d="M153,199.37c3.83,0,3.08.42,3.72,3.3.11.49.08,1,.19,1.49.48,2.33.22,2.56-2.2,3.39-1.42.49-2.83,1-4.27,1.41a1.82,1.82,0,0,1-1.16,0,3.86,3.86,0,0,1-1.71-3.58c.46-1.53,1-3.05,1.57-4.54a2.27,2.27,0,0,1,2.35-1.55Z"/><path class="cls-13" d="M166.94,206.16c-.11-2.68-.11-2.71,2.62-3a11.09,11.09,0,0,1,2.41,0,2.69,2.69,0,0,1,2.2,1.39,12.24,12.24,0,0,0,.81,1.27c.63.84,1.19,1.75.52,2.76-.8,1.2-1.8,2.22-3.47,1.88-.69-.14-1.38-.28-2.06-.46C167.06,209.15,167.06,209.14,166.94,206.16Z"/><path class="cls-14" d="M160.23,216.5a12.33,12.33,0,0,1-2.38,0A14.71,14.71,0,0,1,148.1,210a30.9,30.9,0,0,1-3.73-6.89,12.71,12.71,0,0,1-.26-7.72,19.4,19.4,0,0,1,3.5-7.28,13.51,13.51,0,0,1,9.17-5.24c.5-.06,1-.21,1.48-.28,3.13-.47,6.22-.65,9.16.89a5.6,5.6,0,0,0,1.13.42,13.88,13.88,0,0,1,8.9,7.18,13.07,13.07,0,0,1,1.34,3.66,19,19,0,0,1-.08,9.27,16.33,16.33,0,0,1-5.79,8.62C168.91,215.75,166.38,216.44,160.23,216.5Zm14.06-26.93a14.74,14.74,0,0,0-1.25,1.42c-.9,1.34-1.78,2.7-2.6,4.08a2.26,2.26,0,0,1-2.81,1.13,43.24,43.24,0,0,0-4.71-1,1.73,1.73,0,0,1-1.64-1.48c-.44-2-.85-3.93-1.23-5.9-.11-.58.28-.92.76-1.17,1.08-.55,2.16-1.09,3.22-1.67a.55.55,0,0,0,.18-.49.67.67,0,0,0-.38-.38,2.14,2.14,0,0,0-.88-.18c-2.21.15-4.44.21-6.62.56a12.88,12.88,0,0,0-3.94,1.44c-4.42,2.4-6.53,6.47-7.5,11.18a9.44,9.44,0,0,0,1,5.88.74.74,0,0,0,.69.1,3.14,3.14,0,0,0,.66-1c.5-1.1.94-2.23,1.46-3.32s.83-1.31,2.11-1.19c1.71.16,3.41.32,5.12.44,1.51.11,1.65.22,1.89,1.75.28,1.89.15,3.83,1,5.64a1.81,1.81,0,0,1-.23,1.37,3.35,3.35,0,0,1-2.11,1.61c-1.26.35-2.52.72-3.77,1.13a5.23,5.23,0,0,0-1.6.79,1.15,1.15,0,0,0-.14,1,2.08,2.08,0,0,0,.8.88c2.62,1.74,5.24,3.43,8.64,3,1.2-.15,2.42,0,3.63-.11a14.17,14.17,0,0,0,7-2.51,1.08,1.08,0,0,0,.45-.72c0-.16-.33-.42-.56-.5-1.15-.38-2.31-.72-3.47-1.08-2.2-.68-2.2-.69-2.06-2.86a11.32,11.32,0,0,1,.09-1.21c.23-1.37-.31-2.84.54-4.12,1.4-.12,2.79-.25,4.19-.35,1.19-.08,2.59-.5,3.53,0s1.43,1.86,2.15,2.82c.16.22.48.48.71.46a1,1,0,0,0,.6-.59,16.16,16.16,0,0,0-.64-11.52A9.41,9.41,0,0,0,174.3,189.57Zm-1.14-1.49a12.9,12.9,0,0,0-4.24-2.49,2.56,2.56,0,0,0-1.46-.26c-1.71.54-3.4,1.19-5.07,1.85a1.33,1.33,0,0,0-.8,1.48c.07.7.29,1.38.35,2.07.2,2,1.54,2.95,3.27,3.47a21,21,0,0,0,2.07.36,2.15,2.15,0,0,0,2.53-1.11C170.89,191.65,172,189.9,173.16,188.08ZM153,199.37l-1.51-.08a2.27,2.27,0,0,0-2.35,1.55c-.58,1.49-1.11,3-1.57,4.54a3.86,3.86,0,0,0,1.71,3.58,1.82,1.82,0,0,0,1.16,0c1.43-.44,2.85-.92,4.27-1.41,2.42-.83,2.68-1.06,2.2-3.39-.1-.49-.08-1-.19-1.49C156.06,199.79,156.81,199.34,153,199.37Zm14,6.79c.12,3,.11,3,3,3.78.68.18,1.37.32,2.06.46,1.67.34,2.67-.68,3.47-1.88.67-1,.1-1.91-.52-2.76a12.24,12.24,0,0,1-.81-1.27,2.69,2.69,0,0,0-2.2-1.39,11.09,11.09,0,0,0-2.41,0C166.83,203.45,166.84,203.48,166.94,206.16Z"/><path class="cls-15" d="M192.76,99.22l2.5,2.06c.7.57,1.38,1.18,2.11,1.7,1.82,1.3,1.82,1.28,3.42-.35.34-.35.71-.66,1.2-1.12,1.1,1.37,2.08,2.64,3.12,3.86s1.35,1.52,2.71.4c1-.8,1.18-.69,1.94.25.57.71,1.06,1.47,1.64,2.16.38.45.84,1.1,1.33,1.15,1.37.15,1.81,1.12,2.3,2.11a10.25,10.25,0,0,0,1.72,3.15A2,2,0,0,1,217,116c-.31,3.55-.95,7-3.2,9.92-.55.72-.94,1.56-1.51,2.27a9.86,9.86,0,0,1-2.06,2.17,26.75,26.75,0,0,1-9.9,4.31,7.52,7.52,0,0,1-3-.08c-6.17-1.26-11.13-4.64-15.43-9a11.58,11.58,0,0,1-3.47-7.56c-.19-4.22-.34-8.5,1.39-12.5a30.26,30.26,0,0,1,2.79-5c.94-1.37,1.35-1.36,2.78-.64l4.31,2.2c.94.48,1.43.34,1.92-.58C192,100.86,192.33,100.14,192.76,99.22Zm-3.19,25.56c.13.46.31,1.34.61,2.17a4.57,4.57,0,0,0,4.58,3.17,4.76,4.76,0,0,0,4.54-2.88c.48-1,.33-1.58-.72-1.81a29.19,29.19,0,0,1-6.93-2.79,3.89,3.89,0,0,0-.55-.23,1,1,0,0,0-1.37.73C189.66,123.54,189.65,123.94,189.57,124.79Zm21-6.67a12.07,12.07,0,0,0-1.23-1.74,2.66,2.66,0,0,0-3.74.21c-1,1.13-1,2.25.24,3.36.15.14.3.26.45.39a1.94,1.94,0,0,0,2.2.48A3.45,3.45,0,0,0,210.56,118.11Zm-22.94-8.94a4.27,4.27,0,0,0-1.14.87,4,4,0,0,0-.56,1.65,2.57,2.57,0,0,0,1.1,2.6c1,.64,1.9,0,2.7-.59a1.6,1.6,0,0,0,.54-2.33,7.56,7.56,0,0,0-1.46-1.8C188.56,109.33,188.09,109.32,187.62,109.17Zm9.08,11.8-.71.87c-.29.36-.36.8.06,1a1.2,1.2,0,0,0,1.08,0,7.43,7.43,0,0,0,1.31-1.6.92.92,0,0,0,0-.84,12.09,12.09,0,0,0-1.47-1.47c-.09-.08-.4,0-.53.1a.63.63,0,0,0-.25.49C196.29,119.95,196.49,120.4,196.71,121Zm9.4-8.18c1.47-.36,2.9-.69,4.31-1.1.14,0,.28-.53.22-.75a.79.79,0,0,0-.61-.46c-1.17.17-2.33.41-3.49.66a1.85,1.85,0,0,0-.75.46c-.13.11-.27.37-.22.49A3,3,0,0,0,206.1,112.79Zm-13.75-5.26c0-.32,0-.59-.11-.68-1.06-.9-2.13-1.78-3.22-2.64a.81.81,0,0,0-.56-.12.76.76,0,0,0-.49.26c-.1.14-.17.47-.09.54,1.11,1,2.22,1.94,3.4,2.82C191.49,107.87,192,107.61,192.36,107.54Z"/><path class="cls-16" d="M199.15,137.79c-.26.19-.6.3-.71.53a6.34,6.34,0,0,0-.42,1.42c-.67,3.25-1.31,6.5-2,9.75-.43,2-1.33,2.63-3.48,2.3a21.05,21.05,0,0,1-3.81-.9c-2.46-.88-4.9-1.82-7.29-2.87-1.68-.74-1.89-1.38-1.21-3.14.84-2.15,1.82-4.25,2.73-6.38.28-.65.58-1.29.81-2a1.7,1.7,0,0,0-1.09-2.41c-1.29-.55-2.62-1-3.91-1.56a1,1,0,0,1-.61-1.23,15.73,15.73,0,0,1,.93-2.53,1.82,1.82,0,0,1,2.79-.75c2,1.35,3.95,2.78,5.87,4.24a2.43,2.43,0,0,1,.66,1.27c.18.67.14,1.41.36,2.06.84,2.53,3.53,3.53,5.53,1.77a4.91,4.91,0,0,1,4.29-1.26,12.51,12.51,0,0,0,3.56-.46c.79-.14,1.55-.45,2.33-.6a.63.63,0,0,1,.8.65,22.35,22.35,0,0,1-.62,3.24c-.06.22-.7.47-1,.39-1.25-.35-2.47-.81-3.7-1.24C199.72,138,199.46,137.92,199.15,137.79Z"/><path class="cls-16" d="M171.39,156.76a3.83,3.83,0,0,1,.51-.86c2.22-2.05,4.47-4.08,6.7-6.13a1.79,1.79,0,0,1,2.15-.41,81.14,81.14,0,0,0,11.11,3.91c2.12.48,2.53,1.05,2.55,3.15a34.54,34.54,0,0,0,1.1,6.24,12.64,12.64,0,0,1,.36,2.08,1.12,1.12,0,0,1-.62.87,7.34,7.34,0,0,1-2.38.18,17.9,17.9,0,0,0-6.31,0c-.86.2-1.25-.19-1.31-1.19-.16-2.7-.83-5.39-.27-8.12,0-.16-.08-.48-.2-.52s-.67-.18-.84,0a11.88,11.88,0,0,0-1.54,1.42c-1.31,1.4-2.58,2.83-3.9,4.22a.92.92,0,0,1-1.35.1C175.22,160,173.31,158.41,171.39,156.76Z"/><path class="cls-17" d="M206.61,104.7a21.51,21.51,0,0,1-3.81-4.95.91.91,0,0,0-1.53-.08c-.27.3-.48.65-.73,1-1.57,2-1.64,2.07-3.49.49-1.22-1-2.31-2.25-3.47-3.36-.82-.79-1.56-.6-2.16.42-.44.76-.34,2-1.31,2.25s-1.9-.49-2.74-1-1.82-1.25-2.71-1.89-1-1-.53-2a8.16,8.16,0,0,1,.76-1.31c.35-.47.72-1.16,1.38-.88.26.11.24.9.36,1.37.17.67.44.8,1.06.49.81-.41,1.58-.91,2.41-1.25a26.6,26.6,0,0,1,3.69-1.31c1.64-.41,1.89-.1,1.76,1.73-.06.95.41,1.3,1.27,1,2.25-.88,4.49-1.77,6.76-2.61.7-.26,1.17.2,1,.94-.09.49-.28,1-.36,1.46a.93.93,0,0,0,1,1.16c.7,0,1.41-.12,2.11-.11a30.2,30.2,0,0,1,3.62.15c1.79.24,2,.69,1.1,2.31-.55,1-.39,1.52.62,1.78,1.27.32,2.55.56,3.81.9.84.23,1,.74.57,1.58-.63,1.26-.6,1.53.35,2.21.33.24.68.42,1,.65,1.7,1.12,1.74,1.16.36,2.57-.66.68-.94,1.25-.33,2.09a1.92,1.92,0,0,1,.46,1.07,1.44,1.44,0,0,1-.61.9c-.13.09-.63-.07-.75-.25-.75-1.19-1.49-2.38-2.12-3.64-.39-.79-.75-1.43-1.76-1.26a1.73,1.73,0,0,1-1.75-.93c-.63-.9-1.24-1.83-1.86-2.74a1.18,1.18,0,0,0-2-.25c-.23.19-.39.46-.61.67S207,104.37,206.61,104.7Z"/><path class="cls-15" d="M220.53,142.08a4.14,4.14,0,0,1-4.56,4.44,1.91,1.91,0,0,1-1.85-2.7c1-2.92,1-2.92-1.36-4.66a14.61,14.61,0,0,0-4.71-2c-1-.3-1.4-2.27-.67-3a1.08,1.08,0,0,1,.8-.28,11.41,11.41,0,0,1,7.08,3.06,6.21,6.21,0,0,0,2.7,1.79A3.52,3.52,0,0,1,220.53,142.08Z"/><path class="cls-15" d="M193.89,172.52a35.07,35.07,0,0,1-1.37,8.21c-.56,1.75-1.36,2.23-3.13,2.09-.7-.06-1.21-.62-.94-1.2,1.64-3.63,1.22-7.46,1.13-11.26,0-.4-.07-.8-.08-1.2,0-.69-.34-1.61.33-2a3.28,3.28,0,0,1,2.91.12,1.41,1.41,0,0,1,.6.94C193.58,169.75,193.73,171.25,193.89,172.52Z"/><path class="cls-15" d="M162.16,131.92a2.31,2.31,0,0,1,1.74-2.5c.29-.09.59-.36.84-.31,2.35.45,4.25-.9,6.31-1.56a7.57,7.57,0,0,1,5.3.45,1.58,1.58,0,0,1,.83,1.09,1.54,1.54,0,0,1-1.35,1.66c-1.21.06-2.42,0-3.63.12a18.85,18.85,0,0,0-3,.48,2.4,2.4,0,0,0-2.1,2.5c-.07,1.56-1.45,2.12-2.88,1.42A3.25,3.25,0,0,1,162.16,131.92Z"/><path class="cls-15" d="M164.19,163a9.12,9.12,0,0,0,7.39-2.46c.88-.77,1.5-.81,2.49.42a1.12,1.12,0,0,1,0,1.06,10.1,10.1,0,0,1-10.85,3.28,2.69,2.69,0,0,1-.55-.24,1,1,0,0,1-.56-1.26,1.46,1.46,0,0,1,.83-.77A4.33,4.33,0,0,1,164.19,163Z"/><path class="cls-12" d="M191.85,184.07a4.26,4.26,0,0,1,3.36,1.06c.2.18.43.56.36.75s-.41.75-.7.82a7.23,7.23,0,0,1-2.37.25,18.79,18.79,0,0,1-3.54-.73c-.38-.12-.62-.71-.92-1.08.36-.29.69-.74,1.1-.82A21.08,21.08,0,0,1,191.85,184.07Z"/><path class="cls-12" d="M160.74,167.22a4.15,4.15,0,0,1-.14.95c-.12.25-.28.56-.5.65a1,1,0,0,1-.83-.12,4.23,4.23,0,0,1-.59-5.2,1.25,1.25,0,0,1,.77-.34.55.55,0,0,1,.43.32C160.2,164.83,160.5,166.19,160.74,167.22Z"/><path class="cls-15" d="M216.4,126c-.12-.23-.38-.51-.32-.67a21,21,0,0,1,1-2.46c.19-.39.41-1.08,1-.67a1.75,1.75,0,0,1,.65,1.22,2.34,2.34,0,0,1-1.41,2.4A4.62,4.62,0,0,1,216.4,126Z"/><path class="cls-15" d="M176.54,110.66a6,6,0,0,1-.91-.9c-.88-1.37-.64-2.31.8-3.18a1,1,0,0,1,.83,0,.85.85,0,0,1,.38.69A7.55,7.55,0,0,1,176.54,110.66Z"/><path class="cls-15" d="M190.45,134a15.36,15.36,0,0,1,2,.64,2.3,2.3,0,0,1,1.05.93c.2.39-.94,1-1.68.9C190.65,136.28,190.27,135.64,190.45,134Z"/><path class="cls-18" d="M191,124.87a2.86,2.86,0,0,1,.88-.45,1.8,1.8,0,0,1,.84.28c1.37.6,2.74,1.2,4.09,1.84a.87.87,0,0,1,.45.62,1.11,1.11,0,0,1-.42.74,3.43,3.43,0,0,1-3.93.38A3.9,3.9,0,0,1,191,124.87Z"/><path class="cls-19" d="M207.35,122.68a4.2,4.2,0,0,0-2.12-.49,2.55,2.55,0,0,0-2.47,2,2.49,2.49,0,0,0-.61,1.62,2.55,2.55,0,0,0,2.53,2.53c1.72,0,3.58-.46,4.11-2.35A3,3,0,0,0,207.35,122.68Z"/><path class="cls-19" d="M186.64,115.59a2.52,2.52,0,0,0-4.45.16,2.51,2.51,0,0,0-1,1,2.55,2.55,0,0,0,.91,3.45,3.43,3.43,0,0,0,4.12-.3,3.18,3.18,0,0,0,1-2.2A4.08,4.08,0,0,0,186.64,115.59Z"/><path class="cls-14" d="M210.34,132.57c.62.31,1.17.54,1.67.84,1.56.91,3.11,1.85,4.68,2.75.87.5,1.81.88,2.68,1.39a5.68,5.68,0,0,1,.4,9.45,5.58,5.58,0,0,1-4.33.86c-2.38-.39-3.25-1.74-2.71-4.1.17-.76.86-1.55.27-2.29a7.1,7.1,0,0,0-2.05-1.72,11.46,11.46,0,0,0-2.81-1.06,1.4,1.4,0,0,0-1.84,1c-.52,1.3-1.16,1.49-2.37,1.28-.2,0-.39-.1-.59-.15-1.15-.27-2.26-.81-3.49-.49-.31,1-.68,2.08-.93,3.14-.64,2.65-1.23,5.31-1.85,8-.11.49-.12,1.14-.44,1.41-1.65,1.39-1.11,3.17-.81,4.78.42,2.27,1.13,4.5,1.76,6.73.53,1.88.38,2.34-1.47,2.74a1.26,1.26,0,0,0-1.15,1.44,9.2,9.2,0,0,0,0,1.21,31.6,31.6,0,0,1-.79,11.12,1.63,1.63,0,0,0,.94,2.18,8.5,8.5,0,0,1,1.68,1.28,1.89,1.89,0,0,1,.15,2.71,2.94,2.94,0,0,1-2,1.2,11.78,11.78,0,0,1-6.55-.67c-1.92-.83-2.93-2.28-2.16-4.34.17-.47.37-.94.58-1.4,1.82-3.91,1.84-8,1.28-12.16a5.56,5.56,0,0,0-.49-1.74,1.24,1.24,0,0,0-.92-.58c-1,0-2.15.91-2.78-.07-.46-.73-.15-1.94-.18-2.93a2.84,2.84,0,0,0,0-.6c-.38-1.51.37-3.23-.86-4.58-1.53.57-2.08,2.11-3.11,3.17-.35.36-.67.75-1,1.11-.73.74-.8.74-1.76.14-1.27-.81-1.28-.81-2.31,0-.16.12-.3.27-.45.4-3,2.59-6.36,3.81-10.35,3-1-.22-1.24-.09-1.43,1a3.7,3.7,0,0,1-1.23,2.34,1.62,1.62,0,0,1-2.2.13,5,5,0,0,1-2.21-3.45,8.07,8.07,0,0,1,.28-3.58,3.44,3.44,0,0,1,4.54-2.28c3.15,1.22,5.93.55,8.63-1.16.92-.58,1-1.05.08-1.84-1.22-1-1.34-1.53.15-2.83,2.13-1.85,4.16-3.83,6.25-5.72a2.41,2.41,0,0,0,1-2,5.28,5.28,0,0,1,.68-2c1.19-2.89,2.42-5.77,3.59-8.67.37-.91.17-1.35-.65-1.68a68.86,68.86,0,0,1-6.32-2.79c-1.79-.91-3.75-.36-5.53.51-.23.11-.38.45-.5.72s-.13.6-.26.87c-1.41,2.91-3.5,3.34-6.14,1.38a4.66,4.66,0,0,1-2-4.22,3.94,3.94,0,0,1,2.62-3.72,5.63,5.63,0,0,1,1.46-.41,37.84,37.84,0,0,0,6.16-1.37,8.76,8.76,0,0,1,4.79,0,5.47,5.47,0,0,0,2.07.27c1.57-.17,2-1,1.19-2.44a14.38,14.38,0,0,1-2-9,2.65,2.65,0,0,0-1.24-2.85,3.55,3.55,0,0,1-1.17-1.36c-.48-.95-1.45-1.78-.91-3a5.18,5.18,0,0,1,2.91-2.91,2.52,2.52,0,0,1,.89-.16c.94,0,1.36-.61,1.83-1.34a20.86,20.86,0,0,0,2.72-5.7,12.6,12.6,0,0,1,3.75-6.12c.95-.85,1.42-.75,2.07.4s.66,1.18,1.75.72A28.27,28.27,0,0,1,195.92,91c1-.17,1.42.13,1.66,1.18s.45,1.25,1.26,1c1.43-.49,2.84-1,4.28-1.5a7.85,7.85,0,0,1,1.79-.29c1-.07,1.42.44,1.41,1.49,0,2,0,1.93,2,2.06a30.39,30.39,0,0,1,4.77.72c1.64.37,1.7.61,1.28,2.3,0,.1-.08.19-.11.28A1,1,0,0,0,215,99.6c1,.35,2.12.62,3.15,1s1.23.73,1,1.83c-.41,1.63-.41,1.63.7,2.45,2.13,1.56,2.15,1.57.74,3.88a1.49,1.49,0,0,0-.2,1.66,1.52,1.52,0,0,1-.34,1.94,5,5,0,0,0-1.52,3.8,11.32,11.32,0,0,1-.32,2.09,2.32,2.32,0,0,0,.62,2.19c2,2.24,1.94,4,0,6.06a2.85,2.85,0,0,1-2.4,1.07c-1.66-.17-2.57.68-3.41,2A28.75,28.75,0,0,1,210.34,132.57ZM192.76,99.22c-.42.91-.72,1.63-1.09,2.32-.48.92-1,1.06-1.92.58l-4.31-2.2c-1.43-.72-1.84-.73-2.78.64a30.26,30.26,0,0,0-2.79,5c-1.73,4-1.59,8.28-1.39,12.5a11.58,11.58,0,0,0,3.47,7.56c4.3,4.37,9.26,7.75,15.43,9a7.52,7.52,0,0,0,3,.08,26.75,26.75,0,0,0,9.9-4.31,9.86,9.86,0,0,0,2.06-2.17c.56-.71,1-1.55,1.51-2.27,2.25-2.93,2.89-6.37,3.2-9.92a2,2,0,0,0-.27-1.42,10.25,10.25,0,0,1-1.72-3.15c-.49-1-.94-2-2.3-2.11-.48-.05-.94-.7-1.33-1.15-.59-.69-1.08-1.46-1.64-2.16-.76-.94-1-1-1.94-.25-1.36,1.12-1.76.72-2.71-.4s-2-2.49-3.12-3.86c-.5.46-.86.78-1.2,1.12-1.6,1.63-1.6,1.65-3.42.35-.73-.52-1.41-1.13-2.11-1.7Zm6.4,38.57c.3.13.57.26.85.35,1.23.43,2.44.89,3.7,1.24.29.08.93-.18,1-.39a22.35,22.35,0,0,0,.62-3.24.63.63,0,0,0-.8-.65c-.79.15-1.55.46-2.33.6a12.51,12.51,0,0,1-3.56.46,4.91,4.91,0,0,0-4.29,1.26c-2,1.76-4.69.75-5.53-1.77-.22-.66-.18-1.39-.36-2.06a2.43,2.43,0,0,0-.66-1.27c-1.92-1.46-3.87-2.89-5.87-4.24a1.82,1.82,0,0,0-2.79.75,15.73,15.73,0,0,0-.93,2.53,1,1,0,0,0,.61,1.23c1.3.54,2.62,1,3.91,1.56a1.7,1.7,0,0,1,1.09,2.41c-.23.66-.53,1.3-.81,2-.91,2.13-1.89,4.23-2.73,6.38-.69,1.76-.47,2.4,1.21,3.14,2.39,1.06,4.83,2,7.29,2.87a21.05,21.05,0,0,0,3.81.9c2.15.33,3-.27,3.48-2.3.69-3.24,1.33-6.5,2-9.75a6.34,6.34,0,0,1,.42-1.42C198.56,138.09,198.9,138,199.15,137.79Zm-27.76,19c1.92,1.64,3.83,3.28,5.74,4.9a.92.92,0,0,0,1.35-.1c1.32-1.39,2.59-2.82,3.9-4.22a11.88,11.88,0,0,1,1.54-1.42c.18-.13.58,0,.84,0s.23.36.2.52c-.56,2.73.11,5.42.27,8.12.06,1,.45,1.39,1.31,1.19a17.9,17.9,0,0,1,6.31,0,7.34,7.34,0,0,0,2.38-.18,1.12,1.12,0,0,0,.62-.87,12.64,12.64,0,0,0-.36-2.08,34.54,34.54,0,0,1-1.1-6.24c0-2.1-.44-2.66-2.55-3.15a81.14,81.14,0,0,1-11.11-3.91,1.79,1.79,0,0,0-2.15.41c-2.22,2.05-4.47,4.07-6.7,6.13A3.83,3.83,0,0,0,171.39,156.76Zm35.22-52.06c.43-.33.68-.49.9-.69s.38-.48.61-.67a1.18,1.18,0,0,1,2,.25c.63.91,1.23,1.84,1.86,2.74a1.73,1.73,0,0,0,1.75.93c1-.17,1.37.47,1.76,1.26.62,1.25,1.37,2.45,2.12,3.64.12.18.62.34.75.25a1.44,1.44,0,0,0,.61-.9,1.92,1.92,0,0,0-.46-1.07c-.61-.83-.33-1.41.33-2.09,1.38-1.41,1.34-1.45-.36-2.57-.34-.22-.7-.41-1-.65-.95-.68-1-1-.35-2.21.42-.84.27-1.36-.57-1.58-1.26-.34-2.55-.58-3.81-.9-1-.26-1.17-.75-.62-1.78.87-1.62.69-2.07-1.1-2.31a30.2,30.2,0,0,0-3.62-.15c-.7,0-1.41.12-2.11.11a.93.93,0,0,1-1-1.16c.08-.49.27-1,.36-1.46.14-.75-.33-1.2-1-.94-2.26.84-4.51,1.74-6.76,2.61-.87.34-1.34,0-1.27-1,.12-1.84-.12-2.14-1.76-1.73A26.6,26.6,0,0,0,190.12,94c-.83.35-1.6.84-2.41,1.25-.62.31-.9.18-1.06-.49-.12-.48-.1-1.26-.36-1.37-.66-.28-1,.41-1.38.88a8.16,8.16,0,0,0-.76,1.31c-.47,1-.37,1.34.53,2s1.77,1.32,2.71,1.89,1.7,1.32,2.74,1,.87-1.49,1.31-2.25c.6-1,1.34-1.21,2.16-.42,1.16,1.12,2.24,2.32,3.47,3.36,1.85,1.58,1.92,1.53,3.49-.49.25-.32.46-.66.73-1a.91.91,0,0,1,1.53.08A21.51,21.51,0,0,0,206.61,104.7Zm13.92,37.38a3.52,3.52,0,0,0-2.58-3.36,6.21,6.21,0,0,1-2.7-1.79,11.41,11.41,0,0,0-7.08-3.06,1.08,1.08,0,0,0-.8.28c-.73.77-.3,2.74.67,3a14.61,14.61,0,0,1,4.71,2c2.31,1.74,2.37,1.74,1.36,4.66a1.91,1.91,0,0,0,1.85,2.7A4.14,4.14,0,0,0,220.53,142.08Zm-26.64,30.44c-.16-1.27-.31-2.77-.55-4.25a1.41,1.41,0,0,0-.6-.94,3.28,3.28,0,0,0-2.91-.12c-.67.35-.35,1.27-.33,2,0,.4.07.8.08,1.2.09,3.8.51,7.63-1.13,11.26-.26.58.24,1.15.94,1.2,1.77.15,2.57-.33,3.13-2.09A35.07,35.07,0,0,0,193.89,172.52Zm-31.73-40.6a3.25,3.25,0,0,0,2.1,3.36c1.43.69,2.81.14,2.88-1.42a2.4,2.4,0,0,1,2.1-2.5,18.85,18.85,0,0,1,3-.48c1.2-.1,2.42-.06,3.63-.12a1.54,1.54,0,0,0,1.35-1.66,1.58,1.58,0,0,0-.83-1.09,7.57,7.57,0,0,0-5.3-.45c-2.06.66-4,2-6.31,1.56-.25,0-.55.22-.84.31A2.31,2.31,0,0,0,162.16,131.92Zm2,31.12a4.33,4.33,0,0,0-1.28,0,1.46,1.46,0,0,0-.83.77,1,1,0,0,0,.56,1.26,2.69,2.69,0,0,0,.55.24A10.1,10.1,0,0,0,174,162.06a1.12,1.12,0,0,0,0-1.06c-1-1.23-1.61-1.19-2.49-.42A9.12,9.12,0,0,1,164.19,163Zm27.65,21a21.08,21.08,0,0,0-2.71.24c-.4.08-.73.54-1.1.82.3.37.54,1,.92,1.08a18.79,18.79,0,0,0,3.54.73,7.23,7.23,0,0,0,2.37-.25c.29-.07.59-.49.7-.82s-.16-.57-.36-.75A4.26,4.26,0,0,0,191.85,184.07Zm-31.11-16.86c-.23-1-.53-2.39-.86-3.74a.55.55,0,0,0-.43-.32,1.25,1.25,0,0,0-.77.34,4.23,4.23,0,0,0,.59,5.2,1,1,0,0,0,.83.12c.22-.09.38-.4.5-.65A4.15,4.15,0,0,0,160.74,167.22ZM216.4,126a4.62,4.62,0,0,0,1-.18,2.34,2.34,0,0,0,1.41-2.4,1.75,1.75,0,0,0-.65-1.22c-.62-.41-.84.27-1,.67a21,21,0,0,0-1,2.46C216,125.5,216.28,125.78,216.4,126Zm-39.86-15.35a7.55,7.55,0,0,0,1.1-3.42.85.85,0,0,0-.38-.69,1,1,0,0,0-.83,0c-1.44.86-1.68,1.8-.8,3.18A6,6,0,0,0,176.54,110.66ZM190.45,134c-.18,1.67.19,2.31,1.37,2.47.74.1,1.88-.5,1.68-.9a2.3,2.3,0,0,0-1.05-.93A15.36,15.36,0,0,0,190.45,134Z"/><path class="cls-14" d="M189.57,124.79c.08-.84.09-1.24.16-1.64a1,1,0,0,1,1.37-.73,3.89,3.89,0,0,1,.55.23,29.19,29.19,0,0,0,6.93,2.79c1.05.23,1.2.8.72,1.81a4.76,4.76,0,0,1-4.54,2.88,4.57,4.57,0,0,1-4.58-3.17C189.88,126.12,189.7,125.24,189.57,124.79Zm1.45.09a3.9,3.9,0,0,0,1.92,3.4,3.43,3.43,0,0,0,3.93-.38,1.11,1.11,0,0,0,.42-.74.87.87,0,0,0-.45-.62c-1.35-.64-2.72-1.24-4.09-1.84a1.8,1.8,0,0,0-.84-.28A2.86,2.86,0,0,0,191,124.87Z"/><path class="cls-14" d="M210.56,118.11a3.45,3.45,0,0,1-2.08,2.7,1.94,1.94,0,0,1-2.2-.48c-.15-.13-.31-.26-.45-.39-1.2-1.12-1.28-2.23-.24-3.36a2.66,2.66,0,0,1,3.74-.21A12.07,12.07,0,0,1,210.56,118.11Z"/><path class="cls-14" d="M187.62,109.17c.46.15.93.16,1.18.4a7.56,7.56,0,0,1,1.46,1.8,1.6,1.6,0,0,1-.54,2.33c-.8.6-1.68,1.23-2.7.59a2.57,2.57,0,0,1-1.1-2.6,4,4,0,0,1,.56-1.65A4.27,4.27,0,0,1,187.62,109.17Z"/><path class="cls-14" d="M196.71,121c-.22-.57-.42-1-.54-1.5a.63.63,0,0,1,.25-.49c.14-.1.45-.18.53-.1a12.09,12.09,0,0,1,1.47,1.47.92.92,0,0,1,0,.84,7.43,7.43,0,0,1-1.31,1.6,1.2,1.2,0,0,1-1.08,0c-.42-.21-.35-.65-.06-1Z"/><path class="cls-14" d="M206.1,112.79a3,3,0,0,1-.54-.69c0-.13.09-.38.22-.49a1.85,1.85,0,0,1,.75-.46c1.15-.26,2.32-.49,3.49-.66a.79.79,0,0,1,.61.46c.06.22-.07.71-.22.75C209,112.1,207.57,112.43,206.1,112.79Z"/><path class="cls-14" d="M192.36,107.54c-.36.07-.87.33-1.07.18-1.18-.88-2.29-1.85-3.4-2.82-.08-.07,0-.4.09-.54a.76.76,0,0,1,.49-.26.81.81,0,0,1,.56.12c1.09.86,2.16,1.74,3.22,2.64C192.35,106.95,192.31,107.22,192.36,107.54Z"/><path class="cls-15" d="M98.48,103.74c.07.86.12,1.54.18,2.21,0,.5,0,1.15.64,1.21a2.12,2.12,0,0,0,1.3-.53c1.51-1.17,3-2.43,4.47-3.6.57-.45,1.1-.18,1.37.53a9.78,9.78,0,0,0,.91,2.19,1.71,1.71,0,0,0,2.84.18c.84-.86,1.56-1.84,2.37-2.74a.87.87,0,0,1,1.32-.08,32.05,32.05,0,0,0,2.6,2.06c1.42.93,2,.69,2.74-1,.28-.62.56-1.25.87-2,1.06.67,1.94,1.34,2.91,1.82,1.92,1,2.19.87,3.86-.87,1.55,1.07,3.13,2.14,4.67,3.26a3.86,3.86,0,0,1,1,1.12c2.63,4.39,3.88,9.07,2.62,14.16a73.66,73.66,0,0,1-3.61,10.88,7.17,7.17,0,0,1-2.9,3.37q-1.15.72-2.31,1.43a14.42,14.42,0,0,1-8.93,2.2c-1.6-.14-3.23,0-4.83-.19-2.7-.27-5.48-.52-7.87-1.88A24.06,24.06,0,0,1,97.57,132a13,13,0,0,1-2-3.36c-.8-2.06-1.42-4.2-2-6.33a13.76,13.76,0,0,1-.44-2.67c-.16-1.91-.3-3.82-.37-5.73-.14-4,1-7.35,4.49-9.65A9.5,9.5,0,0,1,98.48,103.74Zm17.72,26.5s0,.07,0,.11c-1.5,0-3,0-4.5,0a.94.94,0,0,0-.84,1,6.29,6.29,0,0,0,5.32,4.61,3.55,3.55,0,0,0,1.72-.41,6.31,6.31,0,0,0,3.13-4.53.65.65,0,0,0-.64-.82C119,130.22,117.6,130.24,116.2,130.24ZM109,117.92a2.55,2.55,0,0,0-2.2-2.77,3.21,3.21,0,0,0-3.15,2.68,2.9,2.9,0,0,0,2.64,3.11C107.79,121,108.87,119.8,109,117.92ZM126.6,115a2.39,2.39,0,0,0-2.54,3.51,6.31,6.31,0,0,0,.41.8,2.11,2.11,0,0,0,3.48.33,4.92,4.92,0,0,0,.74-1.29C129.43,116.51,128.59,115.18,126.6,115Zm-23.51-5.7c-.19,0-.32-.07-.38,0-.3.21-.71.39-.83.68-.19.46.18.75.63.72a11.94,11.94,0,0,1,4.69.72,1.55,1.55,0,0,0,.87.09.91.91,0,0,0,.59-.52.76.76,0,0,0-.39-.64C106.51,109.94,104.75,109.61,103.08,109.29Zm15.55,17.82c.22,0,.35.08.41,0a4.39,4.39,0,0,0,2.22-3.08c.15-1.15-1.33-1-2-1.55a1.7,1.7,0,0,0-.76-.47.87.87,0,0,0-.75.23.84.84,0,0,0,.07.8c.46.52,1.33.91,1.42,1.45s-.65,1.12-1,1.69a.35.35,0,0,0-.06.28C118.35,126.74,118.52,127,118.63,127.11Zm9.92-18.31c-.17-.12-.44-.43-.55-.38-1.6.75-3.19,1.53-4.75,2.36a.82.82,0,0,0-.13.78c.1.19.57.4.73.31,1.55-.86,3.07-1.77,4.59-2.67C128.49,109.16,128.48,109,128.55,108.8Z"/><path class="cls-16" d="M104.68,157c.37-3.24.8-7,1.23-10.85.09-.77-.35-1.19-1-1-.49.13-1,.32-1.44.45-1.26.35-2.52.72-3.8,1-1,.22-1.42-.1-1.77-1.1a13.07,13.07,0,0,1-1.12-6.19,1.24,1.24,0,0,1,1.11-1.23c.7-.09,1.41-.14,2.1-.28a4.27,4.27,0,0,1,3.16.52,16.11,16.11,0,0,0,3.93,1.5,2.93,2.93,0,0,1,2,1.6,3.92,3.92,0,0,0,6.51.93A3.23,3.23,0,0,1,118.1,141a14.36,14.36,0,0,0,7.82-1.95c.83-.46,1.38-.2,1.59.63a14.49,14.49,0,0,1,.36,2.08c.14,1.36-.07,1.68-1.34,1.82s-2.6.18-3.9.25a1.47,1.47,0,0,0-1.53,1.48,31.31,31.31,0,0,0,.08,11.13,5,5,0,0,1,.1,1.2,1.58,1.58,0,0,1-.95,1.44c-.36.18-.76.26-1.13.42-2.55,1.09-5.3,1.22-8,1.51-2.05.22-4-.62-5.84-1.35a1.51,1.51,0,0,1-.65-.92A8.2,8.2,0,0,1,104.68,157Z"/><path class="cls-16" d="M105.47,161.54a12.59,12.59,0,0,1,1.75.24c4.49,1.35,8.81.31,13-1.12a5.52,5.52,0,0,1,4.33,0c1.38.61,2.82,1.08,4.23,1.58s1.65,1,1.13,2.24a44.13,44.13,0,0,1-4.91,8.66,1.5,1.5,0,0,1-1.87.55,6.22,6.22,0,0,1-1.4-.56c-2.63-1.67-5.28-3.33-7.86-5.09-1.33-.91-1.51-1-2.39.17-1.67,2.15-3.34,4.29-5,6.41-.73.91-.88.86-2,.31A31,31,0,0,1,98,170.5c-.72-.59-.74-1.09-.13-1.8s1.24-1.32,1.85-2c1.29-1.41,2.57-2.83,3.87-4.24A2.18,2.18,0,0,1,105.47,161.54Z"/><path class="cls-17" d="M107.59,100.7c-1.69-.08-2.56,1.18-3.71,1.91s-1.94,1.74-3.22,2.14c-.64-.94-.09-1.83-.09-2.7,0-.19-.07-.49-.18-.54s-.65-.2-.83-.08c-1.65,1.16-3.26,2.37-4.88,3.57a4.83,4.83,0,0,1-1,.66c-.12,0-.55-.27-.56-.43a4.83,4.83,0,0,1,1.21-3.33,20.44,20.44,0,0,1,3.3-3.52c4-3,8.3-5.41,13.48-5.51a35,35,0,0,1,4.8.37,27.48,27.48,0,0,1,10.58,3.37,12.28,12.28,0,0,1,5.93,7.32,1.19,1.19,0,0,1-.21.79c0,.07-.42,0-.55-.05q-2-1.55-4-3.14a10.82,10.82,0,0,0-1.38-1.15c-.21-.11-.65.21-1,.35-.06,0-.06.18-.08.28-.13.65.29,1.53-.55,1.89-1,.45-1.71-.35-2.38-.92s-1.26-1.29-1.91-1.92a.74.74,0,0,0-1.2.35c-.27,1-.45,2-.74,2.92a1,1,0,0,1-1.64.58,24.58,24.58,0,0,1-2.57-2.52c-1-1.19-1.15-1.2-2.08.26a28.44,28.44,0,0,1-1.91,2.72A1.82,1.82,0,0,1,109,105c-.7,0-.92-.71-1.06-1.3a12.1,12.1,0,0,1-.17-1.5C107.7,101.75,107.65,101.26,107.59,100.7Z"/><path class="cls-15" d="M92.57,157.88c-1-.21-1.9-.33-2.75-.59-1-.31-1.18-.68-.68-1.78a2.06,2.06,0,0,0-.07-2,8.5,8.5,0,0,1,4.63-11.73c.58-.23,1.23-.37,1.66.22a2.3,2.3,0,0,1,0,2.54c-.7.57-1.47,1.07-2.22,1.58A4,4,0,0,0,91.33,150c.12,1.5.22,1.67,2,1.91,1.26.17,2.51.54,2.89,1.82a3.32,3.32,0,0,1-1.45,3.44A6.06,6.06,0,0,1,92.57,157.88Z"/><path class="cls-15" d="M140.5,126.51c.62,0,1,0,1.42.11a2.24,2.24,0,0,1,2.07,2.51,18.18,18.18,0,0,1-.35,2.07c-.2,1.21-.73,2.09-2.09,2.16a2.9,2.9,0,0,0-2.16,1.46,12.91,12.91,0,0,1-5.49,4.53,22.61,22.61,0,0,1-3.43,1,1.39,1.39,0,0,1-1.66-1c-.41-1.06-.31-1.6.78-1.73,2.38-.29,4.26-1.73,6.29-2.78a5.2,5.2,0,0,0,2.27-2.72,1.55,1.55,0,0,0-.18-1.91,2.63,2.63,0,0,1-.49-.76,1.75,1.75,0,0,1,1.18-2.61A14.56,14.56,0,0,1,140.5,126.51Z"/><path class="cls-15" d="M129.14,169.31a5.35,5.35,0,0,1,.34-1.14c1.16-2.07,1.33-2.14,3.56-1.62a6.74,6.74,0,0,0,1.16.32c3.27.14,5.57,2.14,7.9,4.08.84.7.87,1.24.15,2a10.6,10.6,0,0,1-1.1,1,1.41,1.41,0,0,1-1.94.12,25,25,0,0,0-9.2-4.41A6.29,6.29,0,0,1,129.14,169.31Z"/><path class="cls-15" d="M101.18,175.32a2.13,2.13,0,0,1-.23.54c-1.4,1.73-2.84,3.37-5.11,4-1.54.45-3,1.13-4.53,1.64a1.27,1.27,0,0,1-1.73-.73,1.84,1.84,0,0,1,.46-2.18,4,4,0,0,1,1.07-.54,16.92,16.92,0,0,0,6.68-4c.43-.39.92-1,1.54-.64a10.91,10.91,0,0,1,1.79,1.53C101.17,175.09,101.16,175.23,101.18,175.32Z"/><path class="cls-12" d="M85.64,183.45a9.89,9.89,0,0,1,.69-1.84,1.92,1.92,0,0,1,1.11-.89c.67-.09,1,.52,1.22,1.1.48,1.09,1,2.15,1.52,3.22a9.11,9.11,0,0,1,.52,1.06,1.4,1.4,0,0,1-.35,1.63,1.42,1.42,0,0,1-1.65.33,4.85,4.85,0,0,1-1.81-1.44A19.85,19.85,0,0,1,85.64,183.45Z"/><path class="cls-12" d="M143.77,177a2.78,2.78,0,0,1-1-.35,1.23,1.23,0,0,1-.4-1,3.15,3.15,0,0,1,.75-1.28q1.51-1.67,3.12-3.26a2.77,2.77,0,0,1,1-.55c.93-.33,2,.52,1.7,1.43a8.26,8.26,0,0,1-4.2,4.86A3.42,3.42,0,0,1,143.77,177Z"/><path class="cls-15" d="M90.93,120.79c.26.17.52.25.56.39.38,1.13.73,2.27,1,3.42,0,.11-.4.5-.5.46A2.94,2.94,0,0,1,90.16,122,4.28,4.28,0,0,1,90.93,120.79Z"/><path class="cls-15" d="M112.74,140.81a4,4,0,0,1,1,.1c.23.09.56.36.54.5a1,1,0,0,1-.5.65,2.23,2.23,0,0,1-2.52-.21.67.67,0,0,1-.24-.5.55.55,0,0,1,.34-.39C111.83,140.87,112.33,140.85,112.74,140.81Z"/><path class="cls-18" d="M115.62,134.45a2.7,2.7,0,0,1-2.31-1.61c-.18-.42,0-.88.39-.92,1.58-.16,3.16-.24,4.75-.32.39,0,.65.51.48.88A3,3,0,0,1,115.62,134.45Z"/><path class="cls-19" d="M130.74,124.83a3,3,0,0,0-3-2.07,2.46,2.46,0,0,0-2.13,1.2,2.53,2.53,0,0,0-1.15,1.5,2.43,2.43,0,0,0,.25,1.95,3.1,3.1,0,0,0,2.7,1.48,3.77,3.77,0,0,0,2.44-1.1A3.08,3.08,0,0,0,130.74,124.83Z"/><path class="cls-19" d="M106.18,124.83a3.42,3.42,0,0,0-1.9-1.41,4.64,4.64,0,0,0-2.15,0l-.07,0a2.42,2.42,0,0,0-2.45.63,4.14,4.14,0,0,0-1,2.47,3.42,3.42,0,0,0,.73,2.38,2.78,2.78,0,0,0,1.24,1.28,3.34,3.34,0,0,0,2.53.23,4.33,4.33,0,0,0,1-.44c.2-.14.4-.29.59-.45l-.16.14a3.48,3.48,0,0,0,1.19-.89A3.3,3.3,0,0,0,106.18,124.83Z"/><path class="cls-14" d="M97.28,172.31c-2.58-2.27-2.57-2.25-.35-4.5,1.27-1.29,2.53-2.61,3.72-4,2.24-2.6,2.31-2.6,2.73-5.83s.61-6.23.83-9.35c.1-1.42-.42-1.8-1.84-1.42-1.27.33-2.51.77-3.77,1.13-1.11.31-1.23.24-1.88-.88-.1-.17-.15-.38-.25-.55s-.24-.32-.47-.62a5.18,5.18,0,0,0-2.46,1.44c-1,.85-.73,2,.46,2.62a26.3,26.3,0,0,1,2.62,1.48,2.46,2.46,0,0,1,1,2.92c-1,4.14-2.88,5.3-7.07,4.32a9.67,9.67,0,0,1-2.24-.87,1.86,1.86,0,0,1-1.13-2c.39-1.84-.15-3.61-.22-5.41a10.2,10.2,0,0,1,6.34-10.33,2.86,2.86,0,0,1,.29-.1c.94-.29,1.63-.77,1.66-1.88a2.14,2.14,0,0,1,.31-1.15,2.18,2.18,0,0,1,1.11-.86,13.86,13.86,0,0,1,2.28-.15c.41-.78-.14-1.06-.46-1.35A14.09,14.09,0,0,1,94,128.66a2.33,2.33,0,0,0-1.41-1.47c-.64-.3-1.24-.67-1.86-1a4.87,4.87,0,0,1-1.92-2.27,2.69,2.69,0,0,1,.12-2.87,3.54,3.54,0,0,1,.92-1.18c1.71-1,1.72-2.51,1.55-4.2a25,25,0,0,1,.24-6.64,3.92,3.92,0,0,0,0-1.49A7.45,7.45,0,0,1,93.43,101a22,22,0,0,1,7.52-6.46c3.28-1.62,6.64-3,10.36-3A40.13,40.13,0,0,1,122,93.2a21.1,21.1,0,0,1,6.8,3.23,12.1,12.1,0,0,1,5.47,9,17.22,17.22,0,0,0,1.22,5.16,17.89,17.89,0,0,1,.41,13c-1.2,3.32-1.91,6.8-3.51,10-.2.4-.66,1-.07,1.31.31.17.92-.14,1.36-.31a5.91,5.91,0,0,0,1-.61c1.82-1.18,2.05-1.84,1.4-4-.8-2.69,0-4,2.75-4.44a15.41,15.41,0,0,1,3.62,0,2.88,2.88,0,0,1,2.62,2.53,10.3,10.3,0,0,1-.65,5.06,2.14,2.14,0,0,1-1.7,1.57c-2.22.28-3.57,1.64-4.67,3.44a3.21,3.21,0,0,1-1.32,1.2c-1.83.83-3.68,1.64-5.58,2.29-1,.33-1.65.63-1.67,1.77s-.73,1.29-1.64,1.38c-1.4.14-2.8.35-4.2.57a1.69,1.69,0,0,0-1.52,1.63,23.37,23.37,0,0,0,.09,6.94c.18,1.09.39,2.18.49,3.27a1.9,1.9,0,0,0,1.37,1.78c2.17.82,4.31,1.7,6.47,2.55,1.15.46,1.23.45,1.15,2a1.41,1.41,0,0,0,1,1.62,16.13,16.13,0,0,0,2.62.72,13.14,13.14,0,0,1,6.23,2.93c.47.38.94.76,1.44,1.11.93.65,1,.64,2.09-.12.33-.22.65-.48,1-.67,1.44-.76,2.37-.7,3.33.22a3.07,3.07,0,0,1,.8,3.82,14.36,14.36,0,0,1-4.75,5,2.8,2.8,0,0,1-2.87.16,15.33,15.33,0,0,1-4-2.59,18.5,18.5,0,0,0-8.49-4.36c-1.66-.4-2.05-.16-3,1.34-.53.86-1,1.77-1.51,2.62a1.48,1.48,0,0,1-2.28.63c-1.31-.75-2.58-1.57-3.85-2.38-1.79-1.13-3.56-2.3-5.36-3.41-1.26-.78-1.64-.72-2.55.41-1.33,1.64-2.63,3.32-3.93,5-.31.4-.61.81-.95,1.18-.74.83-1.07.86-2.05.3-1.6-.91-1.65-1-2.78.17a18.79,18.79,0,0,1-8.74,5.19,7,7,0,0,0-1.13.44c-.67.31-.82.73-.49,1.47.25.55.6,1.06.81,1.62a2.28,2.28,0,0,1-.56,2.5c-1.46,1.58-2.72,1.75-4.52.53a6,6,0,0,1,.4-10.31A34.9,34.9,0,0,1,92,176.45,12,12,0,0,0,97.28,172.31Zm1.2-68.58a9.5,9.5,0,0,0-1.25.56c-3.45,2.31-4.63,5.69-4.49,9.65.07,1.91.21,3.82.37,5.73a13.76,13.76,0,0,0,.44,2.67c.62,2.13,1.23,4.27,2,6.33a13,13,0,0,0,2,3.36,24.06,24.06,0,0,0,7.13,5.47c2.39,1.36,5.16,1.62,7.87,1.88,1.6.16,3.23,0,4.83.19a14.42,14.42,0,0,0,8.93-2.2q1.16-.7,2.31-1.43a7.17,7.17,0,0,0,2.9-3.37,73.66,73.66,0,0,0,3.61-10.88c1.26-5.09,0-9.77-2.62-14.16a3.86,3.86,0,0,0-1-1.12c-1.54-1.12-3.12-2.18-4.67-3.26-1.67,1.74-1.94,1.84-3.86.87-1-.49-1.86-1.15-2.91-1.82-.32.72-.59,1.35-.87,2-.75,1.65-1.32,1.89-2.74,1a32.05,32.05,0,0,1-2.6-2.06.87.87,0,0,0-1.32.08c-.81.9-1.53,1.88-2.37,2.74a1.71,1.71,0,0,1-2.84-.18,9.78,9.78,0,0,1-.91-2.19c-.27-.72-.8-1-1.37-.53-1.51,1.17-3,2.42-4.47,3.6a2.12,2.12,0,0,1-1.3.53c-.6-.06-.6-.71-.64-1.21C98.59,105.28,98.54,104.6,98.48,103.74ZM104.68,157a8.2,8.2,0,0,0,0,1.78,1.51,1.51,0,0,0,.65.92c1.88.73,3.79,1.57,5.84,1.35,2.7-.29,5.44-.42,8-1.51.37-.16.77-.24,1.13-.42a1.58,1.58,0,0,0,.95-1.44,5,5,0,0,0-.1-1.2,31.31,31.31,0,0,1-.08-11.13,1.47,1.47,0,0,1,1.53-1.48c1.3-.07,2.61-.11,3.9-.25s1.48-.46,1.34-1.82a14.49,14.49,0,0,0-.36-2.08c-.21-.84-.76-1.09-1.59-.63A14.36,14.36,0,0,1,118.1,141a3.23,3.23,0,0,0-2.55,1.33,3.92,3.92,0,0,1-6.51-.93,2.93,2.93,0,0,0-2-1.6,16.11,16.11,0,0,1-3.93-1.5,4.27,4.27,0,0,0-3.16-.52c-.69.13-1.4.18-2.1.28a1.24,1.24,0,0,0-1.11,1.23,13.07,13.07,0,0,0,1.12,6.19c.36,1,.8,1.32,1.77,1.1,1.28-.28,2.53-.66,3.8-1,.49-.13,1-.32,1.44-.45.69-.18,1.13.23,1,1C105.48,149.94,105.05,153.74,104.68,157Zm.78,4.56a2.18,2.18,0,0,0-1.88.92c-1.3,1.41-2.58,2.83-3.87,4.24-.61.67-1.26,1.31-1.85,2s-.59,1.21.13,1.8a31,31,0,0,0,6.42,4.47c1.17.55,1.32.6,2-.31,1.7-2.12,3.38-4.26,5-6.41.88-1.13,1.06-1.07,2.39-.17,2.58,1.76,5.22,3.42,7.86,5.09a6.22,6.22,0,0,0,1.4.56,1.5,1.5,0,0,0,1.87-.55,44.13,44.13,0,0,0,4.91-8.66c.52-1.29.24-1.75-1.13-2.24s-2.86-1-4.23-1.58a5.52,5.52,0,0,0-4.33,0c-4.22,1.43-8.54,2.47-13,1.12A12.59,12.59,0,0,0,105.47,161.54Zm2.12-60.85c.06.56.11,1.06.16,1.55a12.1,12.1,0,0,0,.17,1.5c.14.59.36,1.28,1.06,1.3a1.82,1.82,0,0,0,1.23-.66,28.44,28.44,0,0,0,1.91-2.72c.93-1.45,1-1.45,2.08-.26a24.58,24.58,0,0,0,2.57,2.52,1,1,0,0,0,1.64-.58c.29-1,.47-2,.74-2.92a.74.74,0,0,1,1.2-.35c.64.63,1.22,1.34,1.91,1.92s1.36,1.36,2.38.92c.84-.37.42-1.24.55-1.89,0-.1,0-.26.08-.28.33-.15.77-.46,1-.35a10.82,10.82,0,0,1,1.38,1.15q2,1.59,4,3.14c.13.1.51.12.55.05a1.19,1.19,0,0,0,.21-.79,12.28,12.28,0,0,0-5.93-7.32,27.48,27.48,0,0,0-10.58-3.37,35,35,0,0,0-4.8-.37c-5.19.1-9.5,2.48-13.48,5.51a20.44,20.44,0,0,0-3.3,3.52,4.83,4.83,0,0,0-1.21,3.33c0,.16.44.48.56.43a4.83,4.83,0,0,0,1-.66c1.62-1.2,3.23-2.41,4.88-3.57.18-.13.58,0,.83.08s.18.35.18.54c0,.87-.55,1.76.09,2.7,1.28-.41,2.14-1.45,3.22-2.14S105.9,100.62,107.59,100.7Zm-15,57.19a6.06,6.06,0,0,0,2.18-.69,3.32,3.32,0,0,0,1.45-3.44c-.38-1.28-1.62-1.65-2.89-1.82-1.77-.24-1.86-.4-2-1.91a4,4,0,0,1,1.85-3.88c.75-.51,1.52-1,2.22-1.58a2.3,2.3,0,0,0,0-2.54c-.43-.58-1.08-.44-1.66-.22a8.5,8.5,0,0,0-4.63,11.73,2.06,2.06,0,0,1,.07,2c-.5,1.1-.33,1.47.68,1.78C90.67,157.55,91.57,157.68,92.57,157.88Zm47.93-31.37a14.56,14.56,0,0,0-1.84.4,1.75,1.75,0,0,0-1.18,2.61,2.63,2.63,0,0,0,.49.76,1.55,1.55,0,0,1,.18,1.91,5.2,5.2,0,0,1-2.27,2.72c-2,1.05-3.91,2.49-6.29,2.78-1.09.13-1.2.67-.78,1.73a1.39,1.39,0,0,0,1.66,1,22.61,22.61,0,0,0,3.43-1,12.91,12.91,0,0,0,5.49-4.53,2.9,2.9,0,0,1,2.16-1.46c1.36-.07,1.89-1,2.09-2.16a18.18,18.18,0,0,0,.35-2.07,2.24,2.24,0,0,0-2.07-2.51C141.53,126.55,141.13,126.56,140.5,126.51Zm-11.36,42.8a6.29,6.29,0,0,0,.89.43,25,25,0,0,1,9.2,4.41,1.41,1.41,0,0,0,1.94-.12,10.6,10.6,0,0,0,1.1-1c.72-.79.69-1.33-.15-2-2.33-1.94-4.63-3.94-7.9-4.08a6.74,6.74,0,0,1-1.16-.32c-2.23-.52-2.4-.45-3.56,1.62A5.35,5.35,0,0,0,129.14,169.31Zm-28,6c0-.1,0-.23-.07-.29a10.91,10.91,0,0,0-1.79-1.53c-.62-.36-1.11.25-1.54.64a16.92,16.92,0,0,1-6.68,4,4,4,0,0,0-1.07.54,1.84,1.84,0,0,0-.46,2.18,1.27,1.27,0,0,0,1.73.73c1.52-.51,3-1.2,4.53-1.64,2.28-.66,3.71-2.31,5.11-4A2.13,2.13,0,0,0,101.18,175.32Zm-15.54,8.13a19.85,19.85,0,0,0,1.25,3.19,4.85,4.85,0,0,0,1.81,1.44,1.42,1.42,0,0,0,1.65-.33,1.4,1.4,0,0,0,.35-1.63,9.11,9.11,0,0,0-.52-1.06c-.51-1.07-1-2.14-1.52-3.22-.25-.58-.55-1.19-1.22-1.1a1.92,1.92,0,0,0-1.11.89A9.89,9.89,0,0,0,85.64,183.45ZM143.77,177a3.42,3.42,0,0,0,1-.14A8.26,8.26,0,0,0,149,172c.31-.91-.77-1.76-1.7-1.43a2.77,2.77,0,0,0-1,.55q-1.6,1.59-3.12,3.26a3.15,3.15,0,0,0-.75,1.28,1.23,1.23,0,0,0,.4,1A2.78,2.78,0,0,0,143.77,177ZM90.93,120.79a4.28,4.28,0,0,0-.78,1.21A2.94,2.94,0,0,0,92,125.06c.1,0,.53-.35.5-.46-.3-1.15-.66-2.29-1-3.42C91.45,121,91.2,121,90.93,120.79Zm21.8,20c-.4,0-.9.06-1.39.15a.55.55,0,0,0-.34.39.67.67,0,0,0,.24.5,2.23,2.23,0,0,0,2.52.21,1,1,0,0,0,.5-.65c0-.14-.31-.42-.54-.5A4,4,0,0,0,112.74,140.81Z"/><path class="cls-14" d="M116.2,130.24c1.4,0,2.8,0,4.2,0a.65.65,0,0,1,.64.82,6.31,6.31,0,0,1-3.13,4.53,3.55,3.55,0,0,1-1.72.41,6.29,6.29,0,0,1-5.32-4.61.94.94,0,0,1,.84-1c1.5,0,3,0,4.5,0C116.2,130.32,116.2,130.28,116.2,130.24Zm-.57,4.21a3,3,0,0,0,3.31-2c.17-.36-.1-.9-.48-.88-1.58.08-3.17.16-4.75.32-.44,0-.58.5-.39.92A2.7,2.7,0,0,0,115.62,134.45Z"/><path class="cls-14" d="M109,117.92c-.14,1.88-1.22,3.09-2.71,3a2.9,2.9,0,0,1-2.64-3.11,3.21,3.21,0,0,1,3.15-2.68A2.55,2.55,0,0,1,109,117.92Z"/><path class="cls-14" d="M126.6,115c2,.19,2.84,1.52,2.08,3.34a4.92,4.92,0,0,1-.74,1.29,2.11,2.11,0,0,1-3.48-.33,6.31,6.31,0,0,1-.41-.8A2.39,2.39,0,0,1,126.6,115Z"/><path class="cls-14" d="M103.08,109.29c1.67.32,3.43.65,5.18,1a.76.76,0,0,1,.39.64.91.91,0,0,1-.59.52,1.55,1.55,0,0,1-.87-.09,11.94,11.94,0,0,0-4.69-.72c-.45,0-.82-.27-.63-.72.12-.29.53-.47.83-.68C102.76,109.22,102.89,109.27,103.08,109.29Z"/><path class="cls-14" d="M118.63,127.11c-.11-.16-.28-.37-.41-.61a.35.35,0,0,1,.06-.28c.36-.57,1.09-1.2,1-1.69s-1-.93-1.42-1.45a.84.84,0,0,1-.07-.8.87.87,0,0,1,.75-.23,1.7,1.7,0,0,1,.76.47c.62.59,2.1.4,2,1.55a4.39,4.39,0,0,1-2.22,3.08C119,127.19,118.85,127.14,118.63,127.11Z"/><path class="cls-14" d="M128.55,108.8c-.07.22-.06.37-.12.4-1.52.91-3,1.82-4.59,2.67-.15.08-.62-.12-.73-.31a.82.82,0,0,1,.13-.78c1.56-.83,3.15-1.61,4.75-2.36C128.1,108.37,128.38,108.68,128.55,108.8Z"/></g><rect class="cls-20" x="12.61" y="12.61" width="275.54" height="275.54" rx="137.77" ry="137.77"/></g></g></svg>