<svg xmlns="http://www.w3.org/2000/svg" viewBox="0 0 270.54 219.84"><defs><style>.cls-1{fill:#fdebd1;}.cls-1,.cls-10,.cls-11,.cls-12,.cls-13,.cls-2,.cls-3,.cls-4,.cls-5,.cls-6,.cls-8,.cls-9{fill-rule:evenodd;}.cls-2{fill:#ffe792;}.cls-3{fill:#98afd3;}.cls-4{fill:#bd8a55;}.cls-5{fill:#888;}.cls-6{fill:#f19a86;}.cls-7{fill:#f7c6bd;}.cls-8{fill:#76491b;}.cls-9{fill:#ba8cbd;}.cls-10{fill:#f09ba5;}.cls-11{fill:#c0dc96;}.cls-12{fill:#81c0e9;}.cls-13{fill:#f8c170;}</style></defs><title>footer_fam</title><g id="圖層_2" data-name="圖層 2"><g id="圖層_1-2" data-name="圖層 1"><path class="cls-1" d="M146.1,26.61c-.39.25-.8.47-1.16.74-1.12.84-1,2-.81,3.19a1.3,1.3,0,0,0,.9.83c2,.24,4,.44,6,.54,4.24.2,8.49.4,12.74.44,1.36,0,1.84.49,2.24,1.73,1.31,4.07,1.23,8.3,1.28,12.45a47.37,47.37,0,0,1-2.53,16.62,7.24,7.24,0,0,0-.15,1.38c-.17,1.21-.29,2.44-.55,3.63-.65,3.06-2.73,5.44-4.19,8.07A24.37,24.37,0,0,1,153.63,83c-4.41,3.51-9.7,5.06-15.27,5.63a25.7,25.7,0,0,0-2.76,0c-2.86.62-5.73.3-8.59.21a18.28,18.28,0,0,1-5.64-1c-3.75-1.39-7.7-2.24-11.22-4.37a55,55,0,0,1-6.58-4.21,17.62,17.62,0,0,1-4.34-6c-1.7-3.38-4.18-6.29-5.45-10a27.43,27.43,0,0,1-1.5-12.6c.72-5.5,1.32-11.08,3.65-16.24.35-.78.74-1.54,1-2.34a26.83,26.83,0,0,1,7.61-11.51,15,15,0,0,1,5.6-3.42c1.61-.47,1.59-.41,2.23,1.26.13.35.53.81.85.85,2.45.32,4.91.67,7.37.77s4.94-.08,7.41-.14a25.82,25.82,0,0,0-.53,2.84c-.15,2-.11,2,1.9,2.23a64.88,64.88,0,0,0,12.71.56,21.89,21.89,0,0,1,3.62.31Zm-35,44.49c1.66,3.93,3.29,8,8.1,9.1a5.2,5.2,0,0,0,2.25.2c3.49-.82,6.86-1.94,9.36-4.74a12.16,12.16,0,0,0,1.78-2.13,3.77,3.77,0,0,0,.56-2.5c-.12-.41-1.43-.53-2.23-.68a47.73,47.73,0,0,1-5-.88c-4.22-1.29-8.38-2.74-12.57-4.14-.29-.1-.55-.31-.84-.39-1.61-.43-2.09-.06-2.14,1.61,0,.23,0,.47,0,.7l-.15,0A21,21,0,0,0,111.12,71.1ZM141.21,54.6c.89,2.57,3.15,3.16,5.18,1.28a24.22,24.22,0,0,0,2.39-2.82,2.54,2.54,0,0,0,.47-2.35c-.61-2.59-1.71-3.9-3.59-3.91a4.87,4.87,0,0,0-4.72,3.71,15.14,15.14,0,0,0-.23,1.94A19.17,19.17,0,0,0,141.21,54.6ZM112.66,39.72a3.39,3.39,0,0,0-5.09-1.21c-1.78,1.08-2.93,2.47-2.79,4.68a3.66,3.66,0,0,0,3.9,3.68c1.74,0,3-1.05,4.31-2,.49-.35.51-1.37.76-2.16A18.16,18.16,0,0,0,112.66,39.72Zm34.05-2c-.39.13-.91.54-1,.89a2.7,2.7,0,0,0,.22,1.94c.59.69,1.19,0,1.75-.43a4,4,0,0,1,5.71.66c.86,1.16,1.46,2.53,2.22,3.77a4.67,4.67,0,0,0,.86.83c.31-.39.87-.78.88-1.18a6.4,6.4,0,0,0-.46-2.23c-1.18-3.35-3.37-5-6.67-5.2C149.07,37.07,147.87,37.33,146.71,37.72ZM115.28,57.5c.88,1.26,1.81,2.49,2.73,3.72.5.67,1.24.85,1.77.24.3-.34.14-1.08.17-1.64,0-.06-.09-.12-.13-.19l-1.42-2.77,3.06-.88c.29-.08.66,0,.89-.19.66-.46,1.24-1,.79-1.93a1.38,1.38,0,0,0-1.92-.75,42.33,42.33,0,0,1-4.79,1.65c-1.11.28-1.26,1-1.3,2.17A1,1,0,0,0,115.28,57.5ZM110.61,30c2.39-1.29,3.39-1,4.61,1.41.14.28.28.56.39.84.27.68.71,1.49,1.46,1a2.33,2.33,0,0,0,.89-1.89,5.46,5.46,0,0,0-5.72-4.63,24.08,24.08,0,0,0-3.58,1,3.41,3.41,0,0,0-.51.19C108.12,30.1,109.17,30.76,110.61,30Z"/><path class="cls-2" d="M69.34,72.33A32.63,32.63,0,0,0,74.23,77,72.52,72.52,0,0,0,89.75,87.14a17.7,17.7,0,0,1,2.77,1.69c3,2.24,6.65,2.91,10,4.27,1.05.43,2.15.77,3-.68.49-.82,1.78-.21,1.91,1a16.36,16.36,0,0,1-.05,3c-.32,4.4-.68,8.79-1,13.18-.24,3.32-.57,6.63-.64,10-.13,5.75-.1,11.5-.13,17.24,0,.47.08.93.06,1.39,0,1.14.29,1.64,1.63,1.92,2.74.57,5.4,1.44,8.25.81a2.2,2.2,0,0,1,1.14.14c5.24,1.85,10.74,1.29,16.13,1.65,2.2.15,2.47-.18,2.43-2.37,0-1.85-.35-3.7-.38-5.56,0-2.16.09-4.32.19-6.48.28-5.8.66-11.59.86-17.39a50.91,50.91,0,0,0-.44-6,9.13,9.13,0,0,1-.18-1.13c.05-1.1.79-1.53,1.75-1,2.34,1.35,4.75,2.6,7,4.12a13.56,13.56,0,0,1,5.71,14.81,14,14,0,0,1-2.63,5.87c-.67.78-.43,1.4.26,2l3.15,2.72c.57.49,1.17.81,1.82.12a23.3,23.3,0,0,0,2.52-2.7,8.76,8.76,0,0,0,1.71-3.5c.63-4.75,1.2-9.58.4-14.32a14.78,14.78,0,0,0-5.86-9.26c-5.12-3.87-10.5-7.4-15.8-11-1.16-.8-3.76-.13-4.79.93a11.76,11.76,0,0,1-5.9,3.43c-2.24.47-4.35-.66-6.28-1.89a8,8,0,0,1-3.77-4.74,2.48,2.48,0,0,0-1.15-1.26c-2.43-1.36-4.89-2.66-7.35-4-.31-.16-.92-.32-1-.19-1.15,1.35-2.48.61-3.68.29a38.22,38.22,0,0,1-6.15-2A60.55,60.55,0,0,1,89,78.58Q83.81,75.34,78.62,72a42.63,42.63,0,0,1-3.81-2.68,1.29,1.29,0,0,0-2,.1C71.76,70.42,70.61,71.28,69.34,72.33Z"/><path class="cls-3" d="M134,202.41c.19-1.64.49-3.45.58-5.27q.36-7.77.56-15.55c0-1.55-.27-3.1-.25-4.64.07-4.58.28-9.15.33-13.73.05-5.35,0-10.71-.05-16.06,0-1.75-.28-1.93-2.09-2l-9.75-.5a12.57,12.57,0,0,1-5.21-1,4.32,4.32,0,0,0-1.81-.3c-2.55-.06-5.1,0-7.65-.12-2-.06-2.26.07-2.85,1.92-1,3.22-.94,6.57-1.22,9.89-.21,2.54-.65,5.07-.95,7.61s-.49,4.9-.79,7.34c-.47,3.85-1,7.69-1.48,11.53-.39,3-.79,6-1.21,9-.15,1.07-.39,2.13-.57,3.2s.16,1.64,1.32,1.67c1.47,0,2.95.17,4.42.18s2.1-.57,2.23-2c.35-3.92.57-7.84,1-11.74a43,43,0,0,1,1.34-5.4c1.07-4.19,2.4-8.34,3.12-12.58.65-3.8,1.4-7.64,1.13-11.57-.12-1.76.12-1.84,1.86-1.75,1,.06,2,.06,3,.08,1.91,0,2.55.43,2.88,2.3a40.11,40.11,0,0,1,.48,5.53c.23,6.33-.4,12.67.85,19a98.46,98.46,0,0,1,1,10.42c.31,3.53.64,7.06.89,10.59a1.8,1.8,0,0,0,1.65,1.89c1.44.28,2.89.55,4.29,1A23.78,23.78,0,0,1,134,202.41Z"/><path class="cls-4" d="M123.42,3a36.25,36.25,0,0,1,2,3.45,2.54,2.54,0,0,1,.1,1.92c-.4.75-1.22.69-2.06.41-2.57-.85-5.17-1.59-7.75-2.4-2.06-.65-4.15-.2-6.22-.1-.85,0-.83.59-.35,1.1s1.06.74,1.36,1.25a2.86,2.86,0,0,1,.51,1.89c-.22.9-1.12.93-1.94.79a8.35,8.35,0,0,0-5.2.71c2,3,3.5,3.64,6.64,2.62,1.83-.59,3.6-1.39,5.39-2.11.43-.17.84-.56,1.25-.56a2.11,2.11,0,0,1,1.41.54,1.4,1.4,0,0,1,0,1.26,5.52,5.52,0,0,1-1.13,1.44c-.59.59-1.25,1.12-2.18,1.94a10.23,10.23,0,0,0,2.43.78,68.09,68.09,0,0,0,7.69-.07c1.9-.17,3.75-.87,5.65-1.2a2,2,0,0,1,1.6.52c.22.23.07,1.07-.19,1.46-.63,1-1.45,1.82-2.13,2.76-.54.73-.34,1.35.54,1.57a14.08,14.08,0,0,0,3.19.61c4.25.06,8.51,0,12.76,0A6.47,6.47,0,0,0,149,23a1.68,1.68,0,0,1,2,.58c.62.74-.12,1.29-.58,1.76s-1,.74-1.45,1.16c-.78.72-1.51,1.48-2.48,2.45a21.48,21.48,0,0,0,7.39,1.14c3.33.09,6.68,0,10-.11a2.8,2.8,0,0,1,2.7,1.27c2.32,3.12,2.61,6.74,2.87,10.34.22,3.08,0,6.2,0,9.65,1.61-1.25,2.05-2.81,2.61-4.22,1.22-3.08,2.24-6.24,3.33-9.37a7.9,7.9,0,0,0,.33-1.36,5.64,5.64,0,0,0-5.9-6.83c-2.23,0-2.29-.09-2.17-2.25a6.33,6.33,0,0,0-.43-2.45,34.42,34.42,0,0,0-12-15.57c-2.65-2-5.42-3.86-8.18-5.71a6.31,6.31,0,0,0-1.9-.52,6.88,6.88,0,0,0-.13,2c.29,1.27.75,2.5,1.17,3.74.22.66.59,1.33-.19,1.88a1.36,1.36,0,0,1-1.89-.24,18.38,18.38,0,0,0-6.33-3.77,33.6,33.6,0,0,0-3.55-1q-4.59-1.22-9.18-2.43A16.83,16.83,0,0,0,123.42,3Z"/><path class="cls-1" d="M138,136.91c1.06,2.08,1.48,4.29,3.66,5.23s4.09.2,5.94-.93a5,5,0,0,0,.89-.74c2.15-2.15,2.4-4.07.32-6.3a23.05,23.05,0,0,0-5-3.73c-1.39-.84-1.88-.49-2.68,1-.47.86-1.17,1.6-1.66,2.45S138.52,135.89,138,136.91Z"/><path class="cls-5" d="M98.28,197.17c-1.53.42-3.58.86-5.54,1.54-1.48.51-1.76,1.61-1,3a4.1,4.1,0,0,0,3.73,2.4,9.63,9.63,0,0,0,7.32-3,6.22,6.22,0,0,0,.88-1.63c.42-.93.08-1.52-.9-1.68C101.46,197.55,100.14,197.41,98.28,197.17Z"/><path class="cls-5" d="M125.69,209.24a21,21,0,0,0,3.78-.86,4.59,4.59,0,0,0,1.94-1.86c1.09-1.83.81-2-1.07-2.81-3.09-1.41-5.64.12-8.31,1.14-.73.28-.93.86-.71,1.7A3.17,3.17,0,0,0,124,209a8.5,8.5,0,0,0,1.62,0Z"/><path class="cls-1" d="M71,64.84c0-.38.25-.84.11-1.13a3.44,3.44,0,0,0-1.19-1.57c-1.15-.59-4.57,1.15-5,2.42a3.75,3.75,0,0,0,2.35,4.83,2.66,2.66,0,0,0,3.65-2.29c.12-.74.18-1.49.27-2.24Z"/><path class="cls-1" d="M117.46,89.75a11.86,11.86,0,0,0,1.71,1.77c1,.65,2.05,1.09,3.07,1.67a3.08,3.08,0,0,0,3.68-.37c.29-.22.65-.61.62-.89s-.51-.56-.84-.64c-1.13-.27-2.29-.41-3.43-.68-1.49-.36-3-.79-4.43-1.19Z"/><path class="cls-1" d="M165.37,72.32c3.27-.65,5-4.93,3.26-7.13-.35-.43-1-.85-1.24,0C166.68,67.43,166.09,69.74,165.37,72.32Z"/><path class="cls-6" d="M129.84,72.85c-1.42-.36-2.54-.59-3.61-.93-3-1-6-2.05-9.05-2.93a21,21,0,0,0-3.8-.4,15.25,15.25,0,0,0,.71,3.32,13.61,13.61,0,0,0,2.63,4.32,5.58,5.58,0,0,0,6.19,1.36C125.5,76.61,127.91,75.56,129.84,72.85Z"/><path class="cls-7" d="M145.74,65.29a17,17,0,0,1,3.19-1.3,3.26,3.26,0,0,1,4,2.27,3.11,3.11,0,0,1,0,1.85,3.2,3.2,0,0,1,.16,1,3.27,3.27,0,0,1-3.24,3.24,18,18,0,0,1-3.17-.26,4.19,4.19,0,0,1-1.26-.49,3.61,3.61,0,0,1-1.73-2.94C143.46,67.2,144.63,65.94,145.74,65.29Z"/><path class="cls-7" d="M99,51.21a3.22,3.22,0,0,1,5.94.93,3.14,3.14,0,0,1,1,1,3.26,3.26,0,0,1-1.16,4.44c-1.95,1-4.41,2.09-6.27.24C96.45,55.82,97.8,53.2,99,51.21Z"/><path class="cls-8" d="M137.83,144.85q-.2,8.71-.39,17.42c0,.93-.06,1.86-.09,2.79-.14,4.8-.43,9.6-.38,14.39.09,7.83-.08,15.65-.58,23.47,0,.44-.21,1.21-.41,1.24-1.74.24-1.55,1.84-2.14,2.87a6.27,6.27,0,0,1-2,2.48c-3.21,2.07-6.54,2.07-10.06,1.15a3.26,3.26,0,0,1-2.35-2.36,16.74,16.74,0,0,1-.48-3.2,1.93,1.93,0,0,1,1.37-2.17c.36-.14.73-.25,1.1-.39a2,2,0,0,0,1.56-2.39c-.42-4.63-.6-9.28-.86-13.92-.08-1.39-.08-2.8-.25-4.18-.5-4.07-1.24-8.13-1.53-12.21-.25-3.47.06-7,0-10.47a34.26,34.26,0,0,0-.63-5.07c-.2-1.11-1-1.44-2.32-1.4-1.06,0-1.23.63-1.34,1.5-.28,2.38-.72,4.73-1,7.11a73.64,73.64,0,0,1-2.86,14.81,28.57,28.57,0,0,0-1.09,4.28c-.51,3.37-.88,6.76-1.32,10.13-.24,1.84-.53,3.68-.78,5.52-.14,1.07-.44,1.9-1.7,2.19a2.06,2.06,0,0,0-1.17,1.23c-1.36,3.92-4.54,5.57-8.19,6.52a8.37,8.37,0,0,1-8.08-3,4.66,4.66,0,0,1,1.75-6.54,28.59,28.59,0,0,1,3.93-1.33,2.09,2.09,0,0,0,1.73-1.87c.36-2.36.79-4.72,1.14-7.08.83-5.6,1.7-11.19,2.41-16.8.67-5.3,1.15-10.63,1.71-15.94.15-1.39.26-2.78.48-4.15a28.21,28.21,0,0,0,.57-6.35c-.31-4.63-.21-9.29-.21-13.93s0-9,.17-13.51c.2-5.18.61-10.35.9-15.53.06-1.16.4-2.59-.13-3.42s-1.95-1-3-1.32C96,93.82,91.44,90.72,86.67,88a99.63,99.63,0,0,1-11-6.93,48.1,48.1,0,0,1-7.42-6.27,14,14,0,0,0-2.79-2.79,6.77,6.77,0,0,1-3.08-4.73c-.65-3.45,0-5.95,3.37-6.77a17.34,17.34,0,0,0,2.62-1c2.45-1,4.52.18,4.69,2.84.09,1.36.05,2.74,1.81,3.13a1.19,1.19,0,0,1,.71.54c.92,1.86,2.68,2.71,4.33,3.72,4.54,2.79,9.17,5.47,13.55,8.51,2.65,1.83,5.67,2.22,8.6,3.22-.63-1-1.57-1.68-2.15-2.59-2.29-3.59-4.58-7.18-6.64-10.9a25.94,25.94,0,0,1-2.07-5.66A29.4,29.4,0,0,1,90.28,50c.94-6.05,2-12.08,4.16-17.86,1.82-4.83,4-9.38,8.13-12.73.6-.49,1.13-1.07,1.73-1.56s.69-1.08,0-1.68a24.63,24.63,0,0,1-2.68-2.57c-1.52-1.8-1-3.4,1.22-4,.82-.23,1.67-.37,2.5-.55,1.57-.34,1.58-.35.84-1.67a4.61,4.61,0,0,1-.6-3.51,78.19,78.19,0,0,1,8.18.06,84.86,84.86,0,0,1,8.34,1.71A24.44,24.44,0,0,1,121,3.39c-.8-2.17-.36-2.76,2-2.66a10.81,10.81,0,0,1,1.85.21,122.78,122.78,0,0,1,16.59,4.44c.46.17.93.31,1.59.53-.14-.91-.28-1.58-.34-2.26A3.4,3.4,0,0,1,143.9.33c1.16-.79,2.18,0,3.21.6a85,85,0,0,1,14.24,10.46,27.27,27.27,0,0,1,8.66,15,1.76,1.76,0,0,0,1,1c1.06.47,2.21.74,3.27,1.22a6,6,0,0,1,3.65,4.24,15.65,15.65,0,0,1-1.38,9.49,16.6,16.6,0,0,0-.79,1.91,58.61,58.61,0,0,1-3.29,8.09c-1.35,2.68-2.64,5.39-4,8.09-.48,1-.16,1.53.85,2a4.75,4.75,0,0,1,2.17,1.53c2.31,3.74-.52,10.65-4.8,11.91a2.6,2.6,0,0,1-1.37.15c-1.71-.53-2.49.41-3.25,1.72a24.91,24.91,0,0,1-9,8.84,32.65,32.65,0,0,1-5.89,2.59c-2.29.81-4.67,1.37-7.3,2.12.86.66,1.47,1.11,2.06,1.58,3.46,2.74,7.34,4.88,10.63,7.9a21.22,21.22,0,0,1,7.26,16.95c-.06,2.17-.45,4.34-.34,6.49.18,3.23-1.18,5.69-3.26,7.92a18.75,18.75,0,0,1-1.58,1.7,4.5,4.5,0,0,0-1.66,3.41,7.63,7.63,0,0,1-4.14,6.35,10.73,10.73,0,0,1-10.88.19A10.43,10.43,0,0,0,137.83,144.85Zm4.31-119.19a64.88,64.88,0,0,1-12.71-.56c-2-.24-2.06-.22-1.9-2.23A25.82,25.82,0,0,1,128,20c-2.48.06-4.95.24-7.41.14s-4.92-.45-7.37-.77c-.32,0-.72-.5-.85-.85-.63-1.67-.62-1.73-2.23-1.26a15,15,0,0,0-5.6,3.42A26.83,26.83,0,0,0,97,32.21c-.28.8-.67,1.57-1,2.34C93.61,39.71,93,45.29,92.29,50.79a27.43,27.43,0,0,0,1.5,12.6c1.26,3.67,3.74,6.58,5.45,10a17.62,17.62,0,0,0,4.34,6,55,55,0,0,0,6.58,4.21c3.52,2.13,7.46,3,11.22,4.37a18.28,18.28,0,0,0,5.64,1c2.86.09,5.73.41,8.59-.21a25.7,25.7,0,0,1,2.76,0c5.57-.57,10.86-2.11,15.27-5.63a24.37,24.37,0,0,0,6.23-6.82c1.46-2.63,3.55-5,4.19-8.07.26-1.2.38-2.42.55-3.63a7.24,7.24,0,0,1,.15-1.38,47.37,47.37,0,0,0,2.53-16.62c0-4.15,0-8.38-1.28-12.45-.4-1.24-.88-1.71-2.24-1.73-4.25,0-8.49-.24-12.74-.44-2-.09-4-.3-6-.54a1.3,1.3,0,0,1-.9-.83c-.19-1.15-.31-2.35.81-3.19.37-.27.77-.5,1.16-.74l-.34-.65A21.89,21.89,0,0,0,142.14,25.65ZM74.23,77A72.52,72.52,0,0,0,89.75,87.14a17.7,17.7,0,0,1,2.77,1.69c3,2.24,6.65,2.91,10,4.27,1.05.43,2.15.77,3-.68.49-.82,1.78-.21,1.91,1a16.36,16.36,0,0,1-.05,3c-.32,4.4-.68,8.79-1,13.18-.24,3.32-.57,6.63-.64,10-.13,5.75-.1,11.5-.13,17.24,0,.47.08.93.06,1.39,0,1.14.29,1.64,1.63,1.92,2.74.57,5.4,1.44,8.25.81a2.2,2.2,0,0,1,1.14.14c5.24,1.85,10.74,1.29,16.13,1.65,2.2.15,2.47-.18,2.43-2.37,0-1.85-.35-3.7-.38-5.56,0-2.16.09-4.32.19-6.48.28-5.8.66-11.59.86-17.39a50.91,50.91,0,0,0-.44-6,9.13,9.13,0,0,1-.18-1.13c.05-1.1.79-1.53,1.75-1,2.34,1.35,4.75,2.6,7,4.12a13.56,13.56,0,0,1,5.71,14.81,14,14,0,0,1-2.63,5.87c-.67.78-.43,1.4.26,2l3.15,2.72c.57.49,1.17.81,1.82.12a23.3,23.3,0,0,0,2.52-2.7,8.76,8.76,0,0,0,1.71-3.5c.63-4.75,1.2-9.58.4-14.32a14.78,14.78,0,0,0-5.86-9.26c-5.12-3.87-10.5-7.4-15.8-11-1.16-.8-3.76-.13-4.79.93a11.76,11.76,0,0,1-5.9,3.43c-2.24.47-4.35-.66-6.28-1.89a8,8,0,0,1-3.77-4.74,2.48,2.48,0,0,0-1.15-1.26c-2.43-1.36-4.89-2.66-7.35-4-.31-.16-.92-.32-1-.19-1.15,1.35-2.48.61-3.68.29a38.22,38.22,0,0,1-6.15-2A60.55,60.55,0,0,1,89,78.58Q83.81,75.34,78.62,72a42.63,42.63,0,0,1-3.81-2.68,1.29,1.29,0,0,0-2,.1c-1.05,1-2.2,1.83-3.48,2.87A32.63,32.63,0,0,0,74.23,77Zm60.31,120.18q.36-7.77.56-15.55c0-1.55-.27-3.1-.25-4.64.07-4.58.28-9.15.33-13.73.05-5.35,0-10.71-.05-16.06,0-1.75-.28-1.93-2.09-2l-9.75-.5a12.57,12.57,0,0,1-5.21-1,4.32,4.32,0,0,0-1.81-.3c-2.55-.06-5.1,0-7.65-.12-2-.06-2.26.07-2.85,1.92-1,3.22-.94,6.57-1.22,9.89-.21,2.54-.65,5.07-.95,7.61s-.49,4.9-.79,7.34c-.47,3.85-1,7.69-1.48,11.53-.39,3-.79,6-1.21,9-.15,1.07-.39,2.13-.57,3.2s.16,1.64,1.32,1.67c1.47,0,2.95.17,4.42.18s2.1-.57,2.23-2c.35-3.92.57-7.84,1-11.74a43,43,0,0,1,1.34-5.4c1.07-4.19,2.4-8.34,3.12-12.58.65-3.8,1.4-7.64,1.13-11.57-.12-1.76.12-1.84,1.86-1.75,1,.06,2,.06,3,.08,1.91,0,2.55.43,2.88,2.3a40.11,40.11,0,0,1,.48,5.53c.23,6.33-.4,12.67.85,19a98.46,98.46,0,0,1,1,10.42c.31,3.53.64,7.06.89,10.59a1.8,1.8,0,0,0,1.65,1.89c1.44.28,2.89.55,4.29,1a23.78,23.78,0,0,1,2.87,1.27C134.15,200.77,134.46,199,134.54,197.14ZM125.39,6.43a2.54,2.54,0,0,1,.1,1.92c-.4.75-1.22.69-2.06.41-2.57-.85-5.17-1.59-7.75-2.4-2.06-.65-4.15-.2-6.22-.1-.85,0-.83.59-.35,1.1s1.06.74,1.36,1.25a2.86,2.86,0,0,1,.51,1.89c-.22.9-1.12.93-1.94.79a8.35,8.35,0,0,0-5.2.71c2,3,3.5,3.64,6.64,2.62,1.83-.59,3.6-1.39,5.39-2.11.43-.17.84-.56,1.25-.56a2.11,2.11,0,0,1,1.41.54,1.4,1.4,0,0,1,0,1.26,5.52,5.52,0,0,1-1.13,1.44c-.59.59-1.25,1.12-2.18,1.94a10.23,10.23,0,0,0,2.43.78,68.09,68.09,0,0,0,7.69-.07c1.9-.17,3.75-.87,5.65-1.2a2,2,0,0,1,1.6.52c.22.23.07,1.07-.19,1.46-.63,1-1.45,1.82-2.13,2.76-.54.73-.34,1.35.54,1.57a14.08,14.08,0,0,0,3.19.61c4.25.06,8.51,0,12.76,0A6.47,6.47,0,0,0,149,23a1.68,1.68,0,0,1,2,.58c.62.74-.12,1.29-.58,1.76s-1,.74-1.45,1.16c-.78.72-1.51,1.48-2.48,2.45a21.48,21.48,0,0,0,7.39,1.14c3.33.09,6.68,0,10-.11a2.8,2.8,0,0,1,2.7,1.27c2.32,3.12,2.61,6.74,2.87,10.34.22,3.08,0,6.2,0,9.65,1.61-1.25,2.05-2.81,2.61-4.22,1.22-3.08,2.24-6.24,3.33-9.37a7.9,7.9,0,0,0,.33-1.36,5.64,5.64,0,0,0-5.9-6.83c-2.23,0-2.29-.09-2.17-2.25a6.33,6.33,0,0,0-.43-2.45,34.42,34.42,0,0,0-12-15.57c-2.65-2-5.42-3.86-8.18-5.71a6.31,6.31,0,0,0-1.9-.52,6.88,6.88,0,0,0-.13,2c.29,1.27.75,2.5,1.17,3.74.22.66.59,1.33-.19,1.88a1.36,1.36,0,0,1-1.89-.24,18.38,18.38,0,0,0-6.33-3.77,33.6,33.6,0,0,0-3.55-1q-4.59-1.22-9.18-2.43a16.83,16.83,0,0,0-1.7-.2A36.25,36.25,0,0,1,125.39,6.43ZM139,129.9a4.13,4.13,0,0,1,3.47-2.38,3.8,3.8,0,0,0,3-2,14.33,14.33,0,0,0,2.33-8.6,9.41,9.41,0,0,0-3-6.37,23.8,23.8,0,0,0-6.67-4.43c-.22,8.51-.43,16.71-.64,24.92l.59.13C138.39,130.76,138.73,130.36,139,129.9Zm2.68,12.24c2.12.92,4.09.2,5.94-.93a5,5,0,0,0,.89-.74c2.15-2.15,2.4-4.07.32-6.3a23.05,23.05,0,0,0-5-3.73c-1.39-.84-1.88-.49-2.68,1-.47.86-1.17,1.6-1.66,2.45s-1,2-1.48,3C139.09,139,139.5,141.19,141.68,142.14ZM92.73,198.71c-1.48.51-1.76,1.61-1,3a4.1,4.1,0,0,0,3.73,2.4,9.63,9.63,0,0,0,7.32-3,6.22,6.22,0,0,0,.88-1.63c.42-.93.08-1.52-.9-1.68-1.3-.21-2.62-.35-4.48-.59C96.74,197.59,94.7,198,92.73,198.71Zm36.74,9.67a4.59,4.59,0,0,0,1.94-1.86c1.09-1.83.81-2-1.07-2.81-3.09-1.41-5.64.12-8.31,1.14-.73.28-.93.86-.71,1.7A3.17,3.17,0,0,0,124,209a8.5,8.5,0,0,0,1.62,0l0,.2A21,21,0,0,0,129.47,208.38ZM71.09,63.71a3.44,3.44,0,0,0-1.19-1.57c-1.15-.59-4.57,1.15-5,2.42a3.75,3.75,0,0,0,2.35,4.83,2.66,2.66,0,0,0,3.65-2.29c.12-.74.18-1.49.27-2.24l-.15,0C71,64.46,71.23,64,71.09,63.71Zm48.08,27.8c1,.65,2.05,1.09,3.07,1.67a3.08,3.08,0,0,0,3.68-.37c.29-.22.65-.61.62-.89s-.51-.56-.84-.64c-1.13-.27-2.29-.41-3.43-.68-1.49-.36-3-.79-4.43-1.19l-.38.34A11.86,11.86,0,0,0,119.17,91.51Zm49.46-26.33c-.35-.43-1-.85-1.24,0-.72,2.26-1.3,4.57-2,7.15C168.64,71.67,170.41,67.39,168.63,65.18Z"/><path class="cls-8" d="M110.43,67.24c0-.23,0-.47,0-.7.05-1.67.53-2,2.14-1.61.29.08.55.29.84.39,4.18,1.4,8.35,2.85,12.57,4.14a47.73,47.73,0,0,0,5,.88c.8.15,2.11.27,2.23.68a3.77,3.77,0,0,1-.56,2.5,12.16,12.16,0,0,1-1.78,2.13c-2.5,2.8-5.87,3.93-9.36,4.74a5.2,5.2,0,0,1-2.25-.2c-4.81-1.13-6.44-5.17-8.1-9.1a21,21,0,0,1-.85-3.83Zm15.8,4.68c-3-1-6-2.05-9.05-2.93a21,21,0,0,0-3.8-.4,15.25,15.25,0,0,0,.71,3.32,13.61,13.61,0,0,0,2.63,4.32,5.58,5.58,0,0,0,6.19,1.36c2.6-1,5-2,6.94-4.73C128.42,72.48,127.3,72.26,126.22,71.91Z"/><path class="cls-8" d="M140.71,52.45a19.17,19.17,0,0,0,.5,2.16c.89,2.57,3.15,3.16,5.18,1.28a24.22,24.22,0,0,0,2.39-2.82,2.54,2.54,0,0,0,.47-2.35c-.61-2.59-1.71-3.9-3.59-3.91a4.87,4.87,0,0,0-4.72,3.71A15.14,15.14,0,0,0,140.71,52.45Z"/><path class="cls-8" d="M113.75,42.76a18.16,18.16,0,0,0-1.09-3,3.39,3.39,0,0,0-5.09-1.21c-1.78,1.08-2.93,2.47-2.79,4.68a3.66,3.66,0,0,0,3.9,3.68c1.74,0,3-1.05,4.31-2C113.48,44.57,113.5,43.55,113.75,42.76Z"/><path class="cls-8" d="M150.25,36.77c-1.18.31-2.38.57-3.54.95-.39.13-.91.54-1,.89a2.7,2.7,0,0,0,.22,1.94c.59.69,1.19,0,1.75-.43a4,4,0,0,1,5.71.66c.86,1.16,1.46,2.53,2.22,3.77a4.67,4.67,0,0,0,.86.83c.31-.39.87-.78.88-1.18a6.4,6.4,0,0,0-.46-2.23C155.75,38.62,153.55,37,150.25,36.77Z"/><path class="cls-8" d="M115.15,56.93a1,1,0,0,0,.13.57c.88,1.26,1.81,2.49,2.73,3.72.5.67,1.24.85,1.77.24.3-.34.14-1.08.17-1.64,0-.06-.09-.12-.13-.19l-1.42-2.77,3.06-.88c.29-.08.66,0,.89-.19.66-.46,1.24-1,.79-1.93a1.38,1.38,0,0,0-1.92-.75,42.33,42.33,0,0,1-4.79,1.65C115.34,55,115.18,55.71,115.15,56.93Z"/><path class="cls-8" d="M108.16,27.94c0,2.16,1,2.82,2.44,2,2.39-1.29,3.39-1,4.61,1.41.14.28.28.56.39.84.27.68.71,1.49,1.46,1a2.33,2.33,0,0,0,.89-1.89,5.46,5.46,0,0,0-5.72-4.63,24.08,24.08,0,0,0-3.58,1A3.41,3.41,0,0,0,108.16,27.94Z"/><path class="cls-1" d="M235.05,52.63c1.73,1,2.37.7,2.39-1.31,0-.92-.18-1.85-.22-2.78a8.5,8.5,0,0,1,.12-1.31,7.62,7.62,0,0,1,1.39.44,9.41,9.41,0,0,1,1.3,1c2.62,2.06,5.2,4.16,7.85,6.18,2.28,1.73,4.64,3.34,6.92,5.08a2.36,2.36,0,0,1,.81,1.52c.23,3.14.7,6.28.21,9.45-.56,3.59-.88,7.23-1.56,10.8-.84,4.41-3.9,7.76-6,11.6a4.47,4.47,0,0,1-1.54,1.4c-.9.59-1.88,1.05-2.82,1.59a32.08,32.08,0,0,1-4,2.31,54.11,54.11,0,0,1-12,3.53c-5.51.82-10.93.92-16.13-1.54-1.94-.92-4-1.69-5.95-2.48a18.69,18.69,0,0,1-6.42-3.63c-.94-.91-2.13-1.59-3-2.58a29.49,29.49,0,0,1-3.2-4.52,24.76,24.76,0,0,1-1.3-3.67c-.73-2-1.52-3.88-2.25-5.83-1.27-3.39-1.31-7-1.54-10.51a26.06,26.06,0,0,1,1.58-10A3.63,3.63,0,0,1,192.4,55a15.26,15.26,0,0,0,3.93-1.89c3.5-2.53,6.9-5.21,10.33-7.85a7.55,7.55,0,0,0,1.16-1.13c1.07-1.29,1.09-1.3,2.21-.12.43.45.84.92,1.25,1.38,1.61,1.78,3.17,3.62,4.85,5.34s3.81,1.08,4-1.16a49.63,49.63,0,0,1,1-5.13ZM209.31,65.52c0-2.31-2.61-4.81-5-4.85-2,0-5.41,3-5.4,5s2.68,6.14,5.08,5.84C206.62,71.52,209.33,68.48,209.31,65.52ZM233.25,65c-1,1.21-1.64,2.69-.77,4.28a18,18,0,0,0,1.92,2.87c1,1.19,2.2,1.91,3.88,1.26a4.21,4.21,0,0,0,2.92-3.54,7.18,7.18,0,0,0-1.82-6.22,4.63,4.63,0,0,0-1.2-.74A6.69,6.69,0,0,0,233.25,65Zm-5.13,24.23a2.64,2.64,0,0,0-.14-1.54c-.41-1-1.11-1-1.68-.06s-1,1.76-1.52,2.59c-1,1.5-2.41,2.75-4.21,2.37a5.74,5.74,0,0,1-4.43-3.76c-.28-.81-.38-2-1.36-1.82-1.21.25-.7,1.55-.58,2.38.38,2.57,3.92,5.28,6.79,5.31C223.6,94.78,227.53,91.8,228.12,89.27Zm-28-35.89c-.16.55.45,1.32.71,2a4.57,4.57,0,0,0,1.28-.65c.53-.53.82-1.37,1.41-1.78,1.51-1,3.64-.42,4.83,1.31a10.52,10.52,0,0,0,.94,1.59,1.76,1.76,0,0,0,1.37.42c.26-.05.6-.76.55-1.12a5.43,5.43,0,0,0-3-4.41,15.23,15.23,0,0,0-2.92-.76C203.41,50,200.57,51.78,200.11,53.38Zm44.14,4.07A20.32,20.32,0,0,0,240,54.26c-1.33-.73-2.71-.1-3.89.77a13.26,13.26,0,0,1-1.25,1,1.23,1.23,0,0,0-.56,1.91c.26.44.68,1,1.07,1.06s.85-.53,1.14-.94c1.34-1.89,1.82-2.14,3.76-.83a26.26,26.26,0,0,1,3.41,3.38,13.76,13.76,0,0,0,1.16.94l.78-1.37A9.4,9.4,0,0,0,244.25,57.45ZM219.36,75.27c.51-.19,1.18-.25,1.47-.62a2,2,0,0,0,.33-1.61,1.45,1.45,0,0,0-1.23-.71,8.07,8.07,0,0,0-2.13.85c-.76.36-1.47.85-2.25,1.14-1,.35-1.26.72-1,1.88.47,2.17,2.29,3.23,3.49,4.79.34.45,1.11,1,1.75.06a1.37,1.37,0,0,0-.21-2l-3-2.71Z"/><path class="cls-9" d="M255.43,148.51c-2.22-3.6-4.51-7-6.47-10.6a45.08,45.08,0,0,1-3.31-7.9c-1.4-4.41-3.65-8.37-5.79-12.42-1.59-3-2.92-6.15-4.34-9.25-.68-1.47-1.3-3-2-4.45-2.14.31-1.93.36-2.37,2.35-.76,3.47-1.7,6.91-2.78,10.3-1.26,4-2.65,7.94-4.19,11.83a52.08,52.08,0,0,1-3.29,6.37,2,2,0,0,1-1.44.95c-.37,0-.9-.76-1-1.27-1.66-6-4.16-11.86-5-18.1-.41-2.89-.42-5.84-.62-8.93-.32.19-.77.31-1,.6-1.14,1.57-2.23,3.17-3.31,4.78s-2.18,3.21-3.21,4.84q-5,7.86-9.89,15.75c-1.55,2.48-3.06,5-4.62,7.46a10.94,10.94,0,0,1-1.23,1.38c.85,1.29,1.66,2.56,2.51,3.8s1.31,1.29,2,.13c2.24-3.59,5.55-6.23,8.22-9.44a58.49,58.49,0,0,0,4.23-5.84,3.06,3.06,0,0,0,.11-2.2,10.49,10.49,0,0,1,.78-7.68c.57-1.17.84-2.49,1.31-3.72.12-.32.52-.81.7-.77.4.09,1,.4,1.05.72a4.16,4.16,0,0,1-.05,2c-.49,1.71-1.06,3.39-1.68,5.06a5.62,5.62,0,0,0,.15,4.29c.71,1.71,1.26,3.48,1.87,5.24.93,2.66.42,5.38.34,8.08-.13,3.93-.25,7.86-.39,11.79q-.13,3.46-.33,6.92c-.06,1,0,1.64,1.25,1.71,2.21.12,4.41.39,6.61.6a14.62,14.62,0,0,1,1.61.15,36.14,36.14,0,0,0,16.61,0c1.6-.42,1.6-.46,1.42-2-.82-7-1.88-14-1.75-21.05a36.07,36.07,0,0,0-1.18-9.87,3.5,3.5,0,0,1,.15-1.57,10.8,10.8,0,0,1,.52-1.4c.58.3,1.44.46,1.68.93a38.15,38.15,0,0,1,1.56,4.09,13.66,13.66,0,0,0,.8,1.92c1.4,2.5,2.8,5,4.26,7.46q3.15,5.28,6.44,10.47c.32.5,1.24,1.16,1.57,1,.74-.32,1.79-.67,1.61-1.92C253.34,149.5,254.57,148.94,255.43,148.51Z"/><path class="cls-4" d="M251.29,93c.67.48,1.24.71,1.51,1.13,1.34,2.06,3.54,3,5.5,4.17,1.72,1,3.66,1.8,5.75.38-1.89-5.51-1.8-11.14-1.57-16.94.26-6.56,1.71-12.91,2.18-19.4.24-3.31.74-6.62.73-9.93a18.53,18.53,0,0,0-4.66-12.14c-2.35-2.76-4.65-5.62-7.87-7.5-.33-.19-.59-.53-.93-.69-2.58-1.24-5.17-2.48-7.78-3.66a22.07,22.07,0,0,0-7.67-1.77c-6.19-.39-12.4-.68-18.43,1.29a6.48,6.48,0,0,0-3.84,2.8c-.76,1.27-1.25,1.34-2.19.55a6.26,6.26,0,0,0-5.88-1.12,20.71,20.71,0,0,0-5.43,2.52c-2.6,1.64-5.38,3.08-7.4,5.52-2.66,3.21-4.86,6.67-5.15,10.94a21,21,0,0,0,.57,4.29c1.49-.32,3.19-.28,4.41-1a85.62,85.62,0,0,0,9.17-6.59,50.32,50.32,0,0,0,5.21-5.58,1.44,1.44,0,0,1,2.31,0c1.66,2,3.28,4.09,4.92,6.14a3.1,3.1,0,0,0,.47.52c.77.61,1.66,1.79,2.31,1.67,1.15-.21.68-1.69.86-2.62.27-1.44.42-2.9.58-4.36.12-1.06.54-1.36,1.49-.94a2.59,2.59,0,0,1,.78.51c3.48,3.56,8,5.53,12.21,7.92.13.08.25.19.39.26.74.34,1.16.2,1.21-.72a33.48,33.48,0,0,1,.37-3.94,2.52,2.52,0,0,1,.94-1.7c.8-.38,1.27.44,1.86,1,2.29,2.14,4.61,4.26,7.07,6.19,3.1,2.44,6.34,4.71,9.55,7,.68.49,1.56.69,2.26,1.16a2.33,2.33,0,0,1,1.06,1.32c.2,1.9.29,3.82.31,5.74a57.29,57.29,0,0,1-.18,6.23,91.37,91.37,0,0,1-1.35,9.87,19.14,19.14,0,0,1-3.36,8.08C252.75,90.65,252.1,91.8,251.29,93Z"/><path class="cls-10" d="M218,183.82c4.17-.25,8.34-.46,12.51-.77,3-.22,6-.61,9-.89,1-.09,1.31-.58,1.17-1.56-.65-4.36-1.23-8.73-1.89-13.09-.36-2.41-.74-2.66-3-2.15-4.69,1.07-9.39.83-14.13.34-3.39-.36-6.82-.31-10.22-.48-.88,0-1.21.25-1.31,1.15-.51,4.68-1.08,9.36-1.66,14a1.67,1.67,0,0,0,1.07,1.85,17,17,0,0,0,5.85,1.28,22.93,22.93,0,0,0,2.57,0C218,183.65,218,183.74,218,183.82Z"/><path class="cls-10" d="M220,131.27c1.87-2.34,7-16,7-18.39-4.09.32-8.36,1.37-11.69-2.5C215.09,117.73,217.12,124.51,220,131.27Z"/><path class="cls-1" d="M230.47,185.47a23.94,23.94,0,0,0,0,2.75c.68,5.43,1.42,10.86,2.09,16.29.19,1.53.06,3.11.27,4.63a4.4,4.4,0,0,0,1,2.42,2.41,2.41,0,0,0,2.12.3,2.37,2.37,0,0,0,1.43-2.45c-.08-1.31-.32-2.61-.5-3.91-.08-.61-.25-1.22-.28-1.83-.21-4.56-.39-9.12-.6-13.68a13.8,13.8,0,0,0-.21-1.6c-.18-1.11-.38-2.23-.57-3.34l-3.69.24C231.25,185.33,230.95,185.4,230.47,185.47Z"/><path class="cls-1" d="M217.12,185.76c-.23,0-.47,0-.7,0-1.13-.09-1.7.26-1.56,1.55.28,2.62.39,5.25.69,7.87.39,3.54.89,7.06,1.34,10.59a13.38,13.38,0,0,0,.25,1.6c.35,1.36.6,1.42,2.18,1.37A1.55,1.55,0,0,0,221,207c0-2.31-.1-4.62-.14-6.93,0-2.76-.06-5.53-.11-8.29a29,29,0,0,0-.18-3C220.23,185.91,220.11,185.82,217.12,185.76Z"/><path class="cls-1" d="M222.71,111c1.61-.51,3.24-.95,4.81-1.55.8-.31,1.58-3.55,1-4.25a1.88,1.88,0,0,0-1.4-.35,33.1,33.1,0,0,1-8.33,0c-.83-.15-1.69-.18-2.52-.3-.56-.08-.86.09-1,.67s-.29,1,.51,1.25c.46.14,1.11.58,1.18,1,.55,3,3,3,5.17,3.32a1.84,1.84,0,0,0,.46,0Z"/><path class="cls-1" d="M183.7,147.77a5.78,5.78,0,0,0,3.19,4.51,2.12,2.12,0,0,0,2.76-1c.63-1.13,1.48-2.38.79-3.67a6.31,6.31,0,0,0-4.16-3.09C185,144.24,183.67,146,183.7,147.77Z"/><path class="cls-1" d="M254.56,156.22c.05.58.06.65.06.73.09,1.09-.41,2.45,1.23,2.86,1.45.36,4-.75,4.28-2.09a6.73,6.73,0,0,0-.65-5.35,1.26,1.26,0,0,0-2-.4C255.91,153.14,254,154.16,254.56,156.22Z"/><path class="cls-9" d="M214.53,216.12c2.66-.16,4.61-1.08,5.9-3.16.59-1,.37-1.27-.76-1.48-2.78-.5-5.11.5-7.24,2.13-1,.72-.92,1.38.15,1.92A9.57,9.57,0,0,0,214.53,216.12Z"/><path class="cls-9" d="M229.77,217.49a9.58,9.58,0,0,0,5.55-1.81c.57-.38.61-1-.2-1.14a6,6,0,0,1-3.69-1.72c-.57-.59-2.11.24-3.27,1.52-.66.72-.94,1.66-.33,2.28A4.85,4.85,0,0,0,229.77,217.49Z"/><path class="cls-7" d="M239.53,83.22c1.13,1.88,3.28,2,5.18,1.43a3.29,3.29,0,0,0,2.27-4,3.15,3.15,0,0,0-.53-1.06,3.39,3.39,0,0,0-1.61-2.83,3.29,3.29,0,0,0-4.44,1.16C239.39,79.48,238.47,81.44,239.53,83.22Zm3-4.68h0C242.2,78.61,241.9,78.57,242.53,78.53Z"/><path class="cls-7" d="M196.62,79.14a13.81,13.81,0,0,0,.91,2.94A4.21,4.21,0,0,0,200,84.26a3.73,3.73,0,0,0,3.75-1,7.67,7.67,0,0,0,1.42-2.06A3.3,3.3,0,0,0,204,76.78a3.24,3.24,0,0,0-1.59-.41,3.4,3.4,0,0,0-3.5-1.21A3.3,3.3,0,0,0,196.62,79.14Zm6.68,0c.15.19.09.13,0,0Zm-4.25-.36c-.16.2-.32.35,0,0Z"/><path class="cls-8" d="M238.28,137.07c0,1.28,0,2.55,0,3.83,0,2.56-.41,5.22.15,7.65,1.13,4.9.31,10.12,2.54,14.81a1.55,1.55,0,0,1,0,.46c.29,3.22.48,6.45.9,9.65s1.06,6.24,1.58,9.37c.19,1.14-.19,1.57-1.37,1.62-.77,0-1.55,0-2.33,0-1,0-1.63.28-1.61,1.65.14,8,.25,16,1.63,23.89.51,2.9-.07,5.32-2.56,7.1-.5.36-1,.81-1.48,1.12a11.34,11.34,0,0,1-8,1.43c-3-.53-4.2-4.55-1.85-6.46,1.2-1,2.24-2.15,3.37-3.2a2.35,2.35,0,0,0,1-2c-.11-2.16.06-4.34-.2-6.47-.57-4.68-1.33-9.35-2-14a1.83,1.83,0,0,0-2.1-1.71c-.54,0-1.09,0-1.63,0-1.49.07-1.54.12-1.5,1.61.17,6,.36,12.05.54,18.08,0,1.29-.34,2.66.81,3.72a.77.77,0,0,1,.12.65c-.77,2.52-1.5,5.1-3.92,6.62a10.27,10.27,0,0,1-3.11,1.56,12.59,12.59,0,0,1-4.78.28c-2-.37-2.64-2.19-3-4-.31-1.63.79-2.35,1.93-3.07a20.4,20.4,0,0,0,2.31-1.57,2,2,0,0,0,.75-1.31c-.11-2.24-.31-4.48-.57-6.71-.54-4.78-1.17-9.54-1.69-14.32-.18-1.68-.09-1.68-1.93-2.09-.61-.14-1.2-.33-1.79-.5-1.93-.56-2.62-1.57-2.36-3.59.4-3.15.93-6.29,1.24-9.45.49-5.09,1-10.18,1.2-15.28.27-6.27.27-12.54.37-18.82a6.25,6.25,0,0,0-1-4.16c-1.43,1.59-2.79,3.07-4.11,4.57-3.21,3.67-6.79,7-9.19,11.37-.25.46-.61,1.1-1,1.2-1,.23-1.28,1-1.75,1.71a4.53,4.53,0,0,1-7.17,1,12.05,12.05,0,0,1-2.51-3.28,5.71,5.71,0,0,1,1.71-7.27c.48-.35,1.18-.8,1.64-.68,1.83.47,2.38-.46,2.61-2a2.45,2.45,0,0,1,.58-1c.89-1.16,1.9-2.24,2.7-3.45q4.91-7.48,9.72-15c2.46-3.84,4.86-7.72,7.29-11.57,1.14-1.8,2.29-3.59,3.51-5.49l-8.11-3.6c-7-3.11-11.93-8.17-14.08-15.68-.3-1-.69-2-1-3.08-.82-2.82-1.74-5.62-2.39-8.48A25.11,25.11,0,0,1,187,58.47a3.33,3.33,0,0,0-.14-2.45,14.18,14.18,0,0,1-.57-10,30.42,30.42,0,0,1,1.36-3.46c1.54-3.12,3.18-6.15,6.41-8,2.49-1.41,4.85-3,7.23-4.63,3.05-2,6.33-3,9.92-1.88a4.3,4.3,0,0,0,3.74-.56c4.55-2.82,9.59-3.28,14.75-3.21a38,38,0,0,1,3.93.16c3.15.37,6.4.42,9.39,1.33a40.05,40.05,0,0,1,12.79,6.48,33,33,0,0,1,9.35,11.05c1.86,3.57,3.06,7.29,2.55,11.4-.15,1.23-.17,2.48-.32,3.71-.57,4.69-1.18,9.37-1.76,14.06-.21,1.69-.42,3.38-.56,5.08-.2,2.47-.38,4.95-.48,7.43a31,31,0,0,0,1.14,10.81c.43,1.35.95,2.64,2.72,2.78.45,0,.92.53,1.27.92s.92,1,.85,1.4c-.13.82-.81,1.17-1.76,1.09-2.48-.21-5-.45-7.45-.43a9.34,9.34,0,0,1-5.4-1.82c-2-1.35-4.16-2.55-5.59-4.68a47.19,47.19,0,0,1-14.89,7.78c.6,1.22,1.09,2.17,1.55,3.14q3.41,7.25,6.81,14.5c1.21,2.6,2.47,5.18,3.5,7.85.5,1.3.82,2.63,1.4,3.95,1.16,2.63,2.46,5.13,3.86,7.63a39.53,39.53,0,0,0,7.2,9.62c2,1.88,2.57,4.1,2.78,6.65.23,2.88-1.33,4.53-3.64,5.64-2.57,1.24-5.69-.06-6.31-2.48a12,12,0,0,0-2.1-3.65,26.82,26.82,0,0,1-2.27-3.21c-2.85-4.7-5.66-9.44-8.49-14.15-.3-.49-.67-.93-1-1.39ZM220.15,49.58c-.21,2.24-2.24,3-4,1.16s-3.24-3.55-4.85-5.34c-.42-.46-.83-.93-1.25-1.38-1.12-1.18-1.14-1.16-2.21.12a7.55,7.55,0,0,1-1.16,1.13c-3.43,2.64-6.82,5.31-10.33,7.85A15.26,15.26,0,0,1,192.4,55a3.63,3.63,0,0,0-2.59,2.38,26.06,26.06,0,0,0-1.58,10c.23,3.55.27,7.12,1.54,10.51.73,2,1.52,3.88,2.25,5.83a24.76,24.76,0,0,0,1.3,3.67,29.49,29.49,0,0,0,3.2,4.52c.84,1,2,1.67,3,2.58a18.69,18.69,0,0,0,6.42,3.63c2,.79,4,1.56,5.95,2.48,5.2,2.46,10.62,2.36,16.13,1.54a54.11,54.11,0,0,0,12-3.53,32.08,32.08,0,0,0,4-2.31c.94-.54,1.91-1,2.82-1.59a4.47,4.47,0,0,0,1.54-1.4c2.05-3.83,5.11-7.19,6-11.6.68-3.57,1-7.2,1.56-10.8.49-3.17,0-6.31-.21-9.45a2.36,2.36,0,0,0-.81-1.52c-2.27-1.74-4.64-3.35-6.92-5.08-2.65-2-5.23-4.12-7.85-6.18a9.41,9.41,0,0,0-1.3-1,7.62,7.62,0,0,0-1.39-.44,8.5,8.5,0,0,0-.12,1.31c0,.93.24,1.85.22,2.78,0,2-.66,2.33-2.39,1.31l-13.91-8.18A49.63,49.63,0,0,0,220.15,49.58ZM249,137.91a45.08,45.08,0,0,1-3.31-7.9c-1.4-4.41-3.65-8.37-5.79-12.42-1.59-3-2.92-6.15-4.34-9.25-.68-1.47-1.3-3-2-4.45-2.14.31-1.93.36-2.37,2.35-.76,3.47-1.7,6.91-2.78,10.3-1.26,4-2.65,7.94-4.19,11.83a52.08,52.08,0,0,1-3.29,6.37,2,2,0,0,1-1.44.95c-.37,0-.9-.76-1-1.27-1.66-6-4.16-11.86-5-18.1-.41-2.89-.42-5.84-.62-8.93-.32.19-.77.31-1,.6-1.14,1.57-2.23,3.17-3.31,4.78s-2.18,3.21-3.21,4.84q-5,7.86-9.89,15.75c-1.55,2.48-3.06,5-4.62,7.46a10.94,10.94,0,0,1-1.23,1.38c.85,1.29,1.66,2.56,2.51,3.8s1.31,1.29,2,.13c2.24-3.59,5.55-6.23,8.22-9.44a58.49,58.49,0,0,0,4.23-5.84,3.06,3.06,0,0,0,.11-2.2,10.49,10.49,0,0,1,.78-7.68c.57-1.17.84-2.49,1.31-3.72.12-.32.52-.81.7-.77.4.09,1,.4,1.05.72a4.16,4.16,0,0,1-.05,2c-.49,1.71-1.06,3.39-1.68,5.06a5.62,5.62,0,0,0,.15,4.29c.71,1.71,1.26,3.48,1.87,5.24.93,2.66.42,5.38.34,8.08-.13,3.93-.25,7.86-.39,11.79q-.13,3.46-.33,6.92c-.06,1,0,1.64,1.25,1.71,2.21.12,4.41.39,6.61.6a14.62,14.62,0,0,1,1.61.15,36.14,36.14,0,0,0,16.61,0c1.6-.42,1.6-.46,1.42-2-.82-7-1.88-14-1.75-21.05a36.07,36.07,0,0,0-1.18-9.87,3.5,3.5,0,0,1,.15-1.57,10.8,10.8,0,0,1,.52-1.4c.58.3,1.44.46,1.68.93a38.15,38.15,0,0,1,1.56,4.09,13.66,13.66,0,0,0,.8,1.92c1.4,2.5,2.8,5,4.26,7.46q3.15,5.28,6.44,10.47c.32.5,1.24,1.16,1.57,1,.74-.32,1.79-.67,1.61-1.92-.22-1.55,1-2.11,1.87-2.54C253.21,144.91,250.91,141.5,249,137.91Zm3.85-43.77c1.34,2.06,3.54,3,5.5,4.17,1.72,1,3.66,1.8,5.75.38-1.89-5.51-1.8-11.14-1.57-16.94.26-6.56,1.71-12.91,2.18-19.4.24-3.31.74-6.62.73-9.93a18.53,18.53,0,0,0-4.66-12.14c-2.35-2.76-4.65-5.62-7.87-7.5-.33-.19-.59-.53-.93-.69-2.58-1.24-5.17-2.48-7.78-3.66a22.07,22.07,0,0,0-7.67-1.77c-6.19-.39-12.4-.68-18.43,1.29a6.48,6.48,0,0,0-3.84,2.8c-.76,1.27-1.25,1.34-2.19.55a6.26,6.26,0,0,0-5.88-1.12,20.71,20.71,0,0,0-5.43,2.52c-2.6,1.64-5.38,3.08-7.4,5.52-2.66,3.21-4.86,6.67-5.15,10.94a21,21,0,0,0,.57,4.29c1.49-.32,3.19-.28,4.41-1a85.62,85.62,0,0,0,9.17-6.59,50.32,50.32,0,0,0,5.21-5.58,1.44,1.44,0,0,1,2.31,0c1.66,2,3.28,4.09,4.92,6.14a3.1,3.1,0,0,0,.47.52c.77.61,1.66,1.79,2.31,1.67,1.15-.21.68-1.69.86-2.62.27-1.44.42-2.9.58-4.36.12-1.06.54-1.36,1.49-.94a2.59,2.59,0,0,1,.78.51c3.48,3.56,8,5.53,12.21,7.92.13.08.25.19.39.26.74.34,1.16.2,1.21-.72a33.48,33.48,0,0,1,.37-3.94,2.52,2.52,0,0,1,.94-1.7c.8-.38,1.27.44,1.86,1,2.29,2.14,4.61,4.26,7.07,6.19,3.1,2.44,6.34,4.71,9.55,7,.68.49,1.56.69,2.26,1.16a2.33,2.33,0,0,1,1.06,1.32c.2,1.9.29,3.82.31,5.74a57.29,57.29,0,0,1-.18,6.23,91.37,91.37,0,0,1-1.35,9.87,19.14,19.14,0,0,1-3.36,8.08c-.81,1-1.46,2.18-2.27,3.4C252,93.5,252.54,93.72,252.81,94.15Zm-22.26,88.91c3-.22,6-.61,9-.89,1-.09,1.31-.58,1.17-1.56-.65-4.36-1.23-8.73-1.89-13.09-.36-2.41-.74-2.66-3-2.15-4.69,1.07-9.39.83-14.13.34-3.39-.36-6.82-.31-10.22-.48-.88,0-1.21.25-1.31,1.15-.51,4.68-1.08,9.36-1.66,14a1.67,1.67,0,0,0,1.07,1.85,17,17,0,0,0,5.85,1.28,22.93,22.93,0,0,0,2.57,0c0,.09,0,.18,0,.26C222.2,183.57,226.38,183.37,230.54,183.05ZM227,112.88c-4.09.32-8.36,1.37-11.69-2.5-.22,7.35,1.81,14.13,4.66,20.88C221.84,128.92,227,115.26,227,112.88Zm3.49,75.34c.68,5.43,1.42,10.86,2.09,16.29.19,1.53.06,3.11.27,4.63a4.4,4.4,0,0,0,1,2.42,2.41,2.41,0,0,0,2.12.3,2.37,2.37,0,0,0,1.43-2.45c-.08-1.31-.32-2.61-.5-3.91-.08-.61-.25-1.22-.28-1.83-.21-4.56-.39-9.12-.6-13.68a13.8,13.8,0,0,0-.21-1.6c-.18-1.11-.38-2.23-.57-3.34l-3.69.24c-.31,0-.61.09-1.08.17A23.94,23.94,0,0,0,230.48,188.22Zm-14.06-2.46c-1.13-.09-1.7.26-1.56,1.55.28,2.62.39,5.25.69,7.87.39,3.54.89,7.06,1.34,10.59a13.38,13.38,0,0,0,.25,1.6c.35,1.36.6,1.42,2.18,1.37A1.55,1.55,0,0,0,221,207c0-2.31-.1-4.62-.14-6.93,0-2.76-.06-5.53-.11-8.29a29,29,0,0,0-.18-3c-.36-2.87-.48-3-3.47-3C216.88,185.76,216.65,185.78,216.42,185.76Zm11.1-76.28c.8-.31,1.58-3.55,1-4.25a1.88,1.88,0,0,0-1.4-.35,33.1,33.1,0,0,1-8.33,0c-.83-.15-1.69-.18-2.52-.3-.56-.08-.86.09-1,.67s-.29,1,.51,1.25c.46.14,1.11.58,1.18,1,.55,3,3,3,5.17,3.32a1.84,1.84,0,0,0,.46,0l.08.24C224.32,110.52,226,110.08,227.52,109.48Zm-40.63,42.79a2.12,2.12,0,0,0,2.76-1c.63-1.13,1.48-2.38.79-3.67a6.31,6.31,0,0,0-4.16-3.09c-1.26-.31-2.61,1.49-2.58,3.22A5.78,5.78,0,0,0,186.89,152.28ZM254.63,157c.09,1.09-.41,2.45,1.23,2.86,1.45.36,4-.75,4.28-2.09a6.73,6.73,0,0,0-.65-5.35,1.26,1.26,0,0,0-2-.4c-1.6,1.18-3.54,2.19-2.94,4.26C254.61,156.8,254.62,156.87,254.63,157Zm-34.2,56c.59-1,.37-1.27-.76-1.48-2.78-.5-5.11.5-7.24,2.13-1,.72-.92,1.38.15,1.92a9.57,9.57,0,0,0,2,.58C217.18,216,219.14,215,220.43,213Zm14.89,2.72c.57-.38.61-1-.2-1.14a6,6,0,0,1-3.69-1.72c-.57-.59-2.11.24-3.27,1.52-.66.72-.94,1.66-.33,2.28a4.85,4.85,0,0,0,1.94.88A9.58,9.58,0,0,0,235.32,215.68Z"/><path class="cls-8" d="M204,71.51c2.66,0,5.37-3,5.35-6,0-2.31-2.61-4.81-5-4.85-2,0-5.41,3-5.4,5S201.56,71.81,204,71.51Z"/><path class="cls-8" d="M238.18,62.94a6.69,6.69,0,0,0-4.94,2.1c-1,1.21-1.64,2.69-.77,4.28a18,18,0,0,0,1.92,2.87c1,1.19,2.2,1.91,3.88,1.26a4.21,4.21,0,0,0,2.92-3.54,7.18,7.18,0,0,0-1.82-6.22A4.63,4.63,0,0,0,238.18,62.94Z"/><path class="cls-8" d="M221,94.76c2.62,0,6.54-3,7.13-5.48a2.64,2.64,0,0,0-.14-1.54c-.41-1-1.11-1-1.68-.06s-1,1.76-1.52,2.59c-1,1.5-2.41,2.75-4.21,2.37a5.74,5.74,0,0,1-4.43-3.76c-.28-.81-.38-2-1.36-1.82-1.21.25-.7,1.55-.58,2.38C214.58,92,218.11,94.73,221,94.76Z"/><path class="cls-8" d="M205.26,50c-1.85,0-4.69,1.82-5.15,3.42-.16.55.45,1.32.71,2a4.57,4.57,0,0,0,1.28-.65c.53-.53.82-1.37,1.41-1.78,1.51-1,3.64-.42,4.83,1.31a10.52,10.52,0,0,0,.94,1.59,1.76,1.76,0,0,0,1.37.42c.26-.05.6-.76.55-1.12a5.43,5.43,0,0,0-3-4.41A15.23,15.23,0,0,0,205.26,50Z"/><path class="cls-8" d="M245.61,60.19a9.4,9.4,0,0,0-1.36-2.74A20.32,20.32,0,0,0,240,54.26c-1.33-.73-2.71-.1-3.89.77a13.26,13.26,0,0,1-1.25,1,1.23,1.23,0,0,0-.56,1.91c.26.44.68,1,1.07,1.06s.85-.53,1.14-.94c1.34-1.89,1.82-2.14,3.76-.83a26.26,26.26,0,0,1,3.41,3.38,13.76,13.76,0,0,0,1.16.94Z"/><path class="cls-8" d="M216.56,76.3l2.8-1c.51-.19,1.18-.25,1.47-.62a2,2,0,0,0,.33-1.61,1.45,1.45,0,0,0-1.23-.71,8.07,8.07,0,0,0-2.13.85c-.76.36-1.47.85-2.25,1.14-1,.35-1.26.72-1,1.88.47,2.17,2.29,3.23,3.49,4.79.34.45,1.11,1,1.75.06a1.37,1.37,0,0,0-.21-2Z"/><path class="cls-1" d="M14.5,116.26A58.49,58.49,0,0,1,19.23,104c1.3-2.53,2.87-3.44,5.51-2.91.61.12,1.24.14,1.84.28,4,1,8,1.91,11.92,3,3.51.94,7,1.84,10.45,3.07,4.64,1.68,9.06,4,14.09,4.51a1.65,1.65,0,0,1,1.6,2.08,7,7,0,0,0,.94,4.48c1.24,2.13,2.59,4.2,3.87,6.31.59,1,1.59,2,1.57,3-.1,4.26-1.15,8.43-4.22,11.47s-6.69,6.12-11.17,7.32a74.43,74.43,0,0,1-10.42,2.17,20.67,20.67,0,0,1-14.55-3.43c-1.71-1.18-3.54-2.19-5.32-3.29a14.62,14.62,0,0,1-5.41-5.63c-1.5-2.86-2.65-5.9-4.07-8.8a15.32,15.32,0,0,1-1.8-7.41A27.37,27.37,0,0,1,14.5,116.26ZM48.17,140.6c.54-.54,1.26-.91,1.8-1.45a1.3,1.3,0,0,0-.52-2.24,8.91,8.91,0,0,0-2.06-.27,41,41,0,0,1-11.57-2.24c-1.13-.44-2.15-1.18-3.25-1.72a2.91,2.91,0,0,0-1.7-.44c-.28.07-.4,1-.54,1.48-1.19,4.35,3.45,9.82,7.46,9.55a15.63,15.63,0,0,1,2.86.34C43.34,143.2,46.06,142.71,48.17,140.6ZM28.6,120.82a3.2,3.2,0,0,0,3.12-2.3,5,5,0,0,0-2.16-5.65c-1.15-.71-2.31-1.29-3.66-.42s-2.2,2-1.9,3.54A4.39,4.39,0,0,0,28.6,120.82ZM56.49,119c-1.16-.81-2.38-.41-3.51.16a2.83,2.83,0,0,0-1.7,3.43,10,10,0,0,0,.66,2.21,2.94,2.94,0,0,0,3.78,1.8c2.7-.71,2.78-.82,2.91-4.53A4.78,4.78,0,0,0,56.49,119ZM42.15,127.1a1.57,1.57,0,0,0,.21-1.45c-.12-.26-.88-.36-1.33-.31a22.12,22.12,0,0,0-2.26.52c-.63.14-1.57-.22-1.71.76a6.82,6.82,0,0,0,.1,2.65,11.2,11.2,0,0,0,1.22,2.22,1.36,1.36,0,0,0,1.94.7,1.84,1.84,0,0,0,.48-2.22c-.27-.46-.59-.89-.92-1.4A13.62,13.62,0,0,0,42.15,127.1ZM26.81,105.87c.17.33.59.77.87.75,1.91-.15,3.18,1,4.57,2a9.89,9.89,0,0,0,1.5,1.08c.35.15,1.08.12,1.23-.1a2.74,2.74,0,0,0,.23-1.46c0-.19-.23-.4-.38-.56-2.23-2.33-5.12-3.1-8.6-3.79A13,13,0,0,0,26.81,105.87Zm27.7,7.06c-.36,0-1,.76-1,1a3.08,3.08,0,0,0,1.1,1.52c.27.2.88-.13,1.34-.11a32.89,32.89,0,0,1,5,.31c.89.17,1.32,0,1.63-.7a1.58,1.58,0,0,0-1-2,5.51,5.51,0,0,0-.87-.07C58.74,112.88,56.63,112.83,54.52,112.93Z"/><path class="cls-11" d="M70.24,149.57c-.54-1.48-1.05-2.78-1.47-4.1-.28-.89-.79-1.07-1.58-.73a6.12,6.12,0,0,0-1.44.7,3.76,3.76,0,0,1-2.79.82,5.12,5.12,0,0,0-2.6.77,32.41,32.41,0,0,1-11.24,3.52c-.53.09-1.08.14-1.62.19A3.67,3.67,0,0,0,44,152.93c-1.19,2.36-3.83,3.07-6.44,2.84-2.09-.18-3.81-2.24-4-4.78a2.1,2.1,0,0,0-1.25-1.9c-3.6-2.4-7.21-4.8-10.67-7.39A13.9,13.9,0,0,1,18.52,138c-1.88-3-5-4-7.88-5.44a1,1,0,0,0-.94.28,9.24,9.24,0,0,0-.48,2.41c0,.27.46.58.74.85,4.08,4,8.1,8.1,12.28,12a14.74,14.74,0,0,0,4.06,2.17c1.67.76,1.8,1,1.62,2.81s-.12,3.73-.34,5.57c-.3,2.53-.79,5-1.16,7.55-.32,2.13-.67,4.26-.85,6.4-.11,1.35.44,2,1.86,2.26,4.92,1,9.85,2.1,14.91,2.12a17.59,17.59,0,0,0,3.91-.56A3.5,3.5,0,0,0,49,172.84q-.13-7.57-.16-15.14c0-1.69.5-1.87,3-2.41,3.09-.68,6.14-1.57,9.18-2.46,2.44-.72,4.84-1.55,7.25-2.36C68.92,150.22,69.6,149.86,70.24,149.57Z"/><path class="cls-12" d="M30,92.42c1.69,1.58,3.18,2.9,4.59,4.31s2.82,3.06,4.28,4.53a4.83,4.83,0,0,0,2,1.43c5.46,1.3,10.55,3.59,15.78,5.54a31.54,31.54,0,0,0,4.67,1.28c2.5.51,5,.92,7.55,1.34,1.57.26,2,0,1.89-1.67C70.15,102.12,68,96,60.85,92.87c-3.05-1.31-6-2.79-9.12-4s-6.41-.87-9.65-.46c-2.07.26-4.13.67-6.19,1C33.68,89.74,31.92,90.94,30,92.42Z"/><path class="cls-13" d="M54.59,191.54c-1.45-2.89-2.79-5.58-4.15-8.26-.45-.89-1-1.75-1.42-2.65a3.18,3.18,0,0,0-3.61-1.86c-1.77.21-3.56.3-5.34.35a18.71,18.71,0,0,1-3.25-.22c-3.35-.5-6.69-1.07-9.79-1.57-1.35,2.78-2.58,5.4-3.88,8-.6,1.18-1.37,2.26-2,3.42s-.62,1.61.63,2.19c2.67,1.24,5.39,2.36,8.1,3.51.86.36,1.33-.07,1.92-.75,1.78-2,2-4.64,3-6.94.47-1.06.73-2.21,1.19-3.28.18-.42.61-1,1-1,.74,0,1.19.45,1.33,1.3.58,3.36,1.22,6.7,1.87,10,.38,2,.46,2,2.43,1.75A38.75,38.75,0,0,0,54.59,191.54Z"/><path class="cls-12" d="M35.1,100.73c-3.57-4.1-7.43-7.84-12.79-9.51A8.74,8.74,0,0,0,18.67,91a1.4,1.4,0,0,0-1.2,2.2,27.72,27.72,0,0,0,3,4.35c.24.3,1,.24,1.46.31a24,24,0,0,1,2.92.4c3.35.91,6.67,1.9,10,2.87Z"/><path class="cls-1" d="M49.93,196.83a14.6,14.6,0,0,0,.86,2.32c1.48,2.53,3.09,5,4.53,7.55a1.34,1.34,0,0,0,1.86.76,11.58,11.58,0,0,0,2.14-.84,1.2,1.2,0,0,0,.29-1.11A51.26,51.26,0,0,0,56.8,199a18.46,18.46,0,0,0-3.34-3.81c-.85-.84-1.78,0-2.57.31C50.46,195.65,50.25,196.35,49.93,196.83Z"/><path class="cls-1" d="M24.79,194.6a7.51,7.51,0,0,0-.81.87c-2,2.95-3.87,5.92-5.86,8.85-.53.78-.41,1.11.38,1.6,2.4,1.48,2.65,1.45,4-1s2.71-4.83,4-7.25c.28-.51.79-1.42.64-1.56A13.7,13.7,0,0,0,24.79,194.6Z"/><path class="cls-11" d="M16.29,212.4c.87-.22,1.56-.35,2.22-.56,1.48-.47,1.84-1.61.69-2.54-2-1.6-4.06-3.13-6.71-3.48a2.83,2.83,0,0,0-1.56.16,12.09,12.09,0,0,0-1.79,1.33A8,8,0,0,0,10.48,209c1.36,1,2.81,1.89,4.26,2.77A9.75,9.75,0,0,0,16.29,212.4Z"/><path class="cls-1" d="M74.84,148.49a15,15,0,0,0,3.05-1.34,2.13,2.13,0,0,0,.08-3.58,7.29,7.29,0,0,0-4.7-1.7,1.44,1.44,0,0,0-1.14.63c-.45,1.1-1.12,2.32-1,3.4C71.33,147.36,73,148.2,74.84,148.49Z"/><path class="cls-1" d="M8.72,127.68c0-2.24-.66-3.13-2.46-3.15-2.43,0-3.9,1.23-3.88,3.34,0,1.47,1.7,3.74,2.71,3.66A4.15,4.15,0,0,0,8.72,127.68Z"/><path class="cls-4" d="M71.77,121.2c-.36-2-.68-4.1-1.11-6.13-.22-1.05-2.58-2.2-3.52-1.74-.25.12-.33.72-.37,1.1-.25,3.1,1.55,5.41,3.12,7.78.26.4.83.6,1.25.89.16-.47.33-.94.47-1.42a1.66,1.66,0,0,0,0-.46Z"/><path class="cls-11" d="M56.52,214.06c1.88-.34,3.67-.17,4.79-1.85.94-1.4.7-2.35-.94-2.74-2.27-.54-4.22.49-6.08,1.61-.64.38-.42,1.71.32,2.15A13.84,13.84,0,0,0,56.52,214.06Z"/><path class="cls-1" d="M72,135.5c.34.12.77.44,1.13.38a3.58,3.58,0,0,0,2.59-4.9,16.11,16.11,0,0,0-1.58-2.46c-1.17.52-.74,1.74-1.07,2.61A37,37,0,0,0,72,135.5Z"/><path class="cls-1" d="M38.89,153.48a26.71,26.71,0,0,0,2.73-1.28.55.55,0,0,0-.21-1c-1.64-.36-3.31-.66-5-.88-.2,0-.7.57-.68.85A3,3,0,0,0,38.89,153.48Z"/><path class="cls-6" d="M45.75,139.46l-12.66-3.57a3.29,3.29,0,0,0,1.45,3.91c1.95,1.43,4.23,1.28,6.45,1.31a7.55,7.55,0,0,0,2.48-.44A16.33,16.33,0,0,0,45.75,139.46Z"/><path class="cls-7" d="M56.65,132A6.71,6.71,0,0,1,58,130.34a3.27,3.27,0,0,1,4.59,0,3.06,3.06,0,0,1,.29.36,3.17,3.17,0,0,1,.86.95,3.29,3.29,0,0,1-1.16,4.44,9.42,9.42,0,0,1-2,1,3.37,3.37,0,0,1-3.49-.85A3.64,3.64,0,0,1,56.65,132Z"/><path class="cls-7" d="M21.65,125.8l.65-.65a3.24,3.24,0,0,1,4.59,4.59l-.65.65a3.24,3.24,0,0,1-4.59-4.59Z"/><path class="cls-8" d="M25.33,204.33c-1.18,2.2-2.84,4.27-2.64,7a1.1,1.1,0,0,1-.39.81c-2,1.52-4.19,2.91-6.82,2.3a13.11,13.11,0,0,1-7.78-5.19c-1.47-2.07-1.77-3.6,1.36-5.22a6.69,6.69,0,0,1,4.75-.35c1,.21,2,.42,2.7-.68,1.44-2.21,3-4.33,4.37-6.61,1.73-3,.91-3.28-1.51-3.86-1.88-.45-2.37-1.75-1.35-3.45,1.35-2.25,2.84-4.42,4.23-6.66a7.39,7.39,0,0,0,1.26-3.9,86.76,86.76,0,0,1,.58-10c.55-4.22,1.5-8.38,1.51-12.68,0-1.88-.21-3.36-2.22-4.06a4.52,4.52,0,0,1-1.55-1c-3.32-3.14-6.74-6.19-9.86-9.52a78.12,78.12,0,0,0-7.85-7.12,16.38,16.38,0,0,1-2.73-2.51,5.79,5.79,0,0,1,2.95-9.35A9.78,9.78,0,0,1,8,122.11a2.59,2.59,0,0,1,1.8,1.23c.74,1.59,1.73,3.13,1.61,5a2.58,2.58,0,0,0,.64,1.86,30.31,30.31,0,0,0,3.29,2.33c.46-1.72-.43-2.73-1-3.76-3-5.59-2.54-11.51-1.05-17.23.87-3.36,3-6.44,4.7-9.54,1.13-2,1.33-2-.23-3.76a13.77,13.77,0,0,1-2.93-6.47,2,2,0,0,1,.43-1.44,4.93,4.93,0,0,1,5-1.83,45.25,45.25,0,0,1,6.28,1.59,2.81,2.81,0,0,0,2.59-.3,16.25,16.25,0,0,1,4-1.79c2.53-.7,5.11-1.2,7.69-1.73a23.32,23.32,0,0,1,15,1.59c2.46,1.15,5,2.15,7.37,3.45C66.24,93,69,95.1,70.24,98.67a40.77,40.77,0,0,1,1.41,4.19c.56,2.57,1.4,5.22,1.23,7.78a27.6,27.6,0,0,0,.64,6.09c.35,2.34.32,4.74.54,7.11a3.17,3.17,0,0,0,.73,1.56,30.58,30.58,0,0,1,2.41,2.75c2.1,3.42,1.7,6.57-1.06,8.93a11.72,11.72,0,0,1-2,1.08c-.34.19-.66.44-1.29.86,1.26.36,2.15.57,3,.88a16.67,16.67,0,0,1,3.34,1.44c3.23,2.12,2.55,5.78-.16,8.82-.84.95-1.94,1.88-3.47,1-.27-.16-.76,0-1.13.05a43.41,43.41,0,0,0-4.76,1.05c-5.36,1.75-10.69,3.6-16,5.42a18,18,0,0,0-2.13.84c-.3.15-.69.49-.7.76-.09,2.08-.21,4.16-.1,6.23.18,3.3.56,6.58.8,9.88.06.91.27,2.16-.21,2.68-1.22,1.31-.48,2.26.15,3.31,1.8,3,3.64,5.95,5.42,9,1,1.65,1,1.87-.34,3.21-.84.82-.47,1.22,0,1.89a29.61,29.61,0,0,1,2.41,3.65A28.11,28.11,0,0,1,61.52,205a5.7,5.7,0,0,0,1.32,2.55,4.42,4.42,0,0,1-.25,6.67c-2.34,2.16-5.06,2.42-8,1.63a3.89,3.89,0,0,1-2.35-6.18,2.92,2.92,0,0,0,.32-3.2,15,15,0,0,0-2-3.59c-1.17-1.54-2.08-3.27-3.13-4.9-.54-.85-1.12-1.33-2.29-.78a26.08,26.08,0,0,1-4,1.24c-1.45.41-1.48.33-2.16-1.19a11.57,11.57,0,0,1-1-3.76,39.35,39.35,0,0,0-.88-4.35,5,5,0,0,0-1.6,1.94c-.86,1.81-1.66,3.66-2.53,5.48-.95,2-1.11,2-3.35.93C28.16,199.75,26.59,202,25.33,204.33Zm-9.46-76.77c1.42,2.9,2.57,5.94,4.07,8.8A14.62,14.62,0,0,0,25.34,142c1.77,1.1,3.6,2.11,5.32,3.29a20.67,20.67,0,0,0,14.55,3.43,74.43,74.43,0,0,0,10.42-2.17c4.48-1.2,8-4.17,11.17-7.32S70.91,132,71,127.75c0-1-1-2-1.57-3-1.27-2.11-2.62-4.18-3.87-6.31a7,7,0,0,1-.94-4.48,1.65,1.65,0,0,0-1.6-2.08c-5-.5-9.45-2.83-14.09-4.51-3.41-1.23-6.94-2.13-10.45-3.07-4-1.06-7.94-2-11.92-3-.6-.15-1.23-.16-1.84-.28-2.64-.53-4.21.38-5.51,2.91a58.49,58.49,0,0,0-4.73,12.31,27.37,27.37,0,0,0-.43,3.89A15.32,15.32,0,0,0,15.86,127.57Zm52.9,17.9c-.28-.89-.79-1.07-1.58-.73a6.12,6.12,0,0,0-1.44.7,3.76,3.76,0,0,1-2.79.82,5.12,5.12,0,0,0-2.6.77,32.41,32.41,0,0,1-11.24,3.52c-.53.09-1.08.14-1.62.19A3.67,3.67,0,0,0,44,152.93c-1.19,2.36-3.83,3.07-6.44,2.84-2.09-.18-3.81-2.24-4-4.78a2.1,2.1,0,0,0-1.25-1.9c-3.6-2.4-7.21-4.8-10.67-7.39A13.9,13.9,0,0,1,18.52,138c-1.88-3-5-4-7.88-5.44a1,1,0,0,0-.94.28,9.24,9.24,0,0,0-.48,2.41c0,.27.46.58.74.85,4.08,4,8.1,8.1,12.28,12a14.74,14.74,0,0,0,4.06,2.17c1.67.76,1.8,1,1.62,2.81s-.12,3.73-.34,5.57c-.3,2.53-.79,5-1.16,7.55-.32,2.13-.67,4.26-.85,6.4-.11,1.35.44,2,1.86,2.26,4.92,1,9.85,2.1,14.91,2.12a17.59,17.59,0,0,0,3.91-.56A3.5,3.5,0,0,0,49,172.84q-.13-7.57-.16-15.14c0-1.69.5-1.87,3-2.41,3.09-.68,6.14-1.57,9.18-2.46,2.44-.72,4.84-1.55,7.25-2.36.71-.24,1.39-.6,2-.89C69.71,148.09,69.19,146.79,68.77,145.47ZM34.57,96.73c1.47,1.47,2.82,3.06,4.28,4.53a4.83,4.83,0,0,0,2,1.43c5.46,1.3,10.55,3.59,15.78,5.54a31.54,31.54,0,0,0,4.67,1.28c2.5.51,5,.92,7.55,1.34,1.57.26,2,0,1.89-1.67C70.15,102.12,68,96,60.85,92.87c-3.05-1.31-6-2.79-9.12-4s-6.41-.87-9.65-.46c-2.07.26-4.13.67-6.19,1-2.21.35-4,1.55-5.91,3C31.67,94,33.16,95.33,34.57,96.73Zm15.87,86.54c-.45-.89-1-1.75-1.42-2.65a3.18,3.18,0,0,0-3.61-1.86c-1.77.21-3.56.3-5.34.35a18.71,18.71,0,0,1-3.25-.22c-3.35-.5-6.69-1.07-9.79-1.57-1.35,2.78-2.58,5.4-3.88,8-.6,1.18-1.37,2.26-2,3.42s-.62,1.61.63,2.19c2.67,1.24,5.39,2.36,8.1,3.51.86.36,1.33-.07,1.92-.75,1.78-2,2-4.64,3-6.94.47-1.06.73-2.21,1.19-3.28.18-.42.61-1,1-1,.74,0,1.19.45,1.33,1.3.58,3.36,1.22,6.7,1.87,10,.38,2,.46,2,2.43,1.75a38.75,38.75,0,0,0,11.95-4C53.14,188.65,51.8,186,50.44,183.28ZM22.3,91.22A8.74,8.74,0,0,0,18.67,91a1.4,1.4,0,0,0-1.2,2.2,27.72,27.72,0,0,0,3,4.35c.24.3,1,.24,1.46.31a24,24,0,0,1,2.92.4c3.35.91,6.67,1.9,10,2.87l.26-.41C31.53,96.63,27.67,92.89,22.3,91.22ZM50.79,199.15c1.48,2.53,3.09,5,4.53,7.55a1.34,1.34,0,0,0,1.86.76,11.58,11.58,0,0,0,2.14-.84,1.2,1.2,0,0,0,.29-1.11A51.26,51.26,0,0,0,56.8,199a18.46,18.46,0,0,0-3.34-3.81c-.85-.84-1.78,0-2.57.31-.42.18-.63.87-.95,1.35A14.6,14.6,0,0,0,50.79,199.15ZM24,195.47c-2,2.95-3.87,5.92-5.86,8.85-.53.78-.41,1.11.38,1.6,2.4,1.48,2.65,1.45,4-1s2.71-4.83,4-7.25c.28-.51.79-1.42.64-1.56a13.7,13.7,0,0,0-2.36-1.53A7.51,7.51,0,0,0,24,195.47ZM18.5,211.84c1.48-.47,1.84-1.61.69-2.54-2-1.6-4.06-3.13-6.71-3.48a2.83,2.83,0,0,0-1.56.16,12.09,12.09,0,0,0-1.79,1.33A8,8,0,0,0,10.48,209c1.36,1,2.81,1.89,4.26,2.77a9.75,9.75,0,0,0,1.54.64C17.16,212.18,17.84,212.05,18.5,211.84Zm59.39-64.69a2.13,2.13,0,0,0,.08-3.58,7.29,7.29,0,0,0-4.7-1.7,1.44,1.44,0,0,0-1.14.63c-.45,1.1-1.12,2.32-1,3.4.18,1.46,1.88,2.3,3.69,2.59A15,15,0,0,0,77.89,147.15ZM6.26,124.52c-2.43,0-3.9,1.23-3.88,3.34,0,1.47,1.7,3.74,2.71,3.66a4.15,4.15,0,0,0,3.63-3.84C8.75,125.44,8.06,124.55,6.26,124.52Zm64.39-9.46c-.22-1.05-2.58-2.2-3.52-1.74-.25.12-.33.72-.37,1.1-.25,3.1,1.55,5.41,3.12,7.78.26.4.83.6,1.25.89.16-.47.33-.94.47-1.42a1.66,1.66,0,0,0,0-.46l.14,0C71.4,119.15,71.09,117.1,70.66,115.07ZM61.31,212.2c.94-1.4.7-2.35-.94-2.74-2.27-.54-4.22.49-6.08,1.61-.64.38-.42,1.71.32,2.15a13.84,13.84,0,0,0,1.91.83C58.4,213.72,60.19,213.88,61.31,212.2Zm11.84-76.33a3.58,3.58,0,0,0,2.59-4.9,16.11,16.11,0,0,0-1.58-2.46c-1.17.52-.74,1.74-1.07,2.61A37,37,0,0,0,72,135.5C72.36,135.62,72.79,135.94,73.15,135.87ZM41.62,152.2a.55.55,0,0,0-.21-1c-1.64-.36-3.31-.66-5-.88-.2,0-.7.57-.68.85a3,3,0,0,0,3.13,2.35A26.71,26.71,0,0,0,41.62,152.2Zm31-13c-2.55-.82-2.55-.82-4.19,2.18C70.49,141.53,71.26,140,72.67,139.19Z"/><path class="cls-8" d="M37.79,143.29c-4,.27-8.65-5.2-7.46-9.55.14-.53.26-1.41.54-1.48a2.91,2.91,0,0,1,1.7.44c1.11.53,2.12,1.27,3.25,1.72a41,41,0,0,0,11.57,2.24,8.91,8.91,0,0,1,2.06.27,1.3,1.3,0,0,1,.52,2.24c-.54.54-1.26.91-1.8,1.45-2.11,2.11-4.83,2.6-7.52,3A15.63,15.63,0,0,0,37.79,143.29Zm-4.71-7.4a3.29,3.29,0,0,0,1.45,3.91c1.95,1.43,4.23,1.28,6.45,1.31a7.55,7.55,0,0,0,2.48-.44,16.33,16.33,0,0,0,2.29-1.22Z"/><path class="cls-8" d="M24,116a4.39,4.39,0,0,0,4.6,4.82,3.2,3.2,0,0,0,3.12-2.3,5,5,0,0,0-2.16-5.65c-1.15-.71-2.31-1.29-3.66-.42S23.71,114.42,24,116Z"/><path class="cls-8" d="M58.63,122.09A4.78,4.78,0,0,0,56.49,119c-1.16-.81-2.38-.41-3.51.16a2.83,2.83,0,0,0-1.7,3.43,10,10,0,0,0,.66,2.21,2.94,2.94,0,0,0,3.78,1.8C58.42,125.91,58.5,125.8,58.63,122.09Z"/><path class="cls-8" d="M39.86,128.58a13.62,13.62,0,0,0,2.28-1.48,1.57,1.57,0,0,0,.21-1.45c-.12-.26-.88-.36-1.33-.31a22.12,22.12,0,0,0-2.26.52c-.63.14-1.57-.22-1.71.76a6.82,6.82,0,0,0,.1,2.65,11.2,11.2,0,0,0,1.22,2.22,1.36,1.36,0,0,0,1.94.7,1.84,1.84,0,0,0,.48-2.22C40.51,129.52,40.2,129.08,39.86,128.58Z"/><path class="cls-8" d="M26.22,103.79a13,13,0,0,0,.59,2.08c.17.33.59.77.87.75,1.91-.15,3.18,1,4.57,2a9.89,9.89,0,0,0,1.5,1.08c.35.15,1.08.12,1.23-.1a2.74,2.74,0,0,0,.23-1.46c0-.19-.23-.4-.38-.56C32.59,105.25,29.7,104.48,26.22,103.79Z"/><path class="cls-8" d="M60.67,112.88c-1.93,0-4,0-6.16,0-.36,0-1,.76-1,1a3.08,3.08,0,0,0,1.1,1.52c.27.2.88-.13,1.34-.11a32.89,32.89,0,0,1,5,.31c.89.17,1.32,0,1.63-.7a1.58,1.58,0,0,0-1-2A5.51,5.51,0,0,0,60.67,112.88Z"/></g></g></svg>