<?xml version="1.0" encoding="utf-8"?>
<!-- Generator: Adobe Illustrator 21.1.0, SVG Export Plug-In . SVG Version: 6.00 Build 0)  -->
<svg version="1.1" id="圖層_1" xmlns="http://www.w3.org/2000/svg" xmlns:xlink="http://www.w3.org/1999/xlink" x="0px" y="0px"
	 viewBox="0 0 270.5 219.8" style="enable-background:new 0 0 270.5 219.8;" xml:space="preserve">
<style type="text/css">
	.st0{fill:#FDEBD1;}
	.st1{fill:#FFE792;}
	.st2{fill:#98AFD3;}
	.st3{fill:#BD8A55;}
	.st4{fill:#888888;}
	.st5{fill:#F19A86;}
	.st6{fill:#F7C6BD;}
	.st7{fill:#76491B;}
	.st8{fill:#BA8CBD;}
	.st9{fill:#F09BA5;}
	.st10{fill:#C0DC96;}
	.st11{fill:#81C0E9;}
	.st12{fill:#F8C170;}
</style>
<title>footer_fam</title>
<g id="圖層_2">
	<g id="圖層_1-2">
		<path class="st0" d="M147.9,28.6c-0.3,0.2-0.7,0.4-1,0.6c-0.9,0.7-0.8,1.7-0.7,2.7c0.1,0.3,0.4,0.6,0.8,0.7
			c1.7,0.2,3.4,0.4,5.1,0.5c3.6,0.2,7.2,0.3,10.8,0.4c1.2,0,1.6,0.4,1.9,1.5c1.1,3.5,1,7,1.1,10.6c0.1,4.8-0.6,9.6-2.1,14.1
			c-0.1,0.4-0.1,0.8-0.1,1.2c-0.1,1-0.2,2.1-0.5,3.1c-0.6,2.6-2.3,4.6-3.6,6.8c-1.4,2.2-3.2,4.2-5.3,5.7c-3.7,3-8.2,4.3-12.9,4.8
			c-0.8,0-1.6,0-2.3,0c-2.4,0.5-4.9,0.3-7.3,0.2c-1.6,0-3.2-0.3-4.8-0.8c-3.2-1.2-6.5-1.9-9.5-3.7c-1.9-1.1-3.8-2.2-5.6-3.6
			c-1.6-1.4-2.8-3.2-3.7-5.1c-1.4-2.9-3.5-5.3-4.6-8.5c-1.3-3.4-1.7-7.1-1.3-10.7c0.6-4.7,1.1-9.4,3.1-13.8c0.3-0.7,0.6-1.3,0.8-2
			c1.3-3.8,3.5-7.1,6.5-9.8c1.3-1.3,3-2.3,4.7-2.9c1.4-0.4,1.3-0.3,1.9,1.1c0.1,0.3,0.4,0.7,0.7,0.7c2.1,0.3,4.2,0.6,6.2,0.7
			c2.1,0.1,4.2-0.1,6.3-0.1c-0.2,0.8-0.3,1.6-0.4,2.4c-0.1,1.7-0.1,1.7,1.6,1.9c3.6,0.5,7.2,0.7,10.8,0.5c1,0,2.1,0.1,3.1,0.3
			L147.9,28.6z M118.2,66.4c1.4,3.3,2.8,6.8,6.9,7.7c0.6,0.2,1.3,0.3,1.9,0.2c3-0.7,5.8-1.6,7.9-4c0.6-0.5,1.1-1.1,1.5-1.8
			c0.4-0.6,0.6-1.4,0.5-2.1c-0.1-0.3-1.2-0.4-1.9-0.6c-1.4-0.2-2.8-0.4-4.2-0.7c-3.6-1.1-7.1-2.3-10.7-3.5c-0.2-0.1-0.5-0.3-0.7-0.3
			c-1.4-0.4-1.8-0.1-1.8,1.4c0,0.2,0,0.4,0,0.6h-0.1C117.6,64.2,117.8,65.3,118.2,66.4L118.2,66.4z M143.7,52.4
			c0.8,2.2,2.7,2.7,4.4,1.1c0.7-0.7,1.4-1.5,2-2.4c0.5-0.6,0.6-1.3,0.4-2c-0.5-2.2-1.4-3.3-3-3.3c-1.9,0-3.5,1.3-4,3.1
			c-0.1,0.5-0.2,1.1-0.2,1.6C143.4,51.2,143.5,51.8,143.7,52.4z M119.5,39.8c-0.7-1.4-2.4-2-3.8-1.3c-0.2,0.1-0.3,0.2-0.5,0.3
			c-1.5,0.9-2.5,2.1-2.4,4c0,1.7,1.4,3.1,3.1,3.1c0.1,0,0.2,0,0.2,0c1.5,0,2.5-0.9,3.7-1.7c0.4-0.3,0.4-1.2,0.6-1.8
			C120.2,41.4,119.9,40.6,119.5,39.8z M148.4,38.1c-0.3,0.1-0.8,0.5-0.8,0.8c-0.1,0.6-0.1,1.1,0.2,1.6c0.5,0.6,1,0,1.5-0.4
			c1.4-1.2,3.6-1,4.8,0.5c0,0,0,0.1,0.1,0.1c0.7,1,1.2,2.1,1.9,3.2c0.2,0.3,0.5,0.5,0.7,0.7c0.3-0.3,0.7-0.7,0.7-1
			c0-0.6-0.1-1.3-0.4-1.9c-1-2.8-2.9-4.2-5.7-4.4C150.4,37.5,149.4,37.7,148.4,38.1z M121.7,54.8c0.7,1.1,1.5,2.1,2.3,3.2
			c0.4,0.6,1.1,0.7,1.5,0.2c0.3-0.3,0.1-0.9,0.1-1.4c0-0.1-0.1-0.1-0.1-0.2l-1.2-2.3l2.6-0.7c0.2-0.1,0.6,0,0.8-0.2
			c0.6-0.4,1.1-0.8,0.7-1.6c-0.2-0.6-0.9-0.9-1.5-0.7c0,0-0.1,0-0.1,0.1c-1.3,0.5-2.7,1-4.1,1.4c-0.9,0.2-1.1,0.8-1.1,1.8
			C121.6,54.5,121.6,54.7,121.7,54.8z M117.8,31.5c2-1.1,2.9-0.8,3.9,1.2c0.1,0.2,0.2,0.5,0.3,0.7c0.2,0.6,0.6,1.3,1.2,0.8
			c0.5-0.4,0.8-1,0.8-1.6c-0.4-2.4-2.5-4.1-4.9-3.9c-1,0.2-2,0.5-3,0.8c-0.1,0-0.3,0.1-0.4,0.2C115.7,31.6,116.6,32.2,117.8,31.5z"
			/>
		<path class="st1" d="M82.8,67.4c1.2,1.5,2.6,2.8,4.1,4c4,3.4,8.4,6.3,13.2,8.6c0.8,0.4,1.6,0.9,2.3,1.4c2.5,1.9,5.6,2.5,8.5,3.6
			c0.9,0.4,1.8,0.7,2.5-0.6c0.4-0.7,1.5-0.2,1.6,0.8c0.1,0.8,0,1.7,0,2.5c-0.3,3.7-0.6,7.5-0.8,11.2c-0.2,2.8-0.5,5.6-0.5,8.5
			c-0.1,4.9-0.1,9.8-0.1,14.6c0,0.4,0.1,0.8,0.1,1.2c0,1,0.2,1.4,1.4,1.6c2.3,0.5,4.6,1.2,7,0.7c0.3,0,0.7,0,1,0.1
			c4.4,1.6,9.1,1.1,13.7,1.4c1.9,0.1,2.1-0.2,2.1-2c0-1.6-0.3-3.1-0.3-4.7c0-1.8,0.1-3.7,0.2-5.5c0.2-4.9,0.6-9.8,0.7-14.7
			c0-1.7-0.1-3.4-0.4-5.1c-0.1-0.3-0.1-0.6-0.2-1c0-0.9,0.7-1.3,1.5-0.8c2,1.1,4,2.2,5.9,3.5c4.2,2.7,6.1,7.8,4.8,12.6
			c-0.3,1.8-1.1,3.5-2.2,5c-0.6,0.7-0.4,1.2,0.2,1.7l2.7,2.3c0.5,0.4,1,0.7,1.5,0.1c0.8-0.7,1.5-1.5,2.1-2.3c0.7-0.9,1.2-1.9,1.4-3
			c0.5-4,1-8.1,0.3-12.1c-0.6-3.2-2.4-6-5-7.9c-4.3-3.3-8.9-6.3-13.4-9.3c-1-0.7-3.2-0.1-4.1,0.8c-1.3,1.4-3.1,2.5-5,2.9
			c-1.9,0.4-3.7-0.6-5.3-1.6c-1.6-0.9-2.7-2.3-3.2-4c-0.2-0.5-0.5-0.8-1-1.1c-2.1-1.2-4.1-2.3-6.2-3.4c-0.3-0.1-0.8-0.3-0.8-0.2
			c-1,1.1-2.1,0.5-3.1,0.2c-1.8-0.4-3.5-1-5.2-1.7c-1.8-0.9-3.6-2-5.3-3.1c-2.9-1.8-5.9-3.7-8.8-5.6c-1.1-0.7-2.2-1.5-3.2-2.3
			c-0.4-0.4-1.1-0.5-1.5-0.1c-0.1,0.1-0.1,0.1-0.2,0.2C84.8,65.8,83.9,66.5,82.8,67.4z"/>
		<path class="st2" d="M137.6,177.7c0.2-1.4,0.4-2.9,0.5-4.5c0.2-4.4,0.4-8.8,0.5-13.2c0-1.3-0.2-2.6-0.2-3.9
			c0.1-3.9,0.2-7.8,0.3-11.6c0-4.5,0-9.1,0-13.6c0-1.5-0.2-1.6-1.8-1.7l-8.3-0.4c-1.5,0-3-0.3-4.4-0.8c-0.5-0.2-1-0.3-1.5-0.3
			c-2.2-0.1-4.3,0-6.5-0.1c-1.7-0.1-1.9,0.1-2.4,1.6c-0.8,2.7-0.8,5.6-1,8.4c-0.2,2.2-0.6,4.3-0.8,6.5c-0.3,2.2-0.4,4.2-0.7,6.2
			c-0.4,3.3-0.8,6.5-1.3,9.8c-0.3,2.5-0.7,5.1-1,7.6c-0.1,0.9-0.3,1.8-0.5,2.7c-0.2,0.9,0.1,1.4,1.1,1.4c1.2,0,2.5,0.1,3.7,0.2
			c1.2,0,1.8-0.5,1.9-1.7c0.3-3.3,0.5-6.6,0.8-10c0.3-1.5,0.7-3.1,1.1-4.6c0.9-3.6,2-7.1,2.6-10.7c0.6-3.2,1.2-6.5,1-9.8
			c-0.1-1.5,0.1-1.6,1.6-1.5c0.8,0.1,1.7,0.1,2.5,0.1c1.6,0,2.2,0.4,2.4,2c0.2,1.6,0.4,3.1,0.4,4.7c0.2,5.4-0.3,10.7,0.7,16.1
			c0.4,2.9,0.7,5.9,0.8,8.8c0.3,3,0.5,6,0.8,9c0,0.8,0.6,1.5,1.4,1.6c1.2,0.2,2.5,0.5,3.6,0.8C136,177,136.8,177.3,137.6,177.7z"/>
		<path class="st3" d="M128.6,8.6c0.6,0.9,1.2,1.9,1.7,2.9c0.2,0.5,0.3,1.1,0.1,1.6c-0.3,0.6-1,0.6-1.7,0.3c-2.2-0.7-4.4-1.3-6.6-2
			c-1.7-0.6-3.5-0.2-5.3-0.1c-0.7,0-0.7,0.5-0.3,0.9s0.9,0.6,1.2,1.1c0.3,0.5,0.5,1,0.4,1.6c-0.2,0.8-0.9,0.8-1.6,0.7
			c-1.5-0.3-3-0.1-4.4,0.6c1.7,2.5,3,3.1,5.6,2.2c1.6-0.5,3.1-1.2,4.6-1.8c0.4-0.1,0.7-0.5,1.1-0.5c0.4,0,0.9,0.2,1.2,0.5
			c0.2,0.3,0.2,0.7,0,1.1c-0.2,0.5-0.6,0.9-1,1.2c-0.5,0.5-1.1,0.9-1.8,1.6c0.7,0.3,1.3,0.5,2.1,0.7c2.2,0.1,4.3,0.1,6.5-0.1
			c1.6-0.1,3.2-0.7,4.8-1c0.5-0.1,1,0.1,1.4,0.4c0.2,0.2,0.1,0.9-0.2,1.2c-0.5,0.8-1.2,1.5-1.8,2.3c-0.5,0.6-0.3,1.1,0.5,1.3
			c0.9,0.3,1.8,0.4,2.7,0.5c3.6,0.1,7.2,0,10.8,0c0.6-0.1,1.3-0.2,1.9-0.5c0.6-0.2,1.3,0,1.7,0.5c0.5,0.6-0.1,1.1-0.5,1.5
			c-0.4,0.4-0.8,0.6-1.2,1c-0.7,0.6-1.3,1.3-2.1,2.1c2,0.7,4.1,1,6.3,1c2.8,0.1,5.7,0,8.5-0.1c0.9-0.1,1.8,0.3,2.3,1.1
			c2,2.6,2.2,5.7,2.4,8.8c0.2,2.6,0,5.3,0,8.2c1.4-1.1,1.7-2.4,2.2-3.6c1-2.6,1.9-5.3,2.8-7.9c0.1-0.4,0.2-0.8,0.3-1.2
			c0.6-2.6-1.1-5.1-3.7-5.7c-0.4-0.1-0.9-0.1-1.4-0.1c-1.9,0-1.9-0.1-1.8-1.9c0-0.7-0.1-1.4-0.4-2.1c-2-5.3-5.6-9.9-10.2-13.2
			c-2.2-1.7-4.6-3.3-6.9-4.8c-0.5-0.2-1.1-0.4-1.6-0.4c-0.1,0.6-0.2,1.1-0.1,1.7c0.2,1.1,0.6,2.1,1,3.2c0.2,0.6,0.5,1.1-0.2,1.6
			c-0.5,0.4-1.2,0.3-1.6-0.2c-1.6-1.4-3.4-2.5-5.4-3.2c-1-0.3-2-0.6-3-0.8c-2.6-0.7-5.2-1.4-7.8-2.1C129.6,8.7,129.1,8.6,128.6,8.6z
			"/>
		<path class="st0" d="M141,122.2c0.9,1.8,1.3,3.6,3.1,4.4s3.5,0.2,5-0.8c0.3-0.2,0.5-0.4,0.8-0.6c1.8-1.8,2-3.5,0.3-5.3
			c-1.3-1.2-2.7-2.3-4.2-3.2c-1.2-0.7-1.6-0.4-2.3,0.8c-0.4,0.7-1,1.4-1.4,2.1C141.8,120.3,141.4,121.3,141,122.2z"/>
		<path class="st4" d="M107.3,173.3c-1.3,0.4-3,0.7-4.7,1.3c-1.3,0.4-1.5,1.4-0.8,2.5c0.6,1.2,1.8,2,3.2,2c2.3,0.1,4.6-0.8,6.2-2.5
			c0.3-0.4,0.6-0.9,0.7-1.4c0.4-0.8,0.1-1.3-0.8-1.4C110,173.6,108.9,173.5,107.3,173.3z"/>
		<path class="st4" d="M130.6,183.5c1.1-0.1,2.2-0.4,3.2-0.7c0.7-0.3,1.3-0.9,1.6-1.6c0.9-1.6,0.7-1.7-0.9-2.4c-2.6-1.2-4.8,0.1-7,1
			c-0.6,0.2-0.8,0.7-0.6,1.4c0.2,1.1,1.2,1.9,2.3,2.1c0.5,0,0.9,0,1.4,0L130.6,183.5z"/>
		<path class="st0" d="M84.2,61.1c0-0.3,0.2-0.7,0.1-1c-0.2-0.5-0.6-1-1-1.3c-1-0.5-3.9,1-4.2,2.1c-0.6,1.7,0.3,3.5,1.9,4.1
			c0,0,0.1,0,0.1,0c1.2,0.5,2.5-0.1,2.9-1.2c0.1-0.2,0.1-0.5,0.2-0.7c0.1-0.6,0.2-1.3,0.2-1.9L84.2,61.1z"/>
		<path class="st0" d="M123.6,82.2c0.4,0.5,0.9,1.1,1.4,1.5c0.8,0.6,1.7,0.9,2.6,1.4c1,0.6,2.3,0.5,3.1-0.3c0.2-0.2,0.6-0.5,0.5-0.8
			s-0.4-0.5-0.7-0.5c-1-0.2-1.9-0.3-2.9-0.6c-1.3-0.3-2.5-0.7-3.8-1L123.6,82.2z"/>
		<path class="st0" d="M164.2,67.4c2.8-0.6,4.2-4.2,2.8-6c-0.3-0.4-0.8-0.7-1.1,0C165.3,63.2,164.8,65.2,164.2,67.4z"/>
		<path class="st5" d="M134.1,67.8c-1.2-0.3-2.2-0.5-3.1-0.8c-2.5-0.8-5.1-1.7-7.7-2.5c-1.1-0.2-2.1-0.3-3.2-0.3
			c0.1,1,0.3,1.9,0.6,2.8c0.5,1.3,1.3,2.6,2.2,3.7c1.3,1.4,3.4,1.9,5.2,1.2C130.4,71,132.4,70.1,134.1,67.8z"/>
		<path class="st6" d="M147.6,61.4c0.9-0.5,1.8-0.8,2.7-1.1c1.5-0.4,3,0.5,3.4,1.9c0.2,0.5,0.2,1.1,0,1.6c0.1,0.3,0.1,0.6,0.1,0.8
			c0,1.5-1.2,2.7-2.7,2.7c-0.9,0-1.8-0.1-2.7-0.2c-0.4-0.1-0.7-0.2-1.1-0.4c-0.9-0.5-1.4-1.5-1.5-2.5
			C145.6,63.1,146.6,62,147.6,61.4z"/>
		<path class="st6" d="M107.9,49.5c0.8-1.3,2.4-1.8,3.7-1c0.7,0.4,1.1,1,1.3,1.8c0.3,0.2,0.6,0.5,0.8,0.8c0.8,1.3,0.3,3-1,3.8
			c-1.7,0.8-3.7,1.8-5.3,0.2C105.8,53.4,106.9,51.2,107.9,49.5z"/>
		<path class="st7" d="M140.9,128.9c-0.1,4.9-0.2,9.8-0.3,14.8c0,0.8-0.1,1.6-0.1,2.4c-0.1,4.1-0.4,8.1-0.3,12.2
			c0.1,6.6-0.1,13.3-0.5,19.9c0,0.4-0.2,1-0.3,1.1c-1.5,0.2-1.3,1.6-1.8,2.4c-0.4,0.8-1,1.6-1.7,2.1c-2.7,1.8-5.5,1.8-8.5,1
			c-1-0.3-1.7-1-2-2c-0.2-0.9-0.4-1.8-0.4-2.7c-0.1-0.8,0.4-1.6,1.2-1.8c0.3-0.1,0.6-0.2,0.9-0.3c0.9-0.2,1.5-1.1,1.3-2c0,0,0,0,0,0
			c-0.4-3.9-0.5-7.9-0.7-11.8c-0.1-1.2-0.1-2.4-0.2-3.5c-0.4-3.5-1.1-6.9-1.3-10.4c-0.2-2.9,0.1-5.9,0-8.9c-0.1-1.4-0.2-2.9-0.5-4.3
			c-0.2-0.9-0.8-1.2-2-1.2c-0.9,0-1,0.5-1.1,1.3c-0.2,2-0.6,4-0.8,6c-0.4,4.3-1.2,8.5-2.4,12.6c-0.4,1.2-0.7,2.4-0.9,3.6
			c-0.4,2.9-0.7,5.7-1.1,8.6c-0.2,1.6-0.4,3.1-0.7,4.7c-0.1,0.9-0.4,1.6-1.4,1.9c-0.5,0.2-0.8,0.6-1,1c-1.2,3.3-3.8,4.7-6.9,5.5
			c-2.6,0.5-5.2-0.5-6.9-2.5c-1.1-1.9-0.6-4.3,1.3-5.4c0.1,0,0.1-0.1,0.2-0.1c1.1-0.5,2.2-0.8,3.3-1.1c0.8-0.1,1.4-0.8,1.5-1.6
			c0.3-2,0.7-4,1-6c0.7-4.7,1.4-9.5,2-14.2c0.6-4.5,1-9,1.4-13.5c0.1-1.2,0.2-2.4,0.4-3.5c0.4-1.8,0.5-3.6,0.5-5.4
			c-0.3-3.9-0.2-7.9-0.2-11.8s0-7.6,0.1-11.5c0.2-4.4,0.5-8.8,0.8-13.2c0.1-1,0.3-2.2-0.1-2.9c-0.4-0.7-1.7-0.8-2.5-1.1
			c-4.5-1.4-8.4-4-12.4-6.3c-3.2-1.8-6.3-3.7-9.3-5.9c-2.3-1.6-4.4-3.3-6.3-5.3c-0.7-0.9-1.5-1.7-2.4-2.4c-1.4-0.9-2.4-2.4-2.6-4
			c-0.6-2.9,0-5,2.9-5.7c0.8-0.2,1.5-0.5,2.2-0.8c2.1-0.8,3.8,0.2,4,2.4c0.1,1.2,0,2.3,1.5,2.7c0.3,0.1,0.5,0.2,0.6,0.5
			c0.8,1.6,2.3,2.3,3.7,3.2c3.8,2.4,7.8,4.6,11.5,7.2c2.2,1.6,4.8,1.9,7.3,2.7c-0.5-0.8-1.3-1.4-1.8-2.2c-1.9-3-3.9-6.1-5.6-9.2
			c-0.8-1.5-1.4-3.1-1.8-4.8c-1-3.4-1.3-6.9-0.8-10.4c0.8-5.1,1.7-10.2,3.5-15.1c1.5-4.1,3.4-8,6.9-10.8c0.5-0.4,1-0.9,1.5-1.3
			c0.5-0.4,0.6-0.9,0-1.4c-0.8-0.7-1.6-1.4-2.3-2.2c-1.3-1.5-0.8-2.9,1-3.4c0.7-0.2,1.4-0.3,2.1-0.5c1.3-0.3,1.3-0.3,0.7-1.4
			c-0.6-0.9-0.7-2-0.5-3c2.3-0.1,4.6-0.1,6.9,0.1c2.4,0.4,4.7,0.8,7.1,1.4c-0.3-0.6-0.7-1.3-0.9-1.9c-0.7-1.8-0.3-2.3,1.7-2.3
			c0.5,0,1.1,0.1,1.6,0.2c4.8,0.9,9.5,2.2,14.1,3.8c0.4,0.1,0.8,0.3,1.3,0.4c-0.1-0.8-0.2-1.3-0.3-1.9c-0.2-1.1,0.2-2.1,1-2.8
			c1-0.7,1.8,0,2.7,0.5c4.3,2.5,8.4,5.5,12.1,8.9c3.8,3.3,6.3,7.8,7.3,12.7c0.2,0.4,0.5,0.7,0.8,0.8c0.9,0.4,1.9,0.6,2.8,1
			c1.6,0.6,2.7,2,3.1,3.6c0.5,2.7,0.1,5.6-1.2,8c-0.3,0.5-0.5,1.1-0.7,1.6c-0.8,2.4-1.7,4.6-2.8,6.9c-1.1,2.3-2.2,4.6-3.4,6.9
			c-0.4,0.8-0.1,1.3,0.7,1.7c0.7,0.2,1.4,0.7,1.8,1.3c2,3.2-0.4,9-4.1,10.1c-0.4,0.1-0.8,0.2-1.2,0.1c-1.4-0.4-2.1,0.3-2.8,1.5
			c-1.9,3.1-4.5,5.7-7.6,7.5c-1.6,0.9-3.3,1.6-5,2.2c-1.9,0.7-4,1.2-6.2,1.8c0.7,0.6,1.2,0.9,1.7,1.3c2.9,2.3,6.2,4.1,9,6.7
			c4.1,3.6,6.4,8.9,6.2,14.4c-0.1,1.8-0.4,3.7-0.3,5.5c0.2,2.7-1,4.8-2.8,6.7c-0.4,0.5-0.9,1-1.3,1.4c-0.9,0.7-1.4,1.8-1.4,2.9
			c-0.1,2.3-1.5,4.3-3.5,5.4c-2.8,1.7-6.3,1.8-9.2,0.2C140.9,128.3,140.9,128.6,140.9,128.9z M144.5,27.8c-3.6,0.2-7.2,0-10.8-0.5
			c-1.7-0.2-1.7-0.2-1.6-1.9c0.1-0.8,0.2-1.6,0.4-2.4c-2.1,0.1-4.2,0.2-6.3,0.1s-4.2-0.4-6.2-0.7c-0.3,0-0.6-0.4-0.7-0.7
			c-0.5-1.4-0.5-1.5-1.9-1.1c-1.8,0.6-3.4,1.6-4.7,2.9c-2.9,2.6-5.1,6-6.4,9.8c-0.2,0.7-0.6,1.3-0.8,2c-2,4.4-2.5,9.1-3.1,13.8
			c-0.4,3.6,0,7.3,1.3,10.7c1.1,3.1,3.2,5.6,4.6,8.5c0.9,1.9,2.1,3.7,3.7,5.1c1.8,1.3,3.6,2.5,5.6,3.6c3,1.8,6.3,2.5,9.5,3.7
			c1.5,0.5,3.2,0.8,4.8,0.8c2.4,0.1,4.9,0.3,7.3-0.2c0.8,0,1.6,0,2.3,0c4.7-0.5,9.2-1.8,12.9-4.8c2.1-1.6,3.9-3.5,5.3-5.8
			c1.2-2.2,3-4.2,3.6-6.8c0.2-1,0.3-2.1,0.5-3.1c0-0.4,0-0.8,0.1-1.2c1.5-4.5,2.3-9.3,2.1-14.1c0-3.5,0-7.1-1.1-10.6
			c-0.3-1.1-0.7-1.4-1.9-1.5c-3.6,0-7.2-0.2-10.8-0.4c-1.7-0.1-3.4-0.3-5.1-0.5c-0.4-0.1-0.6-0.4-0.8-0.7c-0.2-1-0.3-2,0.7-2.7
			c0.3-0.2,0.7-0.4,1-0.6l-0.3-0.6C146.6,28,145.5,27.8,144.5,27.8L144.5,27.8z M86.9,71.4c4,3.4,8.4,6.3,13.2,8.6
			c0.8,0.4,1.6,0.9,2.3,1.4c2.5,1.9,5.6,2.5,8.5,3.6c0.9,0.4,1.8,0.7,2.5-0.6c0.4-0.7,1.5-0.2,1.6,0.8c0.1,0.8,0,1.7,0,2.5
			c-0.3,3.7-0.6,7.5-0.8,11.2c-0.2,2.8-0.5,5.6-0.5,8.5c-0.1,4.9-0.1,9.8-0.1,14.6c0,0.4,0.1,0.8,0.1,1.2c0,1,0.2,1.4,1.4,1.6
			c2.3,0.5,4.6,1.2,7,0.7c0.3,0,0.7,0,1,0.1c4.4,1.6,9.1,1.1,13.7,1.4c1.9,0.1,2.1-0.2,2.1-2c0-1.6-0.3-3.1-0.3-4.7
			c0-1.8,0.1-3.7,0.2-5.5c0.2-4.9,0.6-9.8,0.7-14.7c0-1.7-0.1-3.4-0.4-5.1c-0.1-0.3-0.1-0.6-0.2-1c0-0.9,0.7-1.3,1.5-0.8
			c2,1.1,4,2.2,5.9,3.5c4.2,2.7,6.1,7.8,4.8,12.6c-0.3,1.8-1.1,3.5-2.2,5c-0.6,0.7-0.4,1.2,0.2,1.7l2.7,2.3c0.5,0.4,1,0.7,1.5,0.1
			c0.8-0.7,1.5-1.5,2.1-2.3c0.7-0.9,1.2-1.9,1.4-3c0.5-4,1-8.1,0.3-12.1c-0.6-3.2-2.4-6-5-7.9c-4.3-3.3-8.9-6.3-13.4-9.3
			c-1-0.7-3.2-0.1-4.1,0.8c-1.3,1.4-3.1,2.5-5,2.9c-1.9,0.4-3.7-0.6-5.3-1.6c-1.6-0.9-2.7-2.3-3.2-4c-0.2-0.5-0.5-0.8-1-1.1
			c-2.1-1.2-4.1-2.3-6.2-3.4c-0.3-0.1-0.8-0.3-0.8-0.2c-1,1.1-2.1,0.5-3.1,0.2c-1.8-0.4-3.5-1-5.2-1.7c-1.8-0.9-3.6-2-5.3-3.1
			c-2.9-1.8-5.9-3.7-8.8-5.6c-1.1-0.7-2.2-1.5-3.2-2.3c-0.4-0.4-1.1-0.5-1.5-0.1c-0.1,0.1-0.1,0.1-0.2,0.2c-0.9,0.8-1.9,1.6-3,2.4
			C84,68.8,85.4,70.2,86.9,71.4z M138.1,173.3c0.2-4.4,0.4-8.8,0.5-13.2c0-1.3-0.2-2.6-0.2-3.9c0.1-3.9,0.2-7.8,0.3-11.6
			c0-4.5,0-9.1,0-13.6c0-1.5-0.2-1.6-1.8-1.7l-8.3-0.4c-1.5,0-3-0.3-4.4-0.8c-0.5-0.2-1-0.3-1.5-0.3c-2.2-0.1-4.3,0-6.5-0.1
			c-1.7-0.1-1.9,0.1-2.4,1.6c-0.8,2.7-0.8,5.6-1,8.4c-0.2,2.2-0.6,4.3-0.8,6.5c-0.3,2.2-0.4,4.2-0.7,6.2c-0.4,3.3-0.8,6.5-1.3,9.8
			c-0.3,2.5-0.7,5.1-1,7.6c-0.1,0.9-0.3,1.8-0.5,2.7s0.1,1.4,1.1,1.4c1.2,0,2.5,0.1,3.7,0.2s1.8-0.5,1.9-1.7c0.3-3.3,0.5-6.6,0.8-10
			c0.3-1.5,0.7-3.1,1.1-4.6c0.9-3.6,2-7.1,2.6-10.7c0.6-3.2,1.2-6.5,1-9.8c-0.1-1.5,0.1-1.6,1.6-1.5c0.8,0.1,1.7,0.1,2.5,0.1
			c1.6,0,2.2,0.4,2.4,2c0.2,1.6,0.4,3.1,0.4,4.7c0.2,5.4-0.3,10.7,0.7,16.1c0.4,2.9,0.7,5.9,0.8,8.8c0.3,3,0.5,6,0.8,9
			c0,0.8,0.6,1.5,1.4,1.6c1.2,0.2,2.5,0.5,3.6,0.8c0.8,0.3,1.6,0.7,2.4,1.1C137.7,176.3,138,174.8,138.1,173.3L138.1,173.3z
			 M130.3,11.5c0.2,0.5,0.3,1.1,0.1,1.6c-0.3,0.6-1,0.6-1.7,0.3c-2.2-0.7-4.4-1.3-6.6-2c-1.7-0.6-3.5-0.2-5.3-0.1
			c-0.7,0-0.7,0.5-0.3,0.9c0.4,0.4,0.9,0.6,1.2,1.1c0.3,0.5,0.5,1,0.4,1.6c-0.2,0.8-0.9,0.8-1.6,0.7c-1.5-0.3-3-0.1-4.4,0.6
			c1.7,2.5,3,3.1,5.6,2.2c1.6-0.5,3.1-1.2,4.6-1.8c0.4-0.1,0.7-0.5,1.1-0.5c0.4,0,0.9,0.2,1.2,0.5c0.2,0.3,0.2,0.7,0,1.1
			c-0.2,0.5-0.6,0.9-1,1.2c-0.5,0.5-1.1,0.9-1.8,1.6c0.7,0.3,1.3,0.5,2.1,0.7c2.2,0.1,4.3,0.1,6.5-0.1c1.6-0.1,3.2-0.7,4.8-1
			c0.5-0.1,1,0.1,1.4,0.4c0.2,0.2,0.1,0.9-0.2,1.2c-0.5,0.8-1.2,1.5-1.8,2.3c-0.5,0.6-0.3,1.1,0.5,1.3c0.9,0.3,1.8,0.4,2.7,0.5
			c3.6,0.1,7.2,0,10.8,0c0.7,0,1.3-0.2,1.9-0.5c0.6-0.2,1.3,0,1.7,0.5c0.5,0.6-0.1,1.1-0.5,1.5c-0.4,0.4-0.8,0.6-1.2,1
			c-0.7,0.6-1.3,1.3-2.1,2.1c2,0.7,4.1,1,6.3,1c2.8,0.1,5.7,0,8.5-0.1c0.9-0.1,1.8,0.3,2.3,1.1c2,2.6,2.2,5.7,2.4,8.8
			c0.2,2.6,0,5.3,0,8.2c1.4-1.1,1.7-2.4,2.2-3.6c1-2.6,1.9-5.3,2.8-7.9c0.1-0.4,0.2-0.8,0.3-1.2c0.6-2.6-1.1-5.1-3.7-5.7
			c-0.4-0.1-0.9-0.1-1.4-0.1c-1.9,0-1.9-0.1-1.8-1.9c0-0.7-0.1-1.4-0.4-2.1c-2-5.3-5.6-9.9-10.2-13.2c-2.2-1.7-4.6-3.3-6.9-4.8
			c-0.5-0.2-1.1-0.4-1.6-0.4c-0.1,0.6-0.2,1.1-0.1,1.7c0.2,1.1,0.6,2.1,1,3.2c0.2,0.6,0.5,1.1-0.2,1.6c-0.5,0.4-1.2,0.3-1.6-0.2
			c-1.6-1.4-3.4-2.5-5.4-3.2c-1-0.3-2-0.6-3-0.8c-2.6-0.7-5.2-1.4-7.8-2.1c-0.5-0.1-1-0.1-1.4-0.2C129.2,9.5,129.8,10.5,130.3,11.5z
			 M141.8,116.2c0.5-1.2,1.7-1.9,2.9-2c1.1-0.1,2-0.7,2.5-1.7c1.4-2.2,2.1-4.7,2-7.3c-0.1-2.1-1-4-2.5-5.4c-1.7-1.6-3.6-2.8-5.7-3.8
			c-0.2,7.2-0.4,14.2-0.5,21.1l0.5,0.1C141.3,116.9,141.6,116.6,141.8,116.2z M144.1,126.6c1.8,0.8,3.5,0.2,5-0.8
			c0.3-0.2,0.5-0.4,0.8-0.6c1.8-1.8,2-3.5,0.3-5.3c-1.3-1.2-2.7-2.3-4.2-3.2c-1.2-0.7-1.6-0.4-2.3,0.8c-0.4,0.7-1,1.4-1.4,2.1
			c-0.4,0.7-0.8,1.7-1.3,2.5C141.9,123.9,142.3,125.8,144.1,126.6z M102.6,174.6c-1.3,0.4-1.5,1.4-0.8,2.5c0.6,1.2,1.8,2,3.2,2
			c2.3,0.1,4.6-0.8,6.2-2.5c0.3-0.4,0.6-0.9,0.7-1.4c0.4-0.8,0.1-1.3-0.8-1.4c-1.1-0.2-2.2-0.3-3.8-0.5
			C106,173.6,104.3,174,102.6,174.6z M133.8,182.8c0.7-0.3,1.3-0.9,1.6-1.6c0.9-1.6,0.7-1.7-0.9-2.4c-2.6-1.2-4.8,0.1-7,1
			c-0.6,0.2-0.8,0.7-0.6,1.4c0.2,1.1,1.2,1.9,2.3,2.1c0.5,0,0.9,0,1.4,0v0.2C131.6,183.3,132.7,183.1,133.8,182.8z M84.3,60.1
			c-0.2-0.5-0.6-1-1-1.3c-1-0.5-3.9,1-4.2,2.1c-0.6,1.7,0.3,3.5,1.9,4.1c0,0,0.1,0,0.1,0c1.2,0.5,2.5-0.1,2.9-1.2
			c0.1-0.2,0.1-0.5,0.2-0.7c0.1-0.6,0.2-1.3,0.2-1.9h-0.1C84.2,60.7,84.4,60.3,84.3,60.1z M125,83.7c0.8,0.6,1.7,0.9,2.6,1.4
			c1,0.6,2.3,0.5,3.1-0.3c0.2-0.2,0.6-0.5,0.5-0.8c0-0.2-0.4-0.5-0.7-0.5c-1-0.2-1.9-0.3-2.9-0.6c-1.3-0.3-2.5-0.7-3.8-1l-0.3,0.3
			C124,82.7,124.5,83.2,125,83.7z M167,61.3c-0.3-0.4-0.8-0.7-1.1,0c-0.6,1.9-1.1,3.9-1.7,6.1C167,66.8,168.5,63.2,167,61.3z"/>
		<path class="st7" d="M117.6,63.1c0-0.2,0-0.4,0-0.6c0-1.4,0.4-1.7,1.8-1.4c0.2,0.1,0.5,0.2,0.7,0.3c3.5,1.2,7.1,2.4,10.7,3.5
			c1.4,0.3,2.8,0.6,4.2,0.7c0.7,0.1,1.8,0.2,1.9,0.6c0.1,0.7-0.1,1.5-0.5,2.1c-0.4,0.7-0.9,1.3-1.5,1.8c-2.1,2.4-5,3.3-7.9,4
			c-0.6,0.1-1.3,0-1.9-0.2c-4.1-1-5.5-4.4-6.9-7.7c-0.3-1.1-0.6-2.1-0.7-3.2L117.6,63.1z M131,67.1c-2.5-0.8-5.1-1.7-7.7-2.5
			c-1.1-0.2-2.1-0.3-3.2-0.3c0.1,1,0.3,1.9,0.6,2.8c0.5,1.3,1.3,2.6,2.2,3.7c1.3,1.4,3.4,1.9,5.2,1.2c2.2-0.8,4.2-1.7,5.9-4
			C132.9,67.5,131.9,67.3,131,67.1L131,67.1z"/>
		<path class="st7" d="M143.3,50.5c0.1,0.6,0.2,1.2,0.4,1.8c0.8,2.2,2.7,2.7,4.4,1.1c0.7-0.7,1.4-1.5,2-2.4c0.5-0.6,0.6-1.3,0.4-2
			c-0.5-2.2-1.4-3.3-3-3.3c-1.9,0-3.5,1.3-4,3.1C143.4,49.5,143.3,50,143.3,50.5z"/>
		<path class="st7" d="M120.4,42.3c-0.2-0.9-0.5-1.7-0.9-2.5c-0.7-1.4-2.4-2-3.8-1.3c-0.2,0.1-0.3,0.2-0.5,0.3
			c-1.5,0.9-2.5,2.1-2.4,4c0,1.7,1.4,3.1,3.1,3.1c0.1,0,0.2,0,0.2,0c1.5,0,2.5-0.9,3.7-1.7C120.2,43.9,120.2,43,120.4,42.3z"/>
		<path class="st7" d="M151.4,37.3c-1,0.3-2,0.5-3,0.8c-0.3,0.1-0.8,0.5-0.8,0.8c-0.1,0.6-0.1,1.1,0.2,1.6c0.5,0.6,1,0,1.5-0.4
			c1.4-1.2,3.6-1,4.8,0.5c0,0,0,0.1,0.1,0.1c0.7,1,1.2,2.1,1.9,3.2c0.2,0.3,0.5,0.5,0.7,0.7c0.3-0.3,0.7-0.7,0.7-1
			c0-0.6-0.1-1.3-0.4-1.9C156,38.8,154.2,37.4,151.4,37.3z"/>
		<path class="st7" d="M121.6,54.3c0,0.2,0,0.3,0.1,0.5c0.7,1.1,1.5,2.1,2.3,3.2c0.4,0.6,1.1,0.7,1.5,0.2c0.3-0.3,0.1-0.9,0.1-1.4
			c0-0.1-0.1-0.1-0.1-0.2l-1.2-2.3l2.6-0.7c0.2-0.1,0.6,0,0.8-0.2c0.6-0.4,1.1-0.8,0.7-1.6c-0.2-0.6-0.9-0.9-1.5-0.7
			c0,0-0.1,0-0.1,0.1c-1.3,0.5-2.7,1-4.1,1.4C121.8,52.7,121.6,53.3,121.6,54.3z"/>
		<path class="st7" d="M115.7,29.8c0,1.8,0.8,2.4,2.1,1.7c2-1.1,2.9-0.8,3.9,1.2c0.1,0.2,0.2,0.5,0.3,0.7c0.2,0.6,0.6,1.3,1.2,0.8
			c0.5-0.4,0.8-1,0.8-1.6c-0.4-2.4-2.5-4.1-4.9-3.9c-1,0.2-2,0.5-3,0.8C116,29.6,115.8,29.7,115.7,29.8z"/>
		<path class="st0" d="M223.3,50.7c1.5,0.8,2,0.6,2-1.1c0-0.8-0.2-1.6-0.2-2.4c0-0.4,0-0.7,0.1-1.1c0.4,0.1,0.8,0.2,1.2,0.4
			c0.4,0.3,0.8,0.5,1.1,0.8c2.2,1.7,4.4,3.5,6.7,5.2c1.9,1.5,3.9,2.8,5.9,4.3c0.4,0.3,0.6,0.8,0.7,1.3c0.2,2.7,0.6,5.3,0.2,8
			c-0.5,3-0.7,6.1-1.3,9.2c-0.7,3.7-3.3,6.6-5.1,9.8c-0.3,0.5-0.8,0.9-1.3,1.2c-0.8,0.5-1.6,0.9-2.4,1.3c-1.1,0.7-2.2,1.4-3.4,2
			c-3.3,1.4-6.7,2.4-10.2,3c-4.7,0.7-9.3,0.8-13.7-1.3c-1.6-0.8-3.4-1.4-5-2.1c-2-0.7-3.9-1.7-5.4-3.1c-0.8-0.8-1.8-1.3-2.5-2.2
			c-1-1.2-1.9-2.5-2.7-3.8c-0.4-1-0.8-2-1.1-3.1c-0.6-1.7-1.3-3.3-1.9-4.9c-1.1-2.9-1.1-5.9-1.3-8.9c-0.1-2.9,0.3-5.8,1.3-8.5
			c0.4-1,1.2-1.8,2.3-2c1.2-0.4,2.3-0.9,3.3-1.6c3-2.1,5.9-4.4,8.8-6.7c0.4-0.3,0.7-0.6,1-1c0.9-1.1,0.9-1.1,1.9-0.1
			c0.4,0.4,0.7,0.8,1.1,1.2c1.4,1.5,2.7,3.1,4.1,4.5c1.4,1.5,3.2,0.9,3.4-1c0.2-1.5,0.5-2.9,0.8-4.3L223.3,50.7z M201.5,61.6
			c0-2-2.2-4.1-4.2-4.1c-1.7,0-4.6,2.5-4.6,4.2c0,1.7,2.3,5.2,4.3,5C199.2,66.7,201.5,64.1,201.5,61.6z M221.8,61.2
			c-0.8,1-1.4,2.3-0.7,3.6c0.5,0.9,1,1.7,1.6,2.4c0.8,1,1.9,1.6,3.3,1.1c1.3-0.4,2.3-1.6,2.5-3c0.4-1.9-0.2-3.9-1.5-5.3
			c-0.3-0.3-0.6-0.5-1-0.6C224.4,59.4,222.8,60,221.8,61.2z M217.4,81.7c0.1-0.4,0.1-0.9-0.1-1.3c-0.3-0.8-0.9-0.8-1.4-0.1
			c-0.5,0.8-0.8,1.5-1.3,2.2c-0.8,1.3-2,2.3-3.6,2c-1.7-0.3-3.2-1.5-3.8-3.2c-0.2-0.7-0.3-1.7-1.2-1.5c-1,0.2-0.6,1.3-0.5,2
			c0.3,2.2,3.3,4.5,5.8,4.5C213.6,86.4,216.9,83.9,217.4,81.7L217.4,81.7z M193.7,51.3c-0.1,0.5,0.4,1.1,0.6,1.7
			c0.4-0.1,0.8-0.3,1.1-0.6c0.4-0.4,0.7-1.2,1.2-1.5c1.3-0.8,3.1-0.4,4.1,1.1c0.2,0.5,0.5,0.9,0.8,1.3c0.3,0.3,0.7,0.4,1.2,0.4
			c0.2,0,0.5-0.6,0.5-0.9c-0.1-1.6-1.1-3-2.5-3.7c-0.8-0.3-1.6-0.5-2.5-0.6C196.5,48.5,194.1,50,193.7,51.3L193.7,51.3z M231.1,54.8
			c-1.1-1-2.3-1.9-3.6-2.7c-1.1-0.6-2.3-0.1-3.3,0.7c-0.3,0.3-0.7,0.6-1.1,0.8c-0.5,0.2-0.8,0.8-0.6,1.3c0,0.1,0.1,0.2,0.2,0.3
			c0.2,0.4,0.6,0.8,0.9,0.9s0.7-0.4,1-0.8c1.1-1.6,1.5-1.8,3.2-0.7c1,0.9,2,1.8,2.9,2.9c0.3,0.3,0.6,0.5,1,0.8l0.7-1.2
			C232,56.3,231.6,55.5,231.1,54.8L231.1,54.8z M210,69.9c0.4-0.2,1-0.2,1.2-0.5c0.3-0.4,0.4-0.9,0.3-1.4c-0.2-0.4-0.6-0.6-1-0.6
			c-0.6,0.2-1.2,0.4-1.8,0.7c-0.6,0.3-1.2,0.7-1.9,1c-0.8,0.3-1.1,0.6-0.8,1.6c0.4,1.8,1.9,2.7,3,4.1c0.3,0.4,0.9,0.8,1.5,0.1
			c0.4-0.5,0.4-1.2-0.1-1.6c0,0,0,0-0.1-0.1l-2.5-2.3L210,69.9z"/>
		<path class="st8" d="M240.6,132c-1.9-3.1-3.8-5.9-5.5-9c-1.1-2.1-2.1-4.4-2.8-6.7c-1.2-3.7-3.1-7.1-4.9-10.5
			c-1.3-2.5-2.5-5.2-3.7-7.8c-0.6-1.2-1.1-2.5-1.7-3.8c-1.8,0.3-1.6,0.3-2,2c-0.6,2.9-1.4,5.9-2.4,8.7c-1.1,3.4-2.2,6.7-3.6,10
			c-0.8,1.9-1.7,3.7-2.8,5.4c-0.3,0.4-0.7,0.7-1.2,0.8c-0.3,0-0.8-0.6-0.8-1.1c-1.4-5.1-3.5-10.1-4.2-15.3c-0.3-2.5-0.4-5-0.5-7.6
			c-0.3,0.2-0.7,0.3-0.8,0.5c-1,1.3-1.9,2.7-2.8,4.1s-1.8,2.7-2.7,4.1c-2.8,4.4-5.6,8.9-8.4,13.4c-1.3,2.1-2.6,4.2-3.9,6.3
			c-0.3,0.4-0.7,0.8-1,1.2c0.7,1.1,1.4,2.2,2.1,3.2c0.7,1.1,1.1,1.1,1.7,0.1c1.9-3,4.7-5.3,7-8c1.3-1.6,2.5-3.2,3.6-5
			c0.3-0.6,0.3-1.3,0.1-1.9c-0.6-2.2-0.4-4.5,0.7-6.5c0.5-1,0.7-2.1,1.1-3.2c0.1-0.3,0.4-0.7,0.6-0.7c0.3,0.1,0.8,0.3,0.9,0.6
			c0.1,0.6,0.1,1.1,0,1.7c-0.4,1.4-0.9,2.9-1.4,4.3c-0.4,1.2-0.4,2.5,0.1,3.6c0.6,1.4,1.1,3,1.6,4.4c0.8,2.3,0.4,4.6,0.3,6.9
			c-0.1,3.3-0.2,6.7-0.3,10c-0.1,2-0.2,3.9-0.3,5.9c-0.1,0.8,0,1.4,1.1,1.4c1.9,0.1,3.7,0.3,5.6,0.5c0.5,0,0.9,0.1,1.4,0.1
			c4.6,1.1,9.5,1.1,14.1,0c1.4-0.4,1.4-0.4,1.2-1.7c-0.7-5.9-1.6-11.9-1.5-17.8c0.1-2.8-0.3-5.6-1-8.4c-0.1-0.4,0-0.9,0.1-1.3
			c0.1-0.4,0.3-0.8,0.4-1.2c0.5,0.3,1.2,0.4,1.4,0.8c0.5,1.1,0.9,2.3,1.3,3.5c0.2,0.6,0.4,1.1,0.7,1.6c1.2,2.1,2.4,4.2,3.6,6.3
			c1.8,3,3.6,5.9,5.5,8.9c0.3,0.4,1.1,1,1.3,0.8c0.6-0.3,1.5-0.6,1.4-1.6C238.8,132.8,239.8,132.4,240.6,132z"/>
		<path class="st3" d="M237.1,84.9c0.6,0.4,1.1,0.6,1.3,1c1.1,1.7,3,2.5,4.7,3.5c1.5,0.8,3.1,1.5,4.9,0.3c-1.6-4.7-1.5-9.4-1.3-14.4
			c0.2-5.6,1.4-10.9,1.8-16.4c0.2-2.8,0.6-5.6,0.6-8.4c0-3.8-1.4-7.5-4-10.3c-2-2.3-3.9-4.8-6.7-6.4c-0.3-0.2-0.5-0.4-0.8-0.6
			c-2.2-1.1-4.4-2.1-6.6-3.1c-2.1-0.9-4.3-1.4-6.5-1.5c-5.2-0.3-10.5-0.6-15.6,1.1c-1.3,0.4-2.5,1.2-3.3,2.4
			c-0.6,1.1-1.1,1.1-1.9,0.5c-1.4-1.1-3.3-1.5-5-0.9c-1.6,0.5-3.2,1.2-4.6,2.1c-2.2,1.4-4.6,2.6-6.3,4.7c-2.3,2.7-4.1,5.7-4.4,9.3
			c0,1.2,0.2,2.4,0.5,3.6c1.3-0.3,2.7-0.2,3.7-0.8c2.7-1.7,5.3-3.6,7.8-5.6c1.6-1.5,3.1-3,4.4-4.7c0.4-0.5,1.2-0.7,1.7-0.3
			c0.1,0.1,0.2,0.2,0.3,0.3c1.4,1.7,2.8,3.5,4.2,5.2c0.1,0.2,0.2,0.3,0.4,0.4c0.7,0.5,1.4,1.5,2,1.4c1-0.2,0.6-1.4,0.7-2.2
			c0.2-1.2,0.4-2.5,0.5-3.7c0.1-0.9,0.5-1.2,1.3-0.8c0.2,0.1,0.5,0.2,0.7,0.4c3,3,6.8,4.7,10.4,6.7c0.1,0.1,0.2,0.2,0.3,0.2
			c0.6,0.3,1,0.2,1-0.6c0-1.1,0.1-2.2,0.3-3.3c0.1-0.6,0.3-1.1,0.8-1.4c0.7-0.3,1.1,0.4,1.6,0.8c1.9,1.8,3.9,3.6,6,5.2
			c2.6,2.1,5.4,4,8.1,5.9c0.6,0.4,1.3,0.6,1.9,1c0.4,0.2,0.8,0.6,0.9,1.1c0.2,1.6,0.2,3.2,0.3,4.9c0,1.8,0,3.5-0.2,5.3
			c-0.2,2.8-0.6,5.6-1.1,8.4c-0.4,2.5-1.4,4.8-2.8,6.9C238.3,82.9,237.7,83.9,237.1,84.9z"/>
		<path class="st9" d="M208.8,161.9c3.5-0.2,7.1-0.4,10.6-0.7c2.5-0.2,5.1-0.5,7.6-0.8c0.8-0.1,1.1-0.5,1-1.3
			c-0.6-3.7-1-7.4-1.6-11.1c-0.3-2-0.6-2.3-2.5-1.8c-4,0.9-8,0.7-12,0.3c-2.9-0.3-5.8-0.3-8.7-0.4c-0.7,0-1,0.2-1.1,1
			c-0.4,4-0.9,7.9-1.4,11.9c-0.1,0.7,0.3,1.3,0.9,1.6c1.6,0.7,3.3,1,5,1.1c0.7,0,1.5,0,2.2,0C208.8,161.8,208.8,161.9,208.8,161.9z"
			/>
		<path class="st9" d="M210.5,117.4c1.6-2,5.9-13.6,5.9-15.6c-3.5,0.3-7.1,1.2-9.9-2.1C206.4,105.9,208.1,111.6,210.5,117.4z"/>
		<path class="st0" d="M219.4,163.3c0,0.8,0,1.6,0,2.3c0.6,4.6,1.2,9.2,1.8,13.8c0.2,1.3,0.1,2.6,0.2,3.9c0.1,0.8,0.4,1.5,0.8,2.1
			c0.5,0.4,1.2,0.5,1.8,0.3c0.8-0.3,1.3-1.2,1.2-2.1c-0.1-1.1-0.3-2.2-0.4-3.3c-0.1-0.5-0.2-1-0.2-1.6c-0.2-3.9-0.3-7.7-0.5-11.6
			c0-0.5-0.1-0.9-0.2-1.4c-0.2-0.9-0.3-1.9-0.5-2.8l-3.1,0.2C220.1,163.2,219.8,163.3,219.4,163.3z"/>
		<path class="st0" d="M208.1,163.6c-0.2,0-0.4,0-0.6,0c-1-0.1-1.4,0.2-1.3,1.3c0.2,2.2,0.3,4.5,0.6,6.7c0.3,3,0.8,6,1.1,9
			c0,0.5,0.1,0.9,0.2,1.4c0.3,1.2,0.5,1.2,1.8,1.2c0.7,0.1,1.4-0.5,1.4-1.2c0-0.1,0-0.2,0-0.3c0-2-0.1-3.9-0.1-5.9
			c0-2.3-0.1-4.7-0.1-7c0-0.8-0.1-1.7-0.2-2.5C210.7,163.7,210.6,163.6,208.1,163.6z"/>
		<path class="st0" d="M212.8,100.2c1.4-0.4,2.7-0.8,4.1-1.3c0.7-0.3,1.3-3,0.8-3.6c-0.3-0.3-0.8-0.4-1.2-0.3
			c-2.3,0.3-4.7,0.3-7.1,0c-0.7-0.1-1.4-0.2-2.1-0.3c-0.5-0.1-0.7,0.1-0.8,0.6c-0.1,0.5-0.2,0.8,0.4,1.1c0.4,0.1,0.9,0.5,1,0.8
			c0.5,2.5,2.5,2.5,4.4,2.8c0.1,0,0.3,0,0.4,0L212.8,100.2z"/>
		<path class="st0" d="M179.7,131.4c0.2,1.7,1.2,3.1,2.7,3.8c0.9,0.4,1.9,0,2.3-0.8c0.5-1,1.3-2,0.7-3.1c-0.7-1.3-2-2.3-3.5-2.6
			C180.8,128.4,179.7,129.9,179.7,131.4z"/>
		<path class="st0" d="M239.8,138.5c0,0.5,0.1,0.6,0.1,0.6c0.1,0.9-0.3,2.1,1,2.4c1.2,0.3,3.4-0.6,3.6-1.8c0.5-1.5,0.3-3.2-0.6-4.5
			c-0.2-0.5-0.9-0.8-1.4-0.5c-0.1,0-0.2,0.1-0.3,0.2C241,135.9,239.4,136.8,239.8,138.5z"/>
		<path class="st8" d="M205.9,189.3c2.3-0.1,3.9-0.9,5-2.7c0.5-0.8,0.3-1.1-0.6-1.3c-2.4-0.4-4.3,0.4-6.1,1.8
			c-0.8,0.6-0.8,1.2,0.1,1.6C204.8,189,205.3,189.2,205.9,189.3z"/>
		<path class="st8" d="M218.8,190.5c1.7,0,3.3-0.5,4.7-1.5c0.5-0.3,0.5-0.8-0.2-1c-1.2-0.1-2.3-0.6-3.1-1.5
			c-0.5-0.5-1.8,0.2-2.8,1.3c-0.6,0.6-0.8,1.4-0.3,1.9C217.7,190.1,218.2,190.4,218.8,190.5z"/>
		<path class="st6" d="M227.1,76.6c1,1.6,2.8,1.7,4.4,1.2c1.5-0.4,2.3-1.9,1.9-3.4c-0.1-0.3-0.2-0.6-0.4-0.9c0-1-0.5-1.9-1.4-2.4
			c-1.3-0.7-3-0.3-3.8,1C227,73.5,226.2,75.1,227.1,76.6z M229.6,72.7L229.6,72.7C229.3,72.7,229.1,72.7,229.6,72.7L229.6,72.7z"/>
		<path class="st6" d="M190.7,73.2c0.2,0.9,0.4,1.7,0.8,2.5c0.4,0.9,1.2,1.5,2.1,1.8c1.1,0.3,2.4,0,3.2-0.8c0.5-0.5,0.9-1.1,1.2-1.7
			c0.7-1.3,0.3-3-1-3.7c-0.4-0.2-0.9-0.3-1.3-0.3c-0.7-0.9-1.9-1.3-3-1C191.2,70.2,190.3,71.7,190.7,73.2z M196.4,73.2
			C196.5,73.3,196.4,73.3,196.4,73.2z M192.8,72.9C192.6,73,192.5,73.2,192.8,72.9z"/>
		<path class="st7" d="M226,122.3c0,1.1,0,2.2,0,3.2c0,2.2-0.3,4.4,0.1,6.5c1,4.2,0.3,8.6,2.2,12.6c0,0.1,0,0.3,0,0.4
			c0.2,2.7,0.4,5.5,0.8,8.2c0.4,2.7,0.9,5.3,1.3,7.9c0.2,1-0.2,1.3-1.2,1.4c-0.7,0-1.3,0-2,0c-0.8,0-1.4,0.2-1.4,1.4
			c0.1,6.8,0.2,13.6,1.4,20.3c0.4,2.5-0.1,4.5-2.2,6c-0.4,0.3-0.8,0.7-1.3,0.9c-2,1.2-4.5,1.7-6.8,1.2c-2.5-0.4-3.6-3.9-1.6-5.5
			c1-0.8,1.9-1.8,2.9-2.7c0.6-0.4,0.9-1,0.8-1.7c-0.1-1.8,0.1-3.7-0.2-5.5c-0.5-4-1.1-7.9-1.7-11.9c0-0.9-0.8-1.5-1.6-1.5
			c0,0-0.1,0-0.1,0c-0.5,0-0.9,0-1.4,0c-1.3,0.1-1.3,0.1-1.3,1.4c0.1,5.1,0.3,10.2,0.5,15.3c0,1.1-0.3,2.3,0.7,3.2
			c0.1,0.2,0.2,0.4,0.1,0.6c-0.7,2.1-1.3,4.3-3.3,5.6c-0.8,0.6-1.7,1-2.6,1.3c-1.3,0.3-2.7,0.4-4.1,0.2c-1.7-0.3-2.2-1.9-2.5-3.4
			c-0.3-1.4,0.7-2,1.6-2.6c0.7-0.4,1.3-0.8,2-1.3c0.3-0.3,0.6-0.7,0.6-1.1c-0.1-1.9-0.3-3.8-0.5-5.7c-0.5-4.1-1-8.1-1.4-12.1
			c-0.2-1.4-0.1-1.4-1.6-1.8c-0.5-0.1-1-0.3-1.5-0.4c-1.6-0.5-2.2-1.3-2-3c0.3-2.7,0.8-5.3,1.1-8c0.4-4.3,0.8-8.6,1-13
			c0.2-5.3,0.2-10.6,0.3-16c0.1-1.2-0.2-2.5-0.8-3.5c-1.2,1.3-2.4,2.6-3.5,3.9c-2.7,3.1-5.8,5.9-7.8,9.6c-0.2,0.4-0.5,0.9-0.8,1
			c-0.8,0.2-1.1,0.8-1.5,1.4c-1,1.9-3.4,2.5-5.2,1.5c-0.3-0.2-0.6-0.4-0.9-0.6c-0.9-0.8-1.6-1.7-2.1-2.8c-1.1-2.1-0.5-4.8,1.4-6.2
			c0.4-0.3,1-0.7,1.4-0.6c1.6,0.4,2-0.4,2.2-1.7c0.1-0.3,0.3-0.6,0.5-0.8c0.8-1,1.6-1.9,2.3-2.9c2.8-4.2,5.5-8.5,8.2-12.7
			c2.1-3.3,4.1-6.5,6.2-9.8c1-1.5,1.9-3,3-4.7l-6.9-3.1c-5.9-2.6-10.1-6.9-11.9-13.3c-0.3-0.8-0.6-1.7-0.8-2.6
			c-0.7-2.4-1.5-4.8-2-7.2c-1-4-0.8-8.2,0.5-12.1c0.2-0.7,0.2-1.4-0.1-2.1c-1.2-2.7-1.4-5.7-0.5-8.5c0.3-1,0.7-2,1.2-2.9
			c1.3-2.6,2.7-5.2,5.4-6.8c2.1-1.2,4.1-2.5,6.1-3.9c2.6-1.7,5.4-2.5,8.4-1.6c1.1,0.3,2.2,0.2,3.2-0.5c3.9-2.4,8.1-2.8,12.5-2.7
			c1.1,0,2.2,0,3.3,0.1c2.7,0.3,5.4,0.4,8,1.1c3.9,1.2,7.6,3,10.8,5.5c3.3,2.5,6,5.7,7.9,9.4c1.6,3,2.6,6.2,2.2,9.7
			c-0.1,1-0.1,2.1-0.3,3.1c-0.5,4-1,7.9-1.5,11.9c-0.2,1.4-0.4,2.9-0.5,4.3c-0.2,2.1-0.3,4.2-0.4,6.3c-0.2,3.1,0.1,6.2,1,9.2
			c0.4,1.1,0.8,2.2,2.3,2.4c0.4,0,0.8,0.4,1.1,0.8c0.3,0.3,0.8,0.8,0.7,1.2c-0.1,0.7-0.7,1-1.5,0.9c-2.1-0.2-4.2-0.4-6.3-0.4
			c-1.6,0-3.3-0.6-4.6-1.5c-1.7-1.1-3.5-2.2-4.7-4c-3.8,2.9-8.1,5.2-12.6,6.6c0.5,1,0.9,1.8,1.3,2.7c1.9,4.1,3.9,8.2,5.8,12.3
			c1,2.2,2.1,4.4,3,6.7c0.4,1.1,0.7,2.2,1.2,3.3c1,2.2,2.1,4.3,3.3,6.5c1.6,3,3.7,5.8,6.1,8.2c1.7,1.6,2.2,3.5,2.4,5.6
			c0.2,2.4-1.1,3.8-3.1,4.8c-2.2,1.1-4.8-0.1-5.4-2.1c-0.4-1.1-1-2.2-1.8-3.1c-0.7-0.9-1.4-1.8-1.9-2.7c-2.4-4-4.8-8-7.2-12
			c-0.3-0.4-0.6-0.8-0.8-1.2L226,122.3z M210.7,48.1c-0.2,1.9-1.9,2.5-3.4,1c-1.5-1.6-2.7-3-4.1-4.5c-0.4-0.4-0.7-0.8-1.1-1.2
			c-0.9-1-1-1-1.9,0.1c-0.3,0.4-0.6,0.7-1,1c-2.9,2.2-5.8,4.5-8.8,6.7c-1,0.7-2.2,1.2-3.3,1.6c-1,0.2-1.9,1-2.2,2
			c-1,2.7-1.5,5.6-1.3,8.5c0.2,3,0.2,6,1.3,8.9c0.6,1.7,1.3,3.3,1.9,4.9c0.3,1.1,0.7,2.1,1.1,3.1c0.8,1.4,1.7,2.6,2.7,3.8
			c0.7,0.8,1.7,1.4,2.5,2.2c1.6,1.4,3.4,2.4,5.4,3.1c1.7,0.7,3.4,1.3,5,2.1c4.4,2.1,9,2,13.7,1.3c3.5-0.6,6.9-1.6,10.2-3
			c1.2-0.6,2.3-1.2,3.4-2c0.8-0.5,1.6-0.8,2.4-1.3c0.5-0.3,1-0.7,1.3-1.2c1.7-3.2,4.3-6.1,5.1-9.8c0.6-3,0.8-6.1,1.3-9.2
			c0.4-2.7,0-5.4-0.2-8c-0.1-0.5-0.3-1-0.7-1.3c-1.9-1.5-3.9-2.8-5.9-4.3c-2.2-1.7-4.4-3.5-6.7-5.2c-0.3-0.3-0.7-0.6-1.1-0.8
			c-0.4-0.2-0.8-0.3-1.2-0.4c-0.1,0.4-0.1,0.7-0.1,1.1c0,0.8,0.2,1.6,0.2,2.4c0,1.7-0.6,2-2,1.1l-11.8-6.9
			C211.2,45.2,210.9,46.7,210.7,48.1z M235.1,123c-1.1-2.1-2.1-4.4-2.8-6.7c-1.2-3.7-3.1-7.1-4.9-10.5c-1.3-2.5-2.5-5.2-3.7-7.8
			c-0.6-1.2-1.1-2.5-1.7-3.8c-1.8,0.3-1.6,0.3-2,2c-0.6,2.9-1.4,5.9-2.4,8.7c-1.1,3.4-2.2,6.7-3.6,10c-0.8,1.9-1.7,3.7-2.8,5.4
			c-0.3,0.4-0.7,0.7-1.2,0.8c-0.3,0-0.8-0.6-0.8-1.1c-1.4-5.1-3.5-10.1-4.2-15.3c-0.3-2.5-0.4-5-0.5-7.6c-0.3,0.2-0.7,0.3-0.8,0.5
			c-1,1.3-1.9,2.7-2.8,4.1c-0.9,1.4-1.8,2.7-2.7,4.1c-2.8,4.4-5.6,8.9-8.4,13.4c-1.3,2.1-2.6,4.2-3.9,6.3c-0.3,0.4-0.7,0.8-1,1.2
			c0.7,1.1,1.4,2.2,2.1,3.2c0.7,1.1,1.1,1.1,1.7,0.1c1.9-3,4.7-5.3,7-8c1.3-1.6,2.5-3.2,3.6-5c0.3-0.6,0.3-1.3,0.1-1.9
			c-0.6-2.2-0.4-4.5,0.7-6.5c0.5-1,0.7-2.1,1.1-3.2c0.1-0.3,0.4-0.7,0.6-0.7c0.3,0.1,0.8,0.3,0.9,0.6c0.1,0.6,0.1,1.1,0,1.7
			c-0.4,1.4-0.9,2.9-1.4,4.3c-0.4,1.2-0.4,2.5,0.1,3.6c0.6,1.4,1.1,3,1.6,4.4c0.8,2.3,0.4,4.6,0.3,6.9c-0.1,3.3-0.2,6.7-0.3,10
			c-0.1,2-0.2,3.9-0.3,5.9c-0.1,0.8,0,1.4,1.1,1.4c1.9,0.1,3.7,0.3,5.6,0.5c0.5,0,0.9,0.1,1.4,0.1c4.6,1.1,9.5,1.1,14.1,0
			c1.4-0.4,1.4-0.4,1.2-1.7c-0.7-5.9-1.6-11.9-1.5-17.8c0.1-2.8-0.3-5.6-1-8.4c-0.1-0.4,0-0.9,0.1-1.3c0.1-0.4,0.3-0.8,0.4-1.2
			c0.5,0.3,1.2,0.4,1.4,0.8c0.5,1.1,0.9,2.3,1.3,3.5c0.2,0.6,0.4,1.1,0.7,1.6c1.2,2.1,2.4,4.2,3.6,6.3c1.8,3,3.6,5.9,5.5,8.9
			c0.3,0.4,1.1,1,1.3,0.8c0.6-0.3,1.5-0.6,1.4-1.6c-0.2-1.3,0.8-1.8,1.6-2.2C238.7,128.9,236.7,126.1,235.1,123z M238.4,85.9
			c1.1,1.7,3,2.5,4.7,3.5c1.5,0.8,3.1,1.5,4.9,0.3c-1.6-4.7-1.5-9.4-1.3-14.4c0.2-5.6,1.4-10.9,1.8-16.4c0.2-2.8,0.6-5.6,0.6-8.4
			c0-3.8-1.4-7.5-4-10.3c-2-2.3-3.9-4.8-6.7-6.4c-0.3-0.2-0.5-0.4-0.8-0.6c-2.2-1.1-4.4-2.1-6.6-3.1c-2.1-0.9-4.3-1.4-6.5-1.5
			c-5.2-0.3-10.5-0.6-15.6,1.1c-1.3,0.4-2.5,1.2-3.3,2.4c-0.6,1.1-1.1,1.1-1.9,0.5c-1.4-1.1-3.3-1.5-5-0.9c-1.6,0.5-3.2,1.2-4.6,2.1
			c-2.2,1.4-4.6,2.6-6.3,4.7c-2.3,2.7-4.1,5.7-4.4,9.3c0,1.2,0.2,2.4,0.5,3.6c1.3-0.3,2.7-0.2,3.7-0.8c2.7-1.7,5.3-3.6,7.8-5.6
			c1.6-1.5,3.1-3,4.4-4.7c0.4-0.5,1.2-0.7,1.7-0.3c0.1,0.1,0.2,0.2,0.3,0.3c1.4,1.7,2.8,3.5,4.2,5.2c0.1,0.2,0.2,0.3,0.4,0.4
			c0.7,0.5,1.4,1.5,2,1.4c1-0.2,0.6-1.4,0.7-2.2c0.2-1.2,0.4-2.5,0.5-3.7c0.1-0.9,0.5-1.2,1.3-0.8c0.2,0.1,0.5,0.2,0.7,0.4
			c3,3,6.8,4.7,10.4,6.7c0.1,0.1,0.2,0.2,0.3,0.2c0.6,0.3,1,0.2,1-0.6c0-1.1,0.1-2.2,0.3-3.3c0.1-0.6,0.3-1.1,0.8-1.4
			c0.7-0.3,1.1,0.4,1.6,0.8c1.9,1.8,3.9,3.6,6,5.2c2.6,2.1,5.4,4,8.1,5.9c0.6,0.4,1.3,0.6,1.9,1c0.4,0.2,0.8,0.6,0.9,1.1
			c0.2,1.6,0.2,3.2,0.3,4.9c0,1.8,0,3.5-0.2,5.3c-0.2,2.8-0.6,5.6-1.1,8.4c-0.4,2.5-1.4,4.8-2.8,6.9c-0.7,0.8-1.2,1.8-1.9,2.9
			C237.7,85.4,238.1,85.5,238.4,85.9L238.4,85.9z M219.5,161.3c2.5-0.2,5.1-0.5,7.6-0.8c0.8-0.1,1.1-0.5,1-1.3
			c-0.6-3.7-1-7.4-1.6-11.1c-0.3-2-0.6-2.3-2.5-1.8c-4,0.9-8,0.7-12,0.3c-2.9-0.3-5.8-0.3-8.7-0.4c-0.7,0-1,0.2-1.1,1
			c-0.4,4-0.9,7.9-1.4,11.9c-0.1,0.7,0.3,1.3,0.9,1.6c1.6,0.7,3.3,1,5,1.1c0.7,0,1.5,0,2.2,0c0,0.1,0,0.2,0,0.2
			C212.4,161.7,215.9,161.6,219.5,161.3L219.5,161.3z M216.5,101.8c-3.5,0.3-7.1,1.2-9.9-2.1c-0.2,6.2,1.5,12,4,17.7
			C212.1,115.4,216.5,103.8,216.5,101.8z M219.4,165.7c0.6,4.6,1.2,9.2,1.8,13.8c0.2,1.3,0.1,2.6,0.2,3.9c0.1,0.8,0.4,1.5,0.8,2.1
			c0.5,0.4,1.2,0.5,1.8,0.3c0.8-0.3,1.3-1.2,1.2-2.1c-0.1-1.1-0.3-2.2-0.4-3.3c-0.1-0.5-0.2-1-0.2-1.6c-0.2-3.9-0.3-7.7-0.5-11.6
			c0-0.5-0.1-0.9-0.2-1.4c-0.2-0.9-0.3-1.9-0.5-2.8l-3.1,0.2c-0.3,0-0.5,0.1-0.9,0.1C219.4,164.1,219.4,164.9,219.4,165.7
			L219.4,165.7z M207.5,163.6c-1-0.1-1.4,0.2-1.3,1.3c0.2,2.2,0.3,4.5,0.6,6.7c0.3,3,0.8,6,1.1,9c0,0.5,0.1,0.9,0.2,1.4
			c0.3,1.2,0.5,1.2,1.8,1.2c0.7,0.1,1.4-0.5,1.4-1.2c0-0.1,0-0.2,0-0.3c0-2-0.1-3.9-0.1-5.9c0-2.3-0.1-4.7-0.1-7
			c0-0.8-0.1-1.7-0.2-2.5c-0.3-2.4-0.4-2.5-2.9-2.5C207.9,163.6,207.7,163.6,207.5,163.6L207.5,163.6z M216.9,98.9
			c0.7-0.3,1.3-3,0.8-3.6c-0.3-0.3-0.8-0.4-1.2-0.3c-2.3,0.3-4.7,0.3-7.1,0c-0.7-0.1-1.4-0.2-2.1-0.3c-0.5-0.1-0.7,0.1-0.8,0.6
			c-0.1,0.5-0.2,0.8,0.4,1.1c0.4,0.1,0.9,0.5,1,0.8c0.5,2.5,2.5,2.5,4.4,2.8c0.1,0,0.3,0,0.4,0l0.1,0.2
			C214.2,99.8,215.6,99.4,216.9,98.9L216.9,98.9z M182.5,135.2c0.9,0.4,1.9,0,2.3-0.8c0.5-1,1.3-2,0.7-3.1c-0.7-1.3-2-2.3-3.5-2.6
			c-1.1-0.3-2.2,1.3-2.2,2.7C179.9,133,181,134.5,182.5,135.2L182.5,135.2z M239.9,139.2c0.1,0.9-0.3,2.1,1,2.4
			c1.2,0.3,3.4-0.6,3.6-1.8c0.5-1.5,0.3-3.2-0.6-4.5c-0.2-0.5-0.9-0.8-1.4-0.5c-0.1,0-0.2,0.1-0.3,0.2c-1.4,1-3,1.9-2.5,3.6
			C239.9,139,239.9,139.1,239.9,139.2z M210.9,186.7c0.5-0.8,0.3-1.1-0.6-1.3c-2.4-0.4-4.3,0.4-6.1,1.8c-0.8,0.6-0.8,1.2,0.1,1.6
			c0.5,0.2,1.1,0.4,1.7,0.5C208.1,189.2,209.8,188.4,210.9,186.7L210.9,186.7z M223.5,189c0.5-0.3,0.5-0.8-0.2-1
			c-1.2-0.1-2.3-0.6-3.1-1.5c-0.5-0.5-1.8,0.2-2.8,1.3c-0.6,0.6-0.8,1.4-0.3,1.9c0.5,0.4,1,0.6,1.6,0.7
			C220.5,190.5,222.2,190,223.5,189L223.5,189z"/>
		<path class="st7" d="M197,66.7c2.3,0,4.6-2.5,4.5-5.1c0-2-2.2-4.1-4.2-4.1c-1.7,0-4.6,2.5-4.6,4.2C192.7,63.4,194.9,67,197,66.7z"
			/>
		<path class="st7" d="M225.9,59.4c-1.6,0-3.1,0.6-4.2,1.8c-0.8,1-1.4,2.3-0.7,3.6c0.5,0.9,1,1.7,1.6,2.4c0.8,1,1.9,1.6,3.3,1.1
			c1.3-0.4,2.3-1.6,2.5-3c0.4-1.9-0.2-3.9-1.5-5.3C226.6,59.8,226.3,59.6,225.9,59.4z"/>
		<path class="st7" d="M211.4,86.4c2.2,0,5.5-2.5,6-4.6c0.1-0.4,0.1-0.9-0.1-1.3c-0.3-0.8-0.9-0.8-1.4-0.1s-0.8,1.5-1.3,2.2
			c-0.8,1.3-2,2.3-3.6,2c-1.7-0.3-3.2-1.5-3.8-3.2c-0.2-0.7-0.3-1.7-1.2-1.5c-1,0.2-0.6,1.3-0.5,2C205.9,84.1,208.9,86.4,211.4,86.4
			z"/>
		<path class="st7" d="M198,48.5c-1.6,0-4,1.5-4.4,2.9c-0.1,0.5,0.4,1.1,0.6,1.7c0.4-0.1,0.8-0.3,1.1-0.6c0.4-0.4,0.7-1.2,1.2-1.5
			c1.3-0.8,3.1-0.4,4.1,1.1c0.2,0.5,0.5,0.9,0.8,1.3c0.3,0.3,0.7,0.4,1.2,0.4c0.2,0,0.5-0.6,0.5-0.9c-0.1-1.6-1.1-3-2.5-3.7
			C199.7,48.8,198.9,48.6,198,48.5z"/>
		<path class="st7" d="M232.2,57.1c-0.3-0.8-0.6-1.6-1.2-2.3c-1.1-1.1-2.3-2-3.6-2.7c-1.1-0.6-2.3-0.1-3.3,0.7
			c-0.3,0.3-0.7,0.6-1.1,0.8c-0.5,0.2-0.8,0.8-0.6,1.3c0,0.1,0.1,0.2,0.2,0.3c0.2,0.4,0.6,0.8,0.9,0.9s0.7-0.4,1-0.8
			c1.1-1.6,1.5-1.8,3.2-0.7c1,0.9,2,1.8,2.9,2.9c0.3,0.3,0.6,0.5,1,0.8L232.2,57.1z"/>
		<path class="st7" d="M207.6,70.8l2.4-0.8c0.4-0.2,1-0.2,1.2-0.5c0.3-0.4,0.4-0.9,0.3-1.4c-0.2-0.4-0.6-0.6-1-0.6
			c-0.6,0.2-1.2,0.4-1.8,0.7c-0.6,0.3-1.2,0.7-1.9,1c-0.8,0.3-1.1,0.6-0.8,1.6c0.4,1.8,1.9,2.7,3,4.1c0.3,0.4,0.9,0.8,1.5,0.1
			c0.4-0.5,0.4-1.2-0.1-1.6c0,0,0,0-0.1-0.1L207.6,70.8z"/>
		<path class="st0" d="M36.3,104.7c0.9-3.6,2.3-7.1,4-10.4c1.1-2.1,2.4-2.9,4.7-2.5c0.5,0.1,1.1,0.1,1.6,0.2
			c3.4,0.8,6.8,1.6,10.1,2.5c3,0.8,5.9,1.6,8.9,2.6c3.9,1.4,7.7,3.4,11.9,3.8c0.8,0,1.4,0.6,1.4,1.4c0,0.1,0,0.2,0,0.4
			c-0.2,1.3,0.1,2.7,0.8,3.8c1.1,1.8,2.2,3.6,3.3,5.4c0.5,0.8,1.3,1.7,1.3,2.5c-0.1,3.6-1,7.1-3.6,9.7c-2.6,2.6-5.7,5.2-9.5,6.2
			c-2.9,0.8-5.9,1.4-8.8,1.8c-4.3,0.6-8.7-0.4-12.3-2.9c-1.4-1-3-1.9-4.5-2.8c-1.9-1.1-3.5-2.8-4.6-4.8c-1.3-2.4-2.2-5-3.5-7.5
			c-1-1.9-1.6-4.1-1.5-6.3C36,106.9,36.1,105.8,36.3,104.7z M64.8,125.3c0.5-0.5,1.1-0.8,1.5-1.2c0.5-0.4,0.5-1.1,0.1-1.6
			c-0.1-0.2-0.3-0.3-0.6-0.3c-0.6-0.1-1.2-0.2-1.7-0.2c-3.3-0.2-6.6-0.8-9.8-1.9c-1-0.4-1.8-1-2.8-1.5c-0.4-0.3-0.9-0.4-1.4-0.4
			c-0.2,0.1-0.3,0.8-0.5,1.3c-1,3.7,2.9,8.3,6.3,8.1c0.8,0,1.6,0.1,2.4,0.3C60.7,127.5,63,127.1,64.8,125.3z M48.2,108.5
			c1.2,0,2.3-0.8,2.6-2c0.5-1.8-0.2-3.8-1.8-4.8c-1-0.6-2-1.1-3.1-0.4c-1.1,0.7-1.9,1.7-1.6,3c-0.2,2,1.3,3.9,3.3,4.1
			C47.9,108.5,48,108.5,48.2,108.5z M71.9,107c-1-0.7-2-0.3-3,0.1c-1.2,0.4-1.8,1.7-1.4,2.9c0.1,0.6,0.3,1.3,0.6,1.9
			c0.5,1.3,1.9,2,3.2,1.5c0,0,0,0,0,0c2.3-0.6,2.4-0.7,2.5-3.8C73.5,108.5,72.8,107.6,71.9,107z M59.7,113.8
			c0.3-0.4,0.3-0.8,0.2-1.2c-0.1-0.2-0.7-0.3-1.1-0.3c-0.6,0.1-1.3,0.3-1.9,0.4c-0.5,0.1-1.3-0.2-1.4,0.6c-0.1,0.7-0.1,1.5,0.1,2.2
			c0.3,0.7,0.6,1.3,1,1.9c0.2,0.6,0.9,0.9,1.5,0.7c0.1,0,0.1,0,0.2-0.1c0.6-0.5,0.7-1.2,0.4-1.9c-0.2-0.4-0.5-0.8-0.8-1.2
			C58.5,114.7,59.1,114.3,59.7,113.8z M46.7,95.8c0.1,0.3,0.5,0.7,0.7,0.6c1.6-0.1,2.7,0.8,3.9,1.7c0.4,0.3,0.8,0.7,1.3,0.9
			c0.3,0.1,0.9,0.1,1-0.1c0.2-0.4,0.2-0.8,0.2-1.2c0-0.2-0.2-0.3-0.3-0.5c-1.9-2-4.3-2.6-7.3-3.2C46.3,94.7,46.5,95.3,46.7,95.8z
			 M70.2,101.8c-0.3,0-0.8,0.6-0.8,0.8c0.2,0.5,0.5,1,0.9,1.3c0.2,0.2,0.7-0.1,1.1-0.1c1.4,0,2.8,0.1,4.2,0.3c0.8,0.1,1.1,0,1.4-0.6
			c0.2-0.7-0.1-1.5-0.8-1.7c0,0,0,0,0,0c-0.2,0-0.5-0.1-0.7-0.1C73.8,101.8,72,101.7,70.2,101.8L70.2,101.8z"/>
		<path class="st10" d="M83.5,132.9c-0.5-1.3-0.9-2.4-1.2-3.5c-0.2-0.8-0.7-0.9-1.3-0.6c-0.4,0.1-0.8,0.3-1.2,0.6
			c-0.7,0.5-1.5,0.8-2.4,0.7c-0.8,0-1.5,0.2-2.2,0.7c-3,1.6-6.2,2.6-9.5,3c-0.4,0.1-0.9,0.1-1.4,0.2c-1.3,0-2.5,0.7-3,1.9
			c-1,2-3.2,2.6-5.5,2.4c-1.8-0.2-3.2-1.9-3.4-4.1c0-0.7-0.4-1.3-1.1-1.6c-3.1-2-6.1-4.1-9-6.3c-1.1-0.9-2-1.9-2.6-3.1
			c-1.6-2.5-4.2-3.4-6.7-4.6c-0.3-0.1-0.6,0-0.8,0.2c-0.2,0.7-0.4,1.3-0.4,2c0,0.2,0.4,0.5,0.6,0.7c3.5,3.4,6.9,6.9,10.4,10.2
			c1,0.8,2.2,1.4,3.4,1.8c1.4,0.6,1.5,0.8,1.4,2.4s-0.1,3.2-0.3,4.7c-0.3,2.1-0.7,4.2-1,6.4c-0.3,1.8-0.6,3.6-0.7,5.4
			c-0.1,1.1,0.4,1.7,1.6,1.9c4.2,0.8,8.4,1.8,12.6,1.8c1.1,0,2.2-0.2,3.3-0.5c1.4-0.3,2.4-1.6,2.3-3c-0.1-4.3-0.1-8.6-0.1-12.8
			c0-1.4,0.4-1.6,2.5-2c2.6-0.6,5.2-1.3,7.8-2.1c2.1-0.6,4.1-1.3,6.1-2C82.4,133.4,83,133.1,83.5,132.9z"/>
		<path class="st11" d="M49.4,84.4c1.4,1.3,2.7,2.5,3.9,3.7c1.2,1.2,2.4,2.6,3.6,3.8c0.5,0.5,1,1,1.7,1.2c4.6,1.1,8.9,3,13.4,4.7
			c1.3,0.5,2.6,0.8,4,1.1c2.1,0.4,4.2,0.8,6.4,1.1c1.3,0.2,1.7,0,1.6-1.4c-0.5-6-2.3-11.2-8.4-13.8c-2.6-1.1-5.1-2.4-7.7-3.4
			c-2.6-1-5.4-0.7-8.2-0.4c-1.8,0.2-3.5,0.6-5.2,0.8C52.5,82.2,51.1,83.2,49.4,84.4z"/>
		<path class="st12" d="M70.3,168.5c-1.2-2.5-2.4-4.7-3.5-7c-0.4-0.8-0.8-1.5-1.2-2.2c-0.5-1.2-1.8-1.9-3.1-1.6
			c-1.5,0.2-3,0.3-4.5,0.3c-0.9,0-1.8,0-2.8-0.2c-2.8-0.4-5.7-0.9-8.3-1.3c-1.1,2.4-2.2,4.6-3.3,6.8c-0.5,1-1.2,1.9-1.7,2.9
			c-0.5,1-0.5,1.4,0.5,1.9c2.3,1.1,4.6,2,6.9,3c0.7,0.3,1.1-0.1,1.6-0.6c1.5-1.7,1.7-3.9,2.5-5.9c0.4-0.9,0.6-1.9,1-2.8
			c0.2-0.4,0.5-0.8,0.8-0.8c0.6,0,1,0.4,1.1,1.1c0.5,2.8,1,5.7,1.6,8.5c0.3,1.7,0.4,1.7,2.1,1.5C63.7,171.3,67.1,170.2,70.3,168.5z"
			/>
		<path class="st11" d="M53.7,91.5c-3-3.5-6.3-6.6-10.8-8.1c-1-0.3-2.1-0.3-3.1-0.2c-0.7,0-1.2,0.5-1.2,1.1c0,0.3,0.1,0.5,0.2,0.7
			c0.7,1.3,1.6,2.5,2.5,3.7c0.2,0.3,0.8,0.2,1.2,0.3c0.8,0.1,1.7,0.2,2.5,0.3c2.8,0.8,5.7,1.6,8.5,2.4L53.7,91.5z"/>
		<path class="st0" d="M66.3,173c0.2,0.7,0.4,1.3,0.7,2c1.3,2.1,2.6,4.2,3.8,6.4c0.2,0.6,0.9,0.9,1.4,0.7c0,0,0.1,0,0.1-0.1
			c0.6-0.2,1.2-0.4,1.8-0.7c0.2-0.3,0.3-0.6,0.2-0.9c-0.7-1.9-1.5-3.7-2.4-5.5c-0.8-1.2-1.7-2.3-2.8-3.2c-0.7-0.7-1.5,0-2.2,0.3
			C66.8,172,66.6,172.6,66.3,173z"/>
		<path class="st0" d="M45,171.1c-0.2,0.2-0.5,0.5-0.7,0.7c-1.7,2.5-3.3,5-5,7.5c-0.4,0.7-0.3,0.9,0.3,1.4c2,1.3,2.2,1.2,3.4-0.8
			c1.1-2.1,2.3-4.1,3.4-6.1c0.2-0.4,0.7-1.2,0.5-1.3C46.4,171.9,45.7,171.4,45,171.1z"/>
		<path class="st10" d="M37.8,186.2c0.7-0.2,1.3-0.3,1.9-0.5c1.3-0.4,1.6-1.4,0.6-2.2c-1.7-1.4-3.4-2.7-5.7-3
			c-0.4-0.1-0.9,0-1.3,0.1c-0.5,0.3-1,0.7-1.5,1.1c0.3,0.5,0.7,1,1.1,1.4c1.2,0.8,2.4,1.6,3.6,2.3C36.9,185.9,37.3,186,37.8,186.2z"
			/>
		<path class="st0" d="M87.4,132c0.9-0.3,1.8-0.7,2.6-1.1c0.9-0.5,1.1-1.6,0.6-2.5c-0.1-0.2-0.3-0.4-0.5-0.6c-1.1-0.9-2.5-1.4-4-1.4
			c-0.4,0-0.7,0.2-1,0.5c-0.4,0.9-0.9,2-0.8,2.9C84.5,131,85.9,131.7,87.4,132z"/>
		<path class="st0" d="M31.4,114.3c0-1.9-0.6-2.7-2.1-2.7c-2.1,0-3.3,1-3.3,2.8c0,1.2,1.4,3.2,2.3,3.1C30,117.4,31.3,116,31.4,114.3
			z"/>
		<path class="st3" d="M84.8,108.8c-0.3-1.7-0.6-3.5-0.9-5.2c-0.2-0.9-2.2-1.9-3-1.5c-0.2,0.1-0.3,0.6-0.3,0.9
			c-0.2,2.6,1.3,4.6,2.6,6.6c0.2,0.3,0.7,0.5,1.1,0.8c0.1-0.4,0.3-0.8,0.4-1.2c0-0.1,0-0.3,0-0.4L84.8,108.8z"/>
		<path class="st10" d="M71.9,187.6c1.6-0.3,3.1-0.1,4.1-1.6c0.8-1.2,0.6-2-0.8-2.3c-1.9-0.5-3.6,0.4-5.2,1.4
			c-0.5,0.3-0.4,1.4,0.3,1.8C70.8,187.1,71.4,187.4,71.9,187.6z"/>
		<path class="st0" d="M85,121c0.3,0.1,0.7,0.4,1,0.3c1.6-0.3,2.7-1.9,2.4-3.6c0-0.2-0.1-0.4-0.2-0.6c-0.4-0.7-0.8-1.4-1.3-2.1
			c-1,0.4-0.6,1.5-0.9,2.2C85.6,118.5,85.3,119.7,85,121z"/>
		<path class="st0" d="M57,136.2c0.8-0.3,1.6-0.7,2.3-1.1c0.2-0.1,0.3-0.4,0.1-0.6c-0.1-0.1-0.2-0.2-0.3-0.2
			c-1.4-0.3-2.8-0.6-4.2-0.7c-0.2,0-0.6,0.5-0.6,0.7C54.6,135.5,55.7,136.3,57,136.2z"/>
		<path class="st5" d="M62.8,124.3l-10.7-3c-0.4,1.3,0.1,2.6,1.2,3.3c1.7,1.2,3.6,1.1,5.5,1.1c0.7,0,1.4-0.1,2.1-0.4
			C61.5,125.1,62.2,124.7,62.8,124.3z"/>
		<path class="st6" d="M72,118c0.3-0.5,0.7-1,1.1-1.4c1.1-1.1,2.8-1.1,3.9,0c0.1,0.1,0.2,0.2,0.2,0.3c0.3,0.2,0.5,0.5,0.7,0.8
			c0.7,1.3,0.3,3-1,3.8c-0.5,0.3-1.1,0.6-1.7,0.8c-1,0.3-2.2,0.1-3-0.7C71.5,120.6,71.4,119.2,72,118z"/>
		<path class="st6" d="M42.3,112.7l0.6-0.6c1.1-1.1,2.8-1.1,3.9,0c1.1,1.1,1.1,2.8,0,3.9l0,0l-0.6,0.6c-1.1,1.1-2.8,1.1-3.9,0
			C41.3,115.6,41.3,113.8,42.3,112.7z"/>
		<path class="st7" d="M45.5,179.3c-1,1.9-2.4,3.6-2.2,5.9c0,0.3-0.1,0.5-0.3,0.7c-1.7,1.3-3.6,2.5-5.8,2c-2.7-0.6-5-2.2-6.6-4.4
			c-1.2-1.8-1.5-3.1,1.2-4.4c1.3-0.6,2.7-0.7,4-0.3c0.8,0.2,1.7,0.4,2.3-0.6c1.2-1.9,2.5-3.7,3.7-5.6c1.5-2.5,0.8-2.8-1.3-3.3
			c-1.6-0.4-2-1.5-1.1-2.9c1.1-1.9,2.4-3.7,3.6-5.6c0.7-1,1-2.1,1.1-3.3c0-2.8,0.2-5.7,0.5-8.5c0.5-3.6,1.3-7.1,1.3-10.8
			c0-1.6-0.2-2.8-1.9-3.4c-0.5-0.2-0.9-0.5-1.3-0.8c-2.8-2.7-5.7-5.2-8.4-8.1c-2.1-2.2-4.3-4.2-6.7-6c-0.8-0.6-1.6-1.3-2.3-2.1
			c-1.8-2.1-1.5-5.2,0.6-6.9c0.6-0.5,1.2-0.8,1.9-1c1-0.2,2.1-0.3,3.1-0.1c0.6,0.1,1.2,0.5,1.5,1c0.6,1.3,1.5,2.7,1.4,4.2
			c0,0.6,0.2,1.1,0.5,1.6c0.9,0.7,1.8,1.4,2.8,2c0.4-1.5-0.4-2.3-0.8-3.2c-2.5-4.7-2.2-9.8-0.9-14.6c0.7-2.8,2.5-5.5,4-8.1
			c1-1.7,1.1-1.7-0.2-3.2c-1.3-1.6-2.2-3.5-2.5-5.5c0-0.4,0.1-0.9,0.4-1.2c1-1.3,2.6-1.9,4.2-1.6c1.8,0.3,3.6,0.8,5.3,1.3
			c0.7,0.3,1.6,0.2,2.2-0.3c1.1-0.7,2.2-1.2,3.4-1.5c2.1-0.6,4.3-1,6.5-1.5c4.3-1,8.7-0.5,12.7,1.3c2.1,1,4.2,1.8,6.2,2.9
			c2.6,1.4,4.9,3.2,6,6.2c0.5,1.2,0.9,2.3,1.2,3.6c0.5,2.2,1.2,4.4,1,6.6c0,1.7,0.2,3.5,0.5,5.2c0.3,2,0.3,4,0.5,6
			c0.1,0.5,0.3,0.9,0.6,1.3c0.7,0.7,1.4,1.5,2,2.3c1.8,2.9,1.4,5.6-0.9,7.6c-0.5,0.4-1.1,0.7-1.7,0.9c-0.3,0.2-0.6,0.4-1.1,0.7
			c1.1,0.3,1.8,0.5,2.5,0.7c1,0.3,1.9,0.7,2.8,1.2c2.7,1.8,2.2,4.9-0.1,7.5c-0.7,0.8-1.6,1.6-2.9,0.8c-0.2-0.1-0.6,0-1,0
			c-1.4,0.2-2.7,0.5-4,0.9c-4.5,1.5-9.1,3.1-13.6,4.6c-0.6,0.2-1.2,0.4-1.8,0.7c-0.3,0.1-0.6,0.4-0.6,0.6c-0.1,1.8-0.2,3.5-0.1,5.3
			c0.2,2.8,0.5,5.6,0.7,8.4c0.1,0.8,0.2,1.8-0.2,2.3c-1,1.1-0.4,1.9,0.1,2.8c1.5,2.5,3.1,5,4.6,7.6c0.8,1.4,0.8,1.6-0.3,2.7
			c-0.7,0.7-0.4,1,0,1.6c0.8,1,1.4,2,2,3.1c0.9,1.6,1.6,3.2,2.2,5c0.2,0.8,0.6,1.5,1.1,2.2c1.5,1.4,1.6,3.8,0.2,5.3
			c-0.1,0.1-0.2,0.2-0.4,0.4c-2,1.8-4.3,2.1-6.8,1.4c-1.8-0.3-3-2.1-2.6-3.9c0.1-0.5,0.3-1,0.6-1.4c0.6-0.8,0.7-1.8,0.3-2.7
			c-0.4-1.1-1-2.1-1.7-3c-1-1.3-1.8-2.8-2.7-4.2c-0.5-0.7-0.9-1.1-1.9-0.7c-1.1,0.4-2.2,0.8-3.4,1.1c-1.2,0.3-1.3,0.3-1.8-1
			c-0.5-1-0.7-2.1-0.8-3.2c-0.2-1.2-0.4-2.5-0.7-3.7c-0.6,0.4-1.1,1-1.4,1.6c-0.7,1.5-1.4,3.1-2.1,4.6c-0.8,1.7-0.9,1.7-2.8,0.8
			C47.9,175.4,46.5,177.4,45.5,179.3z M37.4,114.2c1.2,2.5,2.2,5,3.5,7.5c1.1,2,2.6,3.6,4.6,4.8c1.5,0.9,3.1,1.8,4.5,2.8
			c3.6,2.5,8,3.5,12.3,2.9c3-0.4,5.9-1,8.8-1.8c3.8-1,6.8-3.5,9.5-6.2c2.7-2.7,3.5-6.1,3.6-9.7c0-0.8-0.8-1.7-1.3-2.5
			c-1.1-1.8-2.2-3.5-3.3-5.4c-0.7-1.1-1-2.5-0.8-3.8c0.2-0.7-0.2-1.5-1-1.7c-0.1,0-0.2,0-0.4,0c-4.2-0.4-8-2.4-11.9-3.8
			c-2.9-1-5.9-1.8-8.9-2.6c-3.4-0.9-6.7-1.7-10.1-2.5c-0.5-0.1-1-0.1-1.6-0.2c-2.2-0.4-3.6,0.3-4.7,2.5c-1.7,3.3-3.1,6.8-4,10.4
			c-0.2,1.1-0.3,2.2-0.4,3.3C35.9,110.1,36.4,112.3,37.4,114.2L37.4,114.2z M82.3,129.4c-0.2-0.8-0.7-0.9-1.3-0.6
			c-0.4,0.1-0.8,0.3-1.2,0.6c-0.7,0.5-1.5,0.8-2.4,0.7c-0.8,0-1.5,0.2-2.2,0.7c-3,1.6-6.2,2.6-9.5,3c-0.4,0.1-0.9,0.1-1.4,0.2
			c-1.3,0-2.5,0.7-3,1.9c-1,2-3.2,2.6-5.5,2.4c-1.8-0.2-3.2-1.9-3.4-4.1c0-0.7-0.4-1.3-1.1-1.6c-3.1-2-6.1-4.1-9-6.3
			c-1.1-0.9-2-1.9-2.6-3.1c-1.6-2.5-4.2-3.4-6.7-4.6c-0.3-0.1-0.6,0-0.8,0.2c-0.2,0.7-0.4,1.3-0.4,2c0,0.2,0.4,0.5,0.6,0.7
			c3.5,3.4,6.9,6.9,10.4,10.2c1,0.8,2.2,1.4,3.4,1.8c1.4,0.6,1.5,0.8,1.4,2.4s-0.1,3.2-0.3,4.7c-0.3,2.1-0.7,4.2-1,6.4
			c-0.3,1.8-0.6,3.6-0.7,5.4c-0.1,1.1,0.4,1.7,1.6,1.9c4.2,0.8,8.4,1.8,12.6,1.8c1.1,0,2.2-0.2,3.3-0.5c1.4-0.3,2.4-1.6,2.3-3
			c-0.1-4.3-0.1-8.6-0.1-12.8c0-1.4,0.4-1.6,2.5-2c2.6-0.6,5.2-1.3,7.8-2.1c2.1-0.6,4.1-1.3,6.1-2c0.6-0.2,1.2-0.5,1.7-0.8
			C83.1,131.6,82.7,130.5,82.3,129.4L82.3,129.4z M53.3,88.1c1.2,1.2,2.4,2.6,3.6,3.8c0.5,0.5,1,1,1.7,1.2c4.6,1.1,8.9,3,13.4,4.7
			c1.3,0.5,2.6,0.8,4,1.1c2.1,0.4,4.2,0.8,6.4,1.1c1.3,0.2,1.7,0,1.6-1.4c-0.5-6-2.3-11.2-8.4-13.8c-2.6-1.1-5.1-2.4-7.7-3.4
			c-2.6-1-5.4-0.7-8.2-0.4c-1.8,0.2-3.5,0.6-5.2,0.8c-1.9,0.3-3.4,1.3-5,2.5C50.8,85.8,52.1,86.9,53.3,88.1z M66.8,161.5
			c-0.4-0.8-0.8-1.5-1.2-2.2c-0.5-1.2-1.8-1.9-3.1-1.6c-1.5,0.2-3,0.3-4.5,0.3c-0.9,0-1.8,0-2.8-0.2c-2.8-0.4-5.7-0.9-8.3-1.3
			c-1.1,2.4-2.2,4.6-3.3,6.8c-0.5,1-1.2,1.9-1.7,2.9c-0.5,1-0.5,1.4,0.5,1.9c2.3,1.1,4.6,2,6.9,3c0.7,0.3,1.1-0.1,1.6-0.6
			c1.5-1.7,1.7-3.9,2.5-5.9c0.4-0.9,0.6-1.9,1-2.8c0.2-0.4,0.5-0.8,0.8-0.8c0.6,0,1,0.4,1.1,1.1c0.5,2.8,1,5.7,1.6,8.5
			c0.3,1.7,0.4,1.7,2.1,1.5c3.5-0.6,7-1.7,10.1-3.4C69,166,67.9,163.8,66.8,161.5L66.8,161.5z M42.9,83.4c-1-0.3-2.1-0.3-3.1-0.2
			c-0.7,0-1.2,0.5-1.2,1.1c0,0.3,0.1,0.5,0.2,0.7c0.7,1.3,1.6,2.5,2.5,3.7c0.2,0.3,0.8,0.2,1.2,0.3c0.8,0.1,1.7,0.2,2.5,0.3
			c2.8,0.8,5.7,1.6,8.5,2.4l0.2-0.3C50.7,88,47.4,84.8,42.9,83.4z M67.1,174.9c1.3,2.1,2.6,4.2,3.8,6.4c0.2,0.6,0.9,0.9,1.4,0.7
			c0,0,0.1,0,0.1-0.1c0.6-0.2,1.2-0.4,1.8-0.7c0.2-0.3,0.3-0.6,0.2-0.9c-0.7-1.9-1.5-3.7-2.4-5.5c-0.8-1.2-1.7-2.3-2.8-3.2
			c-0.7-0.7-1.5,0-2.2,0.3c-0.4,0.2-0.5,0.7-0.8,1.1C66.5,173.7,66.8,174.3,67.1,174.9z M44.3,171.8c-1.7,2.5-3.3,5-5,7.5
			c-0.4,0.7-0.3,0.9,0.3,1.4c2,1.3,2.2,1.2,3.4-0.8c1.1-2.1,2.3-4.1,3.4-6.1c0.2-0.4,0.7-1.2,0.5-1.3c-0.6-0.5-1.3-0.9-2-1.3
			C44.8,171.3,44.5,171.5,44.3,171.8z M39.7,185.7c1.3-0.4,1.6-1.4,0.6-2.2c-1.7-1.4-3.4-2.7-5.7-3c-0.4-0.1-0.9,0-1.3,0.1
			c-0.5,0.3-1,0.7-1.5,1.1c0.3,0.5,0.7,1,1.1,1.4c1.2,0.8,2.4,1.6,3.6,2.3c0.4,0.2,0.9,0.4,1.3,0.5C38.5,186,39.1,185.9,39.7,185.7z
			 M90,130.8c0.9-0.5,1.1-1.6,0.6-2.5c-0.1-0.2-0.3-0.4-0.5-0.6c-1.1-0.9-2.5-1.4-4-1.4c-0.4,0-0.7,0.2-1,0.5
			c-0.4,0.9-0.9,2-0.8,2.9c0.2,1.2,1.6,2,3.1,2.2C88.3,131.7,89.2,131.3,90,130.8z M29.3,111.7c-2.1,0-3.3,1-3.3,2.8
			c0,1.2,1.4,3.2,2.3,3.1c1.7-0.2,3-1.6,3.1-3.3C31.4,112.4,30.8,111.7,29.3,111.7z M83.9,103.6c-0.2-0.9-2.2-1.9-3-1.5
			c-0.2,0.1-0.3,0.6-0.3,0.9c-0.2,2.6,1.3,4.6,2.6,6.6c0.2,0.3,0.7,0.5,1.1,0.8c0.1-0.4,0.3-0.8,0.4-1.2c0-0.1,0-0.3,0-0.4h0.1
			C84.5,107.1,84.3,105.4,83.9,103.6L83.9,103.6z M76,186c0.8-1.2,0.6-2-0.8-2.3c-1.9-0.5-3.6,0.4-5.2,1.4c-0.5,0.3-0.4,1.4,0.3,1.8
			c0.5,0.3,1.1,0.5,1.6,0.7C73.5,187.3,75,187.4,76,186z M86,121.3c1.6-0.3,2.7-1.9,2.4-3.6c0-0.2-0.1-0.4-0.2-0.6
			c-0.4-0.7-0.8-1.4-1.3-2.1c-1,0.4-0.6,1.5-0.9,2.2c-0.4,1.2-0.7,2.5-0.9,3.7C85.3,121.1,85.7,121.3,86,121.3z M59.3,135.1
			c0.2-0.1,0.3-0.4,0.1-0.6c-0.1-0.1-0.2-0.2-0.3-0.2c-1.4-0.3-2.8-0.6-4.2-0.7c-0.2,0-0.6,0.5-0.6,0.7c0.3,1.2,1.4,2.1,2.7,2
			C57.7,135.9,58.5,135.5,59.3,135.1z M85.6,124.1c-2.2-0.7-2.2-0.7-3.6,1.8C83.8,126.1,84.4,124.8,85.6,124.1L85.6,124.1z"/>
		<path class="st7" d="M56,127.6c-3.4,0.2-7.3-4.4-6.3-8.1c0.1-0.4,0.2-1.2,0.5-1.3c0.5,0,1,0.1,1.4,0.4c0.9,0.4,1.8,1.1,2.8,1.5
			c3.2,1.1,6.5,1.7,9.8,1.9c0.6,0,1.2,0.1,1.7,0.2c0.6,0.2,0.9,0.8,0.8,1.3c-0.1,0.2-0.2,0.4-0.3,0.6c-0.5,0.5-1.1,0.8-1.5,1.2
			c-1.8,1.8-4.1,2.2-6.4,2.5C57.7,127.7,56.8,127.6,56,127.6z M52,121.3c-0.4,1.3,0.1,2.6,1.2,3.3c1.7,1.2,3.6,1.1,5.5,1.1
			c0.7,0,1.4-0.1,2.1-0.4c0.7-0.3,1.3-0.6,1.9-1L52,121.3z"/>
		<path class="st7" d="M44.3,104.4c-0.2,2,1.3,3.9,3.3,4.1c0.2,0,0.4,0,0.6,0c1.2,0,2.3-0.8,2.6-2c0.5-1.8-0.2-3.8-1.8-4.8
			c-1-0.6-2-1.1-3.1-0.4C44.8,102.2,44.1,103.1,44.3,104.4z"/>
		<path class="st7" d="M73.7,109.6c-0.2-1.1-0.9-2-1.8-2.6c-1-0.7-2-0.3-3,0.1c-1.2,0.4-1.8,1.7-1.4,2.9c0.1,0.6,0.3,1.3,0.6,1.9
			c0.5,1.3,1.9,2,3.2,1.5c0,0,0,0,0,0C73.5,112.8,73.6,112.7,73.7,109.6z"/>
		<path class="st7" d="M57.8,115.1c0.7-0.4,1.3-0.8,1.9-1.3c0.3-0.4,0.3-0.8,0.2-1.2c-0.1-0.2-0.7-0.3-1.1-0.3
			c-0.6,0.1-1.3,0.3-1.9,0.4c-0.5,0.1-1.3-0.2-1.4,0.6c-0.1,0.7-0.1,1.5,0.1,2.2c0.3,0.7,0.6,1.3,1,1.9c0.2,0.6,0.9,0.9,1.5,0.7
			c0.1,0,0.1,0,0.2-0.1c0.6-0.5,0.7-1.2,0.4-1.9C58.3,115.9,58.1,115.5,57.8,115.1z"/>
		<path class="st7" d="M46.2,94.1c0.1,0.6,0.3,1.2,0.5,1.8c0.1,0.3,0.5,0.7,0.7,0.6c1.6-0.1,2.7,0.8,3.9,1.7
			c0.4,0.3,0.8,0.7,1.3,0.9c0.3,0.1,0.9,0.1,1-0.1c0.2-0.4,0.2-0.8,0.2-1.2c0-0.2-0.2-0.3-0.3-0.5C51.6,95.3,49.2,94.7,46.2,94.1z"
			/>
		<path class="st7" d="M75.4,101.8c-1.6,0-3.4,0-5.2,0c-0.3,0-0.8,0.6-0.8,0.8c0.2,0.5,0.5,1,0.9,1.3c0.2,0.2,0.7-0.1,1.1-0.1
			c1.4,0,2.8,0.1,4.2,0.3c0.8,0.1,1.1,0,1.4-0.6c0.2-0.7-0.1-1.5-0.8-1.7c0,0,0,0,0,0C75.9,101.8,75.7,101.8,75.4,101.8z"/>
	</g>
</g>
</svg>
