<svg xmlns="http://www.w3.org/2000/svg" viewBox="0 0 305.56 207.76"><defs><style>.cls-1{fill:#fdebd1;}.cls-1,.cls-11,.cls-2,.cls-3,.cls-4,.cls-5,.cls-6,.cls-7,.cls-8,.cls-9{fill-rule:evenodd;}.cls-2{fill:#ffe57a;}.cls-3{fill:#f8c170;}.cls-4{fill:#bad4ee;}.cls-5{fill:#f19a86;}.cls-6{fill:#888;}.cls-7{fill:#dbdcdc;}.cls-8{fill:#bd8a55;}.cls-9{fill:#fff;}.cls-10{fill:#f7c6bd;}.cls-11{fill:#76491b;}</style></defs><title>footer_stu</title><g id="圖層_2" data-name="圖層 2"><g id="圖層_1-2" data-name="圖層 1"><path class="cls-1" d="M202.09,31a32.56,32.56,0,0,0,.83,3.46,2.23,2.23,0,0,0,3,1.28c1.24-.56,2.4-1.29,3.58-2,1.58-.88,3.15-1.82,4.75-2.67,1.8-1,2.8-.86,3,1.45a9.94,9.94,0,0,0,1.07,3.4,2.27,2.27,0,0,0,3.45,1.07c1.35-.67,2.59-1.56,3.89-2.33a17.35,17.35,0,0,1,2.79-1.51,1.89,1.89,0,0,1,1.58.41c1.19,1.07,1.47,3.39,3.44,3.27,1.58-.1,3.11-1.05,4.66-1.63.28-.11.55-.25.84-.35a1.63,1.63,0,0,1,2.27.8c.53,1.08,1.08,2.16,1.66,3.23a3.39,3.39,0,0,0,3.37,1.81c4.13,0,4.13,0,4.13,4a15.37,15.37,0,0,0,0,2.27c1.28,8.7-1.2,16.83-3.74,25-.23.72-.55,1.42-.77,2.14-1.66,5.47-5.63,8.42-10.85,10-.72.22-1.45.44-2.19.6-2.63.58-15.42.86-18.13.3-3.7-.77-7.37-1.68-11.06-2.5-7-1.56-10.37-6.42-11.86-12.92-1.08-4.72-1.94-9.49-2.82-14.25a24.87,24.87,0,0,1-.32-4.07c-.05-3.33,0-6.67-.06-10a3.6,3.6,0,0,1,1.65-3.48C194,35.51,197.58,32.89,202.09,31Zm13.84,17.6c2,0,3,0,4.09.12,1.88.18,3.47.68,4,2.93a9.22,9.22,0,0,0,1.48,2.8,8,8,0,0,0,13.38.47A20.14,20.14,0,0,0,240.07,53c2.88-4.89,2.14-8.08-2.59-11.12a7.31,7.31,0,0,0-.77-.48c-4.08-1.94-8-2.06-11.33,1.19A14.1,14.1,0,0,0,223.29,45a3.52,3.52,0,0,1-3.05,1.64,19.06,19.06,0,0,1-2.71,0c-1.57-.15-2.94-.48-3.11-2.54a3.56,3.56,0,0,0-1.28-2.3c-2.56-1.88-5.29-3.59-8.62-3.55a5.09,5.09,0,0,0-2.91.94,10.34,10.34,0,0,0-4.13,10.4,6.38,6.38,0,0,0,1.1,2.44c2.09,3,5.32,3.88,8.65,4.22a4.77,4.77,0,0,0,3.21-1.32A12.7,12.7,0,0,0,213,51.26C213.86,49.61,214.83,48.45,215.93,48.64Zm2.28,27.17c5.23-.43,9.1-4.2,9.39-8.82,0-.4-.62-1.1-1.06-1.2a7.67,7.67,0,0,0-2.71-.06,47.64,47.64,0,0,1-10.43.12,22.35,22.35,0,0,0-3.18-.08A1.85,1.85,0,0,0,208.55,68a11.8,11.8,0,0,0,3.75,6.1C214,75.77,216.39,75.93,218.22,75.82Zm-.69-20.27a8.54,8.54,0,0,0-4.15,1.6c-1.39.82-1.39,1.83,0,2.75a9.67,9.67,0,0,0,1.59.89c.66.28,1.62.85,2,.6,1.22-.79,0-1.48-.4-2.18s0-1.08.42-1.54a6.55,6.55,0,0,0,1-1.42C218.07,56.14,217.72,55.81,217.53,55.54Z"/><path class="cls-2" d="M252.26,30.78a168.21,168.21,0,0,0-23.21-3.67c-1.94-.2-3.93.13-5.91.13-4.7,0-9.39-.15-14.09-.12q-8.4,0-16.8.28c-3.48.11-6.94.45-10.44,0-2.39-.34-4.84-.21-7.25-.39a25.5,25.5,0,0,1-3.56-.63.81.81,0,0,1-.49-.61,1,1,0,0,1,.37-.77,9.37,9.37,0,0,1,2-.94q6.55-1.9,13.12-3.72c1.6-.45,3.23-.85,4.85-1.21a2.71,2.71,0,0,0,2.17-2.59c.15-1.2.1-2.42.2-3.63a14,14,0,0,1,2-6.42,7.57,7.57,0,0,1,7.17-3.9c4.55.13,9.1,0,13.65,0,2.86,0,5.67-.63,8.6-.28a34.57,34.57,0,0,1,12.84,4.3c2.78,1.55,5.5,3.2,8.34,4.63,3.8,1.9,5.87,5,7.22,8.91A12.3,12.3,0,0,1,252.26,30.78Z"/><path class="cls-3" d="M218.64,141.94c4.24-.24,8.48-.49,12.72-.7.9,0,1.81.12,2.72.13a2.4,2.4,0,0,1,2.59,2c1.62,6.15,3.78,12.15,4.57,18.52A43.52,43.52,0,0,0,243,168a15.2,15.2,0,0,1,.59,2.64,2,2,0,0,1-1.75,2.28c-4.21.56-8.42,1.08-12.64,1.53a1.59,1.59,0,0,1-1.81-1.62c-.31-3.81-1.57-7.4-2.56-11.06a46.44,46.44,0,0,1-.93-6.75c-.09-.75.09-1.53,0-2.27-.27-1.68.25-3.69-1.8-4.69-1.53,1.13-1.43,2.92-1.74,4.51-.91,4.61-1.72,9.23-2.59,13.85a33,33,0,0,1-.84,3.53c-.74,2.4-1.2,2.65-3.54,2.48-3.17-.23-6.34-.4-9.52-.57-1.06-.06-2.13,0-3.18-.11-1.55-.17-2.25-.79-2.14-2.34a80.93,80.93,0,0,1,1-9c.74-4,1.74-8,2.64-12,.24-1,.55-2,.81-3.07a2.89,2.89,0,0,1,3-2.27c4.24-.31,8.47-.71,12.7-1.08Z"/><path class="cls-4" d="M225.4,99.36c.6,2.66,1.23,5.31,1.77,8,.29,1.46,0,2-1.48,2.21a9.25,9.25,0,0,0-6.53,3.61c-1.14,1.48-3.33,1.31-5.13,1.09a10.12,10.12,0,0,1-3.39-1.16c-1.49-.78-1.73-1.81-1-3.39.61-1.39,1.26-2.75,1.84-4.15a30.86,30.86,0,0,0,2.12-16c-.28-2.16-.08-2.18,2.2-2.21,5.15-.06,10.3-.09,15.44-.39a20.13,20.13,0,0,0,12.43-5c2.46-2.16,5.55-3.06,8.55-4.1,5.72-2,11.43-4,17.2-5.85,3.75-1.19,7.6-2.06,11.41-3a1.5,1.5,0,0,1,1.21.37c1.51,1.56,1.24,4.46-.65,5.44-3.62,1.89-7.28,3.75-11,5.35-6,2.56-12.11,4.79-18.08,7.39a10.57,10.57,0,0,1-6.6.9c-3-.63-5.69-.41-8.07,1.77a3.56,3.56,0,0,1-2.05.55c-1.21.07-2.43-.08-3.64,0-4.81.25-7.08,3-6.49,7.74,0,.3.09.6.13.9Z"/><path class="cls-5" d="M198.4,136.4c-6.14.49-10.44-1.24-13.3-5.81a25.48,25.48,0,0,1-3-6.06,39.42,39.42,0,0,1,1.17-25.8,23.93,23.93,0,0,1,5.66-9.2A8.55,8.55,0,0,1,194,86.92a1.26,1.26,0,0,1,1.34,1.76c-3.62,7.09-3.36,14.62-2.64,22.23a15.78,15.78,0,0,0,6.35,11.61,4.6,4.6,0,0,1,2.1,5,49.14,49.14,0,0,0-.17,5.44C200.91,135.78,200.41,136.28,198.4,136.4Z"/><path class="cls-4" d="M226.1,139.15c-4.67.52-9.33,1.12-14,1.51-2.4.2-4.84,0-7.26,0-1.14,0-1.59-.78-1.69-1.76a41.73,41.73,0,0,1,0-11.36c.29-1.71.82-2.18,2.4-1.77a22.94,22.94,0,0,0,11.22.25c1.85-.42,3.87,0,5.81-.11,1.51,0,3-.29,4.51-.29a7.47,7.47,0,0,0,4.63-1.55c1.3-.94,2.14-.4,2.35,1.31q.68,5.65,1.32,11.3c.17,1.55-.31,2.12-2,2.3-2.42.26-4.84.43-7.26.64C226.13,139.45,226.12,139.3,226.1,139.15Z"/><path class="cls-4" d="M220,122.2a18.23,18.23,0,0,1-20.74-2.51,11.64,11.64,0,0,1-3.66-6.21c-1.24-6.75-1.92-13.59.29-20.28a35,35,0,0,1,3.25-6.47c.65-1.11,1.84-1,2.56.17A15.39,15.39,0,0,1,204.49,95c0,2.56-.23,5.13-.37,7.7,0,.3-.12.6-.15.9-.59,7.93,3.31,11.73,10.29,13,3.92-.88,4.94,1.74,5.66,4.7A5.59,5.59,0,0,1,220,122.2Z"/><path class="cls-6" d="M256.32,105.65a16.39,16.39,0,0,0-8.21,3.19c-.28.21-1.19,0-1.53-.36A11,11,0,0,1,245,106.3c-1.82-3-3.69-5.89-5.37-8.91a7.1,7.1,0,0,1-.82-3.41,3.51,3.51,0,0,1,3-3.48A5.71,5.71,0,0,1,247.65,92c3.63,3.85,6.9,8,8.8,13C256.49,105.12,256.4,105.29,256.32,105.65Z"/><path class="cls-6" d="M243.43,108.72c-4,.2-7,1.11-9.64,3.1a2.34,2.34,0,0,1-3.32-1.22c-1-3.33-2.05-6.67-2.85-10.06a12,12,0,0,1,.12-4.06,3.66,3.66,0,0,1,3.17-3.39,3.85,3.85,0,0,1,4.38,1.62c.08.13.2.23.27.36Z"/><path class="cls-1" d="M201.44,198.57c-.1,0-.85,0-1.59-.14A1.85,1.85,0,0,1,198,196.3a10,10,0,0,1,.22-2.25c1.54-5.83,3.18-11.63,4.66-17.47.45-1.76,1.34-2.58,3.13-2.51.75,0,1.51-.08,2.26-.05,1.1,0,1.6.68,1.37,1.82-1.43,6.79-2.85,13.58-4.35,20.35C204.86,198.24,204.45,198.44,201.44,198.57Z"/><path class="cls-1" d="M296.37,66.31c1.08,3.82,1,4.86-.4,7a6.53,6.53,0,0,1-8.53,1.53,2.53,2.53,0,0,1-.87-1A37.87,37.87,0,0,1,285,69.58c-.48-1.77-.22-2.53,1.48-3.34,3.14-1.5,6.34-2.91,9.58-4.15a12.43,12.43,0,0,1,4-.51c.85,0,2-.15,2.33.92s-.84,1.43-1.61,1.81-1.71.63-2.54,1C297.63,65.6,297,66,296.37,66.31Z"/><path class="cls-1" d="M242.66,191.58c0,.3.09.6.12.9.18,1.91-.1,2.43-1.48,2.75-1.95.44-3.18,0-3.79-1.54-.72-1.83-1.34-3.71-1.88-5.6-.86-3.06-1.72-6.13-2.39-9.23-.44-2.05.06-2.56,2.24-3.08.29-.07.58-.18.88-.23,1.66-.28,2.75.25,3.14,1.84,1.16,4.7,2.2,9.44,3.29,14.16Z"/><path class="cls-1" d="M232,118.06c.37,2.14-2,5.1-4.65,5.09-3.87,0-6.18-2-6.5-6-.25-3.21,1.36-5,4.79-5.21C230,111.67,231.38,114.49,232,118.06Z"/><path class="cls-5" d="M211.46,91.59a25.12,25.12,0,0,1-3.52,16.07c-.16.27-.75.37-1.14.39-.18,0-.54-.36-.55-.58a12.51,12.51,0,0,1-.08-4,21.15,21.15,0,0,0-1.66-16.28c-.14-.26-.37-.58-.32-.83s.39-1,.54-1a39.23,39.23,0,0,1,4.91.82,2,2,0,0,1,1.07,1.33C211.09,89.11,211.32,90.77,211.46,91.59Z"/><path class="cls-7" d="M234,117.9c-.13-1.51-.41-3,1-4.17,1.84-1.48,3.82-2.56,6.22-2.11a3,3,0,0,1,2,1.55,5.39,5.39,0,0,1,.23,3.49,9.29,9.29,0,0,1-5.27,5.34c-2.09.82-3.82-.4-4.11-2.75C234.08,118.8,234,118.35,234,117.9Z"/><path class="cls-7" d="M254.47,108.36c2.63-.27,4,1.39,3.2,4-.82,2.74-2.86,4.22-5.44,5a3.15,3.15,0,0,1-4-3.86,7,7,0,0,1,1.45-2.74A7.89,7.89,0,0,1,254.47,108.36Z"/><path class="cls-6" d="M202.55,200.52c1.59,0,3.26,0,4.93.05a8.4,8.4,0,0,1,5.39,2.08c.43.37.35,1.33-.2,1.48a19.14,19.14,0,0,1-4.38.94c-2.87.06-5.74-.14-8.61-.29a2,2,0,0,1-1.81-2.6,1.87,1.87,0,0,1,1-1.29A27.41,27.41,0,0,1,202.55,200.52Z"/><path class="cls-6" d="M249.15,196a11.58,11.58,0,0,1,2.71.94c.68.4-.37,1.73-2.65,2.4-2.89.85-5.88,1.37-8.84,2a1.57,1.57,0,0,1-1.82-1,2,2,0,0,1,1.14-2.22,11.54,11.54,0,0,1,2.16-.71C244.06,196.94,246.29,196.56,249.15,196Z"/><path class="cls-8" d="M243.31,34.28a11.75,11.75,0,0,1,.14-1.5,1.12,1.12,0,0,1,1.29-1,21.73,21.73,0,0,1,4.64,1.45c1.19.6,1.18,2.06.92,3.2-.12.54-1,1-1.56,1.31a5.43,5.43,0,0,1-1.73.44,2.4,2.4,0,0,1-2.88-1.54A22.13,22.13,0,0,1,243.31,34.28Z"/><path class="cls-8" d="M189.26,35.63a13,13,0,0,1-.5-2c-.19-3.22.13-3.59,3.47-3.86,1.66-.13,3.33-.14,5-.15a.84.84,0,0,1,.61.5.87.87,0,0,1-.2.78A44.65,44.65,0,0,1,189.26,35.63Z"/><path class="cls-8" d="M219.6,32.15c-.14-1.54.44-2.51,1.78-2.59,1.95-.11,3.9,0,5.86,0a.84.84,0,0,1,.58.54.91.91,0,0,1-.22.79c-1.75,1.17-3.5,2.34-5.33,3.39-1.39.8-2.31.3-2.59-1.24C219.62,32.75,219.62,32.45,219.6,32.15Z"/><path class="cls-8" d="M234.3,30.06c.62.09,1.52.18,2.4.37,1.07.23,2.5-.54,3.1,1.06-.78.65-1.55,1.32-2.35,2a3.76,3.76,0,0,1-.81.39c-2.15,1-3.3.48-4.15-1.78C232,30.88,232.71,30,234.3,30.06Z"/><path class="cls-1" d="M252.79,56.65c.17-2.16.28-4.12.52-6.08,0-.31.58-.73.93-.79a1.36,1.36,0,0,1,1.16.45,3.76,3.76,0,0,1,.62,2.08,30.3,30.3,0,0,1-1.08,4.41c-.22.72-.66,1.52-1.55,1.3C253.06,57.95,253,57.05,252.79,56.65Z"/><path class="cls-8" d="M207.15,29.46a5.76,5.76,0,0,1,1.55.19,1.69,1.69,0,0,1,1,.67c.11.23-.21.79-.48,1a7,7,0,0,1-1.88,1.17c-.63.24-1.62.55-2,.25a2.7,2.7,0,0,1-.45-2C205,29.62,206,29.49,207.15,29.46Z"/><path class="cls-9" d="M233.4,56c-2.67.14-4.94-.41-6.18-2.95-.66-1.34-1.21-2.75-1.79-4.13-.76-1.78-.15-3.15,1.16-4.45,4.08-4,9.81-1.8,12.26,1.53a3.62,3.62,0,0,1,.55,1.22C240.28,50.69,236.83,55.64,233.4,56Z"/><path class="cls-9" d="M199.27,48a7.68,7.68,0,0,1,3.38-6.69,4.37,4.37,0,0,1,3.47-.61,10.84,10.84,0,0,1,5.51,2.95,2.87,2.87,0,0,1,.77,2,12.48,12.48,0,0,1-2.34,6.75,3.56,3.56,0,0,1-4.74,1.31,25.66,25.66,0,0,1-3.67-1.7A4.56,4.56,0,0,1,199.27,48Z"/><path class="cls-5" d="M224.26,68.51c-.09,2.87-1.61,4.27-4,4.86-3.81.93-5.9.24-7.9-2.64-.4-.58-.91-1.43-.76-2,.31-1.11,1.48-.72,2.32-.72,2.56,0,5.12,0,7.68.09A23.42,23.42,0,0,1,224.26,68.51Z"/><path class="cls-10" d="M203.82,58.33a3.92,3.92,0,0,0-3.16,0,3.93,3.93,0,0,0-1.32-.11c-3.32.29-4.08,3.88-2.68,6a4,4,0,0,0,2.81,2.31,5.24,5.24,0,0,0,6.15-3.13A3.86,3.86,0,0,0,203.82,58.33Z"/><path class="cls-10" d="M239.45,60.73l-.09,0-.06,0-.18-.14a3.8,3.8,0,0,0-4.89,5.81,7.75,7.75,0,0,0,5.41,1.92,3.78,3.78,0,0,0-.18-7.55Z"/><path class="cls-11" d="M250.61,91.25c2.65,3.93,5.15,7.72,7.74,11.44a11.37,11.37,0,0,1-4.35,16.6,5.78,5.78,0,0,1-5.27,0c-.92-.47-1.82-1-2.85-1.57a14,14,0,0,1-8.22,6.94c-.43.13-.76.84-1,1.35a2.77,2.77,0,0,0,0,1.35c1.14,7.49,1.15,15.17,3.93,22.37a20.87,20.87,0,0,1,1.09,4.41A110.71,110.71,0,0,0,246,170.84a11.65,11.65,0,0,1,.42,2.23c.17,1.53-.31,2-2.06,2.16a9.7,9.7,0,0,0-1.35,0,1.31,1.31,0,0,0-1.18,1.61c.37,2.09.73,4.19,1.14,6.28.52,2.68,1,5.37,1.65,8,.51,2.15,1.11,2.43,3.49,2.67a28.09,28.09,0,0,1,5.34,1c2,.59,2.28,2.37.88,3.94a10.18,10.18,0,0,1-5.39,3.25,80.32,80.32,0,0,1-9.43,1.48c-2.28.22-3.33-.8-3.37-3.25a31.26,31.26,0,0,0-2.19-10.63,73,73,0,0,1-2.09-8.38c-.22-.88-.48-1.76-.78-2.62-.49-1.4-.78-1.54-2.33-1.38-2,.22-2.66,0-2.76-1.81-.32-5.52-2.25-10.66-3.58-15.93a7.86,7.86,0,0,0-.46-1.1c-1.12.22-1.05,1.08-1.19,1.79-.86,4.31-1.66,8.64-2.57,12.94-.46,2.19-.55,2.17-2.7,1.94a2.42,2.42,0,0,1-.44-.1c-1.95-.57-2.73.14-3.25,2.09-.43,1.61-1,3.2-1.3,4.83q-1.43,6.67-2.74,13.37c-.41,2.14-.08,2.61,1.88,3.5,1.65.75,3.35,1.43,4.95,2.29s1.79,1.91.87,3.42a4.71,4.71,0,0,1-1.89,1.8,8.87,8.87,0,0,1-3.5.87q-5.69,0-11.37-.27a3,3,0,0,1-2.19-1.34c-1-2.17-2-4.34-1.25-7,1.66-6,3.12-12,4.64-18.07.37-1.47.71-3,1-4.45.19-1.05-.3-1.61-1.5-1.82-.44-.08-.91,0-1.36-.07-1.45-.23-1.89-.58-1.81-2.06a63.73,63.73,0,0,1,.8-8.14c1.07-5.82,2.34-11.6,3.58-17.38a8.39,8.39,0,0,0,0-4.44c-.95-3.1-.83-3-4.06-3.23-8.06-.57-12.36-2.84-15.79-11.46a33.84,33.84,0,0,1-1.62-20.15c.86-3.84,2.09-7.61,3.29-11.37a19.59,19.59,0,0,1,5.23-7.9c2.15-2.12,4.55-3.52,7.73-3.06a6.14,6.14,0,0,0,2.24-.1c.35-.08.67-.59.85-1,.09-.19-.16-.55-.29-.82a.86.86,0,0,0-.31-.33c-5.2-3.19-7.44-8.19-8.48-13.93-.7-3.89-1.52-7.75-2.13-11.64a59.39,59.39,0,0,1-.66-12.26c.21-4.24.06-8.5,0-12.75,0-1.52-.29-1.93-1.78-2.09-3-.33-6-.52-9.06-.74-1.51-.11-3-.15-4.54-.29a4.77,4.77,0,0,1-1.74-.47,3.24,3.24,0,0,1-2.09-2.76,2.67,2.67,0,0,1,2.14-2.63q7.14-2.28,14.35-4.39c1.74-.51,3.55-.83,5.32-1.22a2.07,2.07,0,0,0,1.78-1.8c.18-1.2.3-2.41.46-3.62a17.5,17.5,0,0,1,2.4-6.83c2.11-3.49,4.68-5.34,9.27-5,6,.49,12.13-.09,18.2-.3a28.64,28.64,0,0,1,15.66,3.79c3.41,2,6.85,3.91,10.38,5.65a14.85,14.85,0,0,1,6.94,7.42,17.64,17.64,0,0,1,.14,15.78c-1.89,4.1-1.65,8.24-1.63,12.46,0,1.2.6,1.8,1.8,2.24,3.2,1.16,3.77,2.13,3.46,5.41a30,30,0,0,1-.74,4c-.47,2-1.41,3.7-3.53,4.4a3.45,3.45,0,0,0-2.36,2.51c-1.16,3.77-2.46,7.49-3.69,11.24-.44,1.36.2,2,1.68,1.57,2.48-.7,5-1.36,7.4-2.22,5.29-1.87,10.54-3.86,15.8-5.79a5.79,5.79,0,0,1,1.73-.52c4.26-.11,7.78-2.33,11.52-3.94,3.35-1.44,6.69-2.89,10.1-4.12a10.58,10.58,0,0,1,7.58-.18c2.07.8,2.65,2.7,1.17,4.33a10.5,10.5,0,0,1-2.91,2.1c-1.3.68-2.38,1.37-2.12,3.07a1.5,1.5,0,0,1-.06.45c-1.19,7.11-6.52,10.37-13.38,7.26a4.54,4.54,0,0,0-4.6.2c-6,3.26-12.52,5.41-18.83,8-3.37,1.38-6.66,2.95-10,4.5A16.18,16.18,0,0,0,250.61,91.25ZM202.09,31c-4.52,1.85-8.06,4.47-11.79,6.79a3.6,3.6,0,0,0-1.65,3.48c0,3.33,0,6.67.06,10a24.87,24.87,0,0,0,.32,4.07c.88,4.76,1.74,9.53,2.82,14.25,1.49,6.5,4.9,11.37,11.86,12.92,3.69.82,7.36,1.73,11.06,2.5,2.7.56,15.5.28,18.13-.3.74-.16,1.47-.38,2.19-.6,5.22-1.6,9.19-4.55,10.85-10,.22-.72.54-1.42.77-2.14,2.54-8.12,5-16.25,3.74-25a15.37,15.37,0,0,1,0-2.27c0-3.94,0-4-4.13-4A3.39,3.39,0,0,1,242.94,39c-.57-1.06-1.13-2.14-1.66-3.23a1.63,1.63,0,0,0-2.27-.8c-.29.1-.56.24-.84.35-1.55.58-3.08,1.53-4.66,1.63-2,.12-2.25-2.2-3.44-3.27a1.89,1.89,0,0,0-1.58-.41,17.35,17.35,0,0,0-2.79,1.51c-1.3.77-2.54,1.65-3.89,2.33A2.27,2.27,0,0,1,218.36,36a9.94,9.94,0,0,1-1.07-3.4c-.25-2.31-1.25-2.41-3-1.45-1.6.85-3.17,1.78-4.75,2.67-1.19.67-2.34,1.4-3.58,2a2.23,2.23,0,0,1-3-1.28A32.56,32.56,0,0,1,202.09,31Zm50.17-.26a12.3,12.3,0,0,0,.87-10.72c-1.36-3.89-3.43-7-7.22-8.91-2.84-1.42-5.57-3.07-8.34-4.63a34.57,34.57,0,0,0-12.84-4.3c-2.93-.35-5.73.29-8.6.28-4.55,0-9.11.15-13.65,0a7.57,7.57,0,0,0-7.17,3.9,14,14,0,0,0-2,6.42c-.11,1.21-.05,2.43-.2,3.63a2.71,2.71,0,0,1-2.17,2.59c-1.63.37-3.25.76-4.85,1.21q-6.57,1.83-13.12,3.72a9.37,9.37,0,0,0-2,.94,1,1,0,0,0-.37.77.81.81,0,0,0,.49.61,25.5,25.5,0,0,0,3.56.63c2.41.18,4.86.05,7.25.39,3.5.49,7,.15,10.44,0q8.4-.26,16.8-.28c4.7,0,9.39.11,14.09.12,2,0,4-.33,5.91-.13A168.21,168.21,0,0,1,252.26,30.78ZM218.64,141.94V142c-4.23.36-8.46.76-12.7,1.08a2.89,2.89,0,0,0-3,2.27c-.26,1-.57,2-.81,3.07-.91,4-1.91,8-2.64,12a80.93,80.93,0,0,0-1,9c-.11,1.56.6,2.18,2.14,2.34,1,.11,2.12,0,3.18.11,3.17.18,6.35.34,9.52.57,2.34.17,2.8-.08,3.54-2.48a33,33,0,0,0,.84-3.53c.88-4.61,1.69-9.24,2.59-13.85.31-1.59.22-3.38,1.74-4.51,2,1,1.53,3,1.8,4.69.12.74-.06,1.52,0,2.27a46.44,46.44,0,0,0,.93,6.75c1,3.66,2.24,7.24,2.56,11.06a1.59,1.59,0,0,0,1.81,1.62c4.22-.45,8.43-1,12.64-1.53a2,2,0,0,0,1.75-2.28A15.2,15.2,0,0,0,243,168a43.52,43.52,0,0,1-1.72-6.12c-.78-6.37-2.94-12.37-4.57-18.52a2.4,2.4,0,0,0-2.59-2c-.91,0-1.82-.18-2.72-.13C227.12,141.45,222.88,141.7,218.64,141.94Zm6.76-42.58.14,0c0-.3-.09-.6-.13-.9-.59-4.76,1.68-7.49,6.49-7.74,1.21-.06,2.43.09,3.64,0a3.56,3.56,0,0,0,2.05-.55c2.38-2.18,5.08-2.39,8.07-1.77a10.57,10.57,0,0,0,6.6-.9c6-2.61,12.09-4.83,18.08-7.39,3.75-1.6,7.41-3.46,11-5.35,1.89-1,2.16-3.89.65-5.44a1.5,1.5,0,0,0-1.21-.37c-3.82,1-7.67,1.83-11.41,3-5.77,1.83-11.49,3.85-17.2,5.85-3,1-6.09,1.94-8.55,4.1a20.13,20.13,0,0,1-12.43,5c-5.13.3-10.29.34-15.44.39-2.28,0-2.48,0-2.2,2.21a30.86,30.86,0,0,1-2.12,16c-.58,1.4-1.23,2.77-1.84,4.15-.69,1.58-.45,2.61,1,3.39a10.12,10.12,0,0,0,3.39,1.16c1.8.22,4,.39,5.13-1.09a9.25,9.25,0,0,1,6.53-3.61c1.45-.2,1.78-.75,1.48-2.21C226.63,104.67,226,102,225.4,99.36Zm-27,37c2-.13,2.51-.63,2.61-3.46a49.14,49.14,0,0,1,.17-5.44,4.6,4.6,0,0,0-2.1-5,15.78,15.78,0,0,1-6.35-11.61c-.72-7.62-1-15.14,2.64-22.23A1.26,1.26,0,0,0,194,86.92a8.55,8.55,0,0,0-5.15,2.61,23.93,23.93,0,0,0-5.66,9.2,39.42,39.42,0,0,0-1.17,25.8,25.48,25.48,0,0,0,3,6.06C188,135.16,192.26,136.89,198.4,136.4Zm27.7,2.75c0,.15,0,.29,0,.44,2.42-.21,4.84-.38,7.26-.64,1.72-.18,2.2-.76,2-2.3q-.63-5.65-1.32-11.3c-.21-1.71-1.06-2.25-2.35-1.31a7.47,7.47,0,0,1-4.63,1.55c-1.5,0-3,.24-4.51.29-1.94.06-4-.31-5.81.11a22.94,22.94,0,0,1-11.22-.25c-1.58-.42-2.12.05-2.4,1.77a41.73,41.73,0,0,0,0,11.36c.1,1,.55,1.74,1.69,1.76,2.42,0,4.86.23,7.26,0C216.77,140.27,221.43,139.67,226.1,139.15Zm-6.09-17a5.59,5.59,0,0,0-.08-.89c-.72-3-1.74-5.58-5.66-4.7-7-1.29-10.88-5.09-10.29-13,0-.3.13-.6.15-.9.14-2.57.4-5.14.37-7.7a15.39,15.39,0,0,0-2.77-8.09c-.72-1.12-1.91-1.28-2.56-.17a35,35,0,0,0-3.25,6.47c-2.21,6.69-1.53,13.53-.29,20.28a11.64,11.64,0,0,0,3.66,6.21A18.23,18.23,0,0,0,220,122.2Zm36.31-16.54c.08-.37.17-.53.13-.65-1.9-5-5.18-9.13-8.8-13a5.71,5.71,0,0,0-5.83-1.54,3.51,3.51,0,0,0-3,3.48,7.1,7.1,0,0,0,.82,3.41c1.68,3,3.55,6,5.37,8.91a11,11,0,0,0,1.58,2.19c.34.32,1.25.57,1.53.36A16.39,16.39,0,0,1,256.32,105.65Zm-12.89,3.07-7.87-13.64c-.08-.13-.19-.24-.27-.36a3.85,3.85,0,0,0-4.38-1.62,3.66,3.66,0,0,0-3.17,3.39,12,12,0,0,0-.12,4.06c.79,3.39,1.81,6.73,2.85,10.06a2.34,2.34,0,0,0,3.32,1.22C236.41,109.83,239.39,108.92,243.43,108.72Zm-42,89.85c3-.12,3.41-.32,3.87-2.37,1.5-6.77,2.92-13.56,4.35-20.35.24-1.15-.27-1.78-1.37-1.82-.75,0-1.51.08-2.26.05-1.79-.07-2.68.76-3.13,2.51-1.48,5.84-3.12,11.65-4.66,17.47a10,10,0,0,0-.22,2.25,1.85,1.85,0,0,0,1.83,2.12C200.59,198.54,201.34,198.56,201.44,198.57ZM296.37,66.31c.62-.32,1.26-.71,1.93-1,.83-.37,1.73-.6,2.54-1s1.93-.65,1.61-1.81-1.48-1-2.33-.92a12.43,12.43,0,0,0-4,.51c-3.25,1.24-6.44,2.65-9.58,4.15-1.7.81-2,1.57-1.48,3.34a37.87,37.87,0,0,0,1.54,4.26,2.53,2.53,0,0,0,.87,1A6.53,6.53,0,0,0,296,73.31C297.38,71.17,297.46,70.13,296.37,66.31ZM242.66,191.58l.14,0c-1.09-4.72-2.13-9.46-3.29-14.16-.39-1.59-1.48-2.11-3.14-1.84-.3,0-.59.16-.88.23-2.18.52-2.68,1-2.24,3.08.66,3.11,1.52,6.17,2.39,9.23.53,1.89,1.16,3.77,1.88,5.6.61,1.56,1.84,2,3.79,1.54,1.38-.31,1.66-.83,1.48-2.75C242.76,192.18,242.7,191.88,242.66,191.58ZM232,118.06c-.57-3.57-2-6.39-6.35-6.07-3.44.25-5,2-4.79,5.21.32,4,2.62,5.94,6.5,6C230,123.17,232.32,120.21,232,118.06ZM211.46,91.59c-.14-.82-.37-2.48-.76-4.1a2,2,0,0,0-1.07-1.33,39.23,39.23,0,0,0-4.91-.82c-.15,0-.47.63-.54,1s.18.57.32.83a21.15,21.15,0,0,1,1.66,16.28,12.51,12.51,0,0,0,.08,4c0,.22.37.59.55.58.4,0,1-.11,1.14-.39A25.12,25.12,0,0,0,211.46,91.59ZM234,117.9c0,.45.06.91.12,1.36.29,2.35,2,3.58,4.11,2.75a9.29,9.29,0,0,0,5.27-5.34,5.39,5.39,0,0,0-.23-3.49,3,3,0,0,0-2-1.55c-2.4-.46-4.39.63-6.22,2.11C233.6,114.89,233.89,116.39,234,117.9Zm20.46-9.54a7.89,7.89,0,0,0-4.79,2.37,7,7,0,0,0-1.45,2.74,3.15,3.15,0,0,0,4,3.86c2.58-.77,4.62-2.25,5.44-5C258.44,109.75,257.1,108.09,254.47,108.36Zm-51.92,92.16a27.41,27.41,0,0,0-3.67.37,1.87,1.87,0,0,0-1,1.29,2,2,0,0,0,1.81,2.6c2.87.16,5.74.36,8.61.29a19.14,19.14,0,0,0,4.38-.94c.55-.15.63-1.11.2-1.48a8.4,8.4,0,0,0-5.39-2.08C205.81,200.53,204.15,200.54,202.55,200.52Zm46.6-4.48c-2.86.52-5.09.9-7.3,1.34a11.54,11.54,0,0,0-2.16.71,2,2,0,0,0-1.14,2.22,1.57,1.57,0,0,0,1.82,1c3-.61,5.94-1.13,8.84-2,2.28-.67,3.33-2,2.65-2.4A11.58,11.58,0,0,0,249.15,196ZM243.31,34.28a22.13,22.13,0,0,0,.81,2.39A2.4,2.4,0,0,0,247,38.21a5.43,5.43,0,0,0,1.73-.44c.6-.32,1.43-.77,1.56-1.31.26-1.14.27-2.61-.92-3.2a21.73,21.73,0,0,0-4.64-1.45,1.12,1.12,0,0,0-1.29,1A11.75,11.75,0,0,0,243.31,34.28Zm-54,1.35a44.65,44.65,0,0,0,8.37-4.76.87.87,0,0,0,.2-.78.84.84,0,0,0-.61-.5c-1.67,0-3.33,0-5,.15-3.34.26-3.66.63-3.47,3.86A13,13,0,0,0,189.26,35.63Zm30.33-3.48c0,.3,0,.6.08.9.29,1.54,1.2,2,2.59,1.24,1.82-1,3.57-2.22,5.33-3.39a.91.91,0,0,0,.22-.79.84.84,0,0,0-.58-.54c-2,0-3.91-.12-5.86,0C220,29.64,219.46,30.61,219.6,32.15Zm14.7-2.09c-1.58-.05-2.26.82-1.82,2,.85,2.26,2,2.76,4.15,1.78a3.76,3.76,0,0,0,.81-.39c.8-.63,1.57-1.3,2.35-2-.6-1.6-2-.83-3.1-1.06C235.82,30.24,234.92,30.16,234.3,30.06Zm18.49,26.59c.16.4.28,1.3.6,1.38.88.23,1.33-.57,1.55-1.3A30.3,30.3,0,0,0,256,52.32a3.76,3.76,0,0,0-.62-2.08,1.36,1.36,0,0,0-1.16-.45c-.36.05-.89.47-.93.79C253.07,52.53,253,54.5,252.79,56.65ZM207.15,29.46c-1.14,0-2.1.16-2.19,1.31a2.7,2.7,0,0,0,.45,2c.35.3,1.34,0,2-.25a7,7,0,0,0,1.88-1.17c.28-.23.59-.79.48-1a1.69,1.69,0,0,0-1-.67A5.76,5.76,0,0,0,207.15,29.46Z"/><path class="cls-11" d="M215.93,48.64c-1.11-.2-2.07,1-2.9,2.62a12.7,12.7,0,0,1-2.61,3.66,4.77,4.77,0,0,1-3.21,1.32c-3.34-.34-6.56-1.24-8.65-4.22a6.38,6.38,0,0,1-1.1-2.44,10.34,10.34,0,0,1,4.13-10.4,5.09,5.09,0,0,1,2.91-.94c3.34,0,6.06,1.67,8.62,3.55a3.56,3.56,0,0,1,1.28,2.3c.17,2.06,1.54,2.39,3.11,2.54a19.06,19.06,0,0,0,2.71,0A3.52,3.52,0,0,0,223.29,45a14.1,14.1,0,0,1,2.09-2.36c3.35-3.25,7.26-3.13,11.33-1.19a7.31,7.31,0,0,1,.77.48c4.72,3,5.47,6.23,2.59,11.12a20.14,20.14,0,0,1-1.23,1.91,8,8,0,0,1-13.38-.47,9.22,9.22,0,0,1-1.48-2.8c-.48-2.24-2.07-2.75-4-2.93C219,48.66,217.91,48.69,215.93,48.64ZM233.4,56c3.43-.38,6.88-5.34,6-8.77a3.62,3.62,0,0,0-.55-1.22c-2.45-3.33-8.18-5.54-12.26-1.53-1.32,1.3-1.92,2.67-1.16,4.45.59,1.38,1.13,2.78,1.79,4.13C228.46,55.61,230.72,56.17,233.4,56Zm-34.13-8a4.56,4.56,0,0,0,2.38,4,25.66,25.66,0,0,0,3.67,1.7,3.56,3.56,0,0,0,4.74-1.31,12.48,12.48,0,0,0,2.34-6.75,2.87,2.87,0,0,0-.77-2,10.84,10.84,0,0,0-5.51-2.95,4.37,4.37,0,0,0-3.47.61A7.68,7.68,0,0,0,199.27,48Z"/><path class="cls-11" d="M218.22,75.82c-1.82.12-4.21,0-5.92-1.7a11.8,11.8,0,0,1-3.75-6.1,1.85,1.85,0,0,1,1.68-2.24,22.35,22.35,0,0,1,3.18.08,47.64,47.64,0,0,0,10.43-.12,7.67,7.67,0,0,1,2.71.06c.44.1,1.09.81,1.06,1.2C227.32,71.61,223.45,75.39,218.22,75.82Zm6-7.3a23.42,23.42,0,0,0-2.7-.39C219,68,216.43,68,213.87,68c-.84,0-2-.39-2.32.72-.15.55.35,1.41.76,2,2,2.88,4.09,3.56,7.9,2.64C222.65,72.78,224.16,71.38,224.26,68.51Z"/><path class="cls-11" d="M217.53,55.54c.2.27.54.6.49.69a6.55,6.55,0,0,1-1,1.42c-.46.46-.77.88-.42,1.54s1.62,1.38.4,2.18c-.38.25-1.34-.32-2-.6a9.67,9.67,0,0,1-1.59-.89C212,59,212,58,213.38,57.14A8.54,8.54,0,0,1,217.53,55.54Z"/><path class="cls-1" d="M64.86,92.4c3.4,5.15,4.23,11,4.59,16.9.06.91.07,1.82.19,2.72a14.72,14.72,0,0,1-2.84,11.15,9.24,9.24,0,0,0-1.67,2.7c-.95,3.27-3.37,4.89-6.28,6.08-3.36,1.37-6.66,2.9-10.07,4.12a15.07,15.07,0,0,1-11.52-.29c-4.15-1.83-8.37-3.52-12.55-5.3-3.12-1.33-5-3.84-6.39-6.8A33.66,33.66,0,0,1,17,120.3c-1-2.82-.8-3.36,1.88-5.17,2.94-2,4.47-4.87,5.62-8.05.36-1,.61-2,.91-3a3.38,3.38,0,0,1,2.15-2.19,11.64,11.64,0,0,1,1.31-.39c7.29-2,14.53-4.24,22-5.5A89,89,0,0,0,61,93.23C62.26,92.85,63.44,92,64.86,92.4ZM35.22,107.68c-3.31.43-4.12,2-4.12,4.33,0,2.07,3,4.23,5.2,3.91a4.18,4.18,0,0,0,3.28-4.64A4,4,0,0,0,35.22,107.68Zm20.62-.93c0,.25.08.69.16,1.13a3.15,3.15,0,0,0,2.75,2.57,3.11,3.11,0,0,0,3.36-1.67,10,10,0,0,0,.73-2.11,3.32,3.32,0,0,0-1.5-3.87,3.57,3.57,0,0,0-4.17-.18C55.53,103.61,55.71,105.05,55.84,106.75ZM57,123.4c-.16-.25-.28-.65-.49-.7a1.68,1.68,0,0,0-1.21.12c-.33.24-.42.77-.67,1.14-2.35,3.54-4.12,4.13-8.41,2.33-.69-.29-1.29-.76-2-1a.83.83,0,0,0-.75.33c-.18.36-.39,1-.22,1.18a3.93,3.93,0,0,0,1.64,1.43,25.72,25.72,0,0,0,4.37,1,7.61,7.61,0,0,0,7.72-4.9A2.84,2.84,0,0,0,57,123.4ZM62.62,98c-.19-.29-.34-.86-.64-1a20.49,20.49,0,0,0-4.29-1.11,4,4,0,0,0-3.78,2c-.24.37-.07,1.08.06,1.59a1.45,1.45,0,0,0,1.12,0c1.9-1.83,4-1.83,6.18-.73a1.06,1.06,0,0,0,.83.06C62.31,98.72,62.4,98.38,62.62,98Zm-25.23,6.26c-.3-.44-.47-1-.77-1.08-3.35-1-7.51,1.18-8.49,4.36a.86.86,0,0,0,.35.77c.34.13,1,.2,1.12,0,1.74-2.32,3.73-4,6.9-3.17C36.68,105.22,37,104.63,37.39,104.27Zm14.39,15.2c.68-.3,1-.35,1.2-.55a4.18,4.18,0,0,0,.83-3.84,2.54,2.54,0,0,0-3.41-1.26c-1.14.76,0,1.45.34,2.22a13.63,13.63,0,0,1,.44,2.51A2.89,2.89,0,0,0,51.78,119.47Z"/><path class="cls-2" d="M6.17,106.77a11.23,11.23,0,0,1,1.76-2.05c1.85-1.31,3.81-2.46,5.71-3.7,1.37-.89,2.12-1.94,1.62-3.79a10.67,10.67,0,0,1-.16-4.46,20.09,20.09,0,0,1,9.23-13.94,7.3,7.3,0,0,1,2.05-.92,32.52,32.52,0,0,1,20.08.69,18.61,18.61,0,0,1,8.69,6.31c.18.24.35.49.54.73a3.69,3.69,0,0,0,4,1.5,29.85,29.85,0,0,1,5.42-.51,12.25,12.25,0,0,1,3.07.61c.17,0,.29.4.35.63a.45.45,0,0,1-.2.39c-1,.43-1.91.9-2.9,1.25-2,.71-4,1.43-6,2a82.4,82.4,0,0,1-10.08,2.69c-8.71,1.37-17,4.14-25.45,6.57-1,.29-2,.79-3,1.17Q14.09,104.5,7.29,107C7.06,107.11,6.73,106.91,6.17,106.77Z"/><path class="cls-4" d="M58.91,135a11.63,11.63,0,0,1,1.73,5c.94,7.67,1.79,15.35,2.67,23,.09.75.16,1.51.18,2.27a2.69,2.69,0,0,1-1.93,2.77,11.17,11.17,0,0,1-1.27.47,126.71,126.71,0,0,1-20.59,3.54c-1.49.1-2-.28-2.18-1.64a19.94,19.94,0,0,1-.1-4.07c.35-3.24,2.42-5,5.57-4.3,3.5.76,6.07-.3,7.66-3.31s1.78-6.1-.55-9c-.48-.59-.94-1.2-1.47-1.73a4.07,4.07,0,0,1-1.23-2.83c-.07-1.67-.26-3.33-.37-5-.05-.81.22-1.62,1.07-1.77,3.47-.63,6.59-2.21,9.81-3.52A3.11,3.11,0,0,1,58.91,135Z"/><path class="cls-3" d="M58.18,171.52a5.1,5.1,0,0,1,5.6,1.23c2.89,2.52,5.09,5.58,7.46,8.52a1.75,1.75,0,0,1,0,2.47,29.09,29.09,0,0,1-3.22,3.18c-3.48,2.8-3.92,3.45-7.24-.5-2.23-2.65-4.88-5-7.27-7.48-2.85-3-2.94-3.09-4.51.93-1.32,3.37-2.32,6.87-3.44,10.32-.58,1.8-1.21,2.27-3,1.8-2.78-.72-5.53-1.54-8.27-2.41a1.34,1.34,0,0,1-.93-1.8c1.41-3.83,2.8-7.67,4.36-11.45a4,4,0,0,1,2-1.67,10.92,10.92,0,0,1,3-.88C48.14,173,53.54,172.2,58.18,171.52Z"/><path class="cls-4" d="M38.56,150.9c-.75,2.29,0,4.61.57,7,.32,1.44-1.45,3.54-3.21,3.86-2.25.41-4.89.36-6.73-2.53a9.86,9.86,0,0,1-1.81-6.42,36.4,36.4,0,0,1,2.78-11,11.09,11.09,0,0,1,2.51-3.12,1.5,1.5,0,0,1,2.34.41,7.19,7.19,0,0,1,1,2C36.92,144.3,37.7,147.52,38.56,150.9Z"/><path class="cls-5" d="M33.26,164.71c-.11.46-.1.81-.26,1-1.12,1.34-1.79,3.41-4.1,3s-4.49-1.42-5.5-3.59c-2.8-6-4.5-12.26-2.29-18.92a58.71,58.71,0,0,1,2-5.55c1-2.19,2.18-4.29,3.31-6.49a8.42,8.42,0,0,1,4.67,2.37c-3.83,4.24-4.79,9.46-5.65,14.68A12.66,12.66,0,0,0,28,161.55C29.37,163.37,31.42,163.87,33.26,164.71Z"/><path class="cls-1" d="M45,160c-1.92,0-3.35-.72-3.75-2.59a25.17,25.17,0,0,1-.37-5.8,2.15,2.15,0,0,1,1.66-1.95,6.6,6.6,0,0,1,5.77,1.78,4.71,4.71,0,0,1,.69,5.46C48.19,158.66,47.18,160.06,45,160Z"/><path class="cls-8" d="M7.41,128c-1.3-1.81-2.32-3.28-3.4-4.7-1.68-2.21-1.66-2.61.77-3.46,2.26-.79,4.6-1.36,6.93-1.94.85-.21,1.4.56,1,1.39C11.43,122.27,10.14,125.31,7.41,128Z"/><path class="cls-5" d="M45.48,143.89c0,.23,0,.68,0,1.13,0,1-.43,1.81-1.51,1.92-3.32.33-4,1.71-4.93-3-.27-1.33-.55-2.66-.76-4-.12-.76.44-1,1.07-1.14a5.07,5.07,0,0,1,.9,0C44.67,138.92,45.1,139.31,45.48,143.89Z"/><path class="cls-8" d="M15.43,110a10.37,10.37,0,0,1-.15-2.25,2.16,2.16,0,0,1,.84-1.44A17.38,17.38,0,0,1,19,105.08c1.21-.43,2.31-1.57,3.76-.65a20.45,20.45,0,0,1-.91,3.9,13.76,13.76,0,0,1-2.46,3.76,4,4,0,0,1-2.71,1.34c-1.36-.11-.88-1.64-1.12-2.59a6,6,0,0,1-.09-.9Z"/><path class="cls-8" d="M79.39,98.06c-.37,1.27-.62,2.28-1,3.27-.53,1.57-1,1.82-2.68,1.19a31.75,31.75,0,0,1-4.49-2,2.54,2.54,0,0,1-.86-1.9c0-.38.7-1,1.2-1.15a11.47,11.47,0,0,1,6.59-.41C78.65,97.17,79,97.73,79.39,98.06Z"/><path class="cls-5" d="M65.47,136.81c-.08,2.18-.14,4.28-.26,6.37,0,.18-.37.45-.6.49s-.71-.11-.74-.26q-1.06-4.59-2-9.21a1,1,0,0,1,.31-.81,3.73,3.73,0,0,1,1.51-.75c.29,0,.83.4.94.73C65,134.51,65.21,135.7,65.47,136.81Z"/><path class="cls-1" d="M64,149.81c-.21-2.15.32-3.2,1.42-3.38a2.91,2.91,0,0,1,3.46,2.12,4.43,4.43,0,0,1,.09,1.34c-.14,1.44-1.41,2.77-2.54,2.73-.86,0-2.1-1.27-2.39-2.42C64,149.91,64,149.6,64,149.81Z"/><path class="cls-9" d="M36.39,205.66a26.46,26.46,0,0,1-2.79-.59c-2-.62-2.43-1.6-1.8-3.81.3-1.06,1.34-1.56,2-.79,1.12,1.33,2.69,1.77,4.05,2.64a2.08,2.08,0,0,1,.61,1.5c0,.25-.57.57-.92.77A5,5,0,0,1,36.39,205.66Z"/><path class="cls-9" d="M75.91,195.79c-.58-.37-.92-.48-1-.69a.93.93,0,0,1,.06-.83c1.44-1.48,2.92-2.92,4.41-4.35a1.54,1.54,0,0,1,.81-.34,1.17,1.17,0,0,1,.81.14.86.86,0,0,1,.29.73C80.36,193.26,77.92,194.37,75.91,195.79Z"/><path class="cls-1" d="M35.23,198c-.3-.23-.79-.42-.93-.76a3.33,3.33,0,0,1,.93-4c.39-.33,1.38-.19,2,0s.54.94.25,1.51c-.46.93-.92,1.86-1.43,2.76C35.92,197.73,35.57,197.8,35.23,198Z"/><path class="cls-1" d="M70,188.55A14.31,14.31,0,0,1,72,189.77c.65.57,1.33,1.24.8,2.24a1.13,1.13,0,0,1-.71.45,2,2,0,0,1-2.16-1.16,3.76,3.76,0,0,1-.53-1.63C69.33,189.39,69.71,189,70,188.55Z"/><path class="cls-10" d="M36.08,121.24a5.48,5.48,0,0,0-4.83-2.37A3.82,3.82,0,0,0,27.79,123a3.61,3.61,0,0,0,1.14,2.36c0,.08,0,.17.07.25a3.81,3.81,0,0,0,1.94,2.11,3.65,3.65,0,0,0,2.95.13,4.88,4.88,0,0,0,2.58-2.37A4.5,4.5,0,0,0,36.08,121.24Z"/><path class="cls-10" d="M66.92,113.1a3.75,3.75,0,0,0-4.36-.32H62.5a3.8,3.8,0,1,0,.65,7.57,6,6,0,0,0,4.23-1.91A3.82,3.82,0,0,0,66.92,113.1Z"/><path class="cls-11" d="M67.33,91.5c.41.88.79,1.54,1,2.24a2.25,2.25,0,0,0,2.79,1.66,26.22,26.22,0,0,1,10.6.28c.06,3-1.33,5.73-2,8.6-.28,1.23-1.75,1.62-3,1-1-.45-1.84-1.07-2.8-1.52-1.68-.8-2.65-.18-2.57,1.63s.3,3.64.31,5.46c0,2.12-.23,4.24-.23,6.36a9.34,9.34,0,0,1-1.72,5.09c-1.21,1.92-2.33,3.9-3.48,5.87a2.57,2.57,0,0,0-.14,2.57A18.18,18.18,0,0,1,67.3,141,3.18,3.18,0,0,0,69,144.7c3.5,2.21,2.94,8-.68,9.9A4.78,4.78,0,0,1,67,155,2.26,2.26,0,0,0,65,157.64c.15,2.42.36,4.84.57,7.26.08.91.55,2,.24,2.69-1.21,2.88.65,4.53,2.21,6.36,1.77,2.08,3.53,4.17,5.23,6.31s1.57,2.43-.18,4.64c-1,1.28-1,1.6-.1,2.69,1.41,1.66,1.9,1.88,3.4,1A11.18,11.18,0,0,1,82,186.88c1.35,0,2,.68,1.83,1.94-.45,2.78-1.43,5.27-4,6.88-1,.65-2,1.45-3,2.06-2,1.18-2.83.9-4.57-1-1.32-1.45-2.88-2.69-4.19-4.15-1.1-1.23-2.12-1.59-3.46-.45a1.09,1.09,0,0,1-1.61-.12c-.94-1-1.88-2-2.77-3-2.4-2.73-4.6-5.66-7.63-7.76-1.26-.88-1.88-.81-2.42.67-1,2.7-1.75,5.47-2.57,8.22-.26.86-.34,1.78-.61,2.64-.72,2.22-.89,2.29-3.19,1.68a6.82,6.82,0,0,0-2.2-.48,2.91,2.91,0,0,0-1.84,1,16.65,16.65,0,0,0-1.49,2.81,2.09,2.09,0,0,0,.59,2.83c.35.29.69.59,1,.91a3.24,3.24,0,0,1,.7,4.14A3.15,3.15,0,0,1,37,207.71a36.75,36.75,0,0,1-5.35-1c-1.67-.46-2.28-1.27-2.14-3a33.67,33.67,0,0,1,1-5.33,16.87,16.87,0,0,1,1.28-3.4c.73-1.48,1.21-2.78-.61-3.88-.79-.48-.46-1.34-.22-2.06,1.14-3.46,2.16-7,3.45-10.36a14.66,14.66,0,0,0,.94-6.23c-.14-2.51-.6-2.64-2.68-2.06-5.1,1.42-8.94-.19-11.43-4.81A25,25,0,0,1,18.75,147,50.41,50.41,0,0,1,24,134.45c.43-.77.68-1.55-.14-1.93-4.64-2.12-7-6.11-8.82-10.55a3.79,3.79,0,0,0-.45-.56A8,8,0,0,0,13,122.94c-1.26,2.25-2.38,4.58-3.63,6.83a25.13,25.13,0,0,1-1.87,2.55c-.52-.49-1-.72-1.14-1.09A32.53,32.53,0,0,0,.68,122.5c-1-1.14-.86-2.17.31-3.1a6.31,6.31,0,0,1,1.53-.95c1.83-.72,3.68-1.41,5.54-2,1.69-.57,4.17.12,5-1.6.69-1.47.16-3.54.06-5.34-.09-1.62-.81-2.05-2.44-1.51-1.15.38-2.24.95-3.38,1.34-1.85.64-3.72,1.23-5.6,1.79a.91.91,0,0,1-.77-.31.94.94,0,0,1-.1-.84,18.15,18.15,0,0,1,5.13-6.29c1.12-.78,2.23-1.58,3.39-2.3,2.29-1.42,3.93-2.95,3.53-6.15-.22-1.82.62-3.89,1.38-5.67a74.58,74.58,0,0,1,3.62-6.83A13.64,13.64,0,0,1,28,75.63c4.32-.7,8.72-1.38,13.13-.6,5.47,1,10.61,2.62,14.35,7.11.1.12.25.19.33.31a6,6,0,0,0,6.71,2.47,34.48,34.48,0,0,1,6.36-.28,7.3,7.3,0,0,1,2.26.1c1,.31,2.09.69,2.28,2a2.5,2.5,0,0,1-1.51,2.58C70.45,90.07,68.93,90.73,67.33,91.5Zm-2.47.9c-1.42-.36-2.6.45-3.89.83A89,89,0,0,1,50.89,96c-7.5,1.26-14.74,3.47-22,5.5a11.64,11.64,0,0,0-1.31.39A3.38,3.38,0,0,0,25.4,104c-.3,1-.55,2-.91,3-1.16,3.18-2.69,6.08-5.62,8.05-2.68,1.81-2.83,2.35-1.88,5.17a33.66,33.66,0,0,0,1.34,3.38c1.38,3,3.27,5.47,6.39,6.8,4.18,1.78,8.39,3.47,12.55,5.3a15.07,15.07,0,0,0,11.52.29c3.41-1.22,6.71-2.75,10.07-4.12,2.91-1.19,5.33-2.81,6.28-6.08a9.24,9.24,0,0,1,1.67-2.7A14.72,14.72,0,0,0,69.64,112c-.12-.9-.13-1.82-.19-2.72C69.09,103.36,68.26,97.55,64.86,92.4ZM6.17,106.77c.56.14.89.34,1.12.25q6.81-2.51,13.59-5.08c1-.37,1.94-.87,3-1.17,8.42-2.42,16.74-5.2,25.45-6.57a82.4,82.4,0,0,0,10.08-2.69c2-.59,4-1.31,6-2,1-.36,1.94-.82,2.9-1.25a.45.45,0,0,0,.2-.39c-.07-.23-.19-.59-.35-.63a12.25,12.25,0,0,0-3.07-.61,29.85,29.85,0,0,0-5.42.51,3.69,3.69,0,0,1-4-1.5c-.19-.24-.36-.49-.54-.73a18.61,18.61,0,0,0-8.69-6.31,32.52,32.52,0,0,0-20.08-.69,7.3,7.3,0,0,0-2.05.92,20.09,20.09,0,0,0-9.23,13.94,10.67,10.67,0,0,0,.16,4.46c.5,1.86-.25,2.9-1.62,3.79-1.9,1.24-3.86,2.39-5.71,3.7A11.23,11.23,0,0,0,6.17,106.77ZM58.91,135a3.11,3.11,0,0,0-1,0c-3.22,1.31-6.33,2.89-9.81,3.52-.85.15-1.12,1-1.07,1.77.1,1.67.3,3.33.37,5a4.07,4.07,0,0,0,1.23,2.83c.53.54,1,1.15,1.47,1.73,2.34,2.85,2.13,6,.55,9s-4.16,4.07-7.66,3.31c-3.15-.68-5.23,1.05-5.57,4.3a19.94,19.94,0,0,0,.1,4.07c.14,1.36.69,1.74,2.18,1.64a126.71,126.71,0,0,0,20.59-3.54,11.17,11.17,0,0,0,1.27-.47,2.69,2.69,0,0,0,1.93-2.77c0-.76-.09-1.51-.18-2.27-.88-7.68-1.72-15.36-2.67-23A11.63,11.63,0,0,0,58.91,135Zm-.72,36.56c-4.65.68-10,1.44-15.43,2.27a10.92,10.92,0,0,0-3,.88,4,4,0,0,0-2,1.67c-1.55,3.77-2.94,7.62-4.36,11.45a1.34,1.34,0,0,0,.93,1.8c2.74.87,5.49,1.69,8.27,2.41,1.79.47,2.41,0,3-1.8,1.12-3.45,2.11-6.95,3.44-10.32,1.58-4,1.67-3.94,4.51-.93,2.39,2.53,5,4.82,7.27,7.48,3.32,4,3.76,3.3,7.24.5a29.09,29.09,0,0,0,3.22-3.18,1.75,1.75,0,0,0,0-2.47c-2.37-2.94-4.57-6-7.46-8.52A5.1,5.1,0,0,0,58.18,171.52ZM38.56,150.9c-.86-3.38-1.65-6.6-2.52-9.8a7.19,7.19,0,0,0-1-2,1.5,1.5,0,0,0-2.34-.41,11.09,11.09,0,0,0-2.51,3.12,36.4,36.4,0,0,0-2.78,11,9.86,9.86,0,0,0,1.81,6.42c1.84,2.89,4.49,2.94,6.73,2.53,1.76-.32,3.53-2.42,3.21-3.86C38.61,155.51,37.81,153.19,38.56,150.9Zm-5.3,13.81c-1.84-.85-3.89-1.34-5.3-3.16a12.66,12.66,0,0,1-2.51-10.27c.86-5.23,1.82-10.44,5.65-14.68a8.42,8.42,0,0,0-4.67-2.37c-1.13,2.2-2.33,4.3-3.31,6.49a58.71,58.71,0,0,0-2,5.55c-2.21,6.66-.51,12.9,2.29,18.92,1,2.16,3.17,3.22,5.5,3.59s3-1.7,4.1-3C33.16,165.52,33.15,165.18,33.26,164.71ZM45,160c2.17,0,3.18-1.36,4-3.1a4.71,4.71,0,0,0-.69-5.46,6.6,6.6,0,0,0-5.77-1.78,2.15,2.15,0,0,0-1.66,1.95,25.17,25.17,0,0,0,.37,5.8C41.66,159.3,43.09,160.06,45,160ZM7.41,128c2.73-2.65,4-5.68,5.33-8.71.36-.83-.19-1.61-1-1.39C9.38,118.43,7,119,4.78,119.8c-2.43.85-2.45,1.25-.77,3.46C5.09,124.68,6.11,126.15,7.41,128Zm38.07,15.93c-.39-4.57-.82-5-5.2-5a5.07,5.07,0,0,0-.9,0c-.63.1-1.2.38-1.07,1.14.21,1.34.49,2.67.76,4,1,4.66,1.61,3.28,4.93,3,1.08-.11,1.48-.91,1.51-1.92C45.53,144.57,45.49,144.12,45.48,143.89ZM15.43,110h.08a6,6,0,0,0,.09.9c.23.95-.24,2.47,1.12,2.59a4,4,0,0,0,2.71-1.34,13.76,13.76,0,0,0,2.46-3.76,20.45,20.45,0,0,0,.91-3.9c-1.44-.92-2.54.22-3.76.65a17.38,17.38,0,0,0-2.93,1.19,2.16,2.16,0,0,0-.84,1.44A10.37,10.37,0,0,0,15.43,110Zm64-11.89c-.37-.32-.73-.89-1.19-1a11.47,11.47,0,0,0-6.59.41c-.5.19-1.21.77-1.2,1.15a2.54,2.54,0,0,0,.86,1.9,31.75,31.75,0,0,0,4.49,2c1.63.63,2.15.39,2.68-1.19C78.77,100.34,79,99.33,79.39,98.06ZM65.47,136.81c-.26-1.11-.49-2.3-.85-3.44-.11-.33-.65-.77-.94-.73a3.73,3.73,0,0,0-1.51.75,1,1,0,0,0-.31.81q.95,4.61,2,9.21c0,.15.5.3.74.26s.59-.31.6-.49C65.33,141.09,65.39,139,65.47,136.81Zm-1.43,13c0-.21,0,.1,0,.39.29,1.14,1.53,2.39,2.39,2.42,1.13,0,2.39-1.29,2.54-2.73a4.43,4.43,0,0,0-.09-1.34,2.91,2.91,0,0,0-3.46-2.12C64.37,146.61,63.83,147.66,64,149.81ZM36.39,205.66a5,5,0,0,0,1.13-.28c.36-.2.93-.52.92-.77a2.08,2.08,0,0,0-.61-1.5c-1.36-.86-2.93-1.31-4.05-2.64-.65-.77-1.68-.28-2,.79-.63,2.21-.2,3.18,1.8,3.81A26.46,26.46,0,0,0,36.39,205.66Zm39.52-9.86c2-1.42,4.46-2.53,5.36-5.34a.86.86,0,0,0-.29-.73,1.17,1.17,0,0,0-.81-.14,1.54,1.54,0,0,0-.81.34c-1.49,1.43-3,2.87-4.41,4.35a.93.93,0,0,0-.06.83C75,195.32,75.33,195.42,75.91,195.79ZM35.23,198c.34-.19.7-.26.82-.47.51-.9,1-1.83,1.43-2.76.29-.57.41-1.27-.25-1.51s-1.6-.37-2,0a3.33,3.33,0,0,0-.93,4C34.44,197.57,34.93,197.76,35.23,198ZM70,188.55c-.31.5-.68.83-.66,1.13a3.76,3.76,0,0,0,.53,1.63A2,2,0,0,0,72,192.47a1.13,1.13,0,0,0,.71-.45c.53-1-.15-1.67-.8-2.24A14.31,14.31,0,0,0,70,188.55Z"/><path class="cls-11" d="M35.22,107.68a4,4,0,0,1,4.36,3.6,4.18,4.18,0,0,1-3.28,4.64c-2.15.32-5.2-1.84-5.2-3.91C31.1,109.68,31.91,108.11,35.22,107.68Z"/><path class="cls-11" d="M55.84,106.75c-.13-1.7-.31-3.14,1.33-4.12a3.57,3.57,0,0,1,4.17.18,3.32,3.32,0,0,1,1.5,3.87,10,10,0,0,1-.73,2.11,3.11,3.11,0,0,1-3.36,1.67A3.15,3.15,0,0,1,56,107.88C55.92,107.44,55.87,107,55.84,106.75Z"/><path class="cls-11" d="M57,123.4a2.84,2.84,0,0,1,0,.88,7.61,7.61,0,0,1-7.72,4.9,25.72,25.72,0,0,1-4.37-1,3.93,3.93,0,0,1-1.64-1.43c-.17-.22,0-.83.22-1.18a.83.83,0,0,1,.75-.33c.68.29,1.29.76,2,1,4.29,1.8,6.06,1.21,8.41-2.33.25-.37.34-.9.67-1.14a1.68,1.68,0,0,1,1.21-.12C56.73,122.74,56.86,123.15,57,123.4Z"/><path class="cls-11" d="M62.62,98c-.22.37-.31.72-.52.83a1.06,1.06,0,0,1-.83-.06c-2.23-1.09-4.29-1.1-6.18.73a1.45,1.45,0,0,1-1.12,0c-.13-.51-.31-1.21-.06-1.59a4,4,0,0,1,3.78-2A20.49,20.49,0,0,1,62,97.05C62.28,97.15,62.43,97.71,62.62,98Z"/><path class="cls-11" d="M37.39,104.27c-.35.36-.7.95-.9.9-3.18-.8-5.17.85-6.9,3.17-.14.19-.78.11-1.12,0a.86.86,0,0,1-.35-.77c1-3.18,5.13-5.32,8.49-4.36C36.92,103.28,37.09,103.83,37.39,104.27Z"/><path class="cls-11" d="M51.78,119.47a2.89,2.89,0,0,1-.6-.92,13.63,13.63,0,0,0-.44-2.51c-.36-.77-1.48-1.46-.34-2.22a2.54,2.54,0,0,1,3.41,1.26,4.18,4.18,0,0,1-.83,3.84C52.81,119.11,52.46,119.16,51.78,119.47Z"/><path class="cls-1" d="M140.6,93.91c1.89-.94,3.77-1.91,5.68-2.8,1.25-.58,2.1-.44,2.78.64,4.24,6.74,7.08,13.79,4.38,21.93-.43,1.29-.73,2.63-1.2,3.91-4.14,11.4-16.67,17.07-25.68,15.55-.9-.15-1.81-.18-2.72-.25-7.83-.59-13.2-4.94-17.1-11.36a57,57,0,0,1-3.07-6.59,4.46,4.46,0,0,1,.48-4.76c2.3-2.77,3.29-6.14,4.71-9.3a5.12,5.12,0,0,1,3.07-3.08c1.42-.51,2.79-1.17,4.19-1.77,2.93-1.29,2.92-1.19,6.76-.69a38.45,38.45,0,0,0,6.34.2c2.43-.08,4.85-.32,7.27-.6,1.5-.17,1.83.48,1.7,1.8,0,.24.6.79.89.76a27.52,27.52,0,0,0,4.42-.71c.38-.1.66-.89.78-1.42,0-.18-.56-.66-.91-.72a23.9,23.9,0,0,0-2.7-.15C140.65,94.3,140.62,94.1,140.6,93.91Zm-3,26.83c-2.66.5-5,.93-7.41,1.41-.83.16-2.09-.08-2.14,1.13a4.08,4.08,0,0,0,.94,2.43c2.7,3.44,7.26,3.21,9.53-.44a9.14,9.14,0,0,0,.95-2.06C140,121.61,139,120.6,137.6,120.75Zm-21.34-16.38c-1.78.28-2.85,2.3-2.49,4.72a3.51,3.51,0,0,0,3.95,2.93,4.26,4.26,0,0,0,3.08-4A4.43,4.43,0,0,0,116.26,104.37Zm30.07-1.56c-.09-1.8-1.87-3.64-3.47-3.59s-2.79,1.64-2.82,3.56a5.12,5.12,0,0,0,.42,2.18,2.46,2.46,0,0,0,2.15,1.46A3.45,3.45,0,0,0,146.33,102.81ZM133.91,114a2.67,2.67,0,0,0,0,.86c.1.25.36.59.56.6.41,0,1.06-.05,1.18-.3a13.08,13.08,0,0,0,1-2.85,1.3,1.3,0,0,0-.47-1.15,42.87,42.87,0,0,0-4.19-1.37c-.16,0-.59.3-.63.51a1.74,1.74,0,0,0,.15,1.21,2.32,2.32,0,0,0,1.16.57C133.76,112.39,134.41,112.85,133.91,114Zm-16.49-13.58c-.32-.44-.5-1-.82-1.08a4.39,4.39,0,0,0-5.29,2.36,1.56,1.56,0,0,0,0,1.28c.4.66,1.07.45,1.54,0a6,6,0,0,1,3.61-1.71C116.74,101.32,117,100.81,117.42,100.45Z"/><path class="cls-4" d="M145.37,152.22c.27,3.18.6,6.35.8,9.53.11,1.67-.19,2.11-1.92,2.55-3.08.78-6.18,1.53-9.32,2-3.89.62-7.82,1-11.74,1.42-1.43.15-1.89-.36-2-1.76-.21-1.93,0-3.55,2.05-4.55a10.7,10.7,0,0,0,2.74-2.37c1.94-2,1.93-2,4.93-3.26a3.66,3.66,0,0,0,1.65-1.43,18.41,18.41,0,0,0,2.11-8.31c.12-2-1.16-3.4-2.79-4.4a3.48,3.48,0,0,1-1.94-2.87c-.11-1.89-.42-2.85,2.47-3.29a58.15,58.15,0,0,0,7.44-2,1.59,1.59,0,0,1,2.16,1c1.78,3.44,2.38,7.18,2.84,10.95.28,2.26.41,4.53.6,6.8Z"/><path class="cls-3" d="M146.05,166.91a1.73,1.73,0,0,1,2.48,1.11,38.91,38.91,0,0,1,1.55,3.77c3,9.39,3.69,7.57-5.11,10-.58.16-1.13.42-1.7.62a2.12,2.12,0,0,1-2.72-1q-2.38-3.58-4.78-7.15c-.65-1-1.55-1-2.12,0-2,3.41-3.85,6.86-5.77,10.29-1.21,2.16-1.67,2.5-3.94,2-7.24-1.61-6.56-.84-5-7.36.58-2.34,1.35-4.64,2-7a3,3,0,0,1,2.59-2.21l1.34-.22Z"/><path class="cls-2" d="M142,84.35a23.3,23.3,0,0,1-2.72,1.21c-3.65,1.06-7.35,1.91-10.95,3.1-3.3,1.1-6.51,2.5-9.73,3.84-2.24.93-4.38,2.09-6.63,3-3.12,1.21-6.21,2.43-8.83,4.61-.36.3-1,.23-1.56.33a4.43,4.43,0,0,1-.21-1.72,33.84,33.84,0,0,1,2.1-6,22.15,22.15,0,0,1,14.85-11.77,50.49,50.49,0,0,1,12.14-1.69C134.94,79.21,138.51,81.15,142,84.35Z"/><path class="cls-4" d="M110.63,150.84c-.81-5.16,1.13-9.26,4.74-12.68a11.58,11.58,0,0,1,2.57-1.81,1.21,1.21,0,0,1,1.86.6q1.44,3.57,2.88,7.14a1.48,1.48,0,0,1,.18.86c-1,3,.39,5.58,1.47,8.22a9.22,9.22,0,0,1,.56,1.72,2.73,2.73,0,0,1-.05,1.32,6.49,6.49,0,0,1-9.72,3.1A11.72,11.72,0,0,1,110.63,150.84Z"/><path class="cls-5" d="M117.08,163.19c-1.91,2-3.83,1.88-6,.25a13.92,13.92,0,0,1-5.8-8.88c-.78-4.36-1.33-8.71-.63-13.09a31,31,0,0,1,1.7-5.62,8.35,8.35,0,0,1,1.45-2.29c2.4-2.95,4.35-3.17,7.35-.89,1,.74,1.08,1.33.3,2.24a26.48,26.48,0,0,1-2.13,2.36c-4.16,3.86-5.2,9-4.8,14.16.39,5,2.51,9.36,7.8,11.24A3.45,3.45,0,0,1,117.08,163.19Z"/><path class="cls-2" d="M131.55,93.39c-1.05.09-2.11.23-3.16.26-2.36.07-3.77-.4-3.44-1.09.62-1.33,2-1.21,3.13-1.5,4.54-1.17,9.12-2.18,13.65-3.39,2.92-.78,5.76-1.81,8.65-2.7a2.41,2.41,0,0,1,.86.08c-.1.37-.08,1-.31,1.07-3.08,1.61-6.16,3.22-9.3,4.71A25.92,25.92,0,0,1,131.55,93.39Z"/><path class="cls-1" d="M129.15,143.87c2.17-.4,3.74,1.07,3.48,3.46a27.56,27.56,0,0,1-1.2,4.77c-.52,1.76-3.94,2.21-4.73.34a11.84,11.84,0,0,0-1.15-1.92A4.18,4.18,0,0,1,129.15,143.87Z"/><path class="cls-1" d="M147,145.71a5.19,5.19,0,0,1-.07-.9c.08-.86-.13-2.07.35-2.5.88-.78,2,0,2.9.48,2,1.15,2.65,3,2.2,5.42a3.09,3.09,0,0,1-2.68,2.64,1.62,1.62,0,0,1-2.11-1.16c-.31-1.31-.47-2.65-.69-4Z"/><path class="cls-9" d="M155,193.1a9,9,0,0,1,1.79-.13,9.68,9.68,0,0,1,1.56.51,5.64,5.64,0,0,1-.85,1.91,6.43,6.43,0,0,1-2.32,1.37,29.69,29.69,0,0,1-4.8,1.29,2.85,2.85,0,0,1-1.94-.77c-.59-.5-.28-1.69.6-2.33a7.66,7.66,0,0,1,2.37-1.24A31.24,31.24,0,0,1,155,193.1Z"/><path class="cls-1" d="M122.79,189.6c-.78,1.9-1.6,4-2.52,6-.11.24-.8.37-1.19.32-2.14-.29-2.79-1.34-2.12-3.41a35.56,35.56,0,0,1,1.3-3.36c.73-1.67,2.55-1.4,3.87-.58C122.35,188.75,122.45,189.08,122.79,189.6Z"/><path class="cls-1" d="M146.77,183.42c.75.37,1.58.52,1.94,1a22.93,22.93,0,0,1,2.28,3.84c.4.85,1.44,1.89.22,2.78s-3.69.43-4.24-1a29.49,29.49,0,0,1-1.35-5.17C145.56,184.53,146.27,184,146.77,183.42Z"/><path class="cls-9" d="M118.93,203.1a12.8,12.8,0,0,1-2.48-.36,2.43,2.43,0,0,1-1-4c.27-.32.72-.74,1.07-.72a6.21,6.21,0,0,1,5,2.44,1.49,1.49,0,0,1-.71,2.19C120.25,202.83,119.67,202.93,118.93,203.1Z"/><path class="cls-5" d="M127.43,138.81c.11,1.63-.35,2.61-1.39,2.76a2.4,2.4,0,0,1-2.52-1.53,12.07,12.07,0,0,1-1-2.95c-.2-.86.29-1.43,1.19-1.55a6.93,6.93,0,0,1,1.35,0c1.58.13,2.07.61,2.29,2.23C127.38,138,127.39,138.34,127.43,138.81Z"/><path class="cls-1" d="M103.26,120.11c-.66.33-1.16.82-1.57.76-3.3-.55-4.63-3.26-2.11-6.72a1.28,1.28,0,0,1,1.12,0C101.56,116,102.34,117.94,103.26,120.11Z"/><path class="cls-5" d="M147.86,136.28a7.7,7.7,0,0,1-.3,2,1.89,1.89,0,0,1-1,.75.84.84,0,0,1-.75-.35c-.75-2-1.52-3.93-2.12-5.94a1.3,1.3,0,0,1,1.16-1.62,1.71,1.71,0,0,1,1.45.68C147,133.4,147.48,135.12,147.86,136.28Z"/><path class="cls-8" d="M102.33,105.64a6.37,6.37,0,0,1,.3-1.79c.59-1.39,2.6-2.62,3-2,.68,1.08-.19,2-.43,2.92a6.2,6.2,0,0,1-1,2,1.53,1.53,0,0,1-1.06.63c-.23,0-.46-.59-.67-.94A3.69,3.69,0,0,1,102.33,105.64Z"/><path class="cls-5" d="M135.34,123.25c.36.16.83.26.84.39,0,.4,0,1-.21,1.19a6.94,6.94,0,0,1-2.37,1,2.35,2.35,0,0,1-1.54-.6c-.42-.31.25-1.15,1.22-1.45C134,123.6,134.71,123.42,135.34,123.25Z"/><path class="cls-10" d="M120.12,115.72a3.84,3.84,0,0,0-5.35.46,3.77,3.77,0,0,0-.86,2.74,3.79,3.79,0,0,0,6.4,3.88,10,10,0,0,0,1-1.5,5.3,5.3,0,0,0,.56-2.61A4,4,0,0,0,120.12,115.72Z"/><path class="cls-10" d="M151.39,111.49a3.81,3.81,0,0,0-4.11-3.46,22.77,22.77,0,0,0-2.53.77l.54-.12a3.78,3.78,0,0,0,1,7.49,23.12,23.12,0,0,0,2.53-.77l-.54.12A3.81,3.81,0,0,0,151.39,111.49Z"/><path class="cls-11" d="M151.54,183.32c.7,1.87,1.41,3.84,2.19,5.79a2.2,2.2,0,0,0,2.2,1.31,33.27,33.27,0,0,1,3.62.14,1.79,1.79,0,0,1,1.57,1.92,5.36,5.36,0,0,1-3,5.21,22.7,22.7,0,0,1-8.22,2.54c-2.27.25-4.23-1.14-3.94-3.34.5-3.78-1.87-6.65-2.41-10.06a1.51,1.51,0,0,0-2-1.35c-1.27.23-1.93-.44-2.5-1.46-1-1.72-2-3.4-3.08-5-.95-1.44-1.75-1.43-2.68.17-1.52,2.62-2.95,5.3-4.3,8-.57,1.13-1,2.1-2.49,2.34a2.88,2.88,0,0,0-1.62,1.35,31.61,31.61,0,0,0-1.51,3.31c-.71,1.59-1.07,3.08.23,4.65a4.89,4.89,0,0,1,.79,2.53,2.91,2.91,0,0,1-1.6,3,9,9,0,0,1-7.48.42,5,5,0,0,1-2.49-6.54c.81-2.11,1.62-4.23,2.34-6.37.62-1.84,1.4-3.64.59-5.72-.29-.73.14-1.78.35-2.66.81-3.39,1.6-6.8,2.53-10.16a9.23,9.23,0,0,0,.3-4c-.31-1.95-.26-2.09-2.22-2a10.21,10.21,0,0,1-7.23-2.17c-2.63-2.14-5.07-4.44-5.86-7.9a42.69,42.69,0,0,1-.93-16.27,17.7,17.7,0,0,1,5.43-10.74c1.36-1.25,1.3-1.62.07-3-.71-.79-1.51-1.51-2.16-2.34a3.38,3.38,0,0,0-3.09-1.5,9.27,9.27,0,0,1-3.12-.46,4.91,4.91,0,0,1-3.68-5.5c.32-2.36.65-4.49,2.84-5.87a3,3,0,0,0,1.24-3.19,17.24,17.24,0,0,0-.38-2.7c-1.82-6,.07-11.28,3-16.47,2.79-4.94,7.38-7.48,12.17-9.87a1.51,1.51,0,0,1,.41-.2c5.52-.78,10.81-2.78,16.59-2.22,4.66.46,8.22,2.91,12,5.13a4.68,4.68,0,0,1,1,.9,2.58,2.58,0,0,0,3.26.61c2.38-1,4.85-1.75,7.3-2.53a1.45,1.45,0,0,1,1.24.34,1.47,1.47,0,0,1,.25,1.24,6,6,0,0,1-1.06,2,30.32,30.32,0,0,1-2.29,2.21c-3.43,3.27-3.25,2.06-1.15,6.8.49,1.11,1,2.19,1.62,3.25,2.7,4.92,3,10.17,1.84,15.49-1.17,5.55-3.27,10.74-7.28,14.94a2.44,2.44,0,0,0-.48,2.91,18.25,18.25,0,0,1,1.55,4.72c.32,2.91.66,5.54,3.28,7.58,2.14,1.66,2,6.83-.2,9.26-.82.9-2.39,1.16-3.66,1.6A1.55,1.55,0,0,0,148,155a26.78,26.78,0,0,0,1.81,10.69c1.73,4,3.15,8.21,4.63,12.35.94,2.62.73,2.95-2,4.5A6.83,6.83,0,0,0,151.54,183.32ZM140.6,93.91c0,.19,0,.38.07.58a23.9,23.9,0,0,1,2.7.15c.35.06.95.54.91.72-.12.52-.4,1.32-.78,1.42a27.52,27.52,0,0,1-4.42.71c-.29,0-.91-.52-.89-.76.13-1.33-.2-2-1.7-1.8-2.41.28-4.84.51-7.27.6a38.45,38.45,0,0,1-6.34-.2c-3.84-.51-3.83-.6-6.76.69-1.39.6-2.76,1.27-4.19,1.77a5.12,5.12,0,0,0-3.07,3.08c-1.42,3.16-2.42,6.53-4.71,9.3a4.46,4.46,0,0,0-.48,4.76,57,57,0,0,0,3.07,6.59c3.9,6.42,9.28,10.77,17.1,11.36.91.07,1.82.09,2.72.25,9,1.52,21.54-4.15,25.68-15.55.46-1.28.77-2.62,1.2-3.91,2.7-8.14-.13-15.19-4.38-21.93-.68-1.08-1.53-1.22-2.78-.64C144.37,92,142.49,93,140.6,93.91Zm4.77,58.31h0c-.2-2.27-.32-4.55-.6-6.8-.46-3.77-1.06-7.51-2.84-10.95a1.59,1.59,0,0,0-2.16-1,58.15,58.15,0,0,1-7.44,2c-2.9.44-2.59,1.4-2.47,3.29a3.48,3.48,0,0,0,1.94,2.87c1.63,1,2.91,2.43,2.79,4.4a18.41,18.41,0,0,1-2.11,8.31,3.66,3.66,0,0,1-1.65,1.43c-3,1.23-3,1.22-4.93,3.26a10.7,10.7,0,0,1-2.74,2.37c-2,1-2.26,2.62-2.05,4.55.15,1.39.61,1.91,2,1.76,3.92-.41,7.85-.8,11.74-1.42,3.14-.49,6.24-1.24,9.32-2,1.73-.44,2-.88,1.92-2.55C146,158.57,145.65,155.39,145.37,152.22Zm.68,14.7L125,169.83l-1.34.22a3,3,0,0,0-2.59,2.21c-.68,2.32-1.46,4.61-2,7-1.6,6.51-2.29,5.74,5,7.36,2.27.51,2.73.16,3.94-2,1.92-3.43,3.82-6.88,5.77-10.29.57-1,1.46-.95,2.12,0q2.4,3.57,4.78,7.15a2.12,2.12,0,0,0,2.72,1c.57-.21,1.12-.46,1.7-.62,8.8-2.45,8.12-.63,5.11-10a38.91,38.91,0,0,0-1.55-3.77A1.73,1.73,0,0,0,146.05,166.91ZM142,84.35c-3.46-3.21-7-5.14-11.55-5.13a50.49,50.49,0,0,0-12.14,1.69,22.15,22.15,0,0,0-14.85,11.77,33.84,33.84,0,0,0-2.1,6,4.43,4.43,0,0,0,.21,1.72c.53-.1,1.2,0,1.56-.33,2.62-2.18,5.71-3.4,8.83-4.61,2.25-.88,4.4-2,6.63-3,3.22-1.34,6.43-2.74,9.73-3.84,3.6-1.19,7.3-2,10.95-3.1A23.3,23.3,0,0,0,142,84.35Zm-31.34,66.49a11.72,11.72,0,0,0,4.5,8.47,6.49,6.49,0,0,0,9.72-3.1,2.73,2.73,0,0,0,.05-1.32,9.22,9.22,0,0,0-.56-1.72c-1.08-2.63-2.45-5.2-1.47-8.22a1.48,1.48,0,0,0-.18-.86q-1.43-3.58-2.88-7.14a1.21,1.21,0,0,0-1.86-.6,11.58,11.58,0,0,0-2.57,1.81C111.76,141.58,109.82,145.68,110.63,150.84Zm6.45,12.35a3.39,3.39,0,0,0-.73-.51c-5.29-1.88-7.42-6.25-7.8-11.24-.4-5.21.64-10.3,4.8-14.16a26.48,26.48,0,0,0,2.13-2.36c.78-.92.68-1.5-.3-2.24-3-2.27-4.95-2.05-7.35.89a8.35,8.35,0,0,0-1.45,2.29,31,31,0,0,0-1.7,5.62c-.7,4.38-.15,8.73.63,13.09a13.92,13.92,0,0,0,5.8,8.88C113.25,165.07,115.17,165.18,117.08,163.19Zm14.46-69.8a25.92,25.92,0,0,0,10.08-2.55c3.14-1.5,6.22-3.1,9.3-4.71.23-.12.21-.7.31-1.07a2.41,2.41,0,0,0-.86-.08c-2.89.89-5.74,1.92-8.65,2.7-4.53,1.21-9.11,2.22-13.65,3.39-1.12.29-2.5.16-3.13,1.5-.32.69,1.08,1.16,3.44,1.09C129.44,93.62,130.49,93.48,131.55,93.39Zm-2.4,50.48a4.18,4.18,0,0,0-3.6,6.64,11.84,11.84,0,0,1,1.15,1.92c.79,1.86,4.21,1.42,4.73-.34a27.56,27.56,0,0,0,1.2-4.77C132.89,144.94,131.32,143.47,129.15,143.87ZM147,145.71l-.1,0c.22,1.33.38,2.67.69,4a1.62,1.62,0,0,0,2.11,1.16,3.09,3.09,0,0,0,2.68-2.64c.45-2.4-.21-4.27-2.2-5.42-.88-.51-2-1.26-2.9-.48-.48.43-.28,1.64-.35,2.5A5.19,5.19,0,0,0,147,145.71Zm8,47.39a31.24,31.24,0,0,0-3.59.6,7.66,7.66,0,0,0-2.37,1.24c-.89.64-1.2,1.83-.6,2.33a2.85,2.85,0,0,0,1.94.77,29.69,29.69,0,0,0,4.8-1.29,6.43,6.43,0,0,0,2.32-1.37,5.64,5.64,0,0,0,.85-1.91,9.68,9.68,0,0,0-1.56-.51A9,9,0,0,0,155,193.1Zm-32.2-3.5c-.34-.52-.44-.85-.66-1-1.32-.82-3.13-1.09-3.87.58a35.56,35.56,0,0,0-1.3,3.36c-.67,2.07,0,3.11,2.12,3.41.39.05,1.08-.08,1.19-.32C121.19,193.6,122,191.5,122.79,189.6Zm24-6.18c-.51.62-1.21,1.11-1.15,1.45A29.49,29.49,0,0,0,147,190c.55,1.43,2.91,2,4.24,1s.19-1.93-.22-2.78a22.93,22.93,0,0,0-2.28-3.84C148.35,183.94,147.52,183.79,146.77,183.42ZM118.93,203.1c.73-.17,1.32-.28,1.89-.44a1.49,1.49,0,0,0,.71-2.19,6.21,6.21,0,0,0-5-2.44c-.35,0-.8.4-1.07.72a2.43,2.43,0,0,0,1,4A12.8,12.8,0,0,0,118.93,203.1Zm8.5-64.29c0-.46-.05-.77-.09-1.07-.22-1.62-.71-2.11-2.29-2.23a6.93,6.93,0,0,0-1.35,0c-.9.11-1.39.68-1.19,1.55a12.07,12.07,0,0,0,1,2.95,2.4,2.4,0,0,0,2.52,1.53C127.08,141.42,127.54,140.44,127.43,138.81Zm-24.18-18.7c-.91-2.16-1.69-4.08-2.56-6a1.28,1.28,0,0,0-1.12,0c-2.51,3.45-1.19,6.17,2.11,6.72C102.09,120.93,102.59,120.44,103.26,120.11Zm44.6,16.17c-.38-1.16-.86-2.88-1.53-4.52a1.71,1.71,0,0,0-1.45-.68,1.3,1.3,0,0,0-1.16,1.62c.6,2,1.37,4,2.12,5.94a.84.84,0,0,0,.75.35,1.89,1.89,0,0,0,1-.75A7.7,7.7,0,0,0,147.86,136.28Zm-45.53-30.63a3.69,3.69,0,0,0,.13.81c.2.35.44.94.67.94a1.53,1.53,0,0,0,1.06-.63,6.2,6.2,0,0,0,1-2c.24-.95,1.11-1.84.43-2.92-.41-.65-2.42.58-3,2A6.37,6.37,0,0,0,102.33,105.64Z"/><path class="cls-11" d="M137.6,120.75c1.44-.15,2.36.87,1.86,2.46a9.14,9.14,0,0,1-.95,2.06c-2.26,3.65-6.83,3.88-9.53.44a4.08,4.08,0,0,1-.94-2.43c.05-1.21,1.31-1,2.14-1.13C132.56,121.68,134.94,121.25,137.6,120.75Zm-2.25,2.5c-.63.17-1.35.35-2.06.57-1,.3-1.63,1.13-1.22,1.45a2.35,2.35,0,0,0,1.54.6,6.94,6.94,0,0,0,2.37-1c.24-.15.25-.79.21-1.19C136.17,123.51,135.71,123.41,135.34,123.25Z"/><path class="cls-11" d="M116.26,104.37A4.43,4.43,0,0,1,120.8,108a4.26,4.26,0,0,1-3.08,4,3.51,3.51,0,0,1-3.95-2.93C113.41,106.67,114.47,104.64,116.26,104.37Z"/><path class="cls-11" d="M146.33,102.81a3.45,3.45,0,0,1-3.74,3.61,2.46,2.46,0,0,1-2.15-1.46,5.12,5.12,0,0,1-.42-2.18c0-1.92,1.36-3.52,2.82-3.56S146.24,101,146.33,102.81Z"/><path class="cls-11" d="M133.91,114c.5-1.18-.15-1.64-1.14-1.93a2.32,2.32,0,0,1-1.16-.57,1.74,1.74,0,0,1-.15-1.21c0-.21.47-.55.63-.51a42.87,42.87,0,0,1,4.19,1.37,1.3,1.3,0,0,1,.47,1.15,13.08,13.08,0,0,1-1,2.85c-.12.25-.78.31-1.18.3-.2,0-.46-.36-.56-.6A2.67,2.67,0,0,1,133.91,114Z"/><path class="cls-11" d="M117.42,100.45c-.39.36-.68.86-1,.89a6,6,0,0,0-3.61,1.71c-.46.42-1.13.63-1.54,0a1.56,1.56,0,0,1,0-1.28,4.39,4.39,0,0,1,5.29-2.36C116.92,99.47,117.1,100,117.42,100.45Z"/></g></g></svg>