<svg xmlns="http://www.w3.org/2000/svg" viewBox="0 0 334.37 181.37"><defs><style>.cls-1{fill:#fdebd1;}.cls-1,.cls-10,.cls-11,.cls-12,.cls-13,.cls-2,.cls-3,.cls-4,.cls-5,.cls-6,.cls-7,.cls-8{fill-rule:evenodd;}.cls-2{fill:#a9ce52;}.cls-3{fill:#888;}.cls-4{fill:#bd8a55;}.cls-5{fill:#98afd3;}.cls-6{fill:#fff;}.cls-7{fill:#ee835c;}.cls-8{fill:#54c2f0;}.cls-9{fill:#f7c6bd;}.cls-10{fill:#76491b;}.cls-11{fill:#ffe57a;}.cls-12{fill:#f09ba5;}.cls-13{fill:#f19a86;}</style></defs><title>footer_kid</title><g id="圖層_2" data-name="圖層 2"><g id="圖層_1-2" data-name="圖層 1"><path class="cls-1" d="M234.41,20.93a19.81,19.81,0,0,1,.59,2.22,20,20,0,0,0,2.08,6.11c1.45,3,2.11,6.36,3,9.61.64,2.4,1,4.86,1.6,7.28a25.75,25.75,0,0,1-.83,13.43,7,7,0,0,1-1.94,2.86c-4.52,4.25-9.41,7.9-15.7,9.16a21.82,21.82,0,0,0-3,.82c-4.11,1.46-8.34,1.27-12.58,1a13.26,13.26,0,0,1-8.31-3.58,87.83,87.83,0,0,1-7.39-7.5,27.09,27.09,0,0,1-3.31-5.66,57.67,57.67,0,0,1-5.91-24.52,5,5,0,0,1,2.11-4.11,59.11,59.11,0,0,1,11.88-8.22c1.57-.78,3.12-1.62,4.71-2.35,1-.46,1.62.15,1.44,1.32,0,.15-.07.28-.1.43-.19,1.09-1.15,2.41.17,3.17,1.13.66,2.18-.46,3.18-1,2.58-1.38,5.11-2.82,7.7-4.18.28-.15.82.08,1.16.27.14.08.15.55.08.8-.22.85-.57,1.67-.76,2.52-.29,1.34.79,2.23,2.15,1.76a19.36,19.36,0,0,0,2.4-1.06c1.32-.64,2.59-1.37,3.92-2,.92-.42,2-1.14,2.82-.92,1.27.34.39,1.76.59,2.69s.82,1.65,1.76,1.47,1.69-.44,2.53-.69Zm-7.19,21.82a3.82,3.82,0,0,0,4-4.14c-.07-2.18-2.23-4.33-4.22-4.25s-3.69,2.18-3.69,4.63C223.33,40.93,225.12,43.17,227.22,42.75Zm-30.67,5.6a6.87,6.87,0,0,0,1.34-.38c2.51-1.16,3-3.8,1.18-6.2a3.86,3.86,0,0,0-3.86-1.49c-1.43.19-1.76,1.37-2.22,2.43a4.3,4.3,0,0,0-.32,1.26A4.5,4.5,0,0,0,196.55,48.35Zm16.78,16.09,1.36-.26c3.61-.65,5.17-2.34,5.56-6.08a1.14,1.14,0,0,0-.63-.91,1.32,1.32,0,0,0-1,.49,4.73,4.73,0,0,0-.46,1.19c-1.43,3.35-4.29,4.31-7.33,2.43-.73-.45-1.35-1.09-2.07-1.57a.78.78,0,0,0-.76.16c-.2.32-.44.86-.3,1.11C208.93,63.22,211.07,64,213.33,64.44ZM228,25.77c-.4-.18-.8-.54-1.1-.46a27.37,27.37,0,0,0-8.19,3.84.62.62,0,0,0-.26.33c-.06.27-.19.66-.06.81s.76.71,1,.61q4.1-1.84,8.12-3.85C227.76,26.91,227.8,26.28,228,25.77Zm-33,8.67a2.44,2.44,0,0,0,.84-.09c.23-.11.54-.39.54-.6s-.15-1-.34-1q-3.58-.7-7.2-1.21a1.28,1.28,0,0,0-1,.61c-.4.75.3,1.06.8,1.16C190.73,33.72,192.85,34.06,195,34.43Zm17,13.12c-.46-.26-.8-.56-.9-.5a13.18,13.18,0,0,0-2,1.57c-2.13,2.17-2,3.06.49,4.66a6.77,6.77,0,0,0,2,.72c.47.12,1.08-.81.83-1.24a2.47,2.47,0,0,0-.81-.95c-1.24-.63-1.24-1.41-.52-2.45A14.86,14.86,0,0,0,211.93,47.55Z"/><path class="cls-2" d="M199.16,99.25c-1.93.11-3-.23-3.88-1.14s-.81-1.56.08-2.18a53.91,53.91,0,0,0,7.94-6.19c2.79-2.83,5.4-5.75,6.86-9.54.31-.81,1-1.5,1.26-2.31a3,3,0,0,1,2.6-2c3.73-.73,7.43-1.59,11.1-2.54a22.52,22.52,0,0,0,9.41-4.5c2-1.75,4-1.89,6.44-.71,6.89,3.39,12.64,8,15.85,15.11a102.93,102.93,0,0,1,3.91,11.62c.4,1.27,0,1.7-1.24,2.37-4.22,2.21-8.85,2.88-13.47,3.61-1,.16-2,.28-3,.44-2.85.43-3.22.19-4.53-2.2a5.63,5.63,0,0,1,.15-6.11,40.12,40.12,0,0,0,4.48-13.7,24.78,24.78,0,0,0,.15-4.37,1.13,1.13,0,0,0-.79-.8c-.3,0-.68.44-.87.78a3.87,3.87,0,0,0-.31,1.27c-.12.72-.19,1.45-.29,2.18a41.47,41.47,0,0,1-5.85,16.38c-1.3,2.1-2.33,4.38-4,6.24a1.76,1.76,0,0,1-1.53.3,6.36,6.36,0,0,1-1.85-1.13,2.09,2.09,0,0,1-.71-2.73c.67-1.46,1.36-2.92,2.12-4.34a43.51,43.51,0,0,0,5-17.6,5.73,5.73,0,0,0-.17-1.7.86.86,0,0,0-.64-.48c-.23,0-.65.2-.69.38a55.25,55.25,0,0,0-1.19,5.52,26.78,26.78,0,0,1-2.26,8.42,1,1,0,0,1-1.78.28c-2.27-2.28-4.52-4.57-6.8-6.84a19,19,0,0,0-2.32-2c-.44-.31-1.27-.66-1.54-.46-.66.48-.57,1.27,0,1.89a1.6,1.6,0,0,1,.24,2c-3.73,7-8.48,13-16,16.22A10.62,10.62,0,0,1,199.16,99.25Z"/><path class="cls-3" d="M170,150.33c-.65-6.57,1-12.42,5.62-17.3,1.91-2,3.62-4.22,5.58-6.18a19.5,19.5,0,0,1,11.65-5.63c2.32-.3,4.63-.66,7-1a15.45,15.45,0,0,1,2.19-.12,2.46,2.46,0,0,1,2.37,1.6,2.84,2.84,0,0,1-.63,3.22,2,2,0,0,1-1.53.58c-6.11-.76-11.11,2.13-16,5a17.17,17.17,0,0,0-4,4,30.23,30.23,0,0,0-6.54,13.24,17.6,17.6,0,0,0,.77,10.77c1.05,2.56,1.72,5.25,3.74,7.36,4,4.14,8.51,7,14.45,7.18a10.51,10.51,0,0,1,1.76,0c6.44,1.28,12.12-1,17.7-3.74a16.41,16.41,0,0,0,6.22-5.44c1.42-2,2.71-4.17,4-6.27A17.06,17.06,0,0,0,222.39,137c-2.27-2.37-4.9-4.12-7.34-6.17a25.06,25.06,0,0,0-2.9-2c-2.49-1.54-2.6-1.88-.8-4.44a1.67,1.67,0,0,1,1.9-.71,7,7,0,0,1,1.28.31c7.15,3.36,13,7.81,14.37,16.33.46,2.88,1.27,5.7,2,8.54a14.14,14.14,0,0,1-.18,7.37,44.61,44.61,0,0,1-7.17,14c-2,2.83-5.11,4.37-8.31,5.49-3.45,1.21-7,2.29-10.5,3.21a19.9,19.9,0,0,1-9.16-.09,46.74,46.74,0,0,1-14.12-5.9c-4.24-2.53-7.12-6.54-9.7-10.61-1.12-1.76-1.39-4.14-1.71-6.29A39.45,39.45,0,0,1,170,150.33Z"/><path class="cls-3" d="M287,168.54c-4,.32-7.65-1-11.26-2.78a38.32,38.32,0,0,1-9.79-6.52,21.88,21.88,0,0,1-5.22-23.81,27.38,27.38,0,0,0,1.13-2.85c1.73-6.57,6.77-10.4,11.78-14.22a8.23,8.23,0,0,1,3.56-1.61,30.85,30.85,0,0,1,10.41-.35,53.81,53.81,0,0,1,15,4.86,20.35,20.35,0,0,1,10.94,13.57,16.1,16.1,0,0,1,.26,6.08,65,65,0,0,1-5.25,16.68,7,7,0,0,1-2.8,3.29c-3.63,2.19-7.22,4.44-10.92,6.51C292.45,168.72,289.76,168.71,287,168.54Zm-1.84-46.71a30,30,0,0,0-3.49.26c-5.17,1-9.87,2.89-12.75,7.61-1.74,2.86-3.22,5.89-4.71,8.9a10.74,10.74,0,0,0-.34,9.33,22.33,22.33,0,0,1,1.15,3.3,11.46,11.46,0,0,0,4.45,6.32,22.37,22.37,0,0,1,2.41,1.89c2.81,2.88,6.53,3.76,10.22,4.62a15.1,15.1,0,0,0,5.63.37,20.73,20.73,0,0,0,11.36-5.28A45.33,45.33,0,0,0,307.4,149c2.15-3.8,3.22-8.06,1.81-12.21a23.07,23.07,0,0,0-4.95-8.14c-1.82-1.94-3.76-4.19-6.6-4.9C293.56,122.71,289.47,121.63,285.19,121.83Z"/><path class="cls-4" d="M240.6,31.18c-1.68-3.72-3.61-7-3.57-10.92,0-1.51-.9-2-2.38-1.59-.84.23-1.67.54-2.51.81-3.36,1.08-3.36,1.07-3.44-2.71,0-1.05-.69-1.51-1.78-1.06-2,.83-4,1.74-6,2.62l-3.62,1.59a19,19,0,0,1,.34-2.29c.32-1.11.73-2.19,1.07-3.22a2.48,2.48,0,0,0-3-.19l-7.89,3.86c-.62.3-1.23.64-2.27,1.18.12-1.74.24-3,.29-4.26.05-1.1-.69-1.58-1.74-1-5.83,3-12,5.59-17,10a15.65,15.65,0,0,1-2.51,1.78,7.31,7.31,0,0,1-2.34,1c-.54.09-.84-1.9-.38-3.21a13.54,13.54,0,0,1,3.78-5.31A40.92,40.92,0,0,1,197.09,11a84.14,84.14,0,0,1,16.92-6c2.85-.6,5.64-1.54,8.46-2.28a9.72,9.72,0,0,1,2.59-.43c1.95,0,4-1,5.82.6,0,1.91-1.52,3.06-2.27,4.6-.26.52-.54,1-.76,1.56s.43,1.22,1,1.17a15.55,15.55,0,0,0,1.72-.26c1-.21,2-.54,3-.68,4.6-.63,4.38,0,2.73,3.68-.12.27-.27.52-.37.8-.63,1.74,0,2.57,1.76,2.32a23.38,23.38,0,0,1,3.46-.42,1.54,1.54,0,0,1,1,1.1,13.73,13.73,0,0,1-.41,2.58c-.17,1,.33,1.55,1.36,1.84,3.5,1,3.47,1,1.5,4.13-.93,1.49-1.76,3-2.68,4.53A11.5,11.5,0,0,1,240.6,31.18Z"/><path class="cls-5" d="M259.36,112.54a5.79,5.79,0,0,1-4.85,4.73,25.38,25.38,0,0,0-7.34,2.81,24.43,24.43,0,0,0-4.3,3c-2.54,2.27-2.92,4.34-1.46,7.47,1.11,2.39,2.4,4.69,3.57,7,.71,1.44,1.39,2.9,2,4.39a1.8,1.8,0,0,1-.91,2.22c-1.7.9-2.82.56-4-1.06-1.45-2-3-4-4.5-5.94a33.6,33.6,0,0,1-4.72-8.38,8.49,8.49,0,0,1,.58-8c1.48-2.35,3-4.71,4.54-7a12.13,12.13,0,0,1,7.87-5.17c1.86-.36,3.72-.77,5.6-1a1.8,1.8,0,0,1,2.15,1.15C254.38,111.63,256.47,112.56,259.36,112.54Z"/><path class="cls-6" d="M177.4,154.87c.41-.42.8-1.2,1.32-1.3a63.14,63.14,0,0,1,6.91-1c3.19-.26,6.39-.36,9.59-.46a1.83,1.83,0,0,1,1.45.59,2,2,0,0,1-.22,1.58c-1,1.91-2.16,3.8-3.29,5.67-1.43,2.36-2.92,4.69-4.36,7.05-1,1.69-1.51,1.81-3.12.9-3.92-2.2-6.13-5.69-7.46-9.84C177.92,157.12,177.72,156.12,177.4,154.87Z"/><path class="cls-6" d="M207,148.38a8.06,8.06,0,0,1-1.75-.17c-.24-.06-.36-.66-.49-1a.54.54,0,0,1,.11-.41q4.6-6.14,9.22-12.27a1.47,1.47,0,0,1,2.27-.38,22.21,22.21,0,0,1,7.49,9c.78,1.79.34,2.74-1.69,3.11-4,.73-8.08,1.31-12.13,1.92C209.19,148.27,208.31,148.28,207,148.38Z"/><path class="cls-7" d="M267.58,103.67c0,3-.87,4.43-3.42,5.24A27,27,0,0,1,259,110c-2,.22-2.52-.23-3.32-2.06a7.62,7.62,0,0,0-.63-1.61,2.11,2.11,0,0,0-1.37-.86,22.77,22.77,0,0,0-4.33.41c-2.29.47-4.53,1.13-6.8,1.68-.9.22-1.78.13-2.19-.87a2.12,2.12,0,0,1,1-2.61,23,23,0,0,1,4.65-1.18,49.94,49.94,0,0,0,11.07-2.4c3.11-1.11,6,0,9,.21.42,0,1,.65,1.15,1.11A6.85,6.85,0,0,1,267.58,103.67Z"/><path class="cls-6" d="M197.63,171.27c-1.34-.16-3.66-.38-6-.74-1.06-.17-1.4-1-1-2a18.66,18.66,0,0,1,1.29-2.78q3.17-5.27,6.44-10.47a1,1,0,0,1,1.73.07,9.12,9.12,0,0,1,.54,1.2c1.26,3.58,2.53,7.16,3.76,10.75a10.68,10.68,0,0,1,.44,2.14,1.42,1.42,0,0,1-1.4,1.79C201.85,171.32,200.24,171.27,197.63,171.27Z"/><path class="cls-6" d="M179.12,151.33c-1.35.19-1.84-.28-1.7-1.67a24.33,24.33,0,0,1,3.7-10.13,1.24,1.24,0,0,1,1.88-.39q6.47,4.41,12.88,8.91c.31.22.69.94.61,1a2.68,2.68,0,0,1-1.34.89c-1.58.23-3.17.32-4.77.45Z"/><path class="cls-6" d="M225,149.47c0,.55,0,.85-.09,1.14a19.68,19.68,0,0,1-4.29,9,1.62,1.62,0,0,1-2.31.48l-2.24-1.39c-2.12-1.3-4.27-2.53-6.33-3.92a38,38,0,0,1-3.7-3c-.39-.35,0-1.28.5-1.39a1.88,1.88,0,0,1,.42-.11c4.72.11,9.25-1.32,13.9-1.75a12.42,12.42,0,0,1,3,0C224.36,148.61,224.73,149.22,225,149.47Z"/><path class="cls-6" d="M202,151.92c.91.54,1.51.89,2.09,1.25,2,1.22,4,2.38,5.9,3.68,2.28,1.54,4.53,3.12,6.68,4.83,1.48,1.17,1.42,2.26-.19,3.55a26.34,26.34,0,0,1-4.37,2.8c-1.27.66-2.77,1.56-4,1.37-1.58-.24-1.19-2.42-1.94-3.57-2.3-3.49-2.54-7.7-4.13-11.43A7.78,7.78,0,0,1,202,151.92Z"/><path class="cls-6" d="M198,144.23c0,1.33-.81,1.86-1.52,1.46-4.06-2.3-8.16-4.54-11.6-7.74-1.63-1.51-1.61-2.34,0-4a17.73,17.73,0,0,1,7.55-4.22,1.44,1.44,0,0,1,1.85.71,18.57,18.57,0,0,1,1.58,3.59c.76,3,1.34,6,2,9A7.82,7.82,0,0,1,198,144.23Z"/><path class="cls-8" d="M252.24,123.9c-1,.05-2,.16-3.05.14s-2.33.54-2.49-.8c-.06-.58,1.2-1.43,2-1.94a7,7,0,0,1,2.44-.91c5.29-1,10.59-1.86,16-1.43a1,1,0,0,1,.68.43.83.83,0,0,1-.1.75c-1.48,1.63-3.07,2.91-5.5,3-3.33.16-6.64.66-10,1C252.25,124.09,252.25,124,252.24,123.9Z"/><path class="cls-1" d="M228.84,105.36c0,.15,0,.29,0,.43-.29,2.59-1.95,4.49-3.9,4.47a5.38,5.38,0,0,1-5.18-4.39,3,3,0,0,1,1.95-3.08,17.45,17.45,0,0,1,3.75-1C227.14,101.58,229,103.58,228.84,105.36Z"/><path class="cls-6" d="M249.6,146.85a14.61,14.61,0,0,1-.9,2.67,14.37,14.37,0,0,1-6,5.49,3.93,3.93,0,0,1-1.69.3,1.79,1.79,0,0,1-1.69-2.42,10.33,10.33,0,0,1,5.52-5.88,13.63,13.63,0,0,1,3.35-.91C248.55,146,249,146.56,249.6,146.85Z"/><path class="cls-1" d="M194.14,101.64c-.31,3-3.95,5.32-6.58,4.41a3.68,3.68,0,0,1-2.14-4.66,6.42,6.42,0,0,1,3.7-3.53c.26-.11.66-.21.84-.09,1.29.91,2.58,1.84,3.8,2.84C194,100.85,194.06,101.39,194.14,101.64Z"/><path class="cls-2" d="M250.82,64.09a7,7,0,0,1-3,4.9,1.38,1.38,0,0,1-1.22.06c-2-1.08-4.08-2.2-6-3.42a1.53,1.53,0,0,1-.07-1.47,6.38,6.38,0,0,1,2.39-1.78,9.48,9.48,0,0,1,6.39.08C249.93,62.72,250.38,63.61,250.82,64.09Z"/><path class="cls-6" d="M208.24,124.3a37.13,37.13,0,0,1-.75,5.1c-1.63,5.45-3.4,10.85-5.16,16.26-.08.27-.63.38-1,.57-.12-.24-.38-.52-.34-.73,1.17-5.7,1.79-11.54,4-17C205.65,127.06,206.08,125.43,208.24,124.3Z"/><path class="cls-3" d="M251.62,158.42c-.54.35-1.06.94-1.66,1-2.41.39-4.85.65-7.29.87a1.33,1.33,0,0,1-1-.68,2.09,2.09,0,0,1,0-1.22,1.25,1.25,0,0,1,.48-.69c2.31-1.71,4.62-3.43,7-5.09a.86.86,0,0,1,1.4.43C250.93,154.75,251.22,156.46,251.62,158.42Z"/><path class="cls-8" d="M222.2,120.16a19.88,19.88,0,0,0,7.74-.85,1,1,0,0,1,1.15,1.28c-.44,1.44-1,2.71-2.83,2.77-2.61.1-5.2.42-7.8.47A5.16,5.16,0,0,1,218,123a22.76,22.76,0,0,1-2.37-1.73c.67-1.34,2-1,3-1.06S221,120.16,222.2,120.16Z"/><path class="cls-6" d="M196.17,128.62c1.65-1.12,3.28-1,4.85-1.07a1.46,1.46,0,0,1,1.34,1.85c-.69,2.82-1.47,5.62-2.23,8.42a.34.34,0,0,1-.29.18c-.27-.08-.68-.16-.74-.33C198.1,134.66,197.14,131.64,196.17,128.62Z"/><path class="cls-1" d="M241.87,36.52A1.63,1.63,0,0,1,244,35a3.71,3.71,0,0,1,2.93,4.24,7.07,7.07,0,0,1-.79,2.46,29.59,29.59,0,0,1-1.93,2.78c-1.32-.7-1.31-2.05-1.57-3.25-.3-1.42-.52-2.86-.77-4.29A2.53,2.53,0,0,1,241.87,36.52Z"/><path class="cls-8" d="M207.18,118.52a19.45,19.45,0,0,1,2.73-8.82,2.59,2.59,0,0,1,1-.79,1.29,1.29,0,0,1,1.68.87,2.94,2.94,0,0,1,0,.86q-1.34,4.61-2.71,9.2c0,.14-.08.33-.18.39a4.08,4.08,0,0,1-1.44.65c-.26,0-.71-.47-.83-.82A6.86,6.86,0,0,1,207.18,118.52Z"/><path class="cls-8" d="M200.72,101.68c.18,0,.61-.07,1-.08,1.73,0,2.4.27,2.43,1.12.09,2.1-.74,3.23-2.53,3.28a46.8,46.8,0,0,1-5.2-.1c-.35,0-.85-.76-.92-1.22a5,5,0,0,1,.4-1.67,1.64,1.64,0,0,1,1.91-1.35C198.72,101.71,199.59,101.68,200.72,101.68Z"/><path class="cls-8" d="M239.53,148.34c-.79.55-1.53,1.47-2,1.35a7.42,7.42,0,0,1-5.35-4c-.67-1.45-.52-3.26,0-3.14a7.24,7.24,0,0,1,2.25,1,39.7,39.7,0,0,1,3.9,2.7A7.53,7.53,0,0,1,239.53,148.34Z"/><path class="cls-8" d="M252.62,148.08c-1.3-2.2-1.22-3.9.27-5.48.19-.21.3-.51.51-.7,1-.9,1.44-3,3.19-2.2,1,.46.57,4.14-.46,5.21S254,146.85,252.62,148.08Z"/><path class="cls-6" d="M212.66,132.26c-1.81,2.49-3,5.47-6,7.66a20.56,20.56,0,0,1,1.38-6.77C209.13,129.52,209.29,129.49,212.66,132.26Z"/><path class="cls-8" d="M214.12,106.54a5.45,5.45,0,0,1-1.48-.35,1.2,1.2,0,0,1-.5-1,2.72,2.72,0,0,1,3.42-2.44c.91.13,1.63.55,1.66,1.64,0,1.26-.52,2.07-1.6,2.16C215.2,106.57,214.76,106.54,214.12,106.54Z"/><path class="cls-8" d="M207.92,102.51c1.07.12,1.9.8,1.85,1.51a2.18,2.18,0,0,1-2,1.95c-.9,0-1.48-.74-1.42-1.8S207,102.41,207.92,102.51Z"/><path class="cls-6" d="M291.33,161.15a5.91,5.91,0,0,1-.73-1.13,10.5,10.5,0,0,1-.52-2.1c-.62-4.73-1.22-9.46-1.89-14.73,1.09.57,1.68.87,2.26,1.19,2.28,1.28,4.57,2.53,6.82,3.85,1.62,1,3.2,2,4.75,3.05a1.18,1.18,0,0,1,.27,1.11C299.38,156.2,296.49,160.06,291.33,161.15Z"/><path class="cls-6" d="M285.64,145.33a14.22,14.22,0,0,1,1.56,5.84c.37,3.17.46,6.37.6,9.57.05,1.34-.43,1.73-1.87,1.72a21.54,21.54,0,0,1-9.6-2.52c-1.31-.66-1.53-1.56-.85-2.91a11.28,11.28,0,0,1,1.35-2.23C279.49,151.56,281.92,148.1,285.64,145.33Z"/><path class="cls-6" d="M272.79,157a9.45,9.45,0,0,1-5.25-5.47c-1.91-5.24-2.38-5.1,3.07-6.33,2.27-.51,4.51-1.19,6.79-1.64a34.89,34.89,0,0,1,4.77-.45,1.58,1.58,0,0,1,1,.54c.1.1-.08.52-.17.78a1.37,1.37,0,0,1-.27.34Z"/><path class="cls-6" d="M306.69,136.49c-4.49,1.26-8.81,2.49-13.14,3.65a9.3,9.3,0,0,1-2.59.27.87.87,0,0,1-.8-1.23,21.44,21.44,0,0,1,6.19-9.37c3.34-3.07,3.8-3,6.78.63A16.09,16.09,0,0,1,306.69,136.49Z"/><path class="cls-6" d="M284.15,140.31a8.68,8.68,0,0,1-1.53.64c-4.26.9-8.52,1.77-12.78,2.64-.71.15-1.43.27-2.15.36-2,.25-2.81-.6-2.07-2.52a90.52,90.52,0,0,1,3.88-8.25c.17-.33,1.19-.65,1.42-.47,3.95,3,8.65,4.67,12.95,7C284,139.82,284,140,284.15,140.31Z"/><path class="cls-6" d="M285,135.8c0,1.34-.53,1.74-1.44,1.44a29.65,29.65,0,0,1-11.33-6.37,1.18,1.18,0,0,1,0-1.89c2.71-2.22,5.48-4.37,9.19-4.61a1.84,1.84,0,0,1,2.24,1.54c.14.56.19,1.15.27,1.72.33,2.3.67,4.6,1,6.9C285,135.1,285,135.68,285,135.8Z"/><path class="cls-6" d="M292.94,142.57a67.76,67.76,0,0,1,13.12-2.93c.4-.06,1.3.53,1.29.78-.16,2.91-.25,5.89-2.24,8.29a1.68,1.68,0,0,1-1.47.5c-3.24-1.67-6.43-3.43-9.61-5.21C293.69,143.81,293.51,143.34,292.94,142.57Z"/><path class="cls-6" d="M296.38,125.85a20.76,20.76,0,0,1-2,3,25.16,25.16,0,0,0-5,7.14c-.22.48-.76.8-1.15,1.19-.35-.38-.94-.72-1-1.14-.53-3.59-1-7.18-1.39-10.79a1.12,1.12,0,0,1,1.41-1.24C290.19,124.62,293.32,124.33,296.38,125.85Z"/><path class="cls-9" d="M231.41,47.27h-3.66a3.66,3.66,0,0,0,0,7.33h3.66a3.66,3.66,0,0,0,0-7.33Z"/><path class="cls-9" d="M197.2,52.57a12.28,12.28,0,0,0-1.38.16l-.09,0a3.51,3.51,0,0,0-2.83.37,3.67,3.67,0,0,0-1.32,5,4.06,4.06,0,0,0,2.19,1.68,5.81,5.81,0,0,0,3.21.15h.21a3.66,3.66,0,0,0,0-7.33Z"/><path class="cls-10" d="M231.44,7.28c2.38-.11,4.39-.28,6.41-.29,1.53,0,2.11.83,1.76,2.28-.3,1.24-.65,2.48-1.07,4.05,1.31,0,2.29,0,3.27,0a2.32,2.32,0,0,1,2.58,2.34,7.05,7.05,0,0,1-.11,1.74,1.63,1.63,0,0,0,1.19,2,13.88,13.88,0,0,1,1.63.65c1.23.62,1.55,1.26,1,2.45-.72,1.59-1.61,3.11-2.43,4.66-.48.9-1,1.78-1.43,2.7a14.55,14.55,0,0,0-.59,1.9,5.94,5.94,0,0,0,.81.75c4.67,2.66,5.53,4.79,3.65,9.67a17.53,17.53,0,0,1-2.51,4.58,6.44,6.44,0,0,0-1.45,4c-.11,2.19-.5,4.36-.7,6.55s0,2.17,2,2.49a34.26,34.26,0,0,1,5.14,1.06,3.13,3.13,0,0,1,2.1,4.19A31.23,31.23,0,0,1,250.84,69l-.8,1.63c.67.69,1.32,1.28,1.86,2,3.87,4.81,7.44,9.77,9.13,15.86.74,2.68,1.83,5.25,2.73,7.89a2.82,2.82,0,0,0,2.56,2c2.88.47,3.22.91,3.37,3.56.11,1.9.2,3.78-.88,5.54-.94,1.55-1.89,2.94-3.84,3.31-2.12.39-3.1,2-3.93,3.79s-.63,2.12,1.12,2.15c1.32,0,2.63,0,4,0a17.42,17.42,0,0,0,9-1.59c3.25-1.66,6.87-1.46,10.35-1.06a47.29,47.29,0,0,1,20.25,6.77A21.23,21.23,0,0,1,316,138.72a27.53,27.53,0,0,1-1.61,8.59c-1.07,3.49-2.61,6.83-3.89,10.25a10.32,10.32,0,0,1-4.72,5.56c-3,1.74-6,3.65-9,5.45a12.31,12.31,0,0,1-7.57,1.8,17,17,0,0,0-1.76-.07c-11.93.22-20.43-5.93-27.38-14.85a14.72,14.72,0,0,1-1.61-3.57c-.44-1.08-.77-2.21-1.24-3.28a.88.88,0,0,0-1.42-.41c-.69.53-1.27,1.21-1.92,1.8a3.43,3.43,0,0,0-1.11,3.94,32.52,32.52,0,0,1,1,3.82c.48,2.26-.29,3.3-2.54,3.57s-4.35.58-6.53.85a24.74,24.74,0,0,1-3.05.28,2.06,2.06,0,0,1-2.38-2,3,3,0,0,1,0-.88c.24-1.71-1-2.5-1.91-3.66s-.73-2.71-1.23-4a2,2,0,0,0-1.43-.89c-.44-.06-1,.33-1.42.57-.08,0-.08.27-.09.42-.41,7.7-4.58,13.76-8.7,19.84a11.77,11.77,0,0,1-4.62,4,56.46,56.46,0,0,1-18.43,5.48,22.94,22.94,0,0,1-9-1.25,41.84,41.84,0,0,1-17.06-9.61c-4.58-4.4-7.83-9.43-7.41-16.19.15-2.46-.18-4.95-.2-7.43a20.71,20.71,0,0,1,3.56-11.56,44.41,44.41,0,0,1,10.11-11.48,25.43,25.43,0,0,1,13.33-5.1c1.89-.19,3.82-.88,5.63-.64,4,.53,5.09-1.73,5.59-4.9.24-1.52,1.6-2.81.94-4.52l-4.29-.24c-3.06-.18-6.12-.43-9.19-.51a21.64,21.64,0,0,0-3.46.49A6.05,6.05,0,0,1,185,107c-2.38-2-2.72-4.8-1-7.52,1.29-2.07,3.1-3.87,5.48-4s4.14-1.28,6-2.33a32.43,32.43,0,0,0,11.38-10.78,35.62,35.62,0,0,0,2.32-4.71c.44-1,0-1.6-1.12-1.86a6.48,6.48,0,0,0-1.29-.23c-3.61-.06-6.39-2-9-4.18-2-1.72-3.91-3.54-5.75-5.42a24.18,24.18,0,0,1-5.78-8.72c-1.41-4-2.7-8-4.1-12s-1-8.12-1.58-12.16c-.27-1.72-.48-3.47-.91-5.16a8.1,8.1,0,0,1,1.48-7.45,29.61,29.61,0,0,1,10.36-8.68c7-3.35,13.93-6.85,21.6-8.49,2.71-.58,5.33-1.62,8-2.2a73,73,0,0,1,7.38-1,7.57,7.57,0,0,1,2.18.21c2.42.46,3,1.42,2.17,3.68C232.45,5,232,6,231.44,7.28Zm3,13.66-3.94,1.17c-.84.24-1.67.52-2.53.69s-1.55-.41-1.76-1.47.68-2.35-.59-2.69c-.8-.22-1.9.5-2.82.92-1.33.6-2.6,1.33-3.92,2a19.36,19.36,0,0,1-2.4,1.06c-1.37.46-2.44-.43-2.15-1.76.19-.85.54-1.67.76-2.52.07-.26.06-.73-.08-.8-.34-.19-.88-.41-1.16-.27-2.59,1.35-5.12,2.8-7.7,4.18-1,.54-2.05,1.66-3.18,1-1.32-.76-.35-2.09-.17-3.17,0-.15.07-.28.1-.43.18-1.17-.44-1.78-1.44-1.32-1.59.73-3.14,1.56-4.71,2.35a59.11,59.11,0,0,0-11.88,8.22,5,5,0,0,0-2.11,4.11,57.67,57.67,0,0,0,5.91,24.52,27.09,27.09,0,0,0,3.31,5.66,87.83,87.83,0,0,0,7.39,7.5,13.26,13.26,0,0,0,8.31,3.58c4.24.28,8.47.47,12.58-1a21.82,21.82,0,0,1,3-.82c6.28-1.26,11.18-4.91,15.7-9.16a7,7,0,0,0,1.94-2.86,25.75,25.75,0,0,0,.83-13.43c-.57-2.42-1-4.88-1.6-7.28-.86-3.24-1.51-6.63-3-9.61A20,20,0,0,1,235,23.15,19.81,19.81,0,0,0,234.41,20.93ZM199.16,99.25a10.62,10.62,0,0,0,1.82-.53c7.53-3.23,12.28-9.23,16-16.22a1.6,1.6,0,0,0-.24-2c-.59-.62-.68-1.4,0-1.89.27-.2,1.11.15,1.54.46a19,19,0,0,1,2.32,2c2.29,2.26,4.54,4.56,6.8,6.84a1,1,0,0,0,1.78-.28,26.78,26.78,0,0,0,2.26-8.42,55.25,55.25,0,0,1,1.19-5.52c0-.18.46-.4.69-.38a.86.86,0,0,1,.64.48,5.73,5.73,0,0,1,.17,1.7,43.51,43.51,0,0,1-5,17.6c-.76,1.42-1.45,2.87-2.12,4.34a2.09,2.09,0,0,0,.71,2.73,6.36,6.36,0,0,0,1.85,1.13,1.76,1.76,0,0,0,1.53-.3c1.66-1.86,2.68-4.14,4-6.24A41.47,41.47,0,0,0,241,78.37c.1-.72.17-1.45.29-2.18a3.87,3.87,0,0,1,.31-1.27c.18-.34.56-.77.87-.78a1.13,1.13,0,0,1,.79.8,24.78,24.78,0,0,1-.15,4.37A40.12,40.12,0,0,1,238.59,93a5.63,5.63,0,0,0-.15,6.11c1.32,2.4,1.68,2.63,4.53,2.2,1-.15,2-.27,3-.44,4.62-.73,9.25-1.4,13.47-3.61,1.29-.67,1.65-1.1,1.24-2.37a102.93,102.93,0,0,0-3.91-11.62c-3.21-7.1-9-11.73-15.85-15.11-2.41-1.18-4.42-1-6.44.71a22.52,22.52,0,0,1-9.41,4.5c-3.68.95-7.38,1.8-11.1,2.54a3,3,0,0,0-2.6,2c-.31.81-.95,1.5-1.26,2.31-1.46,3.78-4.07,6.7-6.86,9.54a53.91,53.91,0,0,1-7.94,6.19c-.9.62-.83,1.42-.08,2.18S197.23,99.36,199.16,99.25ZM170,150.33A39.45,39.45,0,0,0,170,156c.32,2.15.59,4.53,1.71,6.29,2.58,4.07,5.45,8.07,9.7,10.61a46.74,46.74,0,0,0,14.12,5.9,19.9,19.9,0,0,0,9.16.09c3.54-.91,7-2,10.5-3.21,3.19-1.12,6.26-2.66,8.31-5.49a44.61,44.61,0,0,0,7.17-14,14.14,14.14,0,0,0,.18-7.37c-.71-2.83-1.52-5.66-2-8.54-1.35-8.52-7.22-13-14.37-16.33a7,7,0,0,0-1.28-.31,1.67,1.67,0,0,0-1.9.71c-1.8,2.56-1.68,2.9.8,4.44a25.06,25.06,0,0,1,2.9,2c2.44,2.05,5.07,3.8,7.34,6.17a17.06,17.06,0,0,1,1.83,20.71c-1.34,2.1-2.63,4.23-4,6.27a16.41,16.41,0,0,1-6.22,5.44c-5.57,2.76-11.26,5-17.7,3.74a10.51,10.51,0,0,0-1.76,0c-5.93-.14-10.47-3-14.45-7.18-2-2.1-2.69-4.8-3.74-7.36a17.6,17.6,0,0,1-.77-10.77,30.23,30.23,0,0,1,6.54-13.24,17.17,17.17,0,0,1,4-4c4.93-2.86,9.93-5.75,16-5a2,2,0,0,0,1.53-.58,2.84,2.84,0,0,0,.63-3.22,2.46,2.46,0,0,0-2.37-1.6,15.45,15.45,0,0,0-2.19.12c-2.32.3-4.63.66-7,1a19.5,19.5,0,0,0-11.65,5.63c-2,2-3.67,4.17-5.58,6.18C171,137.91,169.32,143.77,170,150.33ZM287,168.54c2.74.17,5.42.17,7.8-1.16,3.7-2.07,7.29-4.32,10.92-6.51a7,7,0,0,0,2.8-3.29,65,65,0,0,0,5.25-16.68,16.1,16.1,0,0,0-.26-6.08,20.35,20.35,0,0,0-10.94-13.57,53.81,53.81,0,0,0-15-4.86,30.85,30.85,0,0,0-10.41.35,8.23,8.23,0,0,0-3.56,1.61c-5,3.83-10,7.66-11.78,14.22a27.38,27.38,0,0,1-1.13,2.85A21.88,21.88,0,0,0,266,159.24a38.32,38.32,0,0,0,9.79,6.52C279.37,167.58,283,168.86,287,168.54ZM240.6,31.18a11.5,11.5,0,0,0,1.3-1.42c.93-1.49,1.75-3,2.68-4.53,2-3.14,2-3.16-1.5-4.13-1-.28-1.52-.79-1.36-1.84a13.73,13.73,0,0,0,.41-2.58,1.54,1.54,0,0,0-1-1.1,23.38,23.38,0,0,0-3.46.42c-1.76.26-2.39-.57-1.76-2.32.1-.27.25-.53.37-.8,1.65-3.63,1.87-4.31-2.73-3.68-1,.14-2,.47-3,.68a15.55,15.55,0,0,1-1.72.26c-.52,0-1.14-.71-1-1.17s.51-1,.76-1.56c.76-1.53,2.29-2.68,2.27-4.6-1.79-1.62-3.87-.57-5.82-.6a9.72,9.72,0,0,0-2.59.43c-2.83.74-5.61,1.68-8.46,2.28a84.14,84.14,0,0,0-16.92,6,40.92,40.92,0,0,0-11.46,7.24,13.54,13.54,0,0,0-3.78,5.31c-.46,1.31-.17,3.3.38,3.21a7.31,7.31,0,0,0,2.34-1A15.65,15.65,0,0,0,187.07,24c5-4.44,11.14-7,17-10,1-.55,1.79-.07,1.74,1-.05,1.26-.17,2.52-.29,4.26,1-.54,1.65-.88,2.27-1.18l7.89-3.86a2.48,2.48,0,0,1,3,.19c-.34,1-.75,2.11-1.07,3.22a19,19,0,0,0-.34,2.29l3.62-1.59c2-.88,4-1.79,6-2.62,1.1-.44,1.76,0,1.78,1.06.08,3.79.08,3.79,3.44,2.71.84-.27,1.66-.58,2.51-.81,1.48-.41,2.4.08,2.38,1.59C237,24.23,238.92,27.46,240.6,31.18Zm18.76,81.35c-2.9,0-5-.91-5.77-3.77a1.8,1.8,0,0,0-2.15-1.15c-1.88.28-3.73.68-5.6,1a12.13,12.13,0,0,0-7.87,5.17c-1.58,2.28-3.06,4.64-4.54,7a8.49,8.49,0,0,0-.58,8,33.6,33.6,0,0,0,4.72,8.38c1.51,2,3,3.93,4.5,5.94,1.17,1.62,2.29,2,4,1.06A1.8,1.8,0,0,0,247,142c-.62-1.48-1.29-2.95-2-4.39-1.17-2.36-2.46-4.66-3.57-7-1.46-3.13-1.08-5.2,1.46-7.47a24.43,24.43,0,0,1,4.3-3,25.38,25.38,0,0,1,7.34-2.81A5.79,5.79,0,0,0,259.36,112.54Zm-43.62,6v-.1c1.89-.15,3.78-.43,5.67-.42a43.28,43.28,0,0,0,8.63-1.1,9,9,0,0,0,6.79-4.73c1-1.77,1.73-3.24,1.14-5.25-.28-1-.12-2-.32-3a19.33,19.33,0,0,0-1-3.32,1.06,1.06,0,0,0-2-.26c-.52.7-.84,1.71-1.53,2.09-1.61.91-1.84,2.32-2.26,3.92-1.58,6-5.44,7.49-10.93,4.34-.51-.29-1-.67-1.44-1s-.77-.63-1.13-.6c-.66,0-1.74.2-1.89.59-1,2.57-1.79,5.2-2.55,7.84-.17.61.42,1,1.08,1S215.17,118.55,215.75,118.55Zm3.58-35.36c-.4.57-.75,1-1,1.52-2.92,4.94-6.21,9.56-10.89,13a6.24,6.24,0,0,0-.92.93A.83.83,0,0,0,207,100c2.12.65,12.2.95,14.32.42a9.25,9.25,0,0,0,1.68-.5,2,2,0,0,0,.92-.83c.95-2,1.9-3.91,2.68-5.94a3.17,3.17,0,0,0,0-2.49C224.62,87.83,222.74,84.83,219.33,83.19ZM177.4,154.87c.32,1.24.51,2.24.83,3.21,1.33,4.15,3.54,7.64,7.46,9.84,1.61.9,2.09.78,3.12-.9,1.44-2.36,2.93-4.69,4.36-7.05,1.13-1.87,2.24-3.75,3.29-5.67a2,2,0,0,0,.22-1.58,1.83,1.83,0,0,0-1.45-.59c-3.2.1-6.4.2-9.59.46a63.14,63.14,0,0,0-6.91,1C178.2,153.68,177.81,154.45,177.4,154.87ZM250.2,142a76.18,76.18,0,0,0,8.45-8.63,15.55,15.55,0,0,0,3.17-7.44,4,4,0,0,0-1-.32q-7.44.34-14.88.72a6.17,6.17,0,0,0-2.14.32,2.11,2.11,0,0,0-.87,1.32,2,2,0,0,0,.28,1.25q3.19,6.22,6.43,12.42C249.67,141.73,249.85,141.77,250.2,142ZM207,148.38c1.29-.1,2.17-.11,3-.24,4-.61,8.1-1.19,12.13-1.92,2-.37,2.48-1.32,1.69-3.11a22.21,22.21,0,0,0-7.49-9,1.47,1.47,0,0,0-2.27.38q-4.62,6.13-9.22,12.27a.54.54,0,0,0-.11.41c.13.37.25,1,.49,1A8.06,8.06,0,0,0,207,148.38Zm60.56-44.7a6.85,6.85,0,0,0-.29-1.83c-.19-.47-.73-1.09-1.15-1.11-3-.19-5.9-1.33-9-.21a49.94,49.94,0,0,1-11.07,2.4,23,23,0,0,0-4.65,1.18,2.12,2.12,0,0,0-1,2.61c.42,1,1.29,1.08,2.19.87,2.27-.55,4.51-1.21,6.8-1.68a22.77,22.77,0,0,1,4.33-.41,2.11,2.11,0,0,1,1.37.86,7.62,7.62,0,0,1,.63,1.61c.8,1.83,1.36,2.28,3.32,2.06a27,27,0,0,0,5.12-1.1C266.71,108.1,267.57,106.72,267.58,103.67Zm-69.95,67.59c2.61,0,4.22.06,5.83,0a1.42,1.42,0,0,0,1.4-1.79,10.68,10.68,0,0,0-.44-2.14c-1.23-3.59-2.5-7.17-3.76-10.75a9.12,9.12,0,0,0-.54-1.2,1,1,0,0,0-1.73-.07q-3.26,5.21-6.44,10.47a18.66,18.66,0,0,0-1.29,2.78c-.4,1-.06,1.81,1,2C194,170.89,196.29,171.11,197.63,171.27Zm-18.51-19.94,11.27-.93c1.59-.13,3.19-.21,4.77-.45a2.68,2.68,0,0,0,1.34-.89c.08-.08-.3-.8-.61-1q-6.42-4.49-12.88-8.91a1.24,1.24,0,0,0-1.88.39,24.33,24.33,0,0,0-3.7,10.13C177.28,151,177.77,151.51,179.12,151.33ZM225,149.47c-.29-.26-.65-.86-1.1-.94a12.42,12.42,0,0,0-3,0c-4.65.43-9.17,1.86-13.9,1.75a1.88,1.88,0,0,0-.42.11c-.51.11-.89,1-.5,1.39a38,38,0,0,0,3.7,3c2.05,1.39,4.21,2.62,6.33,3.92l2.24,1.39a1.62,1.62,0,0,0,2.31-.48,19.68,19.68,0,0,0,4.29-9C225,150.33,225,150,225,149.47Zm-23,2.44a7.78,7.78,0,0,0,0,2.47c1.59,3.73,1.83,7.94,4.13,11.43.76,1.15.37,3.33,1.94,3.57,1.24.19,2.75-.71,4-1.37a26.34,26.34,0,0,0,4.37-2.8c1.61-1.29,1.67-2.38.19-3.55-2.15-1.7-4.41-3.29-6.68-4.83-1.92-1.3-3.93-2.46-5.9-3.68C203.54,152.81,202.94,152.46,202,151.92Zm-4-7.68a7.82,7.82,0,0,0-.13-1.24c-.63-3-1.22-6-2-9a18.57,18.57,0,0,0-1.58-3.59,1.44,1.44,0,0,0-1.85-.71,17.73,17.73,0,0,0-7.55,4.22c-1.65,1.65-1.66,2.47,0,4,3.45,3.21,7.55,5.45,11.6,7.74C197.21,146.09,198,145.57,198,144.23Zm54.21-20.33c0,.1,0,.2,0,.29,3.32-.35,6.63-.85,10-1,2.43-.12,4-1.4,5.5-3a.83.83,0,0,0,.1-.75,1,1,0,0,0-.68-.43c-5.41-.44-10.72.44-16,1.43a7,7,0,0,0-2.44.91c-.8.51-2.07,1.37-2,1.94.15,1.34,1.56.78,2.49.8S251.22,124,252.24,123.9Zm-25.87,2.19a11.71,11.71,0,0,0-1.9.19,1.09,1.09,0,0,0-.47,1,3.59,3.59,0,0,0,1,1.37,16.2,16.2,0,0,1,5.08,7.48c1.16,3.19,3.75,5.11,6.78,6.45a1.36,1.36,0,0,0,1.17,0,1.19,1.19,0,0,0,0-1.13c-.77-1.23-1.7-2.37-2.47-3.61-1.31-2.1-2.62-4.2-3.78-6.38a23,23,0,0,1-1.55-4.07,1.53,1.53,0,0,0-1.92-1.26A18.55,18.55,0,0,1,226.37,126.09Zm2.47-20.74c.13-1.78-1.7-3.78-3.42-3.55a17.45,17.45,0,0,0-3.75,1,3,3,0,0,0-1.95,3.08,5.38,5.38,0,0,0,5.18,4.39c1.95,0,3.61-1.88,3.9-4.47C228.82,105.65,228.82,105.5,228.84,105.36Zm20.76,41.49c-.55-.3-1-.81-1.46-.74a13.63,13.63,0,0,0-3.35.91,10.33,10.33,0,0,0-5.52,5.88,1.79,1.79,0,0,0,1.69,2.42,3.93,3.93,0,0,0,1.69-.3,14.37,14.37,0,0,0,6-5.49A14.61,14.61,0,0,0,249.6,146.85Zm-55.46-45.21c-.08-.25-.1-.79-.38-1-1.22-1-2.5-1.94-3.8-2.84-.18-.12-.58,0-.84.09a6.42,6.42,0,0,0-3.7,3.53,3.68,3.68,0,0,0,2.14,4.66C190.19,107,193.83,104.61,194.14,101.64Zm56.68-37.55c-.44-.49-.89-1.38-1.56-1.63a9.48,9.48,0,0,0-6.39-.08,6.38,6.38,0,0,0-2.39,1.78,1.53,1.53,0,0,0,.07,1.47c2,1.22,4,2.34,6,3.42a1.38,1.38,0,0,0,1.22-.06A7,7,0,0,0,250.82,64.09ZM208.24,124.3c-2.16,1.13-2.59,2.76-3.19,4.2-2.24,5.44-2.85,11.29-4,17,0,.21.22.49.34.73.33-.19.88-.3,1-.57,1.76-5.41,3.53-10.81,5.16-16.26A37.13,37.13,0,0,0,208.24,124.3Zm43.37,34.12c-.4-2-.69-3.66-1.11-5.34a.86.86,0,0,0-1.4-.43c-2.35,1.66-4.66,3.38-7,5.09a1.25,1.25,0,0,0-.48.69,2.09,2.09,0,0,0,0,1.22,1.33,1.33,0,0,0,1,.68c2.44-.23,4.88-.49,7.29-.87C250.56,159.36,251.08,158.77,251.62,158.42ZM222.2,120.16c-1.16,0-2.33-.07-3.48,0s-2.38-.28-3,1.06A22.76,22.76,0,0,0,218,123a5.16,5.16,0,0,0,2.41.85c2.6-.05,5.2-.37,7.8-.47,1.87-.07,2.4-1.33,2.83-2.77a1,1,0,0,0-1.15-1.28A19.88,19.88,0,0,1,222.2,120.16Zm-26,8.46c1,3,1.93,6,2.93,9,.06.18.47.26.74.33a.34.34,0,0,0,.29-.18c.76-2.8,1.54-5.6,2.23-8.42a1.46,1.46,0,0,0-1.34-1.85C199.45,127.61,197.82,127.5,196.17,128.62Zm45.7-92.1a2.53,2.53,0,0,0,0,.44c.25,1.43.47,2.87.77,4.29.26,1.2.25,2.55,1.57,3.25a29.59,29.59,0,0,0,1.93-2.78,7.07,7.07,0,0,0,.79-2.46A3.71,3.71,0,0,0,244,35,1.63,1.63,0,0,0,241.87,36.52Zm-34.69,82a6.86,6.86,0,0,0,.21,1.55c.12.34.56.84.83.82a4.08,4.08,0,0,0,1.44-.65c.1-.06.14-.25.18-.39q1.36-4.6,2.71-9.2a2.94,2.94,0,0,0,0-.86,1.29,1.29,0,0,0-1.68-.87,2.59,2.59,0,0,0-1,.79A19.45,19.45,0,0,0,207.18,118.52Zm-6.47-16.84c-1.12,0-2,0-2.86,0a1.64,1.64,0,0,0-1.91,1.35,5,5,0,0,0-.4,1.67c.07.46.56,1.19.92,1.22a46.8,46.8,0,0,0,5.2.1c1.79,0,2.61-1.18,2.53-3.28,0-.85-.7-1.16-2.43-1.12C201.33,101.62,200.89,101.67,200.72,101.68Zm38.81,46.66a7.53,7.53,0,0,0-1.18-2,39.7,39.7,0,0,0-3.9-2.7,7.24,7.24,0,0,0-2.25-1c-.56-.12-.71,1.69,0,3.14a7.42,7.42,0,0,0,5.35,4C238,149.82,238.74,148.9,239.53,148.34Zm13.09-.26c1.37-1.23,2.5-2.13,3.5-3.17s1.48-4.75.46-5.21c-1.75-.79-2.21,1.3-3.19,2.2-.21.19-.32.49-.51.7C251.4,144.18,251.32,145.88,252.62,148.08Zm-40-15.82c-3.37-2.76-3.54-2.74-4.65.89a20.56,20.56,0,0,0-1.38,6.77C209.66,137.73,210.85,134.75,212.66,132.26Zm1.46-25.72c.63,0,1.07,0,1.5,0,1.08-.09,1.65-.89,1.6-2.16,0-1.09-.76-1.51-1.66-1.64a2.72,2.72,0,0,0-3.42,2.44,1.2,1.2,0,0,0,.5,1A5.45,5.45,0,0,0,214.12,106.54Zm-6.2-4c-.91-.1-1.51.53-1.57,1.65s.52,1.8,1.42,1.8a2.18,2.18,0,0,0,2-1.95C209.82,103.31,209,102.64,207.92,102.51Z"/><path class="cls-10" d="M328.07,147.34c1.75.12,3.5.2,5.23.4.31,0,.86.72.79.84-.24.46-.7,1.15-1.05,1.13-3.49-.12-7-.36-10.44-.63-.24,0-.51-.57-.61-.92,0-.16.26-.55.47-.63a4.73,4.73,0,0,1,1.67-.38c1.31,0,2.62.18,3.92.28A.85.85,0,0,0,328.07,147.34Z"/><path class="cls-10" d="M324.54,132.23a5.8,5.8,0,0,1-1.24-.23,1,1,0,0,1-.44-.65,1,1,0,0,1,.2-.79,2.27,2.27,0,0,1,1.14-.53c2.91-.22,5.82-.43,8.74-.53.35,0,1,.65,1,1.07.11.65-.49.94-1.13,1l-8.29.41C324.54,132,324.54,132.14,324.54,132.23Z"/><path class="cls-10" d="M328,140.5c-1.32,0-2.63,0-3.94,0-.26,0-.73-.55-.69-.77s.47-.89.74-.89q4.8-.07,9.6.05c.24,0,.63.6.66.95.06.74-.52,1-1.15.93-1.74-.13-3.47-.31-5.21-.47Z"/><path class="cls-10" d="M227.22,42.75c-2.1.41-3.88-1.82-3.88-3.76,0-2.45,1.58-4.54,3.69-4.63s4.14,2.07,4.22,4.25A3.82,3.82,0,0,1,227.22,42.75Z"/><path class="cls-10" d="M196.55,48.35A4.5,4.5,0,0,1,192.67,44a4.3,4.3,0,0,1,.32-1.26c.45-1.06.79-2.24,2.22-2.43a3.86,3.86,0,0,1,3.86,1.49c1.82,2.4,1.33,5-1.18,6.2A6.87,6.87,0,0,1,196.55,48.35Z"/><path class="cls-10" d="M213.33,64.44c-2.26-.45-4.4-1.22-5.64-3.44-.14-.25.1-.79.3-1.11a.78.78,0,0,1,.76-.16c.72.48,1.34,1.12,2.07,1.57,3,1.89,5.9.92,7.33-2.43a4.73,4.73,0,0,1,.46-1.19,1.32,1.32,0,0,1,1-.49,1.14,1.14,0,0,1,.63.91c-.39,3.75-2,5.43-5.56,6.08Z"/><path class="cls-10" d="M228,25.77c-.2.52-.23,1.14-.51,1.28q-4,2-8.12,3.85c-.2.09-.72-.33-1-.61s0-.54.06-.81a.62.62,0,0,1,.26-.33,27.37,27.37,0,0,1,8.19-3.84C227.19,25.23,227.59,25.59,228,25.77Z"/><path class="cls-10" d="M195,34.43c-2.12-.38-4.24-.72-6.34-1.15-.49-.1-1.2-.41-.8-1.16a1.28,1.28,0,0,1,1-.61q3.62.51,7.2,1.21c.18,0,.34.67.34,1s-.31.49-.54.6A2.44,2.44,0,0,1,195,34.43Z"/><path class="cls-10" d="M211.93,47.55a14.86,14.86,0,0,1-.93,1.81c-.72,1-.72,1.82.52,2.45a2.47,2.47,0,0,1,.81.95c.25.43-.36,1.35-.83,1.24a6.77,6.77,0,0,1-2-.72c-2.54-1.6-2.63-2.49-.49-4.66a13.18,13.18,0,0,1,2-1.57C211.12,47,211.47,47.29,211.93,47.55Z"/><path class="cls-10" d="M285.19,121.83c4.28-.2,8.38.88,12.47,1.9,2.84.71,4.78,3,6.6,4.9a23.07,23.07,0,0,1,4.95,8.14c1.41,4.16.34,8.41-1.81,12.21a45.33,45.33,0,0,1-8.27,10.16,20.73,20.73,0,0,1-11.36,5.28,15.1,15.1,0,0,1-5.63-.37c-3.68-.85-7.41-1.74-10.22-4.62a22.37,22.37,0,0,0-2.41-1.89,11.46,11.46,0,0,1-4.45-6.32,22.33,22.33,0,0,0-1.15-3.3,10.74,10.74,0,0,1,.34-9.33c1.49-3,3-6,4.71-8.9,2.88-4.72,7.58-6.63,12.75-7.61A30,30,0,0,1,285.19,121.83Zm6.15,39.32c5.15-1.09,8-5,11-8.76a1.18,1.18,0,0,0-.27-1.11c-1.55-1.07-3.13-2.1-4.75-3.05-2.25-1.32-4.54-2.57-6.82-3.85-.58-.32-1.17-.62-2.26-1.19.67,5.27,1.27,10,1.89,14.73a10.5,10.5,0,0,0,.52,2.1A5.91,5.91,0,0,0,291.33,161.15Zm-5.7-15.82c-3.72,2.77-6.15,6.23-8.82,9.45a11.28,11.28,0,0,0-1.35,2.23c-.68,1.36-.46,2.25.85,2.91a21.54,21.54,0,0,0,9.6,2.52c1.44,0,1.93-.38,1.87-1.72-.13-3.19-.22-6.4-.6-9.57A14.22,14.22,0,0,0,285.64,145.33ZM272.79,157l10-12.24a1.37,1.37,0,0,0,.27-.34c.09-.26.27-.67.17-.78a1.58,1.58,0,0,0-1-.54,34.89,34.89,0,0,0-4.77.45c-2.29.44-4.52,1.13-6.79,1.64-5.46,1.23-5,1.1-3.07,6.33A9.45,9.45,0,0,0,272.79,157Zm33.9-20.5a16.09,16.09,0,0,0-3.56-6.05c-3-3.63-3.44-3.69-6.78-.63a21.44,21.44,0,0,0-6.19,9.37.87.87,0,0,0,.8,1.23,9.3,9.3,0,0,0,2.59-.27C297.88,139,302.19,137.74,306.69,136.49Zm-22.53,3.83c-.14-.3-.17-.5-.27-.55-4.3-2.37-9-4-12.95-7-.23-.18-1.26.14-1.42.47a90.52,90.52,0,0,0-3.88,8.25c-.75,1.92.1,2.77,2.07,2.52.72-.09,1.44-.22,2.15-.36,4.26-.87,8.52-1.74,12.78-2.64A8.68,8.68,0,0,0,284.15,140.31Zm.85-4.51c0-.12,0-.7-.12-1.27-.32-2.3-.66-4.6-1-6.9-.08-.57-.13-1.16-.27-1.72a1.84,1.84,0,0,0-2.24-1.54c-3.72.24-6.49,2.39-9.19,4.61a1.18,1.18,0,0,0,0,1.89,29.65,29.65,0,0,0,11.33,6.37C284.47,137.54,285,137.14,285,135.8Zm7.94,6.78c.57.77.75,1.24,1.09,1.43,3.18,1.78,6.37,3.54,9.61,5.21a1.68,1.68,0,0,0,1.47-.5c2-2.4,2.08-5.38,2.24-8.29,0-.25-.88-.83-1.29-.78A67.76,67.76,0,0,0,292.94,142.57Zm3.44-16.72c-3.06-1.52-6.19-1.23-9.12-1.89a1.12,1.12,0,0,0-1.41,1.24c.39,3.6.86,7.2,1.39,10.79.06.42.66.76,1,1.14.39-.39.93-.72,1.15-1.19a25.16,25.16,0,0,1,5-7.14A20.76,20.76,0,0,0,296.38,125.85Z"/><path class="cls-1" d="M87.52,34.83c.58,0,1.17-.08,1.75-.09,2.76,0,2.78,0,3.21,2.76a42.6,42.6,0,0,0,5.19,13.9,6.44,6.44,0,0,1,.59,5.81,48.18,48.18,0,0,1-8.95,15,17.21,17.21,0,0,1-4.51,3.41c-5.07,2.78-10.3,4.57-16.33,3.77a96.23,96.23,0,0,1-11.62-2C50.49,75.7,45.52,72,41.11,67.42c-3.42-3.53-4.6-8.12-4.26-13a46,46,0,0,0,.05-7.86,16.29,16.29,0,0,1,1.3-8.16c1.45-3.34,3.06-6.63,4.75-9.86A8.41,8.41,0,0,1,49.07,24c3-.57,6-1.18,9-1.72a3.44,3.44,0,0,1,1.25.29A6.61,6.61,0,0,1,59,24.09c-.59,1.11-2.37,2-1.68,3.29.91,1.65,2.69.42,3.92.08a39.38,39.38,0,0,1,8.58-1.76c.68,0,1.65-.46,1.9.4.15.54-.37,1.32-.68,1.93s-.83,1.2-1.19,1.84a1.14,1.14,0,0,0,1.1,1.77c1.16-.13,2.29-.41,3.44-.61,2.88-.49,5.74-1,8.63-1.4,1.49-.18,1.88.52,1.27,1.81-.19.39-.48.74-.67,1.13-.93,1.93-.47,2.57,1.78,2.49.73,0,1.46-.1,2.19-.16C87.53,34.87,87.52,34.85,87.52,34.83ZM59.31,70.89c2.72,0,4.55-.45,5.92-1.9a5.88,5.88,0,0,0,1.28-2.21,1.27,1.27,0,0,0-.9-1.71,53,53,0,0,1-10.48-2.74c-1.43-.51-2.51.64-2.3,2.22C53.27,67.92,56.63,70.86,59.31,70.89ZM76.62,47.33a4.61,4.61,0,0,0-4.54,4.81c0,.23.25.5.43.7,0,.06.3,0,.41-.07a5,5,0,0,0,1.35-1,2.36,2.36,0,0,1,2.55-1.25,3.48,3.48,0,0,1,2.86,2.4c.21.69.28,1.43.5,2.11a.85.85,0,0,0,.64.49A1.94,1.94,0,0,0,82,55.11,1.88,1.88,0,0,0,82.53,54,6.07,6.07,0,0,0,76.62,47.33Zm-21.6,0a5.92,5.92,0,0,0-2-4,4.52,4.52,0,0,0-5.19-1,4.48,4.48,0,0,0-3.12,4.25,1.32,1.32,0,0,0,2,1.3c1-.55,1.89-1.3,2.84-1.94a1.3,1.3,0,0,1,1.9.3c.36.44.51,1.05.89,1.48s1,.9,1.23.79A5.19,5.19,0,0,0,55,47.35ZM79.7,40.18c-.92.12-2.37.24-3.79.52-.69.14-1.5.56-1.19,1.46a1.68,1.68,0,0,0,1.33.72c2.18,0,4.36-.11,6.53-.31.46,0,.86-.65,1.29-1-.34-.39-.61-1-1-1.13A18.19,18.19,0,0,0,79.7,40.18Zm-18,12.37c-1.51.59-3.14,1.15-4.69,1.87a1.51,1.51,0,0,0-.49,1.39,20.36,20.36,0,0,0,2.34,3.06A1.19,1.19,0,0,0,60,59a2.94,2.94,0,0,0,.62-1.4c0-.21-.23-.51-.39-.75-.45-.7-.49-1.29.32-1.8a12.4,12.4,0,0,0,1.7-1.29.91.91,0,0,0,.22-.78C62.47,52.82,62.1,52.74,61.75,52.54ZM54.2,35.1c-.27-.41-.4-.91-.69-1-1.75-.68-3.53-1.3-5.31-1.9a1.25,1.25,0,0,0-.84.09,1.06,1.06,0,0,0-.54.58c-.05.22.05.68.21.74,2,.79,4,1.55,6,2.23C53.31,35.89,53.74,35.41,54.2,35.1Z"/><path class="cls-3" d="M27.12,172.28c-3.7.67-7.33-1.1-10.75-3.55-1.19-.85-2.33-1.79-3.57-2.56-5.12-3.21-8-8.08-9.86-13.57a19,19,0,0,1-.34-10c1.37-6.88,4.18-13.06,9.39-18a20.89,20.89,0,0,1,15-6.2c1.76,0,3.52,0,5.27.12a1.89,1.89,0,0,1,1.53,2.59c-.59,1.87-1,2.1-3.11,2.3-7.28.68-13.64,3.42-18.43,9A20.09,20.09,0,0,0,7,145.63c0,3.62.26,7,2.38,10a13.56,13.56,0,0,0,2.54,3c4.65,3.64,9.69,6.77,15.52,7.87a19.19,19.19,0,0,0,15.75-3.63c1-.8,2-1.71,3.07-2.49a23.51,23.51,0,0,0,8-11.33c1.88-5.25,1.47-10.34-1.89-15a19.64,19.64,0,0,0-6.66-6.25c-1.41-.75-2.73-1.71-4.07-2.6a1.9,1.9,0,0,1-.78-2.62c.64-1.5,1.28-1.95,2.64-1.11,3.49,2.15,6.89,4.43,10.32,6.66,6.72,7.31,9.19,14.13,5.31,24.51a42.1,42.1,0,0,1-5.25,9.6,18.09,18.09,0,0,1-7,5.83A42.41,42.41,0,0,1,27.12,172.28Z"/><path class="cls-3" d="M90,146.13c.28-7.66,2.65-14.36,7.87-20,2.17-2.34,4-5,6.8-6.71a15.06,15.06,0,0,1,11.81-1.75c2.55.6,5,1.57,7.5,2.41,5.58,1.89,9.31,5.88,12.07,10.88a39.81,39.81,0,0,1,2.12,5.27c1.59,4.24.54,8.37-.61,12.47a42.35,42.35,0,0,1-5,10.66,11,11,0,0,1-5.91,5c-3.31,1.14-6.6,2.34-9.92,3.45a12.28,12.28,0,0,1-6.51.11,28.86,28.86,0,0,1-16.93-10.15,8.92,8.92,0,0,1-2.13-4.25C90.77,151,90.42,148.57,90,146.13Zm24.14,18a16.85,16.85,0,0,0,7.23-1.52c5.74-2.53,9.76-6.89,12.95-12.07,1.62-2.64,2.68-5.8,1.94-8.83-1.57-6.4-4.78-11.85-10.7-15.35a38.35,38.35,0,0,0-11.51-4.11c-3.92-.86-7.26.85-9.82,3.66a47.27,47.27,0,0,0-5.66,7.78c-2.31,3.92-4.16,8.09-3.4,12.87a34.2,34.2,0,0,0,.94,4.73c1.41,4.58,3.46,8.77,8.24,10.74A24.82,24.82,0,0,0,114.18,164.11Z"/><path class="cls-11" d="M79.57,106.1a2.54,2.54,0,0,1-2.78-1.74c-.17-.4-.35-.8-.51-1.21-.48-1.21-1.49-2.53-1.27-3.61s1.65-1.9,2.58-2.8a29.21,29.21,0,0,0,6.49-9.28,1.21,1.21,0,0,0-.36-1.12,1.18,1.18,0,0,0-1.14.2,9.13,9.13,0,0,0-1.2,1.81c-2.27,4-4.75,7.75-9.17,9.68-2.74,3.07-6.56,3.66-10.29,4.38a17.51,17.51,0,0,1-3.06.25c-1.06,0-1.51-.72-1.73-1.65a1.47,1.47,0,0,1,1.15-2,27.24,27.24,0,0,0,7.87-3.76,17.9,17.9,0,0,0,6.2-6.67c.93-1.65,1.67-3.41,2.55-5.1.39-.75.73-1.77,1.38-2.09A23.17,23.17,0,0,1,80.84,80c.33-.08.81.27,1.15.52A41.76,41.76,0,0,1,93.93,94.31a11.11,11.11,0,0,1,1,2.87,2,2,0,0,1-.32,1.62C90.47,103,85.27,105.09,79.57,106.1Z"/><path class="cls-4" d="M120,65.65A19.94,19.94,0,0,1,106.51,60a9.43,9.43,0,0,1-2.32-3.64c-1.19-3.24-2.27-6.39-1.73-10.13a32.12,32.12,0,0,0-.63-13.89c-.4-1.36.29-1.94,1.64-1.67,5.25,1.07,9.08,3.93,11,9A45.5,45.5,0,0,1,116,46.07c.32,1.57.47,3.17.7,4.76A19.1,19.1,0,0,0,120.48,60a11.36,11.36,0,0,1,1.19,1.83c.48,1,2.05,1.84,1,3C122.06,65.54,120.6,65.5,120,65.65Z"/><path class="cls-4" d="M74.11,28.73c0-2.29,2.73-3,1.85-5.1-1.73-.71-3.47-.1-5.18.08-2.87.3-5.72.83-9,1.32.78-1.35,1.41-2.3,1.89-3.33a.87.87,0,0,0-.7-1.3,22.33,22.33,0,0,0-4.34,0c-2,.26-4,.82-6,1.15a30.69,30.69,0,0,1-3.42.17c.15-.55.13-.93.31-1.06a22.78,22.78,0,0,1,10.77-4.48,40.63,40.63,0,0,1,12.63.45,24.66,24.66,0,0,0,2.6.42c8.32.58,14.91,4.64,20.71,10.28a13.57,13.57,0,0,1,4.1,8.92,26.63,26.63,0,0,1-.15,8.68c-.23,1-.59,1.93-.89,2.86-1.31.15-1.53-.88-1.83-1.55-1.6-3.62-3.12-7.27-2.5-11.38A4.11,4.11,0,0,0,95,34a1.53,1.53,0,0,0-1.73-1.54c-1.46.09-2.91.3-4.36.42-.67.05-1.57.47-1.88-.45-.14-.42.24-1.07.49-1.55.35-.64.87-1.18,1.2-1.82a1.42,1.42,0,0,0,.06-1.17,1.35,1.35,0,0,0-1.07-.54c-3.77.39-7.53.85-11.3,1.28C75.69,28.69,75,28.69,74.11,28.73Z"/><path class="cls-5" d="M78.25,140.33l-6.56,1.35c-1.53-3-3-5.62-3.49-8.73-1.36-8.2,2-14.18,8.46-18.83,1.74-1.26,3.86-1.2,5.85-1.52a1.41,1.41,0,0,1,1.17.44c2.39,3.64,5.93,3.84,9.73,3.36a.83.83,0,0,1,.43,0c.23.11.55.25.61.45a.85.85,0,0,1-.15.77c-1.3.91-2.53,2.09-4,2.56A35.75,35.75,0,0,0,81.48,125c-2.21,1.49-3.79,4-5.44,6.2-.93,1.25-.57,2.82,0,4.22S77.35,138.29,78.25,140.33Z"/><path class="cls-6" d="M49.81,154c-4.22,4.32-7.69,8.61-13.41,10.05-1.67-2.28-1.41-4.9-2.08-7.24a74,74,0,0,1-1.68-9.45c-.24-1.63.57-2.27,2-1.65A103.79,103.79,0,0,1,49.81,154Z"/><path class="cls-6" d="M27.89,145.07a85.23,85.23,0,0,1-5.52,9.47c-1,1.57-2.11,3.11-3.22,4.62a1.36,1.36,0,0,1-1.91.45,16.92,16.92,0,0,1-6.34-5.86,13.28,13.28,0,0,1-1.31-3.65A1.75,1.75,0,0,1,11,147.77a59.1,59.1,0,0,1,6.38-1.41C20.64,145.86,23.94,145.54,27.89,145.07Z"/><path class="cls-12" d="M90.5,114.53a4.47,4.47,0,0,1-4.21-2.86c-.68-1.83-1.91-1.93-3.48-1.65a27.6,27.6,0,0,1-4.29.55,2.1,2.1,0,0,1-1.66-1c-.31-1,.73-1,1.37-1.13,2.27-.48,4.56-.85,6.81-1.39,3.3-.78,6.1-2.68,9-4.38,2.16-1.29,4-1.51,5.17-.48a6.1,6.1,0,0,1,1.33,6.42,8.1,8.1,0,0,1-4.22,4.25A49.49,49.49,0,0,1,90.5,114.53Z"/><path class="cls-6" d="M53.14,143.84a21.44,21.44,0,0,1-.61,3.62c-1.36,3.86-1.52,3.77-4.91,2.23-3.83-1.75-7.47-3.93-11.17-6-.34-.19-.83-.83-.76-.92a4.38,4.38,0,0,1,1.16-1,2.52,2.52,0,0,1,.82-.28c4.12-.94,8.22-1.9,12.34-2.81,1.75-.39,2.46.09,2.76,1.84C53,141.68,53,142.85,53.14,143.84Z"/><path class="cls-6" d="M21.81,161.88a1.18,1.18,0,0,1,0-.43A47.9,47.9,0,0,1,28.92,148c.19-.24.75-.28,1.12-.26.18,0,.44.38.48.62.75,4.75,1.53,9.51,2.16,14.28.24,1.83-.5,2.38-2.3,2.16A18.29,18.29,0,0,1,21.81,161.88Z"/><path class="cls-11" d="M59.69,81.13a10.76,10.76,0,0,1-3.31,5,39,39,0,0,1-12.47,7.92,23.81,23.81,0,0,1-2.93.78,11,11,0,0,0-1.71.34c-.92.39-1.8,1.32-2.68,1.29a24.47,24.47,0,0,1-4.68-1c0-1.15,1-.91,1.49-1.1,1.92-.7,3.88-1.28,5.78-2a30.28,30.28,0,0,0,11.59-7.61c.9-1,1.85-1.86,2.76-2.8C56.13,79.33,56.13,79.33,59.69,81.13Z"/><path class="cls-6" d="M36.28,139.68c-1.41.07-2-.59-1.64-1.38,1.36-3.39,2.74-6.77,4.2-10.12a1.57,1.57,0,0,1,1.42-.6,24.07,24.07,0,0,1,4.7,2.27c2,1.38,4,2.88,5,5.33-1.66,2.12-4.21,2.3-6.53,2.91C40.88,138.77,38.29,139.24,36.28,139.68Z"/><path class="cls-6" d="M13.68,134.41A36,36,0,0,0,24,140a2.22,2.22,0,0,1,1.1.67,2.89,2.89,0,0,1,.51,1.55c0,.31-.43.75-.77.9a8.3,8.3,0,0,1-2.09.59c-3.88.58-7.75,1.13-11.64,1.67a1.31,1.31,0,0,1-1.64-1.46,7.15,7.15,0,0,1,.21-2.16C10.57,139.19,11.51,136.61,13.68,134.41Z"/><path class="cls-6" d="M27.31,137.21c-.45.32-1,1-1.31.89-3.51-.93-7.1-1.76-9.68-4.64-.54-.6-.8-1.3-.14-1.9A19.47,19.47,0,0,1,24.06,127c.61-.17,1.28-.05,1.42.6C26.13,130.73,26.68,133.87,27.31,137.21Z"/><path class="cls-7" d="M70.09,143.31a4.43,4.43,0,0,1-.92.6,1.11,1.11,0,0,1-.83-.08c-2.69-1.51-5.17-3.15-6.17-6.41A24,24,0,0,0,59.47,132c-1.69-2.73-3.53-5.36-6.53-6.87-.33-.16-.48-.66-.71-1,.47-.28.93-.78,1.41-.78a2.86,2.86,0,0,1,1.92.6c3.35,3.43,6.85,6.75,9.85,10.48,2,2.46,3.16,5.53,4.69,8.34C70.15,142.84,70.09,143,70.09,143.31Z"/><path class="cls-7" d="M30.29,141.11A7.16,7.16,0,0,1,29,139.79a2,2,0,0,1,0-1.27c1.63-6.43,4.67-12.26,7.73-18.08.16-.29.84-.64,1-.53.44.26,1,.76,1,1.18a6.58,6.58,0,0,1-.45,2.55q-2,5.31-4.2,10.57c-.78,1.89-1.63,3.75-2.54,5.58C31.35,140.27,30.82,140.59,30.29,141.11Z"/><path class="cls-7" d="M58.19,117.12a33.73,33.73,0,0,0,10.13-.39c.35,0,1,.19,1.08.43a1.68,1.68,0,0,1-.38,1.18,3.33,3.33,0,0,1-2.69,1.21c-2.75.26-5.52.41-8.25.83a41.13,41.13,0,0,1-9.55.72,7.71,7.71,0,0,1-2.43-.75,1.27,1.27,0,0,1-.65-1,1.19,1.19,0,0,1,.77-.83c1.85-.37,3.71-.73,5.58-.94C54.12,117.35,56.44,117.25,58.19,117.12Z"/><path class="cls-1" d="M51.43,99.75c1.88,0,2.93,1.13,3.62,2.71a4.23,4.23,0,0,1-.72,4.87,5.09,5.09,0,0,1-.68.54c-1.75,1.18-4.09,1.38-5.38.46a5.17,5.17,0,0,1-1.49-5.19A5.05,5.05,0,0,1,51.43,99.75Z"/><path class="cls-3" d="M78.17,156.5c-1.68-.22-3.56-.45-5.44-.74a3,3,0,0,1-1.62-.57,3.1,3.1,0,0,1-.84-1.85c0-.39.6-1,1.07-1.18,1.63-.61,3.35-1,5-1.61,1.22-.47,2.32-1.23,3.5-1.82a1.26,1.26,0,0,1,1.73.82c.12,1.88.21,3.78.15,5.66,0,.38-.68.92-1.14,1.07A10.89,10.89,0,0,1,78.17,156.5Z"/><path class="cls-11" d="M68.52,89.87c-2.46-2.58-4.58-4.78-6.66-7a.82.82,0,0,1,.53-1.3c3.07,0,6.14.06,9.21.17a1.19,1.19,0,0,1,1.06,1.84A24.7,24.7,0,0,1,68.52,89.87Z"/><path class="cls-1" d="M22.5,93.4a3.91,3.91,0,0,1-.17.84c-.73,1.58-1.41,3.19-2.27,4.7a2.79,2.79,0,0,1-3.49,1c-1.5-.64-2.61-2.06-2.38-3.3a6.78,6.78,0,0,1,3.22-5,3.47,3.47,0,0,1,4.65,1A4.82,4.82,0,0,1,22.5,93.4Z"/><path class="cls-6" d="M78.63,143a3.46,3.46,0,0,1,.67.1,1.4,1.4,0,0,1,.78,2.09,4.74,4.74,0,0,1-.82,1,16,16,0,0,1-8.6,3.87,1.9,1.9,0,0,1-1.5-.6,1.62,1.62,0,0,1,.14-1.52C71.55,145.14,74.11,142.84,78.63,143Z"/><path class="cls-7" d="M92,129.26c-1.3,4.11-2.24,7.46-3.42,10.73-.78,2.18-2.85,3.22-4.58,4.53a3.27,3.27,0,0,1-.47-4.45c.54-.87,1.1-1.73,1.71-2.55q2.59-3.54,5.24-7A11,11,0,0,1,92,129.26Z"/><path class="cls-7" d="M28.85,102c-1.14-.18-2.74-.36-4.29-.72-.8-.19-1.8-.48-1.8-1.59a2.63,2.63,0,0,1,2.69-2.28c.43,0,.84.22,1.27.28,1.15.15,2.31.28,3.46.41.72.08,1.55.12,1.58,1.08,0,1.6-.91,2.87-2,2.88C29.58,102.07,29.43,102,28.85,102Z"/><path class="cls-11" d="M90.55,80.16A13.76,13.76,0,0,1,90,81.84c-.58,1.4-1.56,1.61-2.66.6-.63-.58-1.22-1.22-1.81-1.85-1.56-1.67-1.4-2.51.94-3.35A2.94,2.94,0,0,1,90.55,80.16Z"/><path class="cls-7" d="M42.36,107.17c-1.37,3.36-2.47,6.17-3.69,8.93-.13.28-1.1.47-1.48.28a1.54,1.54,0,0,1-.64-1.35c1.08-2.66,2.29-5.28,3.47-7.9a.58.58,0,0,1,.33-.27,1.76,1.76,0,0,1,.8-.13A7.85,7.85,0,0,1,42.36,107.17Z"/><path class="cls-7" d="M44.51,102c-.17,1.61-.84,2.28-1.93,2.18-.85-.08-1.71-.23-2.56-.38s-1.4-.43-1.34-1.34c.1-1.38,1-2.33,2.1-2.15a14.57,14.57,0,0,1,2.92.7C44.12,101.15,44.35,101.77,44.51,102Z"/><path class="cls-1" d="M100.55,56.19c1.3.94,1.3,2.19,1.1,3.52a4.89,4.89,0,0,1-2.37,3.45,5.67,5.67,0,0,1-1.19.44c0-.52-.31-1.18-.09-1.55C99.1,60.22,98.78,57.76,100.55,56.19Z"/><path class="cls-6" d="M27.8,127.84a2.12,2.12,0,0,1,2.95-2.16.89.89,0,0,1,.42.67,4,4,0,0,1-.43,1.67c-.56.87-.39,2.39-2,2.41Z"/><path class="cls-7" d="M95.68,122.92c-.89-.18-1.59-.3-2.27-.5a.86.86,0,0,1,0-.7,4.76,4.76,0,0,1,3.93-1.17,1.21,1.21,0,0,1,.75.84,1.24,1.24,0,0,1-.54,1A9.16,9.16,0,0,1,95.68,122.92Z"/><path class="cls-7" d="M36.87,100.06a14.12,14.12,0,0,1-1.15,2.53c-.19.28-1,.25-1.53.11-.27-.08-.66-.77-.56-1a11.74,11.74,0,0,1,1.43-2.52c.15-.19.81-.09,1.19,0C36.46,99.26,36.57,99.63,36.87,100.06Z"/><path class="cls-13" d="M60.81,68.64c-2-.07-3.4-.57-4.36-2a.94.94,0,0,1-.1-.79.82.82,0,0,1,.68-.37q2.73.54,5.43,1.19a.8.8,0,0,1,.42.62.91.91,0,0,1-.39.7A16.8,16.8,0,0,1,60.81,68.64Z"/><path class="cls-6" d="M116.22,132.75c-.12,2.49-.21,5-.4,7.46-.08,1.09-1,1.43-1.88.73-3-2.34-6-4.64-8.94-7.11-2.26-1.93-2.24-2.9-.15-5a37.54,37.54,0,0,1,3.93-3.49c2-1.5,4.16-1.24,6.27-.45a2.29,2.29,0,0,1,1,1.74c.12,2,0,4.1,0,6.15Z"/><path class="cls-6" d="M111.16,145.69c.73,0,1.46,0,2.19,0a.87.87,0,0,1,.57.51,1.59,1.59,0,0,1-.09.81.82.82,0,0,1-.25.35c-3.29,3.13-6.54,6.29-9.87,9.36-1.11,1-2.15.78-2.82-.6-1.16-2.35-2.63-4.57-2.79-7.33-.1-1.79,0-2.15,1.68-2.39q1.09-.16,2.19-.21l9.21-.41A1.18,1.18,0,0,0,111.16,145.69Z"/><path class="cls-6" d="M101.58,133.73c1.1.84,2.12,1.62,3.14,2.42,1.26,1,2.57,1.92,3.73,3s3.52,1.55,3.7,3.84c-1.61,1.35-3.61,1-5.44,1.11-2.6.21-5.22.15-7.83.14-.82,0-1.49-.52-1.34-1.36C98.12,139.6,98.9,136.36,101.58,133.73Z"/><path class="cls-6" d="M134.35,143.95a13,13,0,0,1-3,7.64c-1.15,1.31-1.85,1.45-3.34.4a21,21,0,0,1-2.32-2c-.84-.79-1.63-1.65-2.44-2.47s-2.58-1.53-2-3c.33-.76,1.92-1.15,3-1.36,2.7-.52,5.44-.86,8.17-1.21C133.93,141.85,134.4,142.3,134.35,143.95Z"/><path class="cls-6" d="M117.88,153c0-1.75,0-3.51,0-5.26a.94.94,0,0,1,1.35-.63A15.93,15.93,0,0,1,121,148.4c2,1.76,3.91,3.53,5.83,5.34,1.06,1,1.15,2.26,0,3-2.29,1.55-4.71,2.93-7.12,4.3a.94.94,0,0,1-1.35-.7,15.47,15.47,0,0,1-.6-3c-.1-1.46,0-2.93,0-4.39Z"/><path class="cls-6" d="M115.68,155.88c0,1.46,0,2.92,0,4.38a1.53,1.53,0,0,1-1.68,1.6,19.51,19.51,0,0,1-8.48-1.94.91.91,0,0,1-.37-1.44,13.09,13.09,0,0,1,1.72-2q3.55-3.27,7.19-6.45c.29-.25,1-.51,1.11-.39a2.37,2.37,0,0,1,.73,1.38c.09,1.6,0,3.22,0,4.83Z"/><path class="cls-6" d="M118.15,133.89c0-1.74,0-3.49,0-5.23,0-2.5.89-3,3.32-2.13a10.3,10.3,0,0,1,2,.93c4.24,2.72,5.74,2.6.75,6.79-2.2,1.84-3.43,4.28-4.88,6.62-.13.21-.58.46-.68.39-.3-.19-.71-.54-.72-.84-.06-2.17,0-4.35,0-6.52Z"/><path class="cls-6" d="M122.14,141a7.56,7.56,0,0,1,1-2.35c1.73-1.74,3.57-3.36,5.46-4.93.28-.23,1.1-.06,1.51.18a4,4,0,0,1,1.13,1.29c2.24,3.43,1.94,4.35-2.1,5.05C127,140.58,124.76,141.66,122.14,141Z"/><path class="cls-9" d="M81.16,59.08c-.27,0-.53,0-.8,0l-.47-.15.27.11a3.59,3.59,0,0,0-4.61,1.48c-.93,1.6-.5,4.18,1.32,5a9.88,9.88,0,0,0,4.29.91,3.66,3.66,0,0,0,0-7.33Z"/><path class="cls-9" d="M44.93,51.35a7,7,0,0,0-5,1.89,3.65,3.65,0,0,0,4.84,5.45h.2a3.66,3.66,0,0,0,0-7.33Z"/><path class="cls-10" d="M87.71,145.08c-2.52.91-3.75,2.42-3.57,5,.12,1.75.18,3.51.15,5.27a2.85,2.85,0,0,1-2.54,3.07,6.39,6.39,0,0,1-1.74.21c-3.06-.21-6.12-.4-9.17-.73a3.39,3.39,0,0,1-3-3.25,7.16,7.16,0,0,0-1.31-4.05,3,3,0,0,1-.15-2c.41-2.66.22-3-2.92-4.45-.23,1-.49,2-.66,3-1.27,7.47-5.11,13.66-10,19.21A16,16,0,0,1,47,170.06c-4.71,2-9.53,3.73-14.71,4.17-5.64.47-11,.16-16-3.21a105.58,105.58,0,0,1-9-7,14.09,14.09,0,0,1-2.54-3c-4.09-6.25-5.89-12.9-3.9-20.39C2.58,134,5.3,128,10.38,123.21a23.35,23.35,0,0,1,13.53-6.62,65.69,65.69,0,0,1,7.86-.18c1.73,0,2,0,2.64-1.64,1.12-2.69,2.17-5.42,3.31-8.3a14.83,14.83,0,0,0-2.53-1.08c-3.72-.79-7.45-1.54-11.19-2.22-1.71-.31-3.47-.37-5.19-.63a14.43,14.43,0,0,1-3.38-.78c-2.86-1.19-3.8-2.84-3.25-5.9a8.3,8.3,0,0,1,4.13-5.93,5.25,5.25,0,0,1,6.82.92,37.34,37.34,0,0,1,2.8,3.51,24.81,24.81,0,0,1,6.51-2c6.49-1.46,12.56-4,17.19-9.08,1.17-1.29,2.36-2.57,3.71-4A12.81,12.81,0,0,0,51.46,78c-4.79-2.1-8.62-5.56-12.27-9.12a15.1,15.1,0,0,1-4.5-10.25,93.26,93.26,0,0,1,.47-17.48c.59-4,4.39-11.78,6.89-15,2.05-2.66,4-5.34,6.77-7.41A23.73,23.73,0,0,1,61,14.06a45.62,45.62,0,0,1,7.9,0c3.2.24,6.38.79,9.57,1.23a28.8,28.8,0,0,1,11.3,4.53A43.46,43.46,0,0,1,99,27.09a5.38,5.38,0,0,0,2.25,1.18c1.39.46,2.82.75,4.22,1.15,7.35,2.11,10.92,7.39,12.18,14.58.3,1.73.49,3.48.78,5.21,1,6.12,3.14,11.58,8.77,15,.3.19.63.85.52,1.1a2.17,2.17,0,0,1-1.13,1.16c-6.21,1.87-12.16,1.35-17.68-2.24-1.59-1-3.11-2.17-4.82-3.36A30.21,30.21,0,0,0,102,63.16a11.37,11.37,0,0,1-4.79,3.75,7,7,0,0,0-3.63,3,23.65,23.65,0,0,1-1.87,2.43c-1.53,2-1.55,2-.08,4.39a5.55,5.55,0,0,1,.58,5.42c-.29.67-.55,1.36-.8,2a2.73,2.73,0,0,0,.39,2.89,30.32,30.32,0,0,1,5.38,10,3.22,3.22,0,0,0,2.27,2.44c1.27.32,1.8,1.34,2.3,2.45a9.06,9.06,0,0,1-.77,9.56c-1.17,1.67-2.37,3.34-3.46,5.06-.59.93-.09,1.68,1,1.82a7.29,7.29,0,0,0,4.28-.54c1.31-.65,2.73-1.09,4-1.75a11.65,11.65,0,0,1,8.56-.58c2.4.62,4.84,1.12,7.23,1.81,7.51,2.16,12.65,7,15.86,14.06.06.13.09.28.15.41a22.31,22.31,0,0,1,.31,18.72,99.88,99.88,0,0,1-4.5,9.5,13.8,13.8,0,0,1-8,6.5c-1.8.61-3.58,1.28-5.34,2a20.78,20.78,0,0,1-13.29.85c-7.34-1.89-12.81-6.26-17.37-12a10.61,10.61,0,0,1-1.63-4.46C88.33,150.37,88.08,147.78,87.71,145.08ZM87.52,34.83s0,0,0,.07c-.73.05-1.46.13-2.19.16-2.25.08-2.71-.56-1.78-2.49.19-.39.48-.74.67-1.13.61-1.29.22-2-1.27-1.81-2.89.35-5.75.91-8.63,1.4-1.15.2-2.29.48-3.44.61a1.14,1.14,0,0,1-1.1-1.77c.36-.63.86-1.19,1.19-1.84s.84-1.39.68-1.93c-.25-.86-1.22-.44-1.9-.4a39.38,39.38,0,0,0-8.58,1.76c-1.23.34-3,1.57-3.92-.08-.69-1.26,1.08-2.18,1.68-3.29a6.61,6.61,0,0,0,.41-1.54,3.44,3.44,0,0,0-1.25-.29c-3,.54-6,1.15-9,1.72A8.41,8.41,0,0,0,43,28.56c-1.69,3.23-3.3,6.52-4.75,9.86a16.29,16.29,0,0,0-1.3,8.16,46,46,0,0,1-.05,7.86c-.34,4.86.83,9.45,4.26,13,4.41,4.54,9.39,8.28,15.75,9.94a96.23,96.23,0,0,0,11.62,2c6,.8,11.27-1,16.33-3.77a17.21,17.21,0,0,0,4.51-3.41,48.18,48.18,0,0,0,8.95-15,6.44,6.44,0,0,0-.59-5.81,42.6,42.6,0,0,1-5.19-13.9c-.43-2.8-.45-2.8-3.21-2.76C88.69,34.75,88.11,34.79,87.52,34.83ZM27.12,172.28a42.41,42.41,0,0,0,19.8-4.22,18.09,18.09,0,0,0,7-5.83,42.1,42.1,0,0,0,5.25-9.6c3.89-10.38,1.41-17.2-5.31-24.51-3.43-2.23-6.83-4.51-10.32-6.66-1.36-.84-2-.39-2.64,1.11a1.9,1.9,0,0,0,.78,2.62c1.34.89,2.66,1.84,4.07,2.6A19.64,19.64,0,0,1,52.38,134c3.36,4.68,3.77,9.77,1.89,15a23.51,23.51,0,0,1-8,11.33c-1.06.78-2,1.69-3.07,2.49a19.19,19.19,0,0,1-15.75,3.63c-5.83-1.1-10.87-4.23-15.52-7.87a13.56,13.56,0,0,1-2.54-3c-2.12-3-2.41-6.4-2.38-10a20.09,20.09,0,0,1,5.21-13.17c4.78-5.6,11.15-8.35,18.43-9,2.13-.2,2.52-.43,3.11-2.3a1.89,1.89,0,0,0-1.53-2.59c-1.75-.12-3.51-.1-5.27-.12a20.89,20.89,0,0,0-15,6.2c-5.21,4.93-8,11.11-9.39,18a19,19,0,0,0,.34,10c1.91,5.5,4.75,10.37,9.86,13.57,1.24.78,2.38,1.71,3.57,2.56C19.79,171.18,23.42,173,27.12,172.28ZM90,146.13c.37,2.45.73,4.89,1.11,7.34a8.92,8.92,0,0,0,2.13,4.25,28.86,28.86,0,0,0,16.93,10.15,12.28,12.28,0,0,0,6.51-.11c3.32-1.11,6.61-2.31,9.92-3.45a11,11,0,0,0,5.91-5,42.35,42.35,0,0,0,5-10.66c1.15-4.1,2.2-8.23.61-12.47a39.81,39.81,0,0,0-2.12-5.27c-2.75-5-6.48-9-12.07-10.88-2.49-.84-4.95-1.82-7.5-2.41a15.06,15.06,0,0,0-11.81,1.75c-2.81,1.74-4.63,4.37-6.8,6.71C92.69,131.76,90.33,138.47,90,146.13Zm-10.48-40c5.7-1,10.9-3.13,15.09-7.31A2,2,0,0,0,95,97.18a11.11,11.11,0,0,0-1-2.87A41.76,41.76,0,0,0,82,80.5c-.34-.25-.83-.6-1.15-.52a23.17,23.17,0,0,0-4.56,1.43c-.65.31-1,1.34-1.38,2.09-.88,1.69-1.61,3.45-2.55,5.1a17.9,17.9,0,0,1-6.2,6.67A27.24,27.24,0,0,1,58.28,99a1.47,1.47,0,0,0-1.15,2c.21.93.66,1.66,1.73,1.65a17.51,17.51,0,0,0,3.06-.25c3.73-.73,7.55-1.32,10.29-4.38,4.42-1.94,6.9-5.7,9.17-9.68a9.13,9.13,0,0,1,1.2-1.81,1.18,1.18,0,0,1,1.14-.2,1.21,1.21,0,0,1,.36,1.12,29.21,29.21,0,0,1-6.49,9.28c-.93.9-2.36,1.74-2.58,2.8s.79,2.39,1.27,3.61c.16.41.34.81.51,1.21A2.54,2.54,0,0,0,79.57,106.1ZM120,65.65c.56-.15,2-.11,2.66-.81,1-1.12-.55-2-1-3A11.36,11.36,0,0,0,120.48,60a19.1,19.1,0,0,1-3.77-9.22c-.22-1.59-.37-3.19-.7-4.76a45.5,45.5,0,0,0-1.59-6.34c-1.87-5.1-5.71-8-11-9-1.35-.27-2,.31-1.64,1.67a32.12,32.12,0,0,1,.63,13.89c-.54,3.74.53,6.89,1.73,10.13A9.43,9.43,0,0,0,106.51,60,19.94,19.94,0,0,0,120,65.65ZM74.11,28.73c.86,0,1.58,0,2.29-.12,3.77-.42,7.53-.89,11.3-1.28a1.35,1.35,0,0,1,1.07.54A1.42,1.42,0,0,1,88.71,29c-.33.65-.85,1.19-1.2,1.82-.26.48-.63,1.13-.49,1.55.31.92,1.21.51,1.88.45,1.46-.11,2.9-.33,4.36-.42A1.53,1.53,0,0,1,95,34a4.11,4.11,0,0,1-.05.87c-.62,4.11.9,7.77,2.5,11.38.29.67.52,1.7,1.83,1.55.29-.94.66-1.89.89-2.86a26.63,26.63,0,0,0,.15-8.68,13.57,13.57,0,0,0-4.1-8.92C90.4,21.68,83.82,17.62,75.5,17a24.66,24.66,0,0,1-2.6-.42,40.63,40.63,0,0,0-12.63-.45A22.78,22.78,0,0,0,49.5,20.66c-.17.13-.16.51-.31,1.06a30.69,30.69,0,0,0,3.42-.17c2-.32,4-.89,6-1.15a22.33,22.33,0,0,1,4.34,0,.87.87,0,0,1,.7,1.3c-.48,1-1.11,2-1.89,3.33,3.27-.5,6.12-1,9-1.32,1.71-.18,3.45-.79,5.18-.08C76.84,25.76,74.15,26.43,74.11,28.73Zm4.14,111.6c-.9-2-1.57-3.48-2.19-5s-1-3,0-4.22c1.65-2.21,3.22-4.72,5.44-6.2a35.75,35.75,0,0,1,8.84-4.78c1.46-.47,2.68-1.65,4-2.56a.85.85,0,0,0,.15-.77c-.07-.2-.38-.34-.61-.45a.83.83,0,0,0-.43,0c-3.79.48-7.34.29-9.73-3.36a1.41,1.41,0,0,0-1.17-.44c-2,.32-4.12.26-5.85,1.52-6.42,4.65-9.82,10.63-8.46,18.83.51,3.11,2,5.75,3.49,8.73ZM44.66,108.51c-.41.36-.73.51-.81.74-.52,1.36-.93,2.77-1.5,4.11-1.12,2.61-.48,3.59,2.38,3.16.58-.09,1.14-.26,1.72-.35,4.61-.77,9.21-1.54,13.92-1.05,4.29.45,8.38-1.16,12.61-1.38a1.63,1.63,0,0,0,1.43-2.49c-.62-1.41-1.08-2.92-.47-4.24,1.16-2.48,0-4.14-1.48-6.06a23.89,23.89,0,0,1-10.36,3.31,6.12,6.12,0,0,0-.86.17,6.45,6.45,0,0,0-4.35,3.17c-2.24,3.88-6.46,4.62-10.23,2.29C45.93,109.42,45.25,108.91,44.66,108.51ZM49.81,154a103.79,103.79,0,0,0-15.16-8.28c-1.43-.63-2.24,0-2,1.65a74,74,0,0,0,1.68,9.45c.66,2.33.41,5,2.08,7.24C42.11,162.6,45.59,158.3,49.81,154Zm-21.92-8.91c-3.94.47-7.25.79-10.53,1.29A59.1,59.1,0,0,0,11,147.77a1.75,1.75,0,0,0-1.39,2.34,13.28,13.28,0,0,0,1.31,3.65,16.92,16.92,0,0,0,6.34,5.86,1.36,1.36,0,0,0,1.91-.45c1.11-1.51,2.19-3,3.22-4.62A85.23,85.23,0,0,0,27.89,145.07ZM90.5,114.53a49.49,49.49,0,0,0,5.81-1.71,8.1,8.1,0,0,0,4.22-4.25,6.1,6.1,0,0,0-1.33-6.42c-1.22-1-3-.81-5.17.48-2.87,1.7-5.67,3.6-9,4.38-2.26.54-4.55.9-6.81,1.39-.64.14-1.68.16-1.37,1.13a2.1,2.1,0,0,0,1.66,1,27.6,27.6,0,0,0,4.29-.55c1.57-.28,2.8-.17,3.48,1.65A4.47,4.47,0,0,0,90.5,114.53ZM45.94,98.81a3.82,3.82,0,0,0,1.47-.25c1.87-1.14,3.9-1,6-1a15.93,15.93,0,0,0,8.07-1.74c5.66-3.3,7-3.29,1.21-8.67a16.12,16.12,0,0,0-1.28-1.19,1.4,1.4,0,0,0-2,.06c-.64.6-1.27,1.21-1.92,1.8a40.42,40.42,0,0,1-12,7.9,27.7,27.7,0,0,0-3,1.61C43,98.92,44.7,98.11,45.94,98.81Zm7.19,45c-.11-1-.17-2.16-.37-3.3-.3-1.75-1-2.23-2.76-1.84-4.12.91-8.23,1.87-12.34,2.81a2.52,2.52,0,0,0-.82.28,4.38,4.38,0,0,0-1.16,1c-.07.09.42.73.76.92,3.7,2,7.34,4.21,11.17,6,3.39,1.55,3.55,1.64,4.91-2.23A21.44,21.44,0,0,0,53.14,143.84Zm-31.33,18a18.29,18.29,0,0,0,8.57,2.92c1.8.22,2.54-.33,2.3-2.16-.63-4.77-1.41-9.52-2.16-14.28,0-.24-.3-.61-.48-.62-.38,0-.94,0-1.12.26a47.9,47.9,0,0,0-7.14,13.45A1.18,1.18,0,0,0,21.81,161.88ZM59.69,81.13c-3.56-1.8-3.56-1.8-6.14.85-.91.94-1.87,1.84-2.76,2.8A30.28,30.28,0,0,1,39.2,92.39c-1.9.73-3.86,1.31-5.78,2-.54.2-1.45,0-1.49,1.1a24.47,24.47,0,0,0,4.68,1c.88,0,1.76-.9,2.68-1.29A11,11,0,0,1,41,94.85a23.81,23.81,0,0,0,2.93-.78,39,39,0,0,0,12.47-7.92A10.76,10.76,0,0,0,59.69,81.13Zm-23.4,58.55c2-.44,4.6-.91,7.14-1.58,2.32-.61,4.87-.79,6.53-2.91-.94-2.44-3-3.94-5-5.33a24.07,24.07,0,0,0-4.7-2.27,1.57,1.57,0,0,0-1.42.6c-1.46,3.34-2.85,6.73-4.2,10.12C34.33,139.09,34.88,139.74,36.28,139.68Zm-22.6-5.27c-2.17,2.21-3.11,4.79-4,7.38a7.15,7.15,0,0,0-.21,2.16,1.31,1.31,0,0,0,1.64,1.46c3.88-.54,7.76-1.09,11.64-1.67a8.3,8.3,0,0,0,2.09-.59c.34-.15.77-.59.77-.9a2.89,2.89,0,0,0-.51-1.55A2.22,2.22,0,0,0,24,140,36,36,0,0,1,13.68,134.41Zm74.07-9a8.9,8.9,0,0,0-6.5,2.41c-3.78,3.51-4.11,5.66-1.3,9.82.62.91,1.27.95,2.11.1a62.09,62.09,0,0,0,7.59-10.1,1.24,1.24,0,0,0-.77-2C88.46,125.56,88,125.5,87.75,125.45ZM27.31,137.21c-.63-3.34-1.18-6.48-1.83-9.6-.14-.65-.8-.77-1.42-.6a19.47,19.47,0,0,0-7.87,4.54c-.66.6-.39,1.3.14,1.9,2.58,2.88,6.17,3.71,9.68,4.64C26.34,138.19,26.87,137.53,27.31,137.21Zm42.78,6.1c0-.3.05-.47,0-.58-1.53-2.8-2.73-5.88-4.69-8.34-3-3.73-6.49-7.05-9.85-10.48a2.86,2.86,0,0,0-1.92-.6c-.47,0-.94.5-1.41.78.23.34.39.85.71,1,3,1.51,4.85,4.14,6.53,6.87a24,24,0,0,1,2.71,5.44c1,3.26,3.47,4.9,6.17,6.41a1.11,1.11,0,0,0,.83.08A4.43,4.43,0,0,0,70.09,143.31Zm-39.81-2.2c.54-.52,1.06-.84,1.29-1.31.9-1.83,1.76-3.69,2.54-5.58q2.16-5.26,4.2-10.57a6.58,6.58,0,0,0,.45-2.55c0-.42-.58-.93-1-1.18-.18-.11-.86.23-1,.53-3.06,5.82-6.1,11.65-7.73,18.08a2,2,0,0,0,0,1.27A7.16,7.16,0,0,0,30.29,141.11Zm27.91-24c-1.75.13-4.08.23-6.39.49-1.88.21-3.73.57-5.58.94a1.19,1.19,0,0,0-.77.83,1.27,1.27,0,0,0,.65,1,7.71,7.71,0,0,0,2.43.75,41.13,41.13,0,0,0,9.55-.72c2.73-.41,5.5-.57,8.25-.83A3.33,3.33,0,0,0,69,118.33a1.68,1.68,0,0,0,.38-1.18c-.07-.24-.73-.48-1.08-.43A33.73,33.73,0,0,1,58.19,117.12ZM51.43,99.75a5.05,5.05,0,0,0-4.66,3.39,5.17,5.17,0,0,0,1.49,5.19c1.29.92,3.63.72,5.38-.46a5.09,5.09,0,0,0,.68-.54,4.23,4.23,0,0,0,.72-4.87C54.37,100.88,53.31,99.75,51.43,99.75ZM78.17,156.5a10.89,10.89,0,0,0,2.38-.21c.46-.15,1.12-.69,1.14-1.07.06-1.89,0-3.78-.15-5.66a1.26,1.26,0,0,0-1.73-.82c-1.18.59-2.28,1.34-3.5,1.82-1.62.63-3.34,1-5,1.61-.46.17-1.08.79-1.07,1.18a3.1,3.1,0,0,0,.84,1.85,3,3,0,0,0,1.62.57C74.61,156,76.49,156.27,78.17,156.5ZM68.52,89.87a24.7,24.7,0,0,0,4.14-6.31,1.19,1.19,0,0,0-1.06-1.84c-3.07-.1-6.14-.13-9.21-.17a.82.82,0,0,0-.53,1.3C63.94,85.08,66.06,87.28,68.52,89.87Zm-46,3.54a4.9,4.9,0,0,0-.45-.74,3.47,3.47,0,0,0-4.65-1,6.78,6.78,0,0,0-3.22,5c-.23,1.24.88,2.67,2.38,3.3a2.79,2.79,0,0,0,3.49-1c.86-1.51,1.54-3.12,2.27-4.7A3.9,3.9,0,0,0,22.5,93.4ZM78.63,143c-4.51-.12-7.07,2.18-9.33,4.94a1.62,1.62,0,0,0-.14,1.52,1.9,1.9,0,0,0,1.5.6,16,16,0,0,0,8.6-3.87,4.74,4.74,0,0,0,.82-1,1.4,1.4,0,0,0-.78-2.09A3.46,3.46,0,0,0,78.63,143ZM92,129.26a11,11,0,0,0-1.53,1.22q-2.65,3.49-5.24,7c-.61.83-1.17,1.68-1.71,2.55a3.27,3.27,0,0,0,.47,4.45c1.74-1.31,3.8-2.35,4.58-4.53C89.71,136.72,90.65,133.37,92,129.26ZM66.43,122.2a15.92,15.92,0,0,0-7.17.67c-.2.06-.36,1.17-.13,1.46,1.54,1.91,3.16,3.76,4.81,5.58a.88.88,0,0,0,1.6-.45C65.85,127.18,66.1,124.89,66.43,122.2ZM28.85,102c.59,0,.73.06.88.06,1.12,0,2.08-1.28,2-2.88,0-1-.85-1-1.58-1.08-1.15-.14-2.31-.26-3.46-.41-.43-.06-.85-.23-1.27-.28a2.63,2.63,0,0,0-2.69,2.28c0,1.12,1,1.41,1.8,1.59C26.11,101.65,27.71,101.82,28.85,102Zm61.7-21.84a2.94,2.94,0,0,0-4.05-2.91c-2.34.84-2.51,1.68-.94,3.35.59.63,1.18,1.26,1.81,1.85,1.1,1,2.07.79,2.66-.6A13.76,13.76,0,0,0,90.55,80.16Zm-48.19,27a7.85,7.85,0,0,0-1.21-.43,1.76,1.76,0,0,0-.8.13.58.58,0,0,0-.33.27c-1.18,2.62-2.39,5.24-3.47,7.9a1.54,1.54,0,0,0,.64,1.35c.38.18,1.35,0,1.48-.28C39.89,113.34,41,110.53,42.36,107.17ZM44.51,102c-.16-.21-.39-.83-.8-1a14.57,14.57,0,0,0-2.92-.7c-1.08-.18-2,.77-2.1,2.15-.06.92.59,1.21,1.34,1.34s1.7.3,2.56.38C43.67,104.26,44.34,103.59,44.51,102Zm56-45.79c-1.78,1.57-1.46,4-2.55,5.88-.22.37,0,1,.09,1.55a5.67,5.67,0,0,0,1.19-.44,4.89,4.89,0,0,0,2.37-3.45C101.86,58.38,101.86,57.13,100.55,56.19ZM27.8,127.84l.95,2.59c1.6,0,1.43-1.54,2-2.41a4,4,0,0,0,.43-1.67.89.89,0,0,0-.42-.67A2.12,2.12,0,0,0,27.8,127.84Zm67.88-4.92a9.16,9.16,0,0,0,1.83-.51,1.24,1.24,0,0,0,.54-1,1.21,1.21,0,0,0-.75-.84,4.76,4.76,0,0,0-3.93,1.17.86.86,0,0,0,0,.7C94.09,122.62,94.79,122.74,95.68,122.92ZM36.87,100.06c-.29-.43-.41-.79-.61-.85-.39-.11-1-.22-1.19,0a11.74,11.74,0,0,0-1.43,2.52c-.1.23.29.92.56,1,.49.14,1.34.16,1.53-.11A14.12,14.12,0,0,0,36.87,100.06Z"/><path class="cls-10" d="M150,150.37c1.75,0,3.49,0,5.24,0,.3,0,.86.63.8.8-.15.47-.59,1.22-.9,1.21-3.47-.12-6.95-.35-10.42-.62a.82.82,0,0,1,0-1.63c1.74-.07,3.49,0,5.23,0C150,150.21,150,150.29,150,150.37Z"/><path class="cls-10" d="M147.45,143c2.54.36,5.41.75,8.27,1.19.17,0,.41.39.41.59a1,1,0,0,1-.4.64,1.37,1.37,0,0,1-.82.2c-3.32-.32-6.63-.65-9.94-1.05-.22,0-.45-.62-.52-1,0-.16.31-.55.51-.56C145.68,142.94,146.4,143,147.45,143Z"/><path class="cls-10" d="M151,136.14c1.31,0,2.63-.07,3.93,0,.4,0,.75.61,1.12.94-.43.3-.87.86-1.3.85-2.91-.05-5.82-.22-8.73-.38-.19,0-.54-.4-.51-.46.18-.35.44-.92.69-.93,1.59-.08,3.19,0,4.79,0Z"/><path class="cls-10" d="M59.31,70.89c-2.68,0-6-3-6.47-6.34-.21-1.58.87-2.73,2.3-2.22a53,53,0,0,0,10.48,2.74,1.27,1.27,0,0,1,.9,1.71A5.88,5.88,0,0,1,65.24,69C63.86,70.44,62,70.89,59.31,70.89Zm1.5-2.25A16.8,16.8,0,0,0,62.5,68a.91.91,0,0,0,.39-.7.8.8,0,0,0-.42-.62Q59.76,66,57,65.49a.82.82,0,0,0-.68.37.94.94,0,0,0,.1.79C57.41,68.08,58.85,68.57,60.81,68.64Z"/><path class="cls-10" d="M76.62,47.33A6.07,6.07,0,0,1,82.53,54,1.88,1.88,0,0,1,82,55.11a1.94,1.94,0,0,1-1.14.38.85.85,0,0,1-.64-.49c-.22-.69-.29-1.43-.5-2.11a3.48,3.48,0,0,0-2.86-2.4,2.36,2.36,0,0,0-2.55,1.25,5,5,0,0,1-1.35,1c-.11.07-.36.13-.41.07-.18-.21-.44-.47-.43-.7A4.61,4.61,0,0,1,76.62,47.33Z"/><path class="cls-10" d="M55,47.35a5.19,5.19,0,0,1-1.38,1.17c-.27.11-.9-.43-1.23-.79s-.53-1-.89-1.48a1.3,1.3,0,0,0-1.9-.3c-1,.64-1.84,1.39-2.84,1.94a1.32,1.32,0,0,1-2-1.3,4.48,4.48,0,0,1,3.12-4.25,4.52,4.52,0,0,1,5.19,1A5.92,5.92,0,0,1,55,47.35Z"/><path class="cls-10" d="M79.7,40.18a18.19,18.19,0,0,1,3.14.27c.41.11.69.74,1,1.13-.43.34-.83.95-1.29,1-2.17.2-4.35.29-6.53.31a1.68,1.68,0,0,1-1.33-.72c-.31-.9.5-1.32,1.19-1.46C77.33,40.42,78.78,40.29,79.7,40.18Z"/><path class="cls-10" d="M61.75,52.54c.35.19.72.28.77.46a.91.91,0,0,1-.22.78,12.4,12.4,0,0,1-1.7,1.29c-.8.51-.77,1.1-.32,1.8.15.24.43.53.39.75A2.94,2.94,0,0,1,60,59a1.19,1.19,0,0,1-1.15-.16,20.36,20.36,0,0,1-2.34-3.06,1.51,1.51,0,0,1,.49-1.39C58.61,53.69,60.24,53.13,61.75,52.54Z"/><path class="cls-10" d="M54.2,35.1c-.46.31-.89.79-1.13.72-2-.67-4-1.44-6-2.23-.15-.06-.26-.52-.21-.74a1.06,1.06,0,0,1,.54-.58,1.25,1.25,0,0,1,.84-.09c1.78.6,3.56,1.21,5.31,1.9C53.8,34.18,53.94,34.68,54.2,35.1Z"/><path class="cls-10" d="M114.18,164.11a24.82,24.82,0,0,1-9.81-2.09c-4.78-2-6.83-6.16-8.24-10.74a34.2,34.2,0,0,1-.94-4.73c-.75-4.78,1.09-8.94,3.4-12.87a47.27,47.27,0,0,1,5.66-7.78c2.56-2.81,5.9-4.51,9.82-3.66a38.35,38.35,0,0,1,11.51,4.11c5.93,3.5,9.14,9,10.7,15.35.74,3-.32,6.18-1.94,8.83-3.19,5.18-7.21,9.53-12.95,12.07A16.85,16.85,0,0,1,114.18,164.11Zm2-31.36h-.15c0-2,.07-4.11,0-6.15a2.29,2.29,0,0,0-1-1.74c-2.11-.8-4.32-1-6.27.45a37.54,37.54,0,0,0-3.93,3.49c-2.09,2.14-2.11,3.11.15,5,2.89,2.47,5.94,4.77,8.94,7.11.89.69,1.8.35,1.88-.73C116,137.72,116.1,135.24,116.22,132.75Zm-5.06,12.94a1.18,1.18,0,0,1,0,.12l-9.21.41q-1.1.05-2.19.21c-1.63.23-1.78.6-1.68,2.39.16,2.76,1.63,5,2.79,7.33.67,1.38,1.71,1.62,2.82.6,3.33-3.08,6.59-6.23,9.87-9.36a.82.82,0,0,0,.25-.35,1.59,1.59,0,0,0,.09-.81.87.87,0,0,0-.57-.51C112.63,145.65,111.89,145.69,111.16,145.69Zm-9.58-12c-2.68,2.64-3.46,5.87-4,9.16-.15.84.52,1.36,1.34,1.36,2.61,0,5.23.07,7.83-.14,1.83-.15,3.83.24,5.44-1.11-.17-2.29-2.4-2.63-3.7-3.84s-2.48-2-3.73-3C103.71,135.35,102.68,134.57,101.58,133.73Zm32.77,10.22c.05-1.64-.42-2.1-1.85-1.91-2.73.35-5.47.7-8.17,1.21-1.09.21-2.68.6-3,1.36-.62,1.43,1.1,2.07,2,3s1.6,1.68,2.44,2.47a21,21,0,0,0,2.32,2c1.49,1,2.19.9,3.34-.4A13,13,0,0,0,134.35,143.95Zm-16.47,9h-.12c0,1.46-.07,2.94,0,4.39a15.47,15.47,0,0,0,.6,3,.94.94,0,0,0,1.35.7c2.41-1.37,4.83-2.75,7.12-4.3,1.12-.76,1-2,0-3-1.92-1.81-3.87-3.58-5.83-5.34a15.93,15.93,0,0,0-1.76-1.31.94.94,0,0,0-1.35.63C117.86,149.47,117.88,151.22,117.88,153Zm-2.2,2.91h.24c0-1.61.06-3.22,0-4.83a2.37,2.37,0,0,0-.73-1.38c-.13-.12-.82.14-1.11.39q-3.63,3.19-7.19,6.45a13.09,13.09,0,0,0-1.72,2,.91.91,0,0,0,.37,1.44,19.51,19.51,0,0,0,8.48,1.94,1.53,1.53,0,0,0,1.68-1.6C115.7,158.81,115.68,157.35,115.68,155.88Zm2.46-22h-.27c0,2.17,0,4.35,0,6.52,0,.3.42.64.72.84.11.07.56-.18.68-.39,1.45-2.34,2.68-4.78,4.88-6.62,5-4.18,3.5-4.06-.75-6.79a10.3,10.3,0,0,0-2-.93c-2.44-.91-3.28-.37-3.32,2.13C118.12,130.4,118.15,132.15,118.15,133.89Zm4,7.06c2.62.71,4.82-.37,7-.75,4-.7,4.34-1.62,2.1-5.05a4,4,0,0,0-1.13-1.29c-.41-.24-1.23-.41-1.51-.18-1.88,1.57-3.73,3.19-5.46,4.93A7.56,7.56,0,0,0,122.14,141Z"/></g></g></svg>