<svg xmlns="http://www.w3.org/2000/svg" viewBox="0 0 30.18 30.18"><defs><style>.cls-1{fill:#fff;}.cls-2{fill:#9cba2e;}</style></defs><title>icon_fax</title><g id="圖層_2" data-name="圖層 2"><g id="圖層_1-2" data-name="圖層 1"><path class="cls-1" d="M15.09,0A15.09,15.09,0,1,0,30.18,15.09,15.1,15.1,0,0,0,15.09,0Z"/><path class="cls-2" d="M8.62,12.43H21.56a.28.28,0,0,0,.15-.54,24.68,24.68,0,0,0-3-1H18V8.62H12.2V10.9h-.69a24.68,24.68,0,0,0-3,1A.28.28,0,0,0,8.62,12.43Zm13.09.83H8.47a1,1,0,0,0-.84.92v2.66a1,1,0,0,0,.84.91H10l-.67,3.81H20.87l-.67-3.81h1.51a1,1,0,0,0,.84-.91V14.18A1,1,0,0,0,21.71,13.26ZM10.83,20l1.06-4.95h6.4L19.35,20Z"/></g></g></svg>