<svg xmlns="http://www.w3.org/2000/svg" viewBox="0 0 30.18 30.18"><defs><style>.cls-1{fill:#fff;}.cls-2{fill:#9cba2e;}</style></defs><title>icon_mail</title><g id="圖層_2" data-name="圖層 2"><g id="圖層_1-2" data-name="圖層 1"><path class="cls-1" d="M15.09,0A15.09,15.09,0,1,0,30.18,15.09,15.1,15.1,0,0,0,15.09,0Z"/><path class="cls-2" d="M8.81,11.57l5.6,3a1.62,1.62,0,0,0,1.36,0l5.6-3c.36-.2.71-.81,0-.81H8.77C8.1,10.76,8.45,11.37,8.81,11.57Zm12.71,1.49-5.75,3a1.62,1.62,0,0,1-1.36,0l-5.75-3c-.29-.15-.29,0-.29.17v5.48a.86.86,0,0,0,.74.71h12a.87.87,0,0,0,.74-.71V13.23C21.81,13.09,21.81,12.91,21.52,13.06Z"/></g></g></svg>